<svg width="49" height="52" viewBox="0 0 49 52" fill="none" xmlns="http://www.w3.org/2000/svg">
<mask id="mask0_237_8356" style="mask-type:alpha" maskUnits="userSpaceOnUse" x="0" y="1" width="50" height="50">
<circle cx="24.5001" cy="26.2451" r="24.5" fill="#D9D9D9"/>
</mask>
<g mask="url(#mask0_237_8356)">
<g clip-path="url(#clip0_237_8356)">
<path d="M46.47 51.0129H2.53027C2.53027 51.0129 2.5687 50.5485 2.684 49.8663C2.74485 49.5237 2.82171 49.1265 2.9274 48.707C3.07792 48.0985 3.28609 47.4356 3.56151 46.8175C3.71524 46.4748 3.88818 46.1417 4.08674 45.8375C4.49027 45.2226 4.99307 44.723 5.62399 44.4699C6.17163 44.249 7.08437 43.823 8.18607 43.2818C8.33979 43.2081 8.49672 43.1313 8.65365 43.0512C8.65365 43.0512 8.65365 43.0512 8.65685 43.0512C8.9611 42.9007 9.27175 42.7437 9.59521 42.5836C9.96351 42.3979 10.3446 42.2057 10.7289 42.0104C12.564 41.0784 14.5336 40.0536 16.1349 39.2145C16.3879 39.0832 16.6313 38.9551 16.8619 38.8334C17.0156 38.7533 17.163 38.6764 17.3039 38.6028C18.5721 37.9334 19.4112 37.4883 19.4112 37.4883L19.7475 37.5619C22.87 38.2601 26.1142 38.2345 29.224 37.4883C29.224 37.4883 30.0919 37.9334 31.4017 38.606C31.5907 38.7021 31.7892 38.8046 31.9942 38.907C32.0807 38.9519 32.1704 38.9967 32.26 39.0415C33.1696 39.5059 34.2168 40.0343 35.2993 40.582C36.2601 41.0656 37.2529 41.562 38.2041 42.0328C38.6076 42.2313 39.0015 42.4267 39.3858 42.6156C41.1216 43.4643 42.6076 44.1689 43.3666 44.4732C43.9912 44.723 44.4908 45.2162 44.8943 45.8279C45.0961 46.1353 45.2754 46.4716 45.4291 46.8239C45.7045 47.4452 45.9095 48.1081 46.0632 48.7166C46.1657 49.1297 46.2426 49.5205 46.3034 49.8567C46.4219 50.5485 46.4604 51.0161 46.4604 51.0161L46.47 51.0129Z" fill="#3F2037"/>
<path d="M18.2327 39.3858C18.2327 39.8245 17.8772 40.18 17.4384 40.18C16.9997 40.18 16.6442 39.8245 16.6442 39.3858C16.6442 39.1712 16.7306 38.9758 16.8683 38.8349C17.0221 38.7549 17.1694 38.678 17.3103 38.6043C17.3519 38.5979 17.3936 38.5947 17.4384 38.5947C17.8772 38.5947 18.2327 38.9502 18.2327 39.389V39.3858Z" fill="#734669"/>
<path d="M21.762 39.387C21.762 39.8258 21.4065 40.1813 20.9677 40.1813C20.529 40.1813 20.1735 39.8258 20.1735 39.387C20.1735 38.9483 20.529 38.5928 20.9677 38.5928C21.4065 38.5928 21.762 38.9483 21.762 39.387Z" fill="#734669"/>
<path d="M25.288 39.387C25.288 39.8258 24.9325 40.1813 24.4937 40.1813C24.055 40.1813 23.6995 39.8258 23.6995 39.387C23.6995 38.9483 24.055 38.5928 24.4937 38.5928C24.9325 38.5928 25.288 38.9483 25.288 39.387Z" fill="#734669"/>
<path d="M28.8173 39.387C28.8173 39.8258 28.4618 40.1813 28.023 40.1813C27.5842 40.1813 27.2288 39.8258 27.2288 39.387C27.2288 38.9483 27.5842 38.5928 28.023 38.5928C28.4618 38.5928 28.8173 38.9483 28.8173 39.387Z" fill="#734669"/>
<path d="M32.3465 39.3869C32.3465 39.8257 31.9911 40.1811 31.5523 40.1811C31.1135 40.1811 30.7581 39.8257 30.7581 39.3869C30.7581 38.9962 31.0399 38.6727 31.4114 38.6055C31.6003 38.7015 31.7989 38.804 32.0039 38.9065C32.0903 38.9513 32.18 38.9962 32.2697 39.041C32.3177 39.1435 32.3465 39.262 32.3465 39.3837V39.3869Z" fill="#734669"/>
<path d="M11.1774 42.722C11.1774 43.1607 10.8219 43.5162 10.3831 43.5162C9.94436 43.5162 9.58887 43.1607 9.58887 42.722C9.58887 42.674 9.59207 42.6291 9.60168 42.5811C9.96998 42.3953 10.3511 42.2032 10.7354 42.0078C10.998 42.1391 11.1774 42.4081 11.1774 42.7188V42.722Z" fill="#734669"/>
<path d="M14.7034 42.723C14.7034 43.1617 14.3479 43.5172 13.9091 43.5172C13.4704 43.5172 13.1149 43.1617 13.1149 42.723C13.1149 42.2842 13.4704 41.9287 13.9091 41.9287C14.3479 41.9287 14.7034 42.2842 14.7034 42.723Z" fill="#734669"/>
<path d="M18.2327 42.723C18.2327 43.1617 17.8772 43.5172 17.4384 43.5172C16.9997 43.5172 16.6442 43.1617 16.6442 42.723C16.6442 42.2842 16.9997 41.9287 17.4384 41.9287C17.8772 41.9287 18.2327 42.2842 18.2327 42.723Z" fill="#734669"/>
<path d="M21.762 42.723C21.762 43.1617 21.4065 43.5172 20.9677 43.5172C20.529 43.5172 20.1735 43.1617 20.1735 42.723C20.1735 42.2842 20.529 41.9287 20.9677 41.9287C21.4065 41.9287 21.762 42.2842 21.762 42.723Z" fill="#734669"/>
<path d="M25.288 42.723C25.288 43.1617 24.9325 43.5172 24.4937 43.5172C24.055 43.5172 23.6995 43.1617 23.6995 42.723C23.6995 42.2842 24.055 41.9287 24.4937 41.9287C24.9325 41.9287 25.288 42.2842 25.288 42.723Z" fill="#734669"/>
<path d="M28.8173 42.723C28.8173 43.1617 28.4618 43.5172 28.023 43.5172C27.5842 43.5172 27.2288 43.1617 27.2288 42.723C27.2288 42.2842 27.5842 41.9287 28.023 41.9287C28.4618 41.9287 28.8173 42.2842 28.8173 42.723Z" fill="#734669"/>
<path d="M32.3465 42.723C32.3465 43.1617 31.9911 43.5172 31.5523 43.5172C31.1135 43.5172 30.7581 43.1617 30.7581 42.723C30.7581 42.2842 31.1135 41.9287 31.5523 41.9287C31.9911 41.9287 32.3465 42.2842 32.3465 42.723Z" fill="#734669"/>
<path d="M35.8725 42.723C35.8725 43.1617 35.5171 43.5172 35.0783 43.5172C34.6395 43.5172 34.2841 43.1617 34.2841 42.723C34.2841 42.2842 34.6395 41.9287 35.0783 41.9287C35.5171 41.9287 35.8725 42.2842 35.8725 42.723Z" fill="#734669"/>
<path d="M39.402 42.7232C39.402 43.162 39.0465 43.5175 38.6077 43.5175C38.169 43.5175 37.8135 43.162 37.8135 42.7232C37.8135 42.4286 37.9736 42.1724 38.2138 42.0347C38.6173 42.2332 39.0113 42.4286 39.3956 42.6175C39.402 42.6528 39.402 42.688 39.402 42.7232Z" fill="#734669"/>
<path d="M4.11878 46.0608C4.11878 46.4163 3.88499 46.7174 3.56152 46.8198C3.71525 46.4772 3.88819 46.1441 4.08675 45.8398C4.10597 45.9103 4.11878 45.984 4.11878 46.0608Z" fill="#734669"/>
<path d="M7.64794 46.0604C7.64794 46.4991 7.29245 46.8546 6.85369 46.8546C6.41494 46.8546 6.05945 46.4991 6.05945 46.0604C6.05945 45.6216 6.41494 45.2661 6.85369 45.2661C7.29245 45.2661 7.64794 45.6216 7.64794 46.0604Z" fill="#734669"/>
<path d="M11.1741 46.0604C11.1741 46.4991 10.8186 46.8546 10.3798 46.8546C9.94106 46.8546 9.58557 46.4991 9.58557 46.0604C9.58557 45.6216 9.94106 45.2661 10.3798 45.2661C10.8186 45.2661 11.1741 45.6216 11.1741 46.0604Z" fill="#734669"/>
<path d="M14.7032 46.0604C14.7032 46.4991 14.3477 46.8546 13.909 46.8546C13.4702 46.8546 13.1147 46.4991 13.1147 46.0604C13.1147 45.6216 13.4702 45.2661 13.909 45.2661C14.3477 45.2661 14.7032 45.6216 14.7032 46.0604Z" fill="#734669"/>
<path d="M18.2325 46.0604C18.2325 46.4991 17.877 46.8546 17.4383 46.8546C16.9995 46.8546 16.644 46.4991 16.644 46.0604C16.644 45.6216 16.9995 45.2661 17.4383 45.2661C17.877 45.2661 18.2325 45.6216 18.2325 46.0604Z" fill="#734669"/>
<path d="M21.7618 46.0604C21.7618 46.4991 21.4063 46.8546 20.9676 46.8546C20.5288 46.8546 20.1733 46.4991 20.1733 46.0604C20.1733 45.6216 20.5288 45.2661 20.9676 45.2661C21.4063 45.2661 21.7618 45.6216 21.7618 46.0604Z" fill="#734669"/>
<path d="M25.288 46.0604C25.288 46.4991 24.9325 46.8546 24.4937 46.8546C24.055 46.8546 23.6995 46.4991 23.6995 46.0604C23.6995 45.6216 24.055 45.2661 24.4937 45.2661C24.9325 45.2661 25.288 45.6216 25.288 46.0604Z" fill="#734669"/>
<path d="M28.8171 46.0604C28.8171 46.4991 28.4616 46.8546 28.0229 46.8546C27.5841 46.8546 27.2286 46.4991 27.2286 46.0604C27.2286 45.6216 27.5841 45.2661 28.0229 45.2661C28.4616 45.2661 28.8171 45.6216 28.8171 46.0604Z" fill="#734669"/>
<path d="M32.3464 46.0604C32.3464 46.4991 31.9909 46.8546 31.5522 46.8546C31.1134 46.8546 30.7579 46.4991 30.7579 46.0604C30.7579 45.6216 31.1134 45.2661 31.5522 45.2661C31.9909 45.2661 32.3464 45.6216 32.3464 46.0604Z" fill="#734669"/>
<path d="M35.8725 46.0604C35.8725 46.4991 35.5171 46.8546 35.0783 46.8546C34.6395 46.8546 34.2841 46.4991 34.2841 46.0604C34.2841 45.6216 34.6395 45.2661 35.0783 45.2661C35.5171 45.2661 35.8725 45.6216 35.8725 46.0604Z" fill="#734669"/>
<path d="M39.4017 46.0604C39.4017 46.4991 39.0462 46.8546 38.6075 46.8546C38.1687 46.8546 37.8132 46.4991 37.8132 46.0604C37.8132 45.6216 38.1687 45.2661 38.6075 45.2661C39.0462 45.2661 39.4017 45.6216 39.4017 46.0604Z" fill="#734669"/>
<path d="M42.931 46.0604C42.931 46.4991 42.5755 46.8546 42.1368 46.8546C41.698 46.8546 41.3425 46.4991 41.3425 46.0604C41.3425 45.6216 41.698 45.2661 42.1368 45.2661C42.5755 45.2661 42.931 45.6216 42.931 46.0604Z" fill="#734669"/>
<path d="M45.4385 46.8227C45.1086 46.7266 44.8684 46.4223 44.8684 46.0604C44.8684 45.9772 44.8812 45.9003 44.9036 45.8267C45.1054 46.1341 45.2847 46.4704 45.4385 46.8227Z" fill="#734669"/>
<path d="M4.11873 49.3987C4.11873 49.8375 3.76324 50.193 3.32448 50.193C3.06187 50.193 2.83128 50.0649 2.68396 49.8695C2.74481 49.5268 2.82167 49.1297 2.92736 48.7102C3.04265 48.6429 3.18036 48.6045 3.32448 48.6045C3.76324 48.6045 4.11873 48.96 4.11873 49.3987Z" fill="#734669"/>
<path d="M7.64794 49.3987C7.64794 49.8375 7.29245 50.193 6.85369 50.193C6.41494 50.193 6.05945 49.8375 6.05945 49.3987C6.05945 48.96 6.41494 48.6045 6.85369 48.6045C7.29245 48.6045 7.64794 48.96 7.64794 49.3987Z" fill="#734669"/>
<path d="M11.1741 49.3987C11.1741 49.8375 10.8186 50.193 10.3798 50.193C9.94106 50.193 9.58557 49.8375 9.58557 49.3987C9.58557 48.96 9.94106 48.6045 10.3798 48.6045C10.8186 48.6045 11.1741 48.96 11.1741 49.3987Z" fill="#734669"/>
<path d="M14.7034 49.3987C14.7034 49.8375 14.3479 50.193 13.9091 50.193C13.4704 50.193 13.1149 49.8375 13.1149 49.3987C13.1149 48.96 13.4704 48.6045 13.9091 48.6045C14.3479 48.6045 14.7034 48.96 14.7034 49.3987Z" fill="#734669"/>
<path d="M18.2325 49.3987C18.2325 49.8375 17.877 50.193 17.4383 50.193C16.9995 50.193 16.644 49.8375 16.644 49.3987C16.644 48.96 16.9995 48.6045 17.4383 48.6045C17.877 48.6045 18.2325 48.96 18.2325 49.3987Z" fill="#734669"/>
<path d="M21.7618 49.3987C21.7618 49.8375 21.4063 50.193 20.9676 50.193C20.5288 50.193 20.1733 49.8375 20.1733 49.3987C20.1733 48.96 20.5288 48.6045 20.9676 48.6045C21.4063 48.6045 21.7618 48.96 21.7618 49.3987Z" fill="#734669"/>
<path d="M25.288 49.3987C25.288 49.8375 24.9325 50.193 24.4937 50.193C24.055 50.193 23.6995 49.8375 23.6995 49.3987C23.6995 48.96 24.055 48.6045 24.4937 48.6045C24.9325 48.6045 25.288 48.96 25.288 49.3987Z" fill="#734669"/>
<path d="M28.8173 49.3987C28.8173 49.8375 28.4618 50.193 28.023 50.193C27.5842 50.193 27.2288 49.8375 27.2288 49.3987C27.2288 48.96 27.5842 48.6045 28.023 48.6045C28.4618 48.6045 28.8173 48.96 28.8173 49.3987Z" fill="#734669"/>
<path d="M32.3464 49.3987C32.3464 49.8375 31.9909 50.193 31.5522 50.193C31.1134 50.193 30.7579 49.8375 30.7579 49.3987C30.7579 48.96 31.1134 48.6045 31.5522 48.6045C31.9909 48.6045 32.3464 48.96 32.3464 49.3987Z" fill="#734669"/>
<path d="M35.8725 49.3987C35.8725 49.8375 35.5171 50.193 35.0783 50.193C34.6395 50.193 34.2841 49.8375 34.2841 49.3987C34.2841 48.96 34.6395 48.6045 35.0783 48.6045C35.5171 48.6045 35.8725 48.96 35.8725 49.3987Z" fill="#734669"/>
<path d="M39.4017 49.3987C39.4017 49.8375 39.0462 50.193 38.6075 50.193C38.1687 50.193 37.8132 49.8375 37.8132 49.3987C37.8132 48.96 38.1687 48.6045 38.6075 48.6045C39.0462 48.6045 39.4017 48.96 39.4017 49.3987Z" fill="#734669"/>
<path d="M42.931 49.3987C42.931 49.8375 42.5755 50.193 42.1368 50.193C41.698 50.193 41.3425 49.8375 41.3425 49.3987C41.3425 48.96 41.698 48.6045 42.1368 48.6045C42.5755 48.6045 42.931 48.96 42.931 49.3987Z" fill="#734669"/>
<path d="M46.313 49.8567C46.1689 50.0585 45.9319 50.193 45.6629 50.193C45.2241 50.193 44.8687 49.8375 44.8687 49.3987C44.8687 48.96 45.2241 48.6045 45.6629 48.6045C45.8134 48.6045 45.9511 48.6461 46.0728 48.7166C46.1753 49.1297 46.2522 49.5204 46.313 49.8567Z" fill="#734669"/>
<path d="M31.3025 38.5501C30.5114 40.366 29.7172 42.1818 28.9197 43.9977C27.8949 46.3388 26.8669 48.6799 25.8324 51.0146H24.0582C22.7035 48.6831 21.32 46.3708 19.9557 44.0457C19.4048 43.1074 18.854 42.1626 18.3127 41.2178C17.8515 40.4108 17.4064 39.5973 16.9836 38.7711C18.4344 38.0088 19.4144 37.4868 19.4144 37.4868L19.7507 37.5605C22.8732 38.2586 26.1175 38.233 29.2272 37.4868C29.2272 37.4868 30.0471 37.9096 31.2993 38.5501H31.3025Z" fill="#FFB8A1"/>
<path d="M28.9229 43.9983C27.8981 46.3394 26.8701 48.6805 25.8356 51.0152H24.0614C22.7067 48.6837 21.3232 46.3714 19.9589 44.0464C22.0245 44.6228 25.2464 45.0744 28.9261 43.9951L28.9229 43.9983Z" fill="#FFF7F1"/>
<path d="M29.4547 38.6067C29.4547 38.6067 28.5932 41.3161 24.6348 41.3161C20.0166 41.3161 18.9277 38.8533 18.9277 38.8533C19.3281 37.7901 19.6035 36.8037 19.7892 35.9229C20.1319 34.3088 20.18 33.0438 20.1575 32.2656L28.2729 31.9453C28.3466 32.6339 28.4715 33.4409 28.6092 34.2544C28.9775 36.4161 29.4547 38.6067 29.4547 38.6067Z" fill="#FFB8A1"/>
<path d="M24.6861 42.5668C22.2649 42.5668 20.6796 41.3241 19.7765 40.2833C18.8029 39.1592 18.4058 38.0511 18.3865 38.003C18.3577 37.9198 18.3994 37.8269 18.4826 37.7981C18.5659 37.7693 18.6588 37.8109 18.6876 37.8942C18.6908 37.9038 19.0879 38.9991 20.0231 40.0783C21.2721 41.5131 22.8382 42.2433 24.6829 42.2433C29.0768 42.2433 30.1337 37.955 30.1433 37.9102C30.1625 37.8237 30.249 37.7693 30.3355 37.7917C30.4219 37.8109 30.4764 37.8974 30.4539 37.9838C30.4443 38.0319 30.1753 39.1432 29.333 40.2705C28.5516 41.3177 27.1104 42.5635 24.6829 42.5635L24.6861 42.5668Z" fill="#FFF7F1"/>
<path d="M28.6092 34.2549C27.3506 35.1292 24.6028 36.4294 19.7925 35.9234C20.1352 34.3093 20.1832 33.0443 20.1608 32.2661L28.2762 31.9458C28.3498 32.6344 28.4747 33.4414 28.6124 34.2549H28.6092Z" fill="#3F2037"/>
<path d="M17.0637 21.6849C17.0637 21.6849 14.5529 18.2677 12.5993 20.2886C10.6457 22.3126 14.412 29.3551 17.8292 27.8211L17.0605 21.6817L17.0637 21.6849Z" fill="#FFB8A1"/>
<path d="M14.9468 26.7357C15.3324 26.7357 15.645 26.4231 15.645 26.0375C15.645 25.6519 15.3324 25.3394 14.9468 25.3394C14.5612 25.3394 14.2487 25.6519 14.2487 26.0375C14.2487 26.4231 14.5612 26.7357 14.9468 26.7357Z" fill="#FFF7F1"/>
<path d="M16.0197 25.7241C15.9332 25.7241 15.8595 25.6601 15.8467 25.5736C15.5169 23.1973 13.6305 21.7401 13.6113 21.7273C13.5344 21.6696 13.5216 21.5607 13.5793 21.4839C13.6369 21.407 13.7458 21.3942 13.8227 21.4518C13.9059 21.5127 15.8435 23.0115 16.1926 25.5255C16.2054 25.6216 16.1382 25.7081 16.0453 25.7209C16.0357 25.7209 16.0293 25.7209 16.0197 25.7209V25.7241Z" fill="#FF8A8A"/>
<path d="M15.4945 24.0203C15.4401 24.0203 15.3856 23.9946 15.3504 23.9434C15.0974 23.5719 14.3448 23.5335 14.0758 23.5495C13.9797 23.5559 13.8964 23.4822 13.8932 23.3861C13.8868 23.2901 13.9605 23.2068 14.0565 23.2036C14.1046 23.2036 15.2255 23.1395 15.6386 23.748C15.6931 23.8281 15.6707 23.9338 15.5906 23.9882C15.5618 24.0075 15.5265 24.0171 15.4945 24.0171V24.0203Z" fill="#FF8A8A"/>
<path d="M32.3594 21.6849C32.3594 21.6849 34.8703 18.2677 36.8238 20.2886C38.7774 22.3126 35.0112 29.3551 31.594 27.8211L32.3626 21.6817L32.3594 21.6849Z" fill="#FFB8A1"/>
<path d="M34.2842 26.7357C34.6698 26.7357 34.9824 26.4231 34.9824 26.0375C34.9824 25.6519 34.6698 25.3394 34.2842 25.3394C33.8986 25.3394 33.5861 25.6519 33.5861 26.0375C33.5861 26.4231 33.8986 26.7357 34.2842 26.7357Z" fill="#FFF7F1"/>
<path d="M33.3715 25.7234C33.3715 25.7234 33.3555 25.7234 33.3458 25.7234C33.2498 25.7106 33.1857 25.6241 33.1985 25.528C33.5476 23.014 35.4852 21.5151 35.5685 21.4543C35.6453 21.3966 35.7542 21.4127 35.8118 21.4863C35.8695 21.5632 35.8535 21.6721 35.7798 21.7297C35.7606 21.7457 33.8711 23.2061 33.5444 25.576C33.5316 25.6625 33.4579 25.7266 33.3715 25.7266V25.7234Z" fill="#FF8A8A"/>
<path d="M33.8966 24.0199C33.8646 24.0199 33.8294 24.0103 33.8006 23.9911C33.7205 23.9367 33.7013 23.831 33.7557 23.7509C34.1689 23.1392 35.2898 23.2033 35.3378 23.2065C35.4339 23.2129 35.5043 23.2962 35.5011 23.389C35.4947 23.4851 35.4115 23.5588 35.3186 23.5524C35.0496 23.5364 34.297 23.5748 34.0439 23.9463C34.0119 23.9943 33.9543 24.0232 33.8998 24.0232L33.8966 24.0199Z" fill="#FF8A8A"/>
<path d="M25.842 11.4406C18.4216 11.2228 14.9468 15.1941 15.5136 23.3895C15.8659 28.4817 18.6042 34.6723 24.6315 34.8132C30.915 34.9605 33.7749 27.8347 33.9094 22.5665C34.0535 17.0292 32.7372 13.327 28.1575 11.8249C27.8405 11.7224 26.1815 11.4502 25.8388 11.4406H25.842Z" fill="#FFB8A1"/>
<path d="M30.5466 8.77534C30.505 8.87782 30.457 8.98351 30.4089 9.0892C29.9477 10.0596 29.1663 11.0716 27.9909 12.09H22.1974C22.1974 12.09 20.119 10.9435 19.0333 9.07959C18.9756 8.98031 18.9212 8.88103 18.8699 8.77854C18.1141 7.27012 18.0629 5.34536 20.167 3.20922C24.3304 -1.02142 32.8525 3.11634 30.5434 8.77534H30.5466Z" fill="#FF4F4E"/>
<path d="M30.4088 9.08917C29.9477 10.0596 29.1662 11.0716 27.9909 12.09H22.1974C22.1974 12.09 20.1189 10.9435 19.0332 9.07956C19.7122 8.66643 22.1397 7.83695 24.5513 8.41663C24.5513 8.41663 27.7155 7.61918 30.4056 9.08917H30.4088Z" fill="#C42C31"/>
<path d="M16.7978 19.4021C16.7978 19.4021 24.6858 17.3621 24.6858 13.2435C24.6858 13.2435 26.4985 18.9281 32.6058 19.4021L33.9189 20.3917C33.9189 20.3917 34.6203 19.8249 35.1583 19.6743C35.1583 19.6743 36.7372 7.16498 24.6666 8.83674C24.6666 8.83674 20.9163 7.99766 17.829 10.1338C13.3582 13.2275 15.142 20.0202 15.142 20.0202L16.7978 19.4053V19.4021Z" fill="#FF4F4E"/>
<path d="M19.3023 24.9812C19.3023 25.0997 19.2062 25.1957 19.0877 25.1957C18.9692 25.1957 18.8732 25.0997 18.8732 24.9812C18.8732 24.8627 18.9692 24.7666 19.0877 24.7666C19.2062 24.7666 19.3023 24.8627 19.3023 24.9812Z" fill="#FF8A8A"/>
<path d="M20.3592 25.5027C20.3592 25.6212 20.2631 25.7172 20.1446 25.7172C20.0261 25.7172 19.9301 25.6212 19.9301 25.5027C19.9301 25.3842 20.0261 25.2881 20.1446 25.2881C20.2631 25.2881 20.3592 25.3842 20.3592 25.5027Z" fill="#FF8A8A"/>
<path d="M19.3023 26.2527C19.3023 26.3712 19.2062 26.4672 19.0877 26.4672C18.9692 26.4672 18.8732 26.3712 18.8732 26.2527C18.8732 26.1342 18.9692 26.0381 19.0877 26.0381C19.2062 26.0381 19.3023 26.1342 19.3023 26.2527Z" fill="#FF8A8A"/>
<path d="M20.9613 26.4695C20.9613 26.588 20.8652 26.684 20.7467 26.684C20.6282 26.684 20.5321 26.588 20.5321 26.4695C20.5321 26.351 20.6282 26.2549 20.7467 26.2549C20.8652 26.2549 20.9613 26.351 20.9613 26.4695Z" fill="#FF8A8A"/>
<path d="M22.0694 26.2527C22.0694 26.3712 21.9733 26.4672 21.8548 26.4672C21.7363 26.4672 21.6403 26.3712 21.6403 26.2527C21.6403 26.1342 21.7363 26.0381 21.8548 26.0381C21.9733 26.0381 22.0694 26.1342 22.0694 26.2527Z" fill="#FF8A8A"/>
<path d="M21.5666 25.1955C21.5666 25.314 21.4705 25.4101 21.352 25.4101C21.2335 25.4101 21.1375 25.314 21.1375 25.1955C21.1375 25.077 21.2335 24.981 21.352 24.981C21.4705 24.981 21.5666 25.077 21.5666 25.1955Z" fill="#FF8A8A"/>
<path d="M30.3032 24.9807C30.3032 25.0992 30.3993 25.1953 30.5178 25.1953C30.6363 25.1953 30.7324 25.0992 30.7324 24.9807C30.7324 24.8622 30.6363 24.7661 30.5178 24.7661C30.3993 24.7661 30.3032 24.8622 30.3032 24.9807Z" fill="#FF8A8A"/>
<path d="M29.2495 25.5031C29.2495 25.6216 29.3456 25.7177 29.4641 25.7177C29.5826 25.7177 29.6787 25.6216 29.6787 25.5031C29.6787 25.3847 29.5826 25.2886 29.4641 25.2886C29.3456 25.2886 29.2495 25.3847 29.2495 25.5031Z" fill="#FF8A8A"/>
<path d="M30.3032 26.2512C30.3032 26.3697 30.3993 26.4658 30.5178 26.4658C30.6363 26.4658 30.7324 26.3697 30.7324 26.2512C30.7324 26.1327 30.6363 26.0366 30.5178 26.0366C30.3993 26.0366 30.3032 26.1327 30.3032 26.2512Z" fill="#FF8A8A"/>
<path d="M28.644 26.4704C28.644 26.5889 28.7401 26.685 28.8586 26.685C28.9771 26.685 29.0732 26.5889 29.0732 26.4704C29.0732 26.3519 28.9771 26.2559 28.8586 26.2559C28.7401 26.2559 28.644 26.3519 28.644 26.4704Z" fill="#FF8A8A"/>
<path d="M27.5393 26.2512C27.5393 26.3697 27.6354 26.4658 27.7539 26.4658C27.8724 26.4658 27.9685 26.3697 27.9685 26.2512C27.9685 26.1327 27.8724 26.0366 27.7539 26.0366C27.6354 26.0366 27.5393 26.1327 27.5393 26.2512Z" fill="#FF8A8A"/>
<path d="M28.0421 25.195C28.0421 25.3135 28.1382 25.4096 28.2567 25.4096C28.3752 25.4096 28.4713 25.3135 28.4713 25.195C28.4713 25.0765 28.3752 24.9805 28.2567 24.9805C28.1382 24.9805 28.0421 25.0765 28.0421 25.195Z" fill="#FF8A8A"/>
<path d="M15.8083 24.8459C15.8083 24.8459 17.2943 21.7106 16.7979 19.4015L14.8475 18.1621C14.8475 18.1621 15.1518 22.9084 15.8083 24.8459Z" fill="#FF4F4E"/>
<path d="M33.5987 24.8466C33.5987 24.8466 32.1126 21.7113 32.6091 19.4022L34.2328 18.9282C34.2328 18.9282 34.4794 22.893 33.5987 24.8466Z" fill="#FF4F4E"/>
<path d="M18.5497 21.106C18.5497 21.106 18.95 20.1132 20.3143 19.2645C22.0341 18.1917 23.2735 20.0364 23.2735 20.0364C23.2735 20.0364 21.9252 19.5656 20.8876 19.8954C19.8724 20.2189 18.5497 21.106 18.5497 21.106Z" fill="#FF4F4E"/>
<path d="M31.2224 21.106C31.2224 21.106 30.822 20.1132 29.4577 19.2645C27.7379 18.1917 26.4985 20.0364 26.4985 20.0364C26.4985 20.0364 27.8468 19.5656 28.8845 19.8954C29.8997 20.2189 31.2224 21.106 31.2224 21.106Z" fill="#FF4F4E"/>
<path d="M25.1342 27.6989C24.8364 27.6989 24.5097 27.622 24.151 27.4651C24.0517 27.4235 23.9941 27.321 24.0069 27.2153L24.5097 23.3594C24.5257 23.2281 24.6474 23.1352 24.7787 23.1512C24.91 23.1672 25.0029 23.2889 24.9869 23.4202L24.5097 27.0936C25.0061 27.2762 25.3904 27.2601 25.7075 27.0488C25.8164 26.9751 25.9669 27.0039 26.0405 27.1128C26.1142 27.2217 26.0854 27.3722 25.9765 27.4459C25.7235 27.6156 25.4449 27.7021 25.1342 27.7021V27.6989Z" fill="#FF8A8A"/>
<path d="M24.6571 30.2491C24.4457 30.2491 24.2471 30.2363 24.0646 30.2139C22.9661 30.089 22.2007 29.6631 22.1654 29.6471C22.0501 29.583 22.0085 29.4357 22.0726 29.3204C22.1366 29.2051 22.2839 29.1635 22.3992 29.2275C22.5145 29.2916 25.2623 30.7744 27.6419 28.5742C27.738 28.4845 27.8917 28.4909 27.9814 28.587C28.071 28.6831 28.0646 28.8368 27.9685 28.9265C26.838 29.9737 25.621 30.2459 24.6571 30.2459V30.2491Z" fill="#FF8A8A"/>
<path d="M25.0765 31.6576C24.5193 31.6576 24.0709 31.5199 24.0389 31.5103C23.9108 31.4718 23.8403 31.3373 23.882 31.2092C23.9204 31.0811 24.0549 31.0107 24.183 31.0523C24.199 31.0587 25.2975 31.3854 26.0693 30.9498C26.1846 30.8857 26.332 30.9242 26.396 31.0395C26.4601 31.1548 26.4216 31.3021 26.3063 31.3661C25.9124 31.5903 25.4673 31.6544 25.0797 31.6544L25.0765 31.6576Z" fill="#FF8A8A"/>
<path d="M21.8355 22.5558C21.8483 23.2251 21.5985 23.776 21.2846 23.7792C20.9676 23.7856 20.7018 23.2444 20.6889 22.575C20.6761 21.9057 20.9259 21.3548 21.2398 21.3516C21.5569 21.3452 21.8227 21.8865 21.8355 22.5558Z" fill="#3F2037"/>
<path d="M27.8308 22.5558C27.818 23.2251 28.0678 23.776 28.3816 23.7792C28.6987 23.7856 28.9645 23.2444 28.9773 22.575C28.9901 21.9057 28.7403 21.3548 28.4265 21.3516C28.1094 21.3452 27.8436 21.8865 27.8308 22.5558Z" fill="#3F2037"/>
<path d="M20.6475 27.2618C18.6075 27.2618 16.9453 25.5997 16.9453 23.5596C16.9453 21.5196 18.6075 19.8574 20.6475 19.8574C22.6876 19.8574 24.3497 21.5196 24.3497 23.5596C24.3497 25.5997 22.6876 27.2618 20.6475 27.2618ZM20.6475 20.1777C18.7836 20.1777 17.2656 21.6957 17.2656 23.5596C17.2656 25.4235 18.7836 26.9416 20.6475 26.9416C22.5114 26.9416 24.0295 25.4235 24.0295 23.5596C24.0295 21.6957 22.5114 20.1777 20.6475 20.1777Z" fill="white"/>
<path d="M28.9775 27.2618C26.9374 27.2618 25.2753 25.5997 25.2753 23.5596C25.2753 21.5196 26.9374 19.8574 28.9775 19.8574C31.0175 19.8574 32.6797 21.5196 32.6797 23.5596C32.6797 25.5997 31.0175 27.2618 28.9775 27.2618ZM28.9775 20.1777C27.1136 20.1777 25.5955 21.6957 25.5955 23.5596C25.5955 25.4235 27.1136 26.9416 28.9775 26.9416C30.8414 26.9416 32.3594 25.4235 32.3594 23.5596C32.3594 21.6957 30.8414 20.1777 28.9775 20.1777Z" fill="white"/>
<path d="M17.5248 22.0476C17.4704 22.0476 17.4191 22.022 17.3871 21.9708C17.3775 21.9548 16.3527 20.3054 14.793 19.7129C14.7097 19.6809 14.6681 19.588 14.7001 19.508C14.7322 19.4247 14.825 19.3831 14.9051 19.4151C16.5704 20.046 17.6177 21.7338 17.6593 21.8042C17.7042 21.8811 17.6818 21.9772 17.6049 22.0252C17.5793 22.0412 17.5504 22.0476 17.5216 22.0476H17.5248Z" fill="white"/>
<path d="M32.3849 22.0473C32.356 22.0473 32.324 22.0377 32.2984 22.0217C32.2247 21.9737 32.2023 21.8744 32.2504 21.8007C32.2984 21.7271 33.4577 19.9689 35.1199 19.3379C35.2032 19.3059 35.296 19.3476 35.3249 19.4308C35.3569 19.5141 35.3153 19.607 35.232 19.6358C33.6691 20.2283 32.529 21.9577 32.5162 21.9737C32.4841 22.0217 32.4329 22.0473 32.3817 22.0473H32.3849Z" fill="white"/>
<path d="M25.4353 23.216C25.3553 23.216 25.2848 23.1551 25.2752 23.0719C25.2688 23.0238 25.208 22.5979 24.782 22.5979C24.3561 22.5979 24.3176 23.0174 24.3144 23.0655C24.308 23.1519 24.2312 23.2224 24.1447 23.2128C24.0582 23.2064 23.991 23.1327 23.9974 23.043C24.0134 22.7772 24.2023 22.2744 24.7852 22.2744C25.3681 22.2744 25.5698 22.7708 25.5987 23.0366C25.6083 23.1231 25.5442 23.2032 25.4546 23.2128C25.4482 23.2128 25.4417 23.2128 25.4385 23.2128L25.4353 23.216Z" fill="white"/>
</g>
</g>
<defs>
<clipPath id="clip0_237_8356">
<rect width="43.9397" height="49.541" fill="white" transform="translate(2.53027 1.47363)"/>
</clipPath>
</defs>
</svg>
