<svg width="49" height="52" viewBox="0 0 49 52" fill="none" xmlns="http://www.w3.org/2000/svg">
<mask id="mask0_237_8857" style="mask-type:alpha" maskUnits="userSpaceOnUse" x="0" y="1" width="49" height="50">
<circle cx="24.5" cy="26.2451" r="24.5" fill="#D9D9D9"/>
</mask>
<g mask="url(#mask0_237_8857)">
<g clip-path="url(#clip0_237_8857)">
<path d="M13.126 41.8345C13.126 41.8345 10.002 39.2046 11.8494 34.9145C13.6968 30.6245 19.0977 29.9893 24.2961 29.9893C32.2256 29.9893 41.7018 32.7173 35.3803 41.8345C35.3803 41.8345 27.5121 47.039 13.126 41.8345Z" fill="#FF9A40"/>
<path d="M20.9482 36.6944C20.8469 36.6944 20.7549 36.6299 20.7211 36.5287C20.1411 34.7335 18.5423 33.6042 18.527 33.595C18.4196 33.5213 18.3919 33.3709 18.4687 33.2635C18.5423 33.1561 18.6896 33.1285 18.797 33.2052C18.8676 33.2543 20.5431 34.4327 21.1722 36.3844C21.2121 36.5102 21.1446 36.6422 21.0188 36.6821C20.9942 36.6913 20.9697 36.6944 20.9451 36.6944H20.9482Z" fill="#E96D17"/>
<path d="M24.3115 39.886C24.2348 39.886 24.1581 39.8461 24.112 39.7755C22.0437 36.5534 15.8879 35.6205 15.8265 35.6113C15.6976 35.5929 15.6086 35.4732 15.627 35.3413C15.6455 35.2124 15.7651 35.1203 15.8971 35.1418C16.1579 35.1786 22.326 36.1146 24.514 39.5178C24.5846 39.6282 24.5539 39.7755 24.4435 39.8461C24.4036 39.8707 24.3606 39.8829 24.3146 39.8829L24.3115 39.886Z" fill="#E96D17"/>
<path d="M45.6513 50.028H3.54858C3.54858 50.028 3.97207 44.7744 6.51296 43.7586C7.54098 43.3474 9.89468 42.1752 12.3374 40.9262C15.7498 39.1801 19.334 37.2775 19.6992 37.0842C19.7207 37.0719 19.7299 37.0688 19.7299 37.0688L20.0521 37.1425C20.4541 37.2315 20.8592 37.3113 21.2643 37.3726C21.6663 37.4371 22.0683 37.4893 22.4703 37.5292C24.692 37.747 26.9414 37.5936 29.1232 37.0719C29.1263 37.0719 29.1294 37.0719 29.1324 37.0719C29.1324 37.0719 31.8851 38.4897 34.9569 40.0363C35.3497 40.2327 35.7486 40.4352 36.1475 40.6347C38.8603 41.9941 41.5791 43.3198 42.6869 43.7648C45.2278 44.7805 45.6513 50.0342 45.6513 50.0342V50.028Z" fill="#FF9A40"/>
<path d="M26.5547 43.3444C24.2378 43.3444 22.3168 42.7337 20.9512 42.1077C18.7909 41.1165 17.5603 39.9013 17.5112 39.8491C17.4253 39.7632 17.4253 39.622 17.5112 39.5361C17.5971 39.4502 17.7383 39.4502 17.8242 39.5361C17.8365 39.5484 19.0609 40.7544 21.1538 41.7118C23.0779 42.5926 26.1527 43.4395 29.8812 42.4667C30.0009 42.4361 30.1206 42.5066 30.1512 42.6263C30.1819 42.746 30.1114 42.8657 29.9917 42.8964C28.7734 43.2124 27.6226 43.3444 26.5547 43.3444Z" fill="#E96D17"/>
<path d="M25.4623 45.4771C24.7166 45.4771 23.8942 45.4034 23.0104 45.2162C22.8907 45.1917 22.814 45.0751 22.8386 44.9554C22.8631 44.8357 22.9828 44.759 23.0994 44.7835C27.4754 45.698 30.2127 43.777 30.2403 43.7586C30.3385 43.688 30.4797 43.7095 30.5502 43.8108C30.6208 43.909 30.5993 44.0501 30.4981 44.1207C30.4029 44.1882 28.5617 45.4801 25.4623 45.4801V45.4771Z" fill="#E96D17"/>
<path d="M29.3474 38.1398C29.3474 38.1398 28.5219 40.7359 24.7289 40.7359C20.3039 40.7359 19.2605 38.3761 19.2605 38.3761C19.6441 37.3572 19.908 36.4121 20.086 35.5682C20.4143 34.0215 20.4604 32.8094 20.4389 32.0637L28.215 31.7568C28.2856 32.4166 28.4053 33.1899 28.5372 33.9694C28.8901 36.0408 29.3474 38.1398 29.3474 38.1398Z" fill="#FFB8A1"/>
<path d="M28.5373 33.9694C27.3313 34.8071 24.6983 36.053 20.0891 35.5682C20.4175 34.0215 20.4635 32.8094 20.442 32.0637L28.2181 31.7568C28.2887 32.4166 28.4084 33.1899 28.5403 33.9694H28.5373Z" fill="#3F2037"/>
<path d="M17.4745 21.9245C17.4745 21.9245 15.0686 18.6502 13.1967 20.5865C11.3248 22.526 14.9336 29.2741 18.2079 27.8042L17.4714 21.9214L17.4745 21.9245Z" fill="#FFB8A1"/>
<path d="M16.3268 25.794C16.2439 25.794 16.1734 25.7326 16.1611 25.6498C15.845 23.3759 14.0375 21.9765 14.0191 21.9643C13.9455 21.909 13.9332 21.8047 13.9884 21.731C14.0437 21.6574 14.148 21.6451 14.2217 21.7003C14.3014 21.7586 16.158 23.1948 16.4925 25.6037C16.5048 25.6958 16.4403 25.7787 16.3513 25.7909C16.3421 25.7909 16.336 25.7909 16.3268 25.7909V25.794Z" fill="#FF8A8A"/>
<path d="M15.8234 24.1618C15.7713 24.1618 15.7191 24.1373 15.6853 24.0882C15.4429 23.7322 14.7218 23.6954 14.464 23.7107C14.3719 23.7169 14.2921 23.6463 14.2891 23.5542C14.2829 23.4622 14.3535 23.3824 14.4456 23.3793C14.4916 23.3793 15.5657 23.3179 15.9615 23.901C16.0137 23.9777 15.9922 24.079 15.9155 24.1311C15.8879 24.1495 15.8541 24.1588 15.8234 24.1588V24.1618Z" fill="#FF8A8A"/>
<path d="M32.1306 21.9245C32.1306 21.9245 34.5365 18.6502 36.4084 20.5865C38.2803 22.526 34.6715 29.2741 31.3972 27.8042L32.1337 21.9214L32.1306 21.9245Z" fill="#FFB8A1"/>
<path d="M33.2784 25.7939C33.2784 25.7939 33.263 25.7939 33.2538 25.7939C33.1617 25.7816 33.1004 25.6988 33.1126 25.6067C33.4471 23.1978 35.3037 21.7616 35.3835 21.7033C35.4571 21.6481 35.5615 21.6634 35.6167 21.734C35.672 21.8077 35.6566 21.912 35.586 21.9672C35.5676 21.9795 33.7571 23.3819 33.4441 25.6528C33.4318 25.7356 33.3612 25.797 33.2784 25.797V25.7939Z" fill="#FF8A8A"/>
<path d="M33.7817 24.1616C33.751 24.1616 33.7172 24.1524 33.6896 24.134C33.6129 24.0818 33.5945 23.9805 33.6466 23.9038C34.0425 23.3177 35.1165 23.3791 35.1626 23.3821C35.2546 23.3883 35.3222 23.4681 35.3191 23.557C35.3129 23.6491 35.2332 23.7197 35.1442 23.7136C34.8864 23.6982 34.1652 23.735 33.9228 24.091C33.8921 24.137 33.8369 24.1647 33.7847 24.1647L33.7817 24.1616Z" fill="#FF8A8A"/>
<path d="M26.831 12.3782C20.1013 10.7364 14.0099 16.8217 15.5258 23.579C16.5968 28.3508 18.9475 34.3655 24.7259 34.5036C30.7467 34.6448 33.1617 28.09 34.021 23.1156C34.8066 18.5647 32.1552 14.0813 27.7639 12.6421C27.4601 12.5439 27.1471 12.4518 26.831 12.3751V12.3782Z" fill="#FFB8A1"/>
<path d="M25.2076 27.6969C24.9223 27.6969 24.6092 27.6232 24.2625 27.4728C24.1643 27.4299 24.109 27.3286 24.1213 27.2243L24.6031 23.5295C24.6215 23.4007 24.7381 23.3086 24.8701 23.3239C24.999 23.3423 25.091 23.459 25.0757 23.5909L24.6185 27.1046C25.091 27.2764 25.4562 27.2611 25.7569 27.0586C25.8644 26.9849 26.0116 27.0125 26.0853 27.123C26.1589 27.2304 26.1313 27.3777 26.0209 27.4514C25.7784 27.614 25.5084 27.6969 25.2107 27.6969H25.2076Z" fill="#FF8A8A"/>
<path d="M24.7657 30.1335C23.4062 30.1335 22.3752 29.5719 22.3598 29.5627C22.2463 29.4983 22.2033 29.354 22.2678 29.2405C22.3322 29.1269 22.4764 29.084 22.59 29.1484C22.7035 29.2129 25.3303 30.6276 27.6042 28.5255C27.6994 28.4365 27.8497 28.4426 27.9387 28.5378C28.0277 28.6329 28.0216 28.7833 27.9265 28.8722C26.8739 29.8481 25.7354 30.1335 24.7657 30.1335Z" fill="#FF8A8A"/>
<path d="M25.1524 31.49C24.6154 31.49 24.1857 31.358 24.155 31.3488C24.0292 31.3089 23.9617 31.177 23.9985 31.0512C24.0384 30.9253 24.1704 30.8578 24.2962 30.8946C24.2962 30.8946 25.358 31.2169 26.0975 30.7964C26.2111 30.732 26.3553 30.7719 26.4198 30.8854C26.4842 30.999 26.4443 31.1432 26.3308 31.2077C25.9533 31.4225 25.5268 31.4869 25.1493 31.4869L25.1524 31.49Z" fill="#FF8A8A"/>
<path d="M20.1442 20.9489C20.6537 20.6758 21.3994 20.3352 22.1266 20.2309C22.5164 20.1725 22.7619 19.7828 22.6268 19.4115L22.5992 19.3379C22.5041 19.0709 22.2371 18.9021 21.9548 18.9328C21.3073 19.0003 20.1627 19.2274 19.4139 19.9731C19.2513 20.1357 19.196 20.3751 19.2635 20.593C19.3801 20.9612 19.8006 21.1331 20.1412 20.952L20.1442 20.9489Z" fill="#3F2037"/>
<path d="M29.958 20.9489C29.4485 20.6758 28.7028 20.3352 27.9756 20.2309C27.5858 20.1725 27.3403 19.7828 27.4754 19.4115L27.503 19.3379C27.5981 19.0709 27.8651 18.9021 28.1474 18.9328C28.7949 19.0003 29.9395 19.2274 30.6883 19.9731C30.8509 20.1357 30.9062 20.3751 30.8387 20.593C30.7221 20.9612 30.3016 21.1331 29.961 20.952L29.958 20.9489Z" fill="#3F2037"/>
<g opacity="0.5">
<path d="M21.8811 25.2142C21.8811 25.7972 20.8071 26.2668 19.4814 26.2668C18.1557 26.2668 17.0817 25.7942 17.0817 25.2142C17.0817 24.6342 18.1557 24.1616 19.4814 24.1616C20.8071 24.1616 21.8811 24.6342 21.8811 25.2142Z" fill="#FF8A8A"/>
</g>
<g opacity="0.5">
<path d="M33.1679 25.2142C33.1679 25.7972 32.0938 26.2668 30.7681 26.2668C29.4425 26.2668 28.3684 25.7942 28.3684 25.2142C28.3684 24.6342 29.4425 24.1616 30.7681 24.1616C32.0938 24.1616 33.1679 24.6342 33.1679 25.2142Z" fill="#FF8A8A"/>
</g>
<path d="M15.7774 24.6191C15.7774 24.6191 14.5131 17.6531 14.9029 16.0604C15.2926 14.4678 16.1089 14.7593 16.1089 14.7593C16.1089 14.7593 9.29019 9.17117 12.6811 6.00426C15.1361 3.71193 17.9593 8.6188 17.9593 8.6188C17.9593 8.6188 16.563 3.79479 18.5485 3.13194C21.0249 2.30646 22.1481 8.08792 22.1481 8.08792C22.1481 8.08792 21.9425 3.77637 23.9556 3.85923C26.7481 3.97584 25.1738 7.20106 28.2027 8.45923C31.2315 9.7174 35.8039 10.3557 34.156 15.4283C34.156 15.4283 36.3777 15.3301 33.6128 24.3828C32.9009 23.3916 32.5418 22.1856 32.6001 20.9673C32.6462 20.0313 32.64 18.945 32.4498 18.2791C32.4498 18.2791 30.719 17.07 30.7988 15.2994C30.7988 15.2994 24.7043 18.9174 19.0794 15.6922C19.0794 15.6922 19.4323 17.7758 17.6647 18.0919C17.6647 18.0919 17.0878 19.4483 16.8945 21.3754C16.784 22.4925 16.428 23.5726 15.8296 24.5239L15.7744 24.6129L15.7774 24.6191Z" fill="#3F2037"/>
<path d="M33.5944 12.2489C33.5944 12.2489 34.558 8.96233 36.1138 9.80316C37.2247 10.4046 34.6378 12.9056 34.6378 12.9056C34.6378 12.9056 36.8135 11.7303 37.8876 12.5589C38.9616 13.3874 36.1108 14.3663 34.4721 14.0871C32.8303 13.8078 33.5975 12.252 33.5975 12.252L33.5944 12.2489Z" fill="#3F2037"/>
<path d="M22.0468 22.7623C22.0591 23.4037 21.8197 23.9315 21.519 23.9345C21.2152 23.9407 20.9605 23.4221 20.9482 22.7807C20.9359 22.1393 21.1753 21.6115 21.476 21.6085C21.7798 21.6023 22.0345 22.1209 22.0468 22.7623Z" fill="#3F2037"/>
<path d="M27.7915 22.7623C27.7792 23.4037 28.0186 23.9315 28.3193 23.9345C28.6231 23.9407 28.8778 23.4221 28.8901 22.7807C28.9023 22.1393 28.663 21.6115 28.3622 21.6085C28.0584 21.6023 27.8037 22.1209 27.7915 22.7623Z" fill="#3F2037"/>
<path d="M18.4472 43.4243V50.0282H17.9716V43.4243C17.9716 43.3721 17.99 43.323 18.0176 43.2831C18.0606 43.2248 18.1311 43.188 18.2078 43.188C18.3214 43.188 18.4196 43.2708 18.4411 43.3783C18.4441 43.3936 18.4472 43.4089 18.4472 43.4243Z" fill="white"/>
<path d="M31.6335 43.4243V50.0282H31.1578V43.4243C31.1578 43.2923 31.2652 43.188 31.3941 43.188C31.4985 43.188 31.5875 43.2555 31.6181 43.3506C31.6273 43.3721 31.6304 43.3997 31.6304 43.4243H31.6335Z" fill="white"/>
</g>
</g>
<defs>
<clipPath id="clip0_237_8857">
<rect width="42.1027" height="46.9759" fill="white" transform="translate(3.54858 3.05225)"/>
</clipPath>
</defs>
</svg>
