<svg width="38" height="31" viewBox="0 0 38 31" fill="none" xmlns="http://www.w3.org/2000/svg">
<path d="M33.7169 15.8439C33.7169 24.1783 26.9584 30.9337 18.6202 30.9337C10.282 30.9337 3.5235 24.1783 3.5235 15.8439C3.5235 7.50959 10.282 0.75415 18.6202 0.75415C26.9584 0.75415 33.7169 7.50959 33.7169 15.8439Z" fill="#FFCC00"/>
<path d="M30.1708 6.13135C27.4013 2.84364 23.2558 0.75415 18.6202 0.75415C10.282 0.75415 3.5235 7.50959 3.5235 15.8439C3.5235 17.594 3.82466 19.2733 4.37385 20.8375C12.8862 15.7849 21.4783 10.8711 30.1708 6.13135Z" fill="#FCDC59"/>
<path d="M20.3651 30.8305C23.8286 30.4321 26.9347 28.865 29.2791 26.5305C26.9229 27.6638 24.5697 28.8089 22.2164 29.9481C21.6023 30.2462 20.9822 30.5383 20.3651 30.8335V30.8305Z" fill="#FCDC59"/>
<path d="M29.8583 15.6049C29.8583 21.9412 24.7208 27.0764 18.3815 27.0764C12.0423 27.0764 6.90472 21.9412 6.90472 15.6049C6.90472 9.2685 12.0423 4.1333 18.3815 4.1333C24.7208 4.1333 29.8583 9.2685 29.8583 15.6049Z" fill="#DA8100"/>
<path d="M30.1827 16.083C30.1827 22.3338 25.113 27.4011 18.8594 27.4011C12.6058 27.4011 7.53613 22.3338 7.53613 16.083C7.53613 9.83221 12.6058 4.76489 18.8594 4.76489C25.113 4.76489 30.1827 9.83221 30.1827 16.083Z" fill="#F0AA00"/>
<path d="M23.7369 9.64332H20.0461C20.6957 10.21 21.1652 11.0245 21.298 12.1607H23.7369V13.3944H21.3217C21.0973 15.9118 19.2873 17.5173 16.4233 17.6147C18.1683 19.6127 20.0697 22.1331 21.9476 24.6741H19.8011C18.0561 22.3544 16.4233 20.2059 14.321 17.7386V16.2069H15.5523C17.9675 16.2069 19.2637 15.0972 19.4202 13.3944H14.321V12.1607H19.3523C19.0393 10.7294 17.8553 10.0122 15.9095 10.0122H14.321V8.40674H23.7369V9.64037V9.64332Z" fill="#EA9C00"/>
<path d="M23.4242 9.32764H19.7334C20.383 9.89428 20.8525 10.7088 20.9853 11.8451H23.4242V13.0787H21.0089C20.7845 15.5961 18.9746 17.2016 16.1106 17.299C17.8556 19.297 19.757 21.8174 21.6349 24.3584H19.4883C17.7434 22.0387 16.1106 19.8902 14.0083 17.423V15.8912H15.2395C17.6548 15.8912 18.951 14.7816 19.1075 13.0787H14.0083V11.8451H19.0396C18.7266 10.4137 17.5426 9.69655 15.5968 9.69655H14.0083V8.09106H23.4242V9.32469V9.32764Z" fill="#FFCC00"/>
<path d="M2.84768 15.366L3.51497 16.5878L4.73735 17.2548L3.51497 17.9218L2.84768 19.1436L2.18039 17.9218L0.958008 17.2548L2.18039 16.5878L2.84768 15.366Z" fill="#FBFCE6"/>
<path d="M4.73718 3.17139L5.07673 3.7941L5.69973 4.1335L5.07673 4.47289L4.73718 5.09561L4.39763 4.47289L3.77463 4.1335L4.39763 3.7941L4.73718 3.17139Z" fill="#FBFCE6"/>
<path d="M27.9122 1.31201L28.5677 2.51613L29.7724 3.17131L28.5677 3.82944L27.9122 5.0306L27.2538 3.82944L26.0521 3.17131L27.2538 2.51613L27.9122 1.31201Z" fill="#FBFCE6"/>
<path d="M27.4484 25.7278L27.9267 26.5984L28.8007 27.0765L27.9267 27.5546L27.4484 28.4252L26.973 27.5546L26.0991 27.0765L26.973 26.5984L27.4484 25.7278Z" fill="#FBFCE6"/>
<path d="M36.1588 16.3604L36.4747 16.9388L37.0534 17.2546L36.4747 17.5704L36.1588 18.1488L35.8428 17.5704L35.2641 17.2546L35.8428 16.9388L36.1588 16.3604Z" fill="#FBFCE6"/>
<path d="M36.159 9.87646L36.2682 10.0772L36.4661 10.1863L36.2682 10.2926L36.159 10.4933L36.0498 10.2926L35.8519 10.1863L36.0498 10.0772L36.159 9.87646Z" fill="#FBFCE6"/>
<path d="M0.957767 9.87646L1.06701 10.0772L1.26484 10.1863L1.06701 10.2926L0.957767 10.4933L0.848521 10.2926L0.650696 10.1863L0.848521 10.0772L0.957767 9.87646Z" fill="#FBFCE6"/>
</svg>
