<svg width="32" height="31" viewBox="0 0 36 36" fill="none" xmlns="http://www.w3.org/2000/svg">
<path d="M35.0975 18.207C35.0975 27.8726 27.2595 35.707 17.5896 35.707C7.91966 35.707 0.081665 27.8726 0.081665 18.207C0.081665 8.54147 7.91966 0.707031 17.5896 0.707031C27.2595 0.707031 35.0975 8.54147 35.0975 18.207Z" fill="#FFCC00"/>
<path d="M30.9851 6.9431C27.7732 3.13027 22.9656 0.707031 17.5896 0.707031C7.91966 0.707031 0.081665 8.54147 0.081665 18.207C0.081665 20.2367 0.430933 22.1842 1.06783 23.9982C10.9398 18.1386 20.9042 12.4399 30.9851 6.9431Z" fill="#FCDC59"/>
<path d="M19.6133 35.5874C23.6299 35.1253 27.2321 33.3079 29.9509 30.6006C27.2184 31.9149 24.4893 33.2429 21.7603 34.564C21.048 34.9097 20.3289 35.2485 19.6133 35.5908V35.5874Z" fill="#FCDC59"/>
<path d="M30.6228 17.9298C30.6228 25.2782 24.6647 31.2336 17.3129 31.2336C9.96116 31.2336 4.00305 25.2782 4.00305 17.9298C4.00305 10.5814 9.96116 4.62598 17.3129 4.62598C24.6647 4.62598 30.6228 10.5814 30.6228 17.9298Z" fill="#DA8100"/>
<path d="M30.999 18.4852C30.999 25.7344 25.1196 31.6111 17.8672 31.6111C10.6147 31.6111 4.73535 25.7344 4.73535 18.4852C4.73535 11.2361 10.6147 5.35938 17.8672 5.35938C25.1196 5.35938 30.999 11.2361 30.999 18.4852Z" fill="#F0AA00"/>
<path d="M23.5235 11.0161H19.2433C19.9966 11.6733 20.5411 12.6179 20.6951 13.9356H23.5235V15.3663H20.7225C20.4623 18.2858 18.3633 20.1477 15.0418 20.2607C17.0655 22.5778 19.2707 25.5008 21.4485 28.4477H18.9591C16.9354 25.7575 15.0418 23.2658 12.6038 20.4044V18.6281H14.0317C16.8326 18.6281 18.3359 17.3412 18.5174 15.3663H12.6038V13.9356H18.4386C18.0756 12.2757 16.7025 11.444 14.446 11.444H12.6038V9.58203H23.5235V11.0127V11.0161Z" fill="#EA9C00"/>
<path d="M23.1609 10.6499H18.8806C19.6339 11.3071 20.1784 12.2517 20.3325 13.5694H23.1609V15.0001H20.3599C20.0996 17.9196 18.0006 19.7815 14.6791 19.8945C16.7028 22.2116 18.908 25.1346 21.0858 28.0815H18.5964C16.5727 25.3913 14.6791 22.8996 12.2411 20.0382V18.2619H13.669C16.47 18.2619 17.9732 16.975 18.1547 15.0001H12.2411V13.5694H18.0759C17.713 11.9094 16.3399 11.0777 14.0833 11.0777H12.2411V9.21582H23.1609V10.6465V10.6499Z" fill="#FFCC00"/>
</svg>
