<svg width="49" height="52" viewBox="0 0 49 52" fill="none" xmlns="http://www.w3.org/2000/svg">
<g clip-path="url(#clip0_200_9422)">
<path d="M28.8514 8.38851C28.8514 8.38851 33.17 6.50062 36.7988 9.9168C40.4275 13.3386 37.8644 15.6198 41.0669 17.311C44.2694 19.0023 41.9307 23.6883 45.666 25.8234C49.4013 27.9585 46.9391 33.2176 43.0972 33.9649C43.0972 33.9649 41.252 38.8363 37.2026 38.37C37.2026 38.37 33.456 42.5391 26.1592 39.8927L23.4727 38.7914L28.8514 8.39413V8.38851Z" fill="#333333"/>
<path d="M14.6393 9.82646C14.6393 9.82646 9.78221 10.4558 8.84557 14.7709C7.90332 19.0917 8.24545 18.0691 5.58136 20.266C2.91727 22.463 6.28804 24.952 4.16799 27.149C3.08552 28.2727 2.58075 29.1886 2.47419 30.2505C2.29471 32.1159 3.57908 33.7734 5.37945 34.2904C6.60773 34.6387 7.60607 35.8018 8.34079 37.3863C9.78782 40.5271 14.9702 39.1618 14.9702 39.1618C14.9702 39.1618 19.8665 42.0161 22.8615 39.8978C25.8565 37.7796 21.3416 8.56787 21.3416 8.56787L14.6393 9.82646Z" fill="#333333"/>
<path d="M29.8388 8.62488C29.8388 8.62488 27.9879 4.09619 21.3305 4.09619C14.6731 4.09619 12.6091 11.0465 12.6091 11.0465L22.2952 16.6653L29.8388 8.62488Z" fill="#333333"/>
<path d="M16.0413 24.7279C16.7032 26.2112 16.6471 28.5992 15.2449 29.1274C13.8428 29.6555 12.1658 27.7452 11.504 26.2674C10.8422 24.7841 11.246 23.4974 12.6481 22.9692C14.0503 22.4411 15.3795 23.2446 16.0413 24.7279Z" fill="#CA927B"/>
<path d="M12.6088 24.7502C12.6088 24.7502 14.325 24.2951 14.97 26.6269" stroke="#995342" stroke-width="0.398644" stroke-linecap="round" stroke-linejoin="round"/>
<path d="M17.7912 32.4369C17.2752 33.482 16.2039 34.2012 14.9644 34.2012C13.2257 34.2012 11.8124 32.7853 11.8124 31.0435C11.8124 29.3017 13.2257 27.8857 14.9644 27.8857" stroke="#ECB82D" stroke-width="0.622881" stroke-miterlimit="10"/>
<path d="M33.8601 24.7279C33.1983 26.2112 33.2543 28.5992 34.6565 29.1274C36.0587 29.6555 37.7356 27.7452 38.3974 26.2674C39.0593 24.7841 38.6554 23.4974 37.2533 22.9692C35.8511 22.4411 34.5219 23.2446 33.8601 24.7279Z" fill="#CA927B"/>
<path d="M37.2979 24.7502C37.2979 24.7502 35.5817 24.2951 34.9367 26.6269" stroke="#995342" stroke-width="0.398644" stroke-linecap="round" stroke-linejoin="round"/>
<path d="M32.239 32.4369C32.755 33.482 33.8263 34.2012 35.0658 34.2012C36.8044 34.2012 38.2178 32.7853 38.2178 31.0435C38.2178 29.3017 36.8044 27.8857 35.0658 27.8857" stroke="#ECB82D" stroke-width="0.622881" stroke-miterlimit="10"/>
<path d="M24.931 30.3915C31.4637 30.3915 36.7595 25.3 36.7595 19.0193C36.7595 12.7385 31.4637 7.64697 24.931 7.64697C18.3982 7.64697 13.1024 12.7385 13.1024 19.0193C13.1024 25.3 18.3982 30.3915 24.931 30.3915Z" fill="#333333"/>
<path d="M21.5265 32.8643L20.0402 47.0516H28.8513L27.3314 32.7183L21.5265 32.8643Z" fill="#CA927B"/>
<path d="M21.3302 35.37L28.1727 40.6853L27.4268 33.5439L21.3302 35.37Z" fill="#995342"/>
<path d="M24.9313 8.97363C19.4629 8.97363 14.6339 13.2101 14.6339 18.4356L14.948 24.706C14.948 24.706 15.0602 33.5949 23.4843 36.3031C24.4153 36.6009 25.4361 36.6009 26.3727 36.3031C34.7969 33.6005 34.909 24.706 34.909 24.706L35.2231 18.4356C35.2231 13.2101 30.3941 8.97363 24.9257 8.97363H24.9313Z" fill="#CA927B"/>
<path d="M22.8561 29.7339C22.8561 29.7339 22.957 31.043 24.735 31.043C26.5129 31.043 26.6138 29.7339 26.6138 29.7339H22.8561Z" fill="#DE5A62"/>
<path d="M24.3423 26.105V27.5602L25.4136 27.5715" stroke="#995342" stroke-width="0.398644" stroke-linecap="round" stroke-linejoin="round"/>
<path d="M22.6484 23.9751C22.6484 23.9751 21.9361 22.1715 20.2031 22.0872C18.47 22.0029 17.4324 23.3851 17.4324 23.3851C17.4324 23.3851 17.8699 24.919 19.9731 25.0202C22.0764 25.1213 22.6428 23.9807 22.6428 23.9807L22.6484 23.9751Z" fill="white"/>
<mask id="mask0_200_9422" style="mask-type:luminance" maskUnits="userSpaceOnUse" x="17" y="22" width="6" height="4">
<path d="M22.6484 23.9751C22.6484 23.9751 21.9361 22.1715 20.2031 22.0872C18.47 22.0029 17.4324 23.3851 17.4324 23.3851C17.4324 23.3851 17.8699 24.919 19.9731 25.0202C22.0764 25.1213 22.6428 23.9807 22.6428 23.9807L22.6484 23.9751Z" fill="white"/>
</mask>
<g mask="url(#mask0_200_9422)">
<path d="M18.3018 23.4817C18.2569 24.4369 18.9917 25.2516 19.9451 25.2966C20.8986 25.3415 21.7119 24.6055 21.7567 23.6503C21.8016 22.6951 21.0669 21.8804 20.1134 21.8354C19.1599 21.7905 18.3467 22.5266 18.3018 23.4817Z" fill="#333333"/>
</g>
<path d="M22.6484 23.9759C22.6484 23.9759 21.9978 22.1049 20.2031 22.0881C18.4083 22.0712 17.4324 23.386 17.4324 23.386" stroke="#333333" stroke-width="0.315593" stroke-linecap="round" stroke-linejoin="round"/>
<path d="M27.1298 23.9751C27.1298 23.9751 27.8421 22.1715 29.5751 22.0872C31.3082 22.0029 32.3458 23.3851 32.3458 23.3851C32.3458 23.3851 31.9083 24.919 29.8051 25.0202C27.7018 25.1213 27.1354 23.9807 27.1354 23.9807L27.1298 23.9751Z" fill="white"/>
<mask id="mask1_200_9422" style="mask-type:luminance" maskUnits="userSpaceOnUse" x="27" y="22" width="6" height="4">
<path d="M27.1298 23.9751C27.1298 23.9751 27.8421 22.1715 29.5751 22.0872C31.3082 22.0029 32.3458 23.3851 32.3458 23.3851C32.3458 23.3851 31.9083 24.919 29.8051 25.0202C27.7018 25.1213 27.1354 23.9807 27.1354 23.9807L27.1298 23.9751Z" fill="white"/>
</mask>
<g mask="url(#mask1_200_9422)">
<path d="M31.4764 23.4817C31.5213 24.4369 30.7866 25.2516 29.8331 25.2966C28.8797 25.3415 28.0664 24.6055 28.0215 23.6503C27.9767 22.6951 28.7114 21.8804 29.6649 21.8354C30.6183 21.7905 31.4316 22.5266 31.4764 23.4817Z" fill="#333333"/>
</g>
<path d="M27.1298 23.9759C27.1298 23.9759 27.7804 22.1049 29.5751 22.0881C31.3699 22.0712 32.3458 23.386 32.3458 23.386" stroke="#333333" stroke-width="0.315593" stroke-linecap="round" stroke-linejoin="round"/>
<path d="M19.4459 17.828C19.4459 17.828 17.696 18.0528 16.8491 18.5809C16.3275 18.9068 16.3387 19.508 16.9725 19.7215C17.5502 19.9126 18.7953 19.7889 19.5412 19.7047C21.3528 19.4968 22.5587 18.8225 22.4409 18.2607C22.2895 17.5358 20.405 17.6538 19.4515 17.828H19.4459Z" fill="#333333"/>
<path d="M30.0629 17.828C30.0629 17.828 31.8128 18.0528 32.6597 18.5809C33.1813 18.9068 33.1701 19.508 32.5363 19.7215C31.9586 19.9126 30.7135 19.7889 29.9676 19.7047C28.156 19.4968 26.9501 18.8225 27.0679 18.2607C27.2194 17.5358 29.1038 17.6538 30.0573 17.828H30.0629Z" fill="#333333"/>
<path d="M26.6195 29.734C26.6195 29.734 24.9032 28.7845 22.8617 29.734C22.8617 29.734 24.9257 30.6162 26.6195 29.734Z" fill="#DE5A62"/>
<path d="M22.4241 29.5718C22.4241 29.5718 24.4993 30.7798 26.9895 29.5718" stroke="#995342" stroke-width="0.398644" stroke-linecap="round" stroke-linejoin="round"/>
<path d="M29.8388 8.62423C29.8388 8.62423 29.3957 13.5799 24.2358 14.3666C18.9749 15.17 20.1135 18.4963 13.7253 17.6985C13.7253 17.6985 11.4145 14.0744 14.8414 10.3379C17.1073 7.8657 21.5325 5.79801 24.7069 6.14637C25.7726 6.26436 28.3077 8.29272 29.8388 8.62423Z" fill="#333333"/>
<path d="M29.2272 9.24316C29.2272 9.24316 26.9445 12.547 36.7596 19.0197C36.7596 19.0197 38.358 16.7385 37.298 14.6596C36.238 12.5751 29.2272 9.24316 29.2272 9.24316Z" fill="#333333"/>
</g>
<defs>
<clipPath id="clip0_200_9422">
<rect y="0.499512" width="49" height="51.4915" rx="24.5" fill="white"/>
</clipPath>
</defs>
</svg>
