<svg width="49" height="52" viewBox="0 0 49 52" fill="none" xmlns="http://www.w3.org/2000/svg">
<g clip-path="url(#clip0_232_8002)">
<mask id="mask0_232_8002" style="mask-type:luminance" maskUnits="userSpaceOnUse" x="-1" y="0" width="50" height="51">
<path d="M41.8239 43.3126C51.3918 33.5184 51.3918 17.6388 41.8239 7.84463C32.2561 -1.94958 16.7435 -1.94958 7.17568 7.84463C-2.39217 17.6388 -2.39217 33.5184 7.17568 43.3126C16.7435 53.1068 32.2561 53.1068 41.8239 43.3126Z" fill="white"/>
</mask>
<g mask="url(#mask0_232_8002)">
<path d="M51.903 59.4325H-2.69354C-0.176164 47.8644 6.58022 45.5539 6.58022 45.5539L19.6025 39.3191L24.5372 39.2729H24.6723L29.612 39.3191L42.6343 45.5539C42.6343 45.5539 49.3857 47.8644 51.903 59.4325Z" fill="white"/>
<path d="M27.5901 6.09029C27.5901 6.09029 32.1344 4.01542 33.7459 7.93461C35.2974 11.7052 29.1365 15.3017 29.1365 15.3017L27.5901 6.08516V6.09029Z" fill="#1E0B02"/>
<path d="M19.092 21.7318C19.142 23.4736 17.8008 24.9286 16.0992 24.9747C14.3975 25.0259 12.9762 23.6529 12.9312 21.9111C12.8811 20.1692 14.2224 18.7142 15.924 18.6681C17.6256 18.622 19.0469 19.9899 19.092 21.7318Z" fill="#C67D69"/>
<path d="M14.2578 21.3779C14.2578 21.3779 15.4839 20.7682 16.65 22.9456" stroke="#A8523F" stroke-width="0.324991" stroke-linecap="round" stroke-linejoin="round"/>
<path d="M33.4306 24.9792C35.1332 24.9792 36.5135 23.5663 36.5135 21.8233C36.5135 20.0804 35.1332 18.6675 33.4306 18.6675C31.7279 18.6675 30.3477 20.0804 30.3477 21.8233C30.3477 23.5663 31.7279 24.9792 33.4306 24.9792Z" fill="#C67D69"/>
<path d="M35.1672 21.3262C35.1672 21.3262 33.926 20.7524 32.8149 22.9656" stroke="#A8523F" stroke-width="0.324991" stroke-linecap="round" stroke-linejoin="round"/>
<path d="M28.6761 29.0931C28.6761 29.0931 26.9395 30.3483 25.353 30.6608C23.7665 30.9682 22.23 30.0307 22.21 30.0204C22.19 30.0102 20.3583 28.9292 20.3583 28.9292L19.6025 39.3189L19.8077 39.4931C22.4953 41.7626 26.3639 41.7883 29.0815 39.5597L29.4769 39.2318L28.6761 29.0983V29.0931Z" fill="#C67D69"/>
<path d="M19.6026 27.8384C19.6026 27.8384 21.3292 33.6275 25.308 33.5609C28.5761 33.5097 29.1016 27.8384 29.1016 27.8384H19.6026Z" fill="#1E0B02"/>
<path d="M33.0452 16.3263C33.0652 19.892 32.5798 22.9761 32.0943 25.1637C31.6189 27.3051 30.2576 28.8062 28.3258 30.0204L27.9754 30.2407C25.9335 31.5266 23.291 31.5676 21.204 30.3534C19.102 29.129 17.6256 27.5049 17.1602 25.2098C16.3194 21.0395 16.2043 16.4133 16.2043 16.4133C16.2043 16.4133 15.0182 6.76137 24.1018 6.88945C33.1803 7.01753 33.0402 16.3263 33.0402 16.3263H33.0452Z" fill="#C67D69"/>
<path d="M20.7087 19.9115C21.115 19.9115 21.4444 19.5743 21.4444 19.1584C21.4444 18.7424 21.115 18.4053 20.7087 18.4053C20.3024 18.4053 19.973 18.7424 19.973 19.1584C19.973 19.5743 20.3024 19.9115 20.7087 19.9115Z" fill="#1E0B02"/>
<path d="M27.9205 19.9115C28.3268 19.9115 28.6562 19.5743 28.6562 19.1584C28.6562 18.7424 28.3268 18.4053 27.9205 18.4053C27.5142 18.4053 27.1848 18.7424 27.1848 19.1584C27.1848 19.5743 27.5142 19.9115 27.9205 19.9115Z" fill="#1E0B02"/>
<path d="M23.6465 20.2549V22.3298H24.9577" stroke="#A8523F" stroke-width="0.324991" stroke-linecap="round" stroke-linejoin="round"/>
<path d="M17.9711 15.9778L22.7707 15.5372C22.7707 15.5372 22.3403 14.2616 20.3984 14.4716C18.4115 14.6816 17.9661 15.9829 17.9661 15.9829L17.9711 15.9778Z" fill="black"/>
<path d="M30.3478 15.9778L25.5482 15.5372C25.5482 15.5372 25.9786 14.2616 27.9205 14.4716C29.9073 14.6816 30.3528 15.9829 30.3528 15.9829L30.3478 15.9778Z" fill="black"/>
<path d="M22.0049 24.0522H26.7394C26.7394 24.0522 26.5191 25.538 24.3021 25.538C22.085 25.538 22.0049 24.0522 22.0049 24.0522Z" fill="white"/>
<path d="M16.5195 20.9824C16.5195 20.9824 17.8658 10.5466 17.2052 8.8252C17.2052 8.8252 12.6309 12.6983 16.5195 20.9824Z" fill="#1E0B02"/>
<path d="M32.7048 20.8955C32.7048 20.8955 31.1934 10.9258 31.6138 8.06201C31.6138 8.06201 36.0279 12.0683 32.7048 20.8955Z" fill="#1E0B02"/>
<path d="M31.2937 7.35052L27.1047 6.69989L26.7344 5.95703L24.5223 6.30028L22.3102 5.95703L21.9399 6.69989L17.7509 7.35052L17.1904 9.64569L17.3305 12.2892C17.3305 12.2892 17.9911 9.29219 20.2983 9.88647C20.8438 10.0248 21.4944 10.2605 22.2552 10.4193C22.9658 10.5781 23.6465 10.6498 24.2821 10.6601C24.3571 10.6601 24.4372 10.6601 24.5123 10.6601C24.5874 10.6601 24.6674 10.6601 24.7425 10.6601C25.3831 10.6498 26.0587 10.5781 26.7694 10.4193C27.5301 10.2605 28.1958 10.076 28.7263 9.88647C30.8633 9.12313 31.654 12.1509 31.654 12.1509L31.8342 9.64569L31.2737 7.35052H31.2937Z" fill="#1E0B02"/>
<path d="M31.2085 9.95832C31.2085 9.95832 28.4859 12.4482 24.9976 10.5321C24.9976 10.5321 16.1242 16.1266 13.6168 10.0352C11.5299 4.95814 20.1981 -1.93759 29.1415 5.82907L31.2085 9.9532V9.95832Z" fill="#1E0B02"/>
<path d="M19.6026 39.3185L16.6948 40.6864C16.6948 40.6864 16.6648 45.6815 24.5673 45.4202C32.6749 45.1538 32.6249 40.7633 32.6249 40.7633L29.4769 39.2314L19.6026 39.3185Z" fill="#C67D69"/>
</g>
</g>
<defs>
<clipPath id="clip0_232_8002">
<rect width="49" height="51.49" fill="white" transform="translate(-6.10352e-05 0.5)"/>
</clipPath>
</defs>
</svg>
