<svg width="98" height="325" viewBox="0 0 98 325" fill="none" xmlns="http://www.w3.org/2000/svg">
<path d="M66.4528 151.425C63.3323 151.295 60.6952 153.701 60.5634 156.778L54.4543 303.436C54.3224 306.513 56.7616 309.114 59.8821 309.244C63.0027 309.374 65.6397 306.968 65.7715 303.891L71.8808 157.233C72.0126 154.156 69.5733 151.555 66.4528 151.425Z" fill="#FDC5C5"/>
<path d="M64.8929 318.606H55.5972C53.5974 318.606 51.9933 320.015 51.9933 321.705V321.901C51.9933 323.613 53.6194 325 55.6192 325H64.8709C66.8706 325 68.4749 323.613 68.4749 321.901V321.705C68.4749 319.993 66.8706 318.628 64.8709 318.606H64.8929Z" fill="#55364F"/>
<path d="M66.3211 300.943L66.6948 310.479C66.7168 311.151 66.7387 311.823 66.7387 312.473V317.046C66.7387 317.913 65.9037 318.628 64.8928 318.628C66.8926 318.628 68.4967 320.015 68.4967 321.727V317.219C68.4967 312.906 68.0353 308.615 67.0904 304.389L66.3211 300.965V300.943Z" fill="#55364F"/>
<path d="M55.5965 318.606C54.5637 318.606 53.7507 317.891 53.7507 317.024V312.452C53.7507 311.78 53.7506 311.129 53.7945 310.458L54.1902 300.922L53.421 304.346C52.476 308.572 52.0145 312.863 52.0145 317.176V321.684C52.0145 319.994 53.6188 318.606 55.6185 318.585L55.5965 318.606Z" fill="#55364F"/>
<path d="M53.7512 312.473V317.046C53.7512 317.913 54.5862 318.628 55.5971 318.628H64.8928C65.9256 318.628 66.7387 317.913 66.7387 317.046V312.473C66.7387 311.801 66.7387 311.151 66.6948 310.479L66.3211 300.943V300.813C66.2991 296.197 63.5742 292.469 60.2559 292.469C56.9376 292.469 54.2126 296.219 54.2126 300.813V300.943L53.7951 310.479C53.7731 311.151 53.7512 311.823 53.7512 312.473Z" fill="#FDC5C5"/>
<path d="M67.222 305.689C67.6835 307.293 67.5077 309.005 66.6947 310.457C66.6947 306.816 64.2554 302.113 60.2339 302.113C56.2124 302.113 53.7731 306.816 53.7731 310.457C52.96 308.983 52.7621 307.25 53.2455 305.646C53.4653 304.887 53.7291 304.194 54.0368 303.63C55.3553 301.29 58.1901 300.271 60.2339 300.271C62.2776 300.271 65.0904 301.246 66.409 303.63C66.7166 304.194 66.9803 304.909 67.2 305.689H67.222Z" fill="#55364F"/>
<path d="M31.3357 151.425C34.4562 151.295 37.0933 153.701 37.2251 156.778L43.3343 303.436C43.4662 306.514 41.0269 309.114 37.9063 309.244C34.7858 309.374 32.1488 306.969 32.0169 303.891L25.9077 157.234C25.7758 154.156 28.2152 151.555 31.3357 151.425Z" fill="#FDC5C5"/>
<path d="M42.2138 318.606H32.9181C30.9183 318.606 29.3142 320.015 29.3142 321.705V321.9C29.3142 323.612 30.9403 324.999 32.9401 324.999H42.1918C44.1916 324.999 45.7958 323.612 45.7958 321.9V321.705C45.7958 319.993 44.1916 318.628 42.1918 318.606H42.2138Z" fill="#55364F"/>
<path d="M43.6426 300.943L44.0162 310.478C44.0382 311.15 44.0601 311.822 44.0601 312.472V317.045C44.0601 317.912 43.2251 318.627 42.2142 318.627C44.214 318.627 45.8182 320.014 45.8182 321.726V317.219C45.8182 312.906 45.3567 308.615 44.4118 304.388L43.6426 300.964V300.943Z" fill="#55364F"/>
<path d="M32.9178 318.607C31.885 318.607 31.072 317.891 31.072 317.025V312.452C31.072 311.78 31.072 311.13 31.1159 310.458L31.5115 300.922L30.7423 304.346C29.7973 308.572 29.3359 312.863 29.3359 317.176V321.684C29.3359 319.994 30.94 318.607 32.9398 318.585L32.9178 318.607Z" fill="#55364F"/>
<path d="M31.0721 312.473V317.046C31.0721 317.913 31.9071 318.628 32.918 318.628H42.2137C43.2466 318.628 44.0596 317.913 44.0596 317.046V312.473C44.0596 311.801 44.0597 311.151 44.0157 310.479L43.642 300.943V300.813C43.6201 296.197 40.8952 292.469 37.5769 292.469C34.2586 292.469 31.5337 296.219 31.5337 300.813V300.943L31.1161 310.479C31.0942 311.151 31.0721 311.823 31.0721 312.473Z" fill="#FDC5C5"/>
<path d="M30.5667 305.689C30.1052 307.293 30.281 309.005 31.0941 310.457C31.0941 306.816 33.5334 302.113 37.5549 302.113C41.5764 302.113 44.0157 306.816 44.0157 310.457C44.8287 308.983 45.0265 307.25 44.543 305.646C44.3233 304.887 44.0596 304.194 43.752 303.63C42.4334 301.29 39.5986 300.271 37.5549 300.271C35.5111 300.271 32.6983 301.246 31.3798 303.63C31.0721 304.194 30.8083 304.909 30.5885 305.689H30.5667Z" fill="#55364F"/>
<path d="M69.4634 66.8811C71.2874 66.7294 73.0455 67.7697 73.6828 69.5469L82.8905 94.5352C87.4395 106.845 90.3182 119.719 91.4609 132.787L93.7903 159.271C93.9881 161.503 92.318 163.475 90.0326 163.67C87.7691 163.865 85.7693 162.218 85.5715 159.964L83.2421 133.481C82.1433 121.127 79.4184 108.947 75.1331 97.3093L65.9254 72.3209C65.1563 70.2187 66.255 67.8781 68.3867 67.1195C68.7383 66.9895 69.09 66.9245 69.4416 66.8811H69.4634Z" fill="#FDC5C5"/>
<path d="M97.3946 168.308C97.4605 169.11 96.8672 169.804 96.0761 169.869C95.7465 169.89 95.4607 169.826 95.197 169.674C95.1311 169.63 95.0432 169.63 94.9553 169.674C94.8894 169.717 94.8235 169.782 94.8015 169.847C94.6696 170.562 94.0543 171.126 93.3072 171.191C92.8457 171.234 92.4282 171.104 92.0985 170.844C92.0326 170.801 91.9446 170.779 91.8567 170.801C91.7688 170.823 91.7248 170.909 91.7029 170.996C91.549 171.819 90.8459 172.47 89.9888 172.535C89.1977 172.6 88.3626 172.188 88.011 171.364C87.967 171.278 87.9012 171.212 87.8133 171.212C87.7254 171.212 87.6375 171.234 87.5716 171.321C87.2859 171.689 86.8683 171.949 86.3848 171.993C85.4399 172.079 84.6269 171.408 84.517 170.476C84.517 170.476 84.3192 168.807 84.2533 168.157C84.2533 168.005 84.0994 167.918 83.9676 167.918C82.0557 168.092 81.3085 165.708 81.6821 162.825C82.1216 159.444 84.7807 153.376 89.0659 153.203C92.6479 153.051 96.1639 156.107 96.7133 160.853C96.8012 161.698 96.6694 160.16 97.3726 168.33L97.3946 168.308Z" fill="#FDC5C5"/>
<path d="M84.3625 94.0148C88.9334 106.455 91.8562 119.458 93.0209 132.657L94.669 151.295C94.713 151.75 94.3613 152.162 93.8998 152.205L84.2966 153.029C83.8351 153.072 83.4176 152.725 83.3736 152.27L81.7255 133.632C80.6487 121.409 77.9676 109.359 73.7044 97.8508L64.5186 72.8625C64.0132 71.4538 64.0572 69.9367 64.6945 68.593C65.3318 67.2493 66.4745 66.209 67.9029 65.7106C68.3644 65.5372 68.8698 65.4288 69.3533 65.3855C71.9024 65.1688 74.2978 66.6858 75.1768 69.0481L84.3845 94.0364L84.3625 94.0148Z" fill="#4C2D47"/>
<path d="M28.3469 66.8815C26.5229 66.7298 24.7648 67.7701 24.1275 69.5472L14.9198 94.5356C10.3709 106.846 7.49216 119.719 6.34944 132.787L4.02005 159.271C3.82227 161.504 5.49232 163.476 7.77776 163.671C10.0412 163.866 12.0411 162.219 12.2388 159.965L14.5682 133.481C15.667 121.128 18.392 108.948 22.6772 97.3096L31.8849 72.3213C32.654 70.2191 31.5553 67.8785 29.4237 67.1199C29.0721 66.9899 28.7205 66.9248 28.3689 66.8815H28.3469Z" fill="#FDC5C5"/>
<path d="M0.394652 168.308C0.328725 169.11 0.922143 169.804 1.71326 169.869C2.04289 169.89 2.32849 169.826 2.5922 169.674C2.65812 169.63 2.74599 169.63 2.8339 169.674C2.89982 169.717 2.96576 169.782 2.98774 169.847C3.11959 170.562 3.73489 171.126 4.48206 171.191C4.94354 171.234 5.36118 171.104 5.69081 170.844C5.75674 170.801 5.84461 170.779 5.93251 170.801C6.02041 170.823 6.06438 170.909 6.08636 170.996C6.24018 171.819 6.94333 172.47 7.80037 172.535C8.59149 172.6 9.42661 172.188 9.77822 171.364C9.82217 171.278 9.88802 171.212 9.97592 171.212C10.0638 171.212 10.1518 171.234 10.2178 171.321C10.5034 171.689 10.9209 171.949 11.4044 171.993C12.3493 172.079 13.1624 171.408 13.2722 170.476C13.2722 170.476 13.4701 168.807 13.5361 168.157C13.5361 168.005 13.6898 167.918 13.8216 167.918C15.7335 168.092 16.4807 165.708 16.1072 162.825C15.6677 159.444 13.0087 153.376 8.72344 153.203C5.14144 153.051 1.62527 156.107 1.07589 160.853C0.987984 161.698 1.11984 160.16 0.394652 168.33V168.308Z" fill="#FDC5C5"/>
<path d="M13.4704 94.0149C8.87756 106.455 5.97679 119.458 4.81209 132.657L3.16393 151.295C3.11998 151.75 3.47153 152.162 3.93302 152.206L13.5364 153.029C13.9979 153.072 14.4154 152.726 14.4593 152.27L16.1075 133.632C17.1843 121.409 19.8872 109.359 24.1285 97.8509L33.3362 72.8626C33.8636 71.4539 33.7978 69.9368 33.1605 68.5931C32.5232 67.2494 31.3804 66.2092 29.952 65.7107C29.4905 65.5373 28.9852 65.429 28.5017 65.3856C25.9525 65.1689 23.5572 66.6642 22.6782 69.0482L13.4704 94.0366V94.0149Z" fill="#4C2D47"/>
<path d="M42.1699 99.0215C42.1699 99.0215 42.17 99.1082 42.1919 99.1515C42.2579 99.4116 42.3238 100.04 42.3678 100.972C42.6754 106.629 42.8072 124.638 42.8732 156.584H54.9157C54.9816 124.638 55.1136 106.629 55.4212 100.972C55.4652 100.04 55.531 99.4116 55.5969 99.1515C55.5969 99.1082 55.5969 99.0649 55.6189 99.0215C55.7508 98.3063 56.0146 97.5045 56.3881 96.876C58.1462 93.5817 63.4862 90.7643 60.2118 73.578C58.7175 65.6676 57.6627 62.5251 56.8057 61.2464C56.7178 61.1164 56.6297 61.008 56.5418 60.8996C56.4539 60.7913 56.3661 60.7262 56.2782 60.6612C55.9705 60.4445 55.6849 60.4011 55.4212 60.3795H42.4556C42.3018 60.3795 42.1479 60.4445 41.9941 60.4879C41.9282 60.5095 41.8623 60.5312 41.7964 60.5746C41.6865 60.6396 41.5766 60.7046 41.4667 60.7696C41.4228 60.813 41.3788 60.8346 41.3349 60.8779C41.2909 60.8996 41.269 60.943 41.225 60.9647C41.1591 61.0297 41.1151 61.1164 41.0492 61.1814C41.0272 61.2247 41.0053 61.2464 40.9833 61.268C40.9833 61.268 40.9833 61.2897 40.9613 61.3114C40.9393 61.3548 40.9174 61.4197 40.8735 61.4631C40.3461 62.3733 39.9724 63.8904 39.3352 66.1877C32.6326 89.9624 39.511 93.3433 41.4229 96.9193C41.8184 97.5478 42.0601 98.3496 42.1919 99.0648L42.1699 99.0215Z" fill="#4F4068"/>
<path d="M61.2004 62.3296C60.5412 61.6361 60.0137 61.0292 59.6181 60.5091C58.871 59.5338 57.6843 58.9487 56.4536 58.9487H41.3345C40.0819 58.9487 38.9172 59.5338 38.17 60.5091C37.7745 61.0292 37.2471 61.6577 36.5879 62.3296C36.5439 62.3729 36.522 62.4163 36.478 62.4596C37.7746 62.1995 39.181 61.9828 40.6753 61.7878C40.7632 61.571 40.8511 61.3759 40.917 61.2676C40.939 61.2242 40.961 61.2026 40.983 61.1592C41.0489 61.0725 41.1148 60.9859 41.2027 60.8992C41.5323 60.5741 41.9498 60.3573 42.4113 60.314H55.3769C55.6845 60.3573 55.9702 60.4007 56.2339 60.5957C56.4317 60.7258 56.6076 60.9208 56.8053 61.2026C56.9152 61.3543 57.003 61.5493 57.1129 61.7661C58.6072 61.9611 60.0137 62.1778 61.3103 62.4379C61.2663 62.3946 61.2224 62.3512 61.2004 62.3079V62.3296Z" fill="#65465E"/>
<path d="M60.783 70.3485C60.9149 71.6488 60.6511 72.9492 60.0578 74.0761C59.3106 75.4848 58.2338 76.6335 56.9592 77.4354L55.5747 78.3023C53.553 79.5593 51.9048 81.4014 50.7841 83.612L48.8942 87.4047L47.0044 83.612C45.9056 81.4014 44.2355 79.5376 42.2137 78.3023L40.8293 77.4354C39.5327 76.6335 38.4778 75.4632 37.7307 74.0761C37.1373 72.9492 36.8737 71.6488 37.0056 70.3485C37.3352 67.0759 38.9613 64.2802 41.2907 62.5464C43.5981 62.2863 46.1473 62.1129 48.8942 62.1129C51.6412 62.1129 54.1904 62.2646 56.4978 62.5464C58.8492 64.3018 60.4754 67.0976 60.783 70.3268V70.3485Z" fill="#C7B8C3"/>
<path d="M50.1023 60.4443H48.9376V60.466H47.729C44.7404 60.336 41.8615 61.2029 39.4222 62.785C40.0376 62.6983 40.6748 62.6116 41.3121 62.5249C43.6195 62.2649 46.1687 62.0914 48.9157 62.0914C51.6626 62.0914 54.2118 62.2432 56.5192 62.5249C57.1785 62.6116 57.7938 62.6766 58.4091 62.785C55.9698 61.1812 53.0909 60.336 50.1023 60.4227V60.4443Z" fill="#F3F0F3"/>
<path d="M54.564 62.8279C54.564 65.9054 52.0368 68.4195 48.8943 68.4195C45.7518 68.4195 43.2246 65.9271 43.2246 62.8279C43.2246 59.7288 45.7518 57.2365 48.8943 57.2365C52.0368 57.2365 54.564 59.7288 54.564 62.8279Z" fill="#FDC5C5"/>
<path d="M48.894 74.163C45.312 74.163 42.4113 71.3022 42.4113 67.7696V49.5864C42.4113 46.0538 45.312 43.193 48.894 43.193C52.476 43.193 55.3768 46.0538 55.3768 49.5864V67.7696C55.3768 71.3022 52.476 74.163 48.894 74.163Z" fill="#FDC5C5"/>
<path d="M48.894 43.193C45.312 43.193 42.4113 46.0538 42.4113 49.5864V58.9489C44.4769 59.6424 46.6525 60.0325 48.894 60.0325C51.1355 60.0325 53.3111 59.6424 55.3768 58.9489V49.5864C55.3768 46.0538 52.476 43.193 48.894 43.193Z" fill="#F2A5AB"/>
<path d="M71.9029 159.141C71.9029 162.218 69.3757 164.732 66.2332 164.732C63.0907 164.732 60.5635 162.24 60.5635 159.141C60.5635 156.042 63.0907 153.549 66.2332 153.549C69.3757 153.549 71.9029 156.042 71.9029 159.141Z" fill="#FDC5C5"/>
<path d="M31.5778 164.732C34.7091 164.732 37.2475 162.229 37.2475 159.141C37.2475 156.053 34.7091 153.549 31.5778 153.549C28.4465 153.549 25.9081 156.053 25.9081 159.141C25.9081 162.229 28.4465 164.732 31.5778 164.732Z" fill="#FDC5C5"/>
<path d="M73.9245 70.9121C73.9245 73.1661 72.0786 74.9866 69.7931 74.9866C67.5077 74.9866 65.6617 73.1661 65.6617 70.9121C65.6617 68.6582 67.5077 66.8377 69.7931 66.8377C72.0786 66.8377 73.9245 68.6582 73.9245 70.9121Z" fill="#FDC5C5"/>
<path d="M32.1049 70.9121C32.1049 73.1661 30.259 74.9866 27.9735 74.9866C25.6881 74.9866 23.8423 73.1661 23.8423 70.9121C23.8423 68.6582 25.6881 66.8377 27.9735 66.8377C30.259 66.8377 32.1049 68.6582 32.1049 70.9121Z" fill="#FDC5C5"/>
<path d="M69.2214 80.99C69.1994 78.3026 70.386 75.7452 72.4737 74.0114C72.8693 73.6863 73.1989 73.2746 73.4626 72.7978C74.5175 70.8039 73.7484 68.3766 71.7486 67.3363C71.397 67.163 62.9804 62.8501 48.9161 62.8501C34.8518 62.8501 26.4352 67.163 26.0836 67.3363C24.0838 68.3766 23.3147 70.8256 24.3695 72.7978C24.6332 73.2746 24.9628 73.6863 25.3583 74.0114C27.446 75.7452 28.6328 78.3026 28.6108 80.99C28.6108 82.9405 28.6328 84.9777 28.6328 87.1016C28.6328 91.1544 29.4678 94.9904 30.9402 98.3496C34.0607 108.362 35.0935 116.359 29.3799 128.951C28.0833 131.812 24.4794 136.038 24.4794 143.992C24.4794 165.513 25.8858 168.092 48.9161 168.092C71.9464 168.092 73.3528 165.513 73.3528 143.992C73.3528 136.038 69.7708 131.812 68.4523 128.951C62.7387 116.359 63.7495 108.362 66.892 98.3496C68.3644 94.9904 69.1994 91.1544 69.1994 87.1016C69.1994 84.9994 69.2434 82.9405 69.2214 80.99Z" fill="#FDC5C5"/>
<path d="M70.5175 90.374C70.5175 95.337 66.452 99.3464 61.4196 99.3464H36.3895C31.3571 99.3464 27.2916 95.337 27.2916 90.374C27.2916 85.4111 31.3571 81.4016 36.3895 81.4016H61.4196C66.452 81.4016 70.5175 85.4111 70.5175 90.374Z" fill="#FDC5C5"/>
<path d="M63.6835 95.2935H34.1266C31.5335 95.2935 29.2039 94.2315 27.5558 92.5194C28.5227 96.4421 32.1048 99.3679 36.39 99.3679H61.4201C65.7053 99.3679 69.2873 96.4421 70.2542 92.5194C68.6061 94.2315 66.2766 95.2935 63.6835 95.2935Z" fill="#F2A5AB"/>
<path d="M23.952 155.76C23.9959 169.804 24.9189 207.557 25.3144 223.205C25.3144 223.638 25.688 224.006 26.1275 224.006H71.6167C72.0562 224.006 72.4298 223.66 72.4298 223.205C72.8254 207.557 73.7483 169.804 73.7923 155.76H73.7043C73.7702 153.333 73.7923 150.58 73.7923 147.459C73.7923 140.914 72.4298 136.341 71.0673 132.83H26.6329C25.2484 136.341 23.908 140.936 23.908 147.459C23.908 150.58 23.9079 153.332 23.9958 155.781H23.908L23.952 155.76Z" fill="#43253F"/>
<path d="M40.9612 63.2401C40.5437 63.2835 40.1481 63.3485 39.7306 63.3919C37.9286 65.1257 36.698 67.5747 36.4343 70.3271C36.3024 71.6274 36.5662 72.9494 37.1595 74.0764C37.8847 75.4851 38.9614 76.6338 40.258 77.4356L41.5106 78.2158C37.3353 73.1661 39.2471 66.7511 40.9612 63.2401Z" fill="#F2A5AB"/>
<path d="M60.6515 74.0764C61.2449 72.9494 61.4865 71.6491 61.3766 70.3487C61.1129 67.553 59.8823 65.1257 58.0803 63.3919C57.6628 63.3485 57.2672 63.2835 56.8497 63.2401C58.5857 66.7511 60.4976 73.1661 56.3003 78.2158L57.5529 77.4356C58.8495 76.6338 59.9044 75.4634 60.6515 74.0764Z" fill="#F2A5AB"/>
<path d="M74.4962 69.7854C74.5182 69.8938 74.5401 70.0237 74.5621 70.1321C74.5841 70.3055 74.6061 70.4789 74.6281 70.6523C74.6281 70.7607 74.6281 70.8473 74.6281 70.9123C74.6281 70.9557 74.6281 71.0857 74.6281 71.1074C74.6281 71.2591 74.628 71.3674 74.5841 71.4975C74.5841 71.6925 74.5182 71.9093 74.4742 72.126L74.4302 72.2777C74.3204 72.6028 74.2326 72.8412 74.1007 73.0796C74.1007 73.1013 74.0347 73.188 74.0127 73.2313C73.9028 73.4264 73.749 73.6648 73.5732 73.9032C73.3534 74.1632 73.1337 74.3799 72.8919 74.575C70.9801 76.1788 69.9033 78.5194 69.9253 80.99C69.9253 82.182 69.9253 83.3957 69.9253 84.6527V85.563C70.7824 87.0367 71.2438 88.7054 71.2438 90.3959C71.2438 91.1544 71.1559 91.9129 70.9581 92.6932C70.6285 93.9935 70.0792 95.1638 69.2661 96.2258L69.2001 96.3125C69.0682 96.4859 68.9144 96.6593 68.7825 96.811L68.6947 96.9193C68.5189 97.1144 68.365 97.2661 68.2112 97.4178L68.1013 97.5261C68.1013 97.5261 67.7497 98.263 67.5739 98.6531C64.3875 108.861 63.6843 116.706 69.1342 128.691C69.3979 129.276 69.7714 129.905 70.167 130.642C71.7273 133.394 74.0787 137.555 74.0787 144.035C74.0787 144.62 74.0787 145.184 74.0787 145.747C51.4879 145.444 49.0706 135.475 49.0706 135.475C49.0706 135.475 46.6313 145.531 23.7988 145.747C23.7988 145.184 23.7988 144.62 23.7988 144.035C23.7988 137.555 26.1502 133.394 27.7104 130.642C28.1279 129.905 28.4796 129.276 28.7433 128.691C34.1932 116.706 33.49 108.882 30.2596 98.5881C30.1278 98.2846 29.7761 97.5478 29.7761 97.5478L29.6443 97.4394C29.4904 97.2877 29.3586 97.1577 29.2047 97.006L29.0729 96.8543C28.919 96.6809 28.7873 96.5292 28.6335 96.3342L28.5675 96.2475C27.7544 95.1855 27.183 93.9935 26.8753 92.7148C26.6776 91.9346 26.5678 91.1761 26.5678 90.4176C26.5678 88.7271 27.0292 87.08 27.8863 85.6063V84.7177C27.8863 83.4607 27.8643 82.2253 27.8863 81.0334C27.8863 78.5844 26.8315 76.2655 24.9416 74.64C24.1944 74.0332 23.645 73.2096 23.3593 72.2994C23.2714 71.9959 23.2274 71.7359 23.2055 71.4759C23.2055 71.3892 23.2055 71.3024 23.2055 71.2374C23.2055 71.1074 23.1835 71.0424 23.1835 70.9557C23.1835 70.869 23.1835 70.7823 23.1835 70.6739C23.1835 70.4789 23.2055 70.3489 23.2275 70.2405C23.2494 70.0671 23.2934 69.9154 23.3373 69.742C23.3813 69.5903 23.4252 69.4603 23.4912 69.3086C23.5351 69.1786 23.6011 69.0485 23.645 68.9401C23.7329 68.7668 23.8208 68.615 23.9307 68.4417C23.9746 68.355 24.0406 68.29 24.0845 68.225C24.2164 68.0299 24.3701 67.8566 24.5459 67.6832L24.6778 67.5531C24.8536 67.3798 25.0514 67.2281 25.2492 67.0763L25.403 66.9679C25.5568 66.8379 25.6668 66.7946 25.7547 66.7296C26.0184 66.5779 30.9408 64.0855 39.4234 62.8502C36.7863 64.5623 34.6547 67.1197 33.3581 70.2622C32.3253 72.7545 31.732 75.4635 31.6221 78.1943L31.4023 83.309C31.4023 83.439 31.4682 83.5257 31.5781 83.5691C31.688 83.5907 31.7979 83.5691 31.8418 83.439L32.8087 81.5102C33.5998 79.9497 34.9185 78.8011 36.4787 78.2593C37.4676 77.9342 38.5224 77.9776 39.4674 78.3894L41.2034 79.1479C43.6207 80.1881 45.6644 81.987 47.0708 84.3493L48.9388 87.4485L50.7846 84.3493C52.1911 82.0087 54.2569 80.1881 56.6522 79.1479L58.3882 78.3894C59.3551 77.9776 60.3879 77.9342 61.3768 78.2593C62.9371 78.7794 64.2557 79.9497 65.0468 81.5102L66.0136 83.439C66.0795 83.5474 66.1894 83.6124 66.2993 83.5691C66.4092 83.5257 66.4751 83.4174 66.4531 83.309L66.2334 78.1943C66.1016 75.4635 65.5303 72.7762 64.4974 70.2622C63.1789 67.1197 61.0473 64.5623 58.4322 62.8502C66.9147 64.0855 71.8372 66.5995 72.1009 66.7296C72.2107 66.7946 72.2987 66.8596 72.4085 66.9246L72.4964 66.9896C72.826 67.2064 73.0238 67.3797 73.2216 67.5748C73.4853 67.8348 73.6612 68.0516 73.793 68.2466L73.8809 68.3766C74.0347 68.5934 74.1446 68.7885 74.2325 69.0269C74.2765 69.0919 74.2984 69.1785 74.3424 69.2652C74.4083 69.4603 74.4743 69.6554 74.5182 69.8504L74.4962 69.7854Z" fill="#E9E3E8"/>
<path d="M67.9033 97.8078C67.9912 97.6344 68.0571 97.4827 68.0571 97.4827L68.167 97.3743C68.3208 97.2226 68.4746 97.0926 68.6504 96.8759L68.7384 96.7675C68.8922 96.5941 69.024 96.4424 69.1559 96.269L69.2218 96.1823C69.925 95.2721 70.4304 94.2535 70.7601 93.1482C69.1119 94.752 66.8703 95.7705 64.3651 95.7705H33.3798C30.8746 95.7705 28.6331 94.7736 26.985 93.1698C27.3146 94.2534 27.8199 95.2937 28.5232 96.204L28.5892 96.2907C28.743 96.464 28.8749 96.6375 29.0287 96.8108L29.1605 96.9625C29.3144 97.1142 29.4462 97.2659 29.6001 97.396L29.7319 97.5043C29.7319 97.5043 29.7979 97.6343 29.8858 97.8294C31.446 99.1081 33.4678 99.8666 35.6433 99.8666H62.1237C64.3213 99.8666 66.321 99.0864 67.8813 97.8294L67.9033 97.8078Z" fill="#D9CED6"/>
<path d="M47.0266 84.3059C45.6202 81.9653 43.5763 80.1448 41.159 79.1045L39.423 78.346C38.4781 77.9342 37.4233 77.8908 36.4344 78.2159C34.8741 78.7361 33.5557 79.9064 32.7645 81.4668L31.7976 83.3957L35.4895 81.7919C36.8519 81.185 38.4341 81.2934 39.7087 82.0303L48.8725 87.405L47.0046 84.3059H47.0266Z" fill="#D9CED6"/>
<path d="M65.0248 81.4668C64.2337 79.9064 62.9151 78.7577 61.3548 78.2159C60.3659 77.8908 59.3111 77.9342 58.3662 78.346L56.6302 79.1045C54.2129 80.1448 52.1692 81.9436 50.7628 84.3059L48.8948 87.405L58.0585 82.0303C59.3331 81.2718 60.9154 81.185 62.2779 81.7919L65.9698 83.3957L65.0028 81.4668H65.0248Z" fill="#D9CED6"/>
<path d="M65.024 81.4667C64.2329 79.9063 62.9143 78.7576 61.354 78.2158C60.3651 77.8907 59.3323 77.9341 58.3654 78.3458L56.6294 79.1044C54.234 80.1447 52.1684 81.9435 50.762 84.3058L48.916 87.4049L50.8058 83.6122C51.9046 81.4016 53.5747 79.5379 55.5964 78.3025L56.9809 77.4356C58.2775 76.6338 59.3324 75.4634 60.0795 74.0764C60.6729 72.9494 60.9145 71.649 60.8046 70.3487C60.475 67.0762 58.8709 64.2804 56.5195 62.5466C57.1788 62.6333 57.7941 62.6984 58.4094 62.8067C61.0464 64.5189 63.1781 67.0762 64.4746 70.2187C65.5075 72.711 66.1007 75.4201 66.2106 78.1508L66.4303 83.2655C66.4303 83.3956 66.3645 83.4823 66.2766 83.5256C66.1667 83.5473 66.0568 83.5256 65.9909 83.3956L65.024 81.4667Z" fill="#F3F0F3"/>
<path d="M40.8296 77.4356L42.214 78.3025C44.2358 79.5595 45.8839 81.4016 47.0047 83.6122L48.8945 87.4049L47.0267 84.3058C45.6202 81.9651 43.5764 80.1447 41.1591 79.1044L39.4231 78.3458C38.4782 77.9341 37.4234 77.8907 36.4345 78.2158C34.8742 78.736 33.5557 79.9063 32.7646 81.4667L31.7977 83.3956C31.7537 83.5039 31.6219 83.5689 31.534 83.5256C31.4241 83.4823 31.3582 83.3739 31.3582 83.2655L31.5779 78.1508C31.7097 75.4201 32.2812 72.7327 33.314 70.2187C34.6325 67.0762 36.764 64.5189 39.3791 62.8067C39.9944 62.72 40.6318 62.6333 41.2691 62.5466C38.9397 64.3021 37.2915 67.0979 36.9839 70.3271C36.852 71.6274 37.1158 72.9494 37.7091 74.0764C38.4343 75.4851 39.511 76.6338 40.8076 77.4356H40.8296Z" fill="#F3F0F3"/>
<path d="M42.3676 100.972C42.3236 100.04 42.2577 99.4114 42.1917 99.1513C42.1917 99.1079 42.1917 99.0646 42.1697 99.0213C41.4226 95.0985 37.489 93.2997 36.6979 85.6493C33.9509 75.3116 37.533 65.7757 40.5656 61.723C39.1591 61.8963 37.8406 62.113 36.588 62.3514C29.5778 63.6734 25.6222 65.754 25.3804 65.884C22.5896 67.3361 21.5128 70.782 22.9632 73.5344C23.996 75.5716 26.9407 76.5686 26.9188 80.9898C26.9188 82.0517 26.9188 83.157 26.9188 84.2839C26.9188 84.9124 26.7869 85.4976 26.5452 86.0611C25.9519 87.3831 25.6223 88.8352 25.6223 90.374C25.6223 93.148 26.699 95.662 28.4791 97.5475C28.8526 97.9377 29.1602 98.3928 29.358 98.8912C30.6326 102.987 31.7974 107.408 31.7974 112.22C31.7974 117.031 30.5447 122.319 27.8417 128.214C26.8748 130.425 24.062 133.914 23.095 139.939C22.3699 143.19 21.7765 148.673 21.293 155.305C21.2711 155.63 21.381 155.955 21.6007 156.193C21.8205 156.432 22.15 156.562 22.4797 156.562H41.6203C41.928 156.562 42.2357 156.432 42.4774 156.215C42.6972 155.998 42.829 155.695 42.829 155.37C42.763 124.161 42.6312 106.52 42.3236 100.928L42.3676 100.972Z" fill="#4C2D47"/>
<path d="M35.5551 129.558C35.5551 129.254 35.3133 128.994 34.9837 128.994H27.4901C26.8748 130.143 25.9737 131.595 25.0947 133.48H35.5551V129.558Z" fill="#65465E"/>
<path d="M74.6501 139.961C73.7051 133.936 70.8702 130.447 69.9033 128.236C67.2223 122.341 65.9478 117.226 65.9478 112.242C65.9478 107.257 67.1124 102.988 68.387 98.9131C68.6068 98.4147 68.9145 97.9596 69.2661 97.5695C71.0241 95.684 72.1229 93.17 72.1229 90.3959C72.1229 88.8571 71.7933 87.4051 71.1999 86.0831C70.9362 85.5196 70.8043 84.9127 70.8263 84.3059C70.8263 83.1789 70.8263 82.0737 70.8263 81.0117C70.7823 76.5905 73.7491 75.5936 74.7819 73.5564C76.2543 70.804 75.1554 67.3581 72.3646 65.906C72.1228 65.776 68.1893 63.6954 61.1571 62.3734C59.9265 62.135 58.608 61.9183 57.2016 61.7449C60.2342 65.8193 63.8382 75.3985 61.0473 85.7796C60.2342 93.3433 56.3225 95.1422 55.5973 99.0432C55.5973 99.0866 55.5753 99.1299 55.5753 99.1733C55.5094 99.4333 55.4435 100.062 55.3996 100.994C55.0919 106.585 54.9819 124.205 54.894 155.435C54.894 155.738 55.026 156.042 55.2457 156.28C55.4655 156.497 55.7732 156.627 56.1028 156.627H75.2433C75.573 156.627 75.9027 156.497 76.1224 156.259C76.3422 156.02 76.4741 155.695 76.4301 155.37C75.9466 148.738 75.3753 143.233 74.6281 140.004L74.6501 139.961Z" fill="#4C2D47"/>
<path d="M62.2549 129.558V133.48H72.6712C71.8142 131.595 70.8912 130.143 70.2758 128.994H62.8263C62.5186 128.994 62.2549 129.233 62.2549 129.558Z" fill="#65465E"/>
<path d="M42.2131 99.1732C42.2131 99.1732 42.2131 99.0866 42.1911 99.0432C41.9934 97.9379 41.5099 97.006 40.9385 96.0524H32.456C29.9948 96.0524 27.7533 95.0771 26.1271 93.495C26.6105 95.0121 27.4237 96.3992 28.5005 97.5478C28.6103 97.6778 28.7201 97.8295 28.83 97.9596C30.4122 99.3033 32.4779 100.105 34.7194 100.105H42.323C42.279 99.65 42.2571 99.3249 42.2131 99.1515V99.1732Z" fill="#43253F"/>
<path d="M68.9137 98.0251C69.0236 97.8517 69.1556 97.7 69.2874 97.5483C70.3423 96.3997 71.1554 95.0343 71.6388 93.5389C70.0126 95.0993 67.793 96.0529 65.3537 96.0529H56.8492C56.2779 97.0065 55.8164 97.9384 55.5966 99.0437C55.5966 99.087 55.5966 99.1304 55.5746 99.1737C55.5307 99.3471 55.4868 99.6722 55.4648 100.127H63.1123C65.3319 100.127 67.3535 99.3471 68.9357 98.0467L68.9137 98.0251Z" fill="#43253F"/>
<path d="M70.7813 27.5241C69.1551 27.2423 67.3531 29.7563 66.7378 33.1155C66.1225 36.4964 66.9356 39.4655 68.5398 39.7473C70.166 40.029 71.968 37.5151 72.5833 34.1558C73.1986 30.7749 72.3855 27.8058 70.7813 27.5241Z" fill="#F7A5AB"/>
<path d="M27.0061 27.5242C28.6323 27.2424 30.4343 29.7564 31.0496 33.1156C31.6649 36.4965 30.8518 39.4657 29.2476 39.7474C27.6214 40.0292 25.8195 37.5152 25.2042 34.1559C24.5889 30.775 25.4019 27.8059 27.0061 27.5242Z" fill="#F7A5AB"/>
<path d="M71.3532 38.6418C71.2653 38.1216 70.9356 37.7099 70.5181 37.7099C70.1006 37.7099 69.7709 38.1216 69.683 38.6418C69.4413 40.1588 69.1775 40.3106 69.1775 41.0474C69.1775 42.0661 69.7709 42.9112 70.5181 42.9112C71.2653 42.9112 71.8586 42.0661 71.8586 41.0474C71.8586 40.3106 71.5949 40.1372 71.3532 38.6418Z" fill="#D9CED6"/>
<path d="M28.1931 38.6416C28.1052 38.1215 27.7756 37.7097 27.358 37.7097C26.9405 37.7097 26.6109 38.1215 26.523 38.6416C26.2812 40.1587 26.0176 40.3105 26.0176 41.0473C26.0176 42.0659 26.6109 42.9111 27.358 42.9111C28.1052 42.9111 28.6985 42.0659 28.6985 41.0473C28.6985 40.3105 28.4349 40.137 28.1931 38.6416Z" fill="#D9CED6"/>
<path d="M69.9694 30.1679C69.9694 15.5823 66.1676 3.74915 48.8948 3.74915C31.6221 3.74915 27.8204 15.5823 27.8204 30.1679C27.8204 44.7535 37.2478 56.5866 48.8948 56.5866C60.5418 56.5866 69.9694 44.7535 69.9694 30.1679Z" fill="#FDC5C5"/>
<path d="M56.0583 43.4316C56.0583 43.4316 54.0585 45.6205 48.9162 45.6205C43.796 45.6205 41.8621 43.5399 41.7742 43.4316C41.4006 42.9981 40.7634 42.9548 40.3239 43.3015C39.8844 43.67 39.8183 44.2984 40.1919 44.7319C40.3018 44.8619 42.7192 47.6577 48.9162 47.6577C55.1133 47.6577 57.5525 44.8619 57.6404 44.7319C57.992 44.2984 57.9481 43.6699 57.5086 43.3232C57.0691 42.9547 56.4318 43.0198 56.0583 43.4316Z" fill="#D63E39"/>
<path d="M61.0243 35.6291C61.9473 35.6291 62.7163 34.8923 62.7163 33.9603V32.92C62.7163 32.0098 61.9693 31.2513 61.0243 31.2513C60.0794 31.2513 59.3322 31.9881 59.3322 32.92V33.9603C59.3322 34.8706 60.0794 35.6291 61.0243 35.6291Z" fill="#532442"/>
<path d="M35.0718 32.9202V33.9605C35.0718 34.8707 35.8189 35.6292 36.7638 35.6292C37.7087 35.6292 38.4559 34.8924 38.4559 33.9605V32.9202C38.4559 32.0099 37.7087 31.2514 36.7638 31.2514C35.8189 31.2514 35.0718 31.9882 35.0718 32.9202Z" fill="#532442"/>
<path d="M65.4197 28.716C62.7607 25.7902 57.7942 26.6138 57.5745 26.6355C57.2009 26.7005 56.9592 27.0472 57.0251 27.3939C57.091 27.7624 57.4426 28.0008 57.7942 27.9358C57.8381 27.9358 62.2552 27.2206 64.4088 29.6046C64.5407 29.7563 64.7164 29.8213 64.9142 29.8213C65.0681 29.8213 65.2439 29.7563 65.3538 29.6479C65.6394 29.4095 65.6395 28.9761 65.3978 28.716H65.4197Z" fill="#44243B"/>
<path d="M39.994 27.9358C40.3676 28.0008 40.6971 27.7625 40.7631 27.394C40.829 27.0256 40.5873 26.7006 40.2137 26.6355C39.9939 26.5922 35.0494 25.7903 32.3684 28.7161C32.1267 28.9761 32.1487 29.4096 32.4124 29.648C32.5443 29.7563 32.6981 29.8214 32.852 29.8214C33.0278 29.8214 33.2255 29.7564 33.3573 29.6047C35.5329 27.2424 39.928 27.9358 39.994 27.9358Z" fill="#44243B"/>
<path d="M59.2664 37.3199C58.1456 37.0165 57.0028 37.6233 56.6731 38.7286C56.3435 39.8339 56.9808 40.9825 58.0796 41.3076C58.7608 41.5027 59.6179 42.0228 59.7498 42.4129C60.0135 43.1498 60.6507 43.6266 61.3539 43.7566C61.7055 43.8216 62.0792 43.7999 62.4308 43.6699C63.5296 43.2798 64.1009 42.0878 63.7053 41.0259C62.7604 38.4035 59.596 37.4283 59.2444 37.3416L59.2664 37.3199Z" fill="#FAAEB4"/>
<path d="M38.5215 37.3199C39.6423 37.0165 40.785 37.6233 41.1146 38.7286C41.4442 39.8339 40.8069 40.9825 39.7082 41.3076C39.0269 41.5027 38.1698 42.0228 38.038 42.4129C37.7743 43.1498 37.137 43.6266 36.4338 43.7566C36.0822 43.8216 35.7087 43.7999 35.3571 43.6699C34.2583 43.2798 33.6869 42.0878 34.0824 41.0259C35.0274 38.4035 38.1918 37.4283 38.5434 37.3416L38.5215 37.3199Z" fill="#FAAEB4"/>
<path d="M49.9623 36.2838C50.4762 37.3334 51.1958 39.5616 49.9623 40.0782C48.7288 40.5949 47.8394 40.2935 47.549 40.0782" stroke="#FAAEB4" stroke-width="1.14685"/>
<path d="M34.4342 14.4772C40.7631 12.4183 48.1689 12.1583 48.8941 7.73709C49.5973 12.1366 57.025 12.4183 63.354 14.4772C69.4631 16.4494 74.8691 19.8303 73.6165 26.5705C73.9021 25.5302 74.034 24.5766 73.9461 23.7314C72.0563 4.09612 56.5855 0 52.9156 0C50.5642 0 49.3555 1.10526 48.8941 1.8638C48.4326 1.10526 47.2239 0 44.8725 0C41.2026 0 25.732 4.09612 23.8421 23.7314C23.7542 24.5766 23.886 25.5302 24.1717 26.5705C22.9191 19.852 28.325 16.4711 34.4342 14.4772Z" fill="#5A3A4E"/>
<path d="M27.8194 30.1678C27.8194 28.8675 27.8414 27.5888 27.9073 26.3318C28.8522 10.9877 48.8718 15.5822 48.8718 7.75845C48.1686 12.158 40.741 12.4397 34.4121 14.4986C28.3029 16.4708 22.8968 19.8517 24.1494 26.5918C24.7428 28.7374 26.1052 31.2081 27.9951 33.8738C27.8633 32.6818 27.7974 31.4465 27.7974 30.2112L27.8194 30.1678Z" fill="#735465"/>
<path d="M63.3543 14.477C57.0254 12.4181 49.6196 12.1581 48.8944 7.73691C48.8944 15.5823 68.914 10.9877 69.859 26.3319C69.9249 27.5889 69.9469 28.8676 69.9469 30.1679C69.9469 31.4683 69.881 32.6385 69.7491 33.8305C71.661 31.1648 73.0015 28.6942 73.5948 26.5703C74.8474 19.8518 69.4415 16.4709 63.3323 14.477H63.3543Z" fill="#735465"/>
<path d="M37.2477 87.8166C37.0939 87.3615 36.9841 86.8631 36.8742 86.3429C33.6438 75.2683 37.8411 64.9739 40.9836 61.1812C41.1154 60.9862 41.1594 60.7694 41.0934 60.5527C41.0275 60.336 40.8957 60.1409 40.6979 60.0542L40.588 59.9892C39.753 59.5558 38.742 59.7942 38.1707 60.531C37.7751 61.0512 37.2478 61.6796 36.5885 62.3515C36.4566 62.4815 36.3248 62.6332 36.1709 62.7633C35.7754 63.1534 35.4457 63.6085 35.182 64.0853C35.0721 64.2804 34.9623 64.4971 34.8305 64.7138C34.325 65.6024 33.7537 66.5776 33.1603 67.4879C32.1934 68.9833 31.1386 70.3703 30.1277 71.2372C29.82 71.4973 29.6442 71.8657 29.6442 72.2558C29.6442 72.6459 29.776 73.036 30.0617 73.3178C31.8197 75.0949 34.1931 77.5222 34.1931 77.5222L30.0397 81.9001C29.6441 82.3119 29.5343 82.9187 29.754 83.4171C30.6111 85.4544 32.9845 90.5474 36.3028 92.8664C40.5221 95.8138 41.4451 97.0275 42.2142 99.1514C41.0715 94.2317 40.0166 96.1823 37.2477 87.795V87.8166Z" fill="#65465E"/>
<path d="M67.7498 81.9001L63.5964 77.5222C63.5964 77.5222 65.9478 75.0949 67.7278 73.3178C68.0135 73.036 68.1454 72.6459 68.1454 72.2558C68.1454 71.8657 67.9475 71.4973 67.6618 71.2372C66.6729 70.3703 65.6182 68.9833 64.6293 67.4879C64.014 66.5776 63.4646 65.6024 62.9592 64.7138C62.8273 64.4971 62.7174 64.2804 62.6075 64.0853C62.3438 63.6085 62.0141 63.1534 61.6186 62.7633C61.4647 62.6116 61.333 62.4815 61.2012 62.3515C60.5419 61.658 60.0144 61.0512 59.6189 60.531C59.0475 59.7942 58.0367 59.5558 57.2016 59.9892L57.0916 60.0542C56.8939 60.1626 56.74 60.336 56.6961 60.5527C56.6521 60.7694 56.6962 61.0079 56.8061 61.1812C56.8061 61.1812 56.8061 61.1812 56.8061 61.2029V61.1812C59.9705 64.9739 64.1459 75.2683 60.9155 86.3429C60.9155 86.4079 60.8715 86.4513 60.8715 86.5163C60.7836 86.9715 60.6736 87.4049 60.5418 87.8166C57.7729 96.2039 56.718 94.2534 55.5753 99.1731C56.3225 97.0492 57.2674 95.8354 61.4867 92.888C64.805 90.569 67.2004 85.476 68.0355 83.4388C68.2553 82.9187 68.1454 82.3118 67.7498 81.9217V81.9001Z" fill="#65465E"/>
<path d="M66.2104 78.1293C66.0786 75.3986 65.5073 72.7112 64.4744 70.1972C63.1559 67.0547 61.0243 64.4974 58.4092 62.7853C57.9477 62.5035 57.5741 62.2868 57.3104 62.1351C57.1126 62.0267 56.8709 62.0701 56.739 62.2434H56.717C56.6072 62.4168 56.6292 62.6119 56.761 62.7202C58.9805 64.4757 60.4968 67.1848 60.8044 70.3056C60.9363 71.6059 60.6727 72.928 60.0793 74.055C59.3322 75.4637 58.2553 76.6123 56.9807 77.4142L55.5963 78.2811C53.5745 79.5381 51.9264 81.3802 50.8056 83.5908L48.9158 87.3835L50.7618 84.2843C52.1682 81.9437 54.2339 80.1232 56.6292 79.0829L58.3652 78.3244C59.3321 77.9126 60.3649 77.8693 61.3538 78.1943C62.9141 78.7145 64.2327 79.8848 65.0238 81.4452L65.9907 83.3741C66.0567 83.4825 66.1446 83.5475 66.2764 83.5041C66.3863 83.4608 66.4521 83.3524 66.4301 83.2441L66.2104 78.1293Z" fill="#F3F0F3"/>
<path d="M31.578 78.1293C31.7099 75.3986 32.2813 72.7112 33.3141 70.1972C34.6327 67.0547 36.7642 64.4974 39.3793 62.7853C39.8407 62.5035 40.2143 62.2868 40.478 62.1351C40.6758 62.0267 40.9176 62.0701 41.0494 62.2434H41.0714C41.1813 62.4168 41.1593 62.6119 41.0274 62.7202C38.8079 64.4757 37.2917 67.1848 36.984 70.3056C36.8522 71.6059 37.1159 72.928 37.7092 74.055C38.4564 75.4637 39.5331 76.6123 40.8077 77.4142L42.1922 78.2811C44.2139 79.5381 45.8621 81.3802 46.9828 83.5908L48.8727 87.3835L47.0268 84.2843C45.6204 81.9437 43.5546 80.1232 41.1593 79.0829L39.4233 78.3244C38.4563 77.9126 37.4235 77.8693 36.4346 78.1943C34.8744 78.7145 33.5559 79.8848 32.7648 81.4452L31.7978 83.3741C31.7319 83.4825 31.622 83.5475 31.5121 83.5041C31.4023 83.4608 31.3363 83.3524 31.3363 83.2441L31.556 78.1293H31.578Z" fill="#F3F0F3"/>
</svg>
