<svg width="97" height="325" viewBox="0 0 97 325" fill="none" xmlns="http://www.w3.org/2000/svg">
<path d="M22.5599 306.87L24.2599 297.77L34.6299 299.28L34.0699 307.82C34.0699 307.82 32.1199 311.65 26.6799 311.74C21.2399 311.83 22.5599 306.87 22.5599 306.87Z" fill="#302624"/>
<path d="M31.8199 308.35C27.7399 304.5 24.1099 307.75 24.1099 307.75L22.5599 306.87C20.3099 310.24 15.9899 314.28 15.4499 316.25C14.4199 320 16.2499 324.37 22.2999 324.37C28.3499 324.37 33.8699 320.77 34.5099 317.84C34.8899 316.09 34.2699 311.35 34.0699 307.82L31.8199 308.35Z" fill="#302624"/>
<path d="M70.2299 306.87L68.5299 297.77L58.1599 299.28L58.7199 307.82C58.7199 307.82 60.6699 311.65 66.1099 311.74C71.5499 311.83 70.2299 306.87 70.2299 306.87Z" fill="#302624"/>
<path d="M60.97 308.35C65.05 304.5 68.68 307.75 68.68 307.75L70.23 306.87C72.48 310.24 76.8 314.28 77.34 316.25C78.37 320 76.54 324.37 70.49 324.37C64.6 324.37 58.92 320.77 58.28 317.84C57.9 316.09 58.52 311.35 58.72 307.82L60.97 308.35Z" fill="#302624"/>
<path d="M58.8699 59.4399H36.8799V68.7699H58.8699V59.4399Z" fill="#32303A"/>
<path d="M44.6098 151.86H75.7898L73.8898 302.63H54.1498L50.5498 173.5H45.4298L38.0698 302.63H18.3298L20.1798 151.86H44.6198H44.6098Z" fill="#2A2932"/>
<path d="M58.21 52.9199H37.46V77.5999H58.21V52.9199Z" fill="#F0B297"/>
<path d="M58.21 52.9199V60.5099C53.05 64.6899 46.08 67.4999 37.46 68.0999V52.9199H58.21Z" fill="#D1785E"/>
<path d="M58.78 49.5896C59.7 49.8496 60.71 49.6496 61.57 49.2296C62.43 48.8096 63.15 48.1796 63.83 47.5196C65.62 45.7896 67.29 43.6196 67.16 41.1796C67.12 40.3596 66.84 39.5196 66.2 38.9796C65.44 38.3396 64.28 38.2596 63.34 38.6196C62.4 38.9796 61.66 39.7196 61.12 40.5296L58.78 49.5896Z" fill="#F0B297"/>
<path d="M36.35 49.5896C35.43 49.8496 34.42 49.6496 33.56 49.2296C32.7 48.8096 31.98 48.1796 31.3 47.5196C29.51 45.7896 27.84 43.6196 27.97 41.1796C28.01 40.3596 28.29 39.5196 28.93 38.9796C29.69 38.3396 30.85 38.2596 31.79 38.6196C32.73 38.9796 33.47 39.7196 34.01 40.5296L36.35 49.5896Z" fill="#F0B297"/>
<path d="M62.44 50.7696C63.15 43.1396 65.14 38.6896 66.37 34.2796C67.25 30.9796 68.14 25.3296 64.3 20.3596C60.5 15.1896 50.98 12.2496 42.25 14.7196C33.47 17.1996 28.59 22.3296 29.66 28.1796C30.2 31.6796 30.7 36.5196 31.29 40.1396C31.78 43.1396 30.86 46.1496 31.97 49.0796C34.04 54.1096 42.03 62.9396 48.32 62.9396C53.46 62.9396 61.95 54.1096 62.44 50.7796V50.7696Z" fill="#F0B297"/>
<g style="mix-blend-mode:soft-light">
<path d="M49.42 43.4794C49.37 43.6294 49.3 43.7694 49.23 43.8994C49.16 44.0294 49.08 44.1794 48.94 44.2494C48.81 44.3194 48.62 44.2694 48.47 44.0494C48.39 43.9394 48.34 43.7994 48.32 43.6294C48.3 43.4594 48.32 43.2794 48.38 43.0994C48.44 42.9194 48.55 42.7694 48.66 42.6494C48.78 42.5394 48.91 42.4594 49.04 42.4194C49.29 42.3494 49.47 42.4394 49.53 42.5694C49.59 42.7094 49.56 42.8694 49.53 43.0194C49.5 43.1694 49.47 43.3194 49.41 43.4694L49.42 43.4794Z" fill="#F2F2F2"/>
</g>
<path d="M47.8199 43.9996C47.7999 43.8996 47.7699 43.7996 47.7599 43.7196C47.7499 43.6396 47.7299 43.5596 47.7199 43.4896C47.7199 43.4096 47.6999 43.3296 47.7099 43.2296C47.7099 43.1296 47.7199 43.0196 47.7399 42.9096C47.7699 42.6896 47.7999 42.4596 47.7899 42.2696C47.7799 42.0796 47.7299 41.9196 47.6199 41.8196C47.5099 41.7196 47.3999 41.7296 47.2899 41.8096C47.1699 41.8896 47.0399 42.0496 46.9099 42.2796C46.7799 42.5096 46.6399 42.8296 46.6099 43.2196C46.5899 43.4096 46.6099 43.6196 46.6499 43.8096C46.6899 43.9996 46.7599 44.1796 46.8399 44.3496C46.9199 44.5196 47.0199 44.6796 47.1199 44.8196C47.2199 44.9596 47.3299 45.0896 47.4299 45.1996C47.6399 45.4196 47.8299 45.5896 47.9899 45.7196C48.3199 45.9696 48.5099 46.0596 48.6199 45.8896C48.7199 45.7296 48.7099 45.5296 48.5299 45.2396C48.4399 45.0896 48.3199 44.9296 48.1799 44.7196C48.1099 44.6196 48.0399 44.5096 47.9799 44.3896C47.9199 44.2696 47.8699 44.1396 47.8299 44.0096L47.8199 43.9996Z" fill="#D1785E"/>
<path d="M53.1902 36.1694C54.0402 35.9694 54.9202 35.9394 55.7902 36.0494C56.6602 36.1594 57.5102 36.4294 58.2902 36.8394C59.0702 37.2494 58.7202 38.0394 57.9502 37.8494C57.1802 37.6594 56.4102 37.5094 55.6402 37.4094C54.8702 37.3094 54.0902 37.2494 53.3002 37.2394C52.5102 37.2194 52.3502 36.3694 53.2002 36.1694H53.1902Z" fill="#1A1A1A"/>
<path d="M42.6801 36.0995C41.8301 35.9195 40.9401 35.8995 40.0801 36.0295C39.2201 36.1595 38.3701 36.4395 37.6001 36.8695C36.8301 37.2995 37.1901 38.0795 37.9601 37.8795C38.7301 37.6695 39.4901 37.5095 40.2601 37.3895C41.0301 37.2695 41.8101 37.1995 42.6001 37.1695C43.3901 37.1295 43.5301 36.2795 42.6801 36.0995Z" fill="#1A1A1A"/>
<path d="M41.87 42.5993V40.5693C41.85 39.5893 41.05 38.7993 40.07 38.7993C39.09 38.7993 38.3 39.6093 38.3 40.5793V42.6093C38.32 43.5893 41.8701 43.5693 41.8601 42.5893L41.87 42.5993Z" fill="#1A1A1A"/>
<path d="M54.0701 42.5993V40.5693C54.0901 39.5893 54.8901 38.7993 55.8701 38.7993C56.8501 38.7993 57.6401 39.6093 57.6401 40.5793V42.6093C57.6201 43.5893 54.0701 43.5693 54.0801 42.5893L54.0701 42.5993Z" fill="#1A1A1A"/>
<path d="M44.16 50.3394C47.19 51.6094 50.8 51.0594 53.36 49.0294C53.76 48.7194 53.2 48.1594 52.81 48.4794C50.46 50.3394 47.13 50.7394 44.37 49.5894C44.17 49.5094 43.94 49.6794 43.89 49.8594C43.83 50.0894 43.97 50.2594 44.16 50.3394Z" fill="#A33939"/>
<path d="M35.82 62.2998L36.4901 64.8098C37.6501 68.1298 40.6101 73.5498 47.66 73.5498C55.6101 73.5498 58.6401 66.6498 59.5801 63.6598L59.94 62.2998C74.58 67.7998 70.09 113.65 70.09 113.65L70.18 151.73H47.84H24.3L24.91 113.65C24.91 113.65 21.1701 67.7998 35.8101 62.2998H35.82Z" fill="white"/>
<path d="M43.55 72.31L45.28 75.62H50.53L52.21 72.31L47.8801 68.77L43.55 72.31Z" fill="#96281B"/>
<path d="M47.8799 68.7696L53.4199 74.5996L62.8899 63.3096L56.9799 60.3696L54.7599 62.4296L47.8899 68.7796L47.8799 68.7696Z" fill="#E6E7E8"/>
<path d="M38.7799 60.3696L47.8799 68.7696L42.3399 74.5996L32.8799 63.2996L38.7799 60.3696Z" fill="#E6E7E8"/>
<path d="M45.2799 76.4097L43.1399 145.32L47.8799 150.56L52.6299 145.32L50.5299 76.4097H45.2799Z" fill="#96281B"/>
<path d="M10.4299 75.5697C11.8699 67.1597 21.1799 67.1597 35.8199 61.6597C35.8199 61.6597 47.8799 110.48 47.8799 110.49L59.9398 61.6597C74.5798 67.1597 83.8899 67.1597 85.3299 75.5697C87.6499 89.1497 79.8998 95.0897 79.8399 95.0097C79.8399 95.0097 79.2099 155.31 80.1599 169.84H50.1299L47.8799 159.34L45.6299 169.84H15.5999C16.5499 155.3 15.9199 95.0097 15.9199 95.0097C15.8599 95.0897 8.10985 89.1497 10.4299 75.5697Z" fill="#32303A"/>
<path d="M66.45 63.3399L66.16 71.9399L61.86 75.4699L65.21 80.0399L47.99 110.49L58.88 59.4399L66.45 63.3399Z" fill="#4F4C4D"/>
<path d="M29.3098 63.3399L29.5998 71.9399L33.8998 75.4699L30.5598 80.0399L47.7698 110.49L36.8798 59.4399L29.3098 63.3399Z" fill="#4F4C4D"/>
<path d="M14.0499 181.14L11.2499 165.27L2.38989 166.83L5.18989 182.7C5.73989 185.84 8.17989 188.03 10.6199 187.6C13.0699 187.17 14.5999 184.28 14.0499 181.14Z" fill="#F7CDB9"/>
<path d="M16.17 177.53C15.68 171.93 10.46 168.43 10.24 168.29C9.37004 167.71 8.21004 167.97 7.65004 168.87C7.09004 169.76 7.35004 170.95 8.22004 171.52C8.29004 171.57 12.12 174.18 12.44 177.86C12.53 178.92 13.44 179.7 14.48 179.61C15.52 179.52 16.27 178.59 16.18 177.53H16.17Z" fill="#F7CDB9"/>
<path d="M27.3599 64.4697C15.9599 68.0297 7.76993 69.0497 6.54993 76.2097C4.21993 89.7897 1.57993 105.19 0.079932 121.7C-0.430068 143.22 1.51993 170.05 1.51993 170.05H13.3099C13.3799 169.94 13.5999 152.86 14.0399 133.78C16.1999 119.88 17.2199 113.73 17.2799 113.66L29.9399 73.4197C29.7499 73.0097 28.3799 66.9497 27.3499 64.4797L27.3599 64.4697Z" fill="#32303A"/>
<path d="M82.35 181.48L85.15 165.61L94.01 167.17L91.21 183.04C90.66 186.18 88.22 188.37 85.78 187.94C83.33 187.51 81.8 184.62 82.35 181.48Z" fill="#F7CDB9"/>
<path d="M80.23 177.86C80.72 172.26 85.94 168.76 86.16 168.62C87.03 168.04 88.19 168.3 88.75 169.2C89.31 170.09 89.05 171.28 88.18 171.85C88.11 171.9 84.28 174.51 83.96 178.19C83.87 179.25 82.96 180.03 81.92 179.94C80.88 179.85 80.13 178.92 80.22 177.86H80.23Z" fill="#F7CDB9"/>
<path d="M69.04 64.7998C80.44 68.3598 88.63 69.3798 89.85 76.5398C92.17 90.1198 94.82 105.52 96.31 122.03C96.82 143.55 94.87 170.38 94.87 170.38H83.08C83.01 170.27 82.79 153.19 82.35 134.11C80.19 120.21 79.17 114.06 79.11 113.99L66.45 73.7498C66.64 73.3398 68.01 67.2798 69.04 64.8098V64.7998Z" fill="#32303A"/>
<path d="M27.4501 27.8598C27.0201 25.5498 26.8301 23.2198 27.2101 20.9098C27.8001 17.3198 30.0601 13.7898 33.5601 12.6198C31.6501 11.3598 31.4701 8.46981 32.6601 6.51981C33.8401 4.57981 36.0001 3.41981 38.1401 2.58981C45.3701 -0.200192 53.9501 -0.0801921 60.5601 3.93981C67.1401 7.93981 70.82 17.4098 69.31 23.4798C67.79 29.5498 67.1301 32.7198 62.93 32.4798C59.21 32.2698 55.93 30.0898 53.1 27.6998C50.2701 25.3198 46.0301 21.0298 42.6801 19.4298C40.0401 18.1698 36.7701 17.7398 34.12 18.7898C31.0301 25.4798 31.8201 33.1498 31.5001 41.0598C30.5501 38.1798 29.1501 34.6698 28.3501 31.6698C28.0101 30.4098 27.7001 29.1298 27.4601 27.8398L27.4501 27.8598Z" fill="#2C1E1C"/>
<path d="M64.6802 38.81L63.9102 20.73C63.9102 20.73 66.5902 18.46 68.2102 19.36C70.3202 20.52 65.9502 38.89 64.6802 38.81Z" fill="#2C1E1C"/>
</svg>
