<svg width="97" height="133" viewBox="0 0 97 133" fill="none" xmlns="http://www.w3.org/2000/svg">
<g clip-path="url(#clip0_185_14325)">
<path d="M69.5584 66.8808C71.3824 66.7291 73.1405 67.7694 73.7778 69.5465L82.9855 94.5349C87.5344 106.845 90.4131 119.718 91.5559 132.787L93.8853 159.271C94.083 161.503 92.413 163.475 90.1275 163.67C87.8641 163.865 85.8642 162.218 85.6665 159.964L83.3371 133.48C82.2383 121.127 79.5133 108.947 75.2281 97.309L66.0204 72.3206C65.2513 70.2184 66.35 67.8778 68.4816 67.1192C68.8332 66.9892 69.1849 66.9242 69.5365 66.8808H69.5584Z" fill="#FDC5C5"/>
<path d="M84.4575 94.0146C89.0284 106.455 91.9512 119.458 93.1159 132.657L94.764 151.295C94.808 151.75 94.4563 152.162 93.9948 152.205L84.3915 153.029C83.93 153.072 83.5125 152.725 83.4686 152.27L81.8204 133.632C80.7436 121.409 78.0626 109.359 73.7993 97.8506L64.6136 72.8622C64.1082 71.4535 64.1522 69.9365 64.7895 68.5928C65.4267 67.2491 66.5695 66.2088 67.9979 65.7104C68.4594 65.537 68.9648 65.4286 69.4482 65.3853C71.9974 65.1686 74.3928 66.6856 75.2718 69.0479L84.4795 94.0362L84.4575 94.0146Z" fill="#4C2D47"/>
<path d="M28.4419 66.8813C26.6179 66.7296 24.8598 67.7699 24.2225 69.547L15.0148 94.5354C10.4658 106.845 7.58713 119.719 6.44441 132.787L4.11502 159.271C3.91724 161.503 5.58729 163.475 7.87274 163.671C10.1362 163.866 12.136 162.219 12.3338 159.965L14.6632 133.481C15.762 121.128 18.4869 108.948 22.7722 97.3095L31.9799 72.3211C32.749 70.2189 31.6503 67.8783 29.5186 67.1197C29.167 66.9897 28.8155 66.9246 28.4639 66.8813H28.4419Z" fill="#FDC5C5"/>
<path d="M13.5654 94.0148C8.97253 106.455 6.07176 119.458 4.90706 132.657L3.2589 151.295C3.21495 151.75 3.5665 152.162 4.02799 152.205L13.6314 153.029C14.0929 153.072 14.5104 152.726 14.5543 152.27L16.2025 133.632C17.2793 121.409 19.9822 109.359 24.2234 97.8509L33.4312 72.8625C33.9586 71.4538 33.8927 69.9367 33.2555 68.593C32.6182 67.2493 31.4754 66.2091 30.047 65.7106C29.5855 65.5372 29.0801 65.4289 28.5967 65.3855C26.0475 65.1688 23.6521 66.6642 22.7731 69.0481L13.5654 94.0365V94.0148Z" fill="#4C2D47"/>
<path d="M42.2649 99.0214C42.2649 99.0214 42.2649 99.1081 42.2869 99.1515C42.3528 99.4115 42.4188 100.04 42.4628 100.972C42.7704 106.628 42.9022 124.638 42.9681 156.583H55.0107C55.0766 124.638 55.2085 106.628 55.5162 100.972C55.5601 100.04 55.626 99.4115 55.6919 99.1515C55.6919 99.1081 55.6919 99.0648 55.7139 99.0214C55.8457 98.3063 56.1095 97.5044 56.4831 96.8759C58.2411 93.5817 63.5812 90.7643 60.3068 73.578C58.8125 65.6675 57.7577 62.525 56.9006 61.2463C56.8127 61.1163 56.7247 61.0079 56.6368 60.8996C56.5489 60.7912 56.461 60.7262 56.3731 60.6611C56.0655 60.4444 55.7799 60.4011 55.5162 60.3794H42.5506C42.3968 60.3794 42.2429 60.4445 42.0891 60.4878C42.0231 60.5095 41.9573 60.5312 41.8914 60.5745C41.7815 60.6395 41.6716 60.7045 41.5617 60.7695C41.5177 60.8129 41.4738 60.8345 41.4298 60.8779C41.3859 60.8996 41.3639 60.9429 41.32 60.9646C41.2541 61.0296 41.2101 61.1163 41.1441 61.1813C41.1222 61.2247 41.1003 61.2463 41.0783 61.268C41.0783 61.268 41.0783 61.2897 41.0563 61.3114C41.0343 61.3547 41.0124 61.4197 40.9684 61.463C40.441 62.3733 40.0674 63.8904 39.4301 66.1877C32.7276 89.9624 39.606 93.3433 41.5178 96.9192C41.9134 97.5477 42.1551 98.3496 42.2869 99.0648L42.2649 99.0214Z" fill="#4F4068"/>
<path d="M61.2954 62.3296C60.6361 61.6361 60.1086 61.0293 59.7131 60.5092C58.9659 59.5339 57.7792 58.9487 56.5486 58.9487H41.4295C40.1769 58.9487 39.0122 59.5339 38.265 60.5092C37.8695 61.0293 37.3421 61.6578 36.6828 62.3296C36.6389 62.373 36.6169 62.4163 36.573 62.4597C37.8696 62.1996 39.2759 61.9829 40.7703 61.7878C40.8582 61.5711 40.946 61.376 41.012 61.2676C41.0339 61.2243 41.056 61.2026 41.0779 61.1593C41.1439 61.0726 41.2097 60.9859 41.2976 60.8992C41.6273 60.5742 42.0448 60.3574 42.5063 60.314H55.4718C55.7795 60.3574 56.0652 60.4007 56.3289 60.5958C56.5267 60.7258 56.7025 60.9209 56.9003 61.2026C57.0102 61.3543 57.098 61.5494 57.2079 61.7661C58.7022 61.9612 60.1087 62.1779 61.4052 62.438C61.3613 62.3946 61.3174 62.3513 61.2954 62.3079V62.3296Z" fill="#65465E"/>
<path d="M60.878 70.3483C61.0099 71.6487 60.7461 72.949 60.1528 74.076C59.4056 75.4847 58.3287 76.6334 57.0542 77.4352L55.6697 78.3021C53.648 79.5591 51.9998 81.4013 50.8791 83.6118L48.9892 87.4045L47.0994 83.6118C46.0006 81.4013 44.3305 79.5375 42.3087 78.3021L40.9243 77.4352C39.6277 76.6334 38.5728 75.463 37.8256 74.076C37.2323 72.949 36.9687 71.6487 37.1005 70.3483C37.4302 67.0758 39.0563 64.28 41.3857 62.5462C43.6931 62.2861 46.2423 62.1128 48.9892 62.1128C51.7361 62.1128 54.2853 62.2645 56.5928 62.5462C58.9441 64.3017 60.5704 67.0975 60.878 70.3267V70.3483Z" fill="#C7B8C3"/>
<path d="M50.1972 60.4442H49.0326V60.4659H47.824C44.8353 60.3359 41.9565 61.2028 39.5172 62.7849C40.1325 62.6982 40.7698 62.6115 41.4071 62.5248C43.7145 62.2647 46.2637 62.0913 49.0106 62.0913C51.7576 62.0913 54.3068 62.2431 56.6142 62.5248C57.2734 62.6115 57.8887 62.6765 58.504 62.7849C56.0648 61.1811 53.1859 60.3359 50.1972 60.4226V60.4442Z" fill="#F3F0F3"/>
<path d="M54.659 62.8278C54.659 65.9053 52.1318 68.4193 48.9893 68.4193C45.8468 68.4193 43.3196 65.927 43.3196 62.8278C43.3196 59.7286 45.8468 57.2363 48.9893 57.2363C52.1318 57.2363 54.659 59.7286 54.659 62.8278Z" fill="#FDC5C5"/>
<path d="M48.989 74.1628C45.407 74.1628 42.5062 71.3021 42.5062 67.7694V49.5863C42.5062 46.0537 45.407 43.1929 48.989 43.1929C52.571 43.1929 55.4718 46.0537 55.4718 49.5863V67.7694C55.4718 71.3021 52.571 74.1628 48.989 74.1628Z" fill="#FDC5C5"/>
<path d="M48.989 43.1929C45.407 43.1929 42.5062 46.0537 42.5062 49.5863V58.9488C44.5719 59.6423 46.7475 60.0324 48.989 60.0324C51.2305 60.0324 53.4061 59.6423 55.4718 58.9488V49.5863C55.4718 46.0537 52.571 43.1929 48.989 43.1929Z" fill="#F2A5AB"/>
<path d="M74.0195 70.9123C74.0195 73.1663 72.1736 74.9868 69.8881 74.9868C67.6027 74.9868 65.7567 73.1663 65.7567 70.9123C65.7567 68.6584 67.6027 66.8379 69.8881 66.8379C72.1736 66.8379 74.0195 68.6584 74.0195 70.9123Z" fill="#FDC5C5"/>
<path d="M32.1999 70.9123C32.1999 73.1663 30.354 74.9868 28.0685 74.9868C25.7831 74.9868 23.9373 73.1663 23.9373 70.9123C23.9373 68.6584 25.7831 66.8379 28.0685 66.8379C30.354 66.8379 32.1999 68.6584 32.1999 70.9123Z" fill="#FDC5C5"/>
<path d="M69.3164 80.9899C69.2944 78.3026 70.481 75.7452 72.5687 74.0114C72.9642 73.6863 73.2939 73.2745 73.5576 72.7978C74.6124 70.8039 73.8434 68.3766 71.8436 67.3363C71.492 67.1629 63.0754 62.8501 49.0111 62.8501C34.9468 62.8501 26.5301 67.1629 26.1785 67.3363C24.1788 68.3766 23.4097 70.8256 24.4645 72.7978C24.7282 73.2745 25.0577 73.6863 25.4533 74.0114C27.541 75.7452 28.7277 78.3026 28.7058 80.9899C28.7058 82.9405 28.7278 84.9777 28.7278 87.1016C28.7278 91.1543 29.5628 94.9904 31.0352 98.3496C34.1557 108.362 35.1885 116.359 29.4748 128.951C28.1783 131.812 24.5744 136.038 24.5744 143.992C24.5744 165.513 25.9808 168.092 49.0111 168.092C72.0413 168.092 73.4478 165.513 73.4478 143.992C73.4478 136.038 69.8658 131.812 68.5473 128.951C62.8337 116.359 63.8445 108.362 66.987 98.3496C68.4593 94.9904 69.2944 91.1543 69.2944 87.1016C69.2944 84.9994 69.3383 82.9405 69.3164 80.9899Z" fill="#FDC5C5"/>
<path d="M70.6124 90.3743C70.6124 95.3373 66.5469 99.3467 61.5146 99.3467H36.4845C31.4521 99.3467 27.3866 95.3373 27.3866 90.3743C27.3866 85.4113 31.4521 81.4019 36.4845 81.4019H61.5146C66.5469 81.4019 70.6124 85.4113 70.6124 90.3743Z" fill="#FDC5C5"/>
<path d="M63.7784 95.2936H34.2215C31.6284 95.2936 29.2989 94.2317 27.6508 92.5195C28.6177 96.4422 32.1997 99.368 36.4849 99.368H61.515C65.8002 99.368 69.3823 96.4422 70.3492 92.5195C68.701 94.2317 66.3715 95.2936 63.7784 95.2936Z" fill="#F2A5AB"/>
<path d="M24.0469 155.76C24.0909 169.804 25.0138 207.557 25.4094 223.205C25.4094 223.638 25.783 224.007 26.2225 224.007H71.7117C72.1512 224.007 72.5248 223.66 72.5248 223.205C72.9203 207.557 73.8433 169.804 73.8873 155.76H73.7993C73.8652 153.333 73.8873 150.58 73.8873 147.459C73.8873 140.914 72.5248 136.342 71.1623 132.831H26.7279C25.3434 136.342 24.0029 140.936 24.0029 147.459C24.0029 150.58 24.0029 153.333 24.0908 155.782H24.0029L24.0469 155.76Z" fill="#43253F"/>
<path d="M41.0562 63.2402C40.6386 63.2836 40.2431 63.3486 39.8256 63.392C38.0236 65.1258 36.7929 67.5748 36.5292 70.3272C36.3974 71.6275 36.6611 72.9495 37.2545 74.0765C37.9797 75.4852 39.0564 76.6339 40.353 77.4357L41.6056 78.2159C37.4302 73.1662 39.3421 66.7512 41.0562 63.2402Z" fill="#F2A5AB"/>
<path d="M60.7465 74.0765C61.3398 72.9495 61.5815 71.6491 61.4716 70.3488C61.2079 67.5531 59.9773 65.1258 58.1753 63.392C57.7577 63.3486 57.3622 63.2836 56.9447 63.2402C58.6807 66.7512 60.5926 73.1662 56.3953 78.2159L57.6479 77.4357C58.9444 76.6339 59.9993 75.4635 60.7465 74.0765Z" fill="#F2A5AB"/>
<path d="M74.5912 69.7853C74.6132 69.8937 74.6351 70.0237 74.6571 70.132C74.679 70.3054 74.7011 70.4788 74.7231 70.6522C74.7231 70.7606 74.7231 70.8472 74.7231 70.9123C74.7231 70.9556 74.7231 71.0856 74.7231 71.1073C74.7231 71.259 74.723 71.3674 74.6791 71.4974C74.6791 71.6924 74.6132 71.9092 74.5692 72.1259L74.5252 72.2776C74.4153 72.6027 74.3275 72.8411 74.1957 73.0795C74.1957 73.1012 74.1297 73.1879 74.1077 73.2312C73.9978 73.4263 73.8439 73.6647 73.6681 73.9031C73.4484 74.1631 73.2286 74.3799 72.9869 74.5749C71.075 76.1787 69.9983 78.5193 70.0203 80.9899C70.0203 82.1819 70.0203 83.3956 70.0203 84.6526V85.5629C70.8773 87.0366 71.3388 88.7053 71.3388 90.3958C71.3388 91.1543 71.2508 91.9129 71.0531 92.6931C70.7234 93.9934 70.1741 95.1637 69.361 96.2257L69.2951 96.3124C69.1632 96.4858 69.0094 96.6592 68.8775 96.8109L68.7897 96.9192C68.6139 97.1143 68.46 97.266 68.3061 97.4177L68.1963 97.526C68.1963 97.526 67.8447 98.2629 67.6689 98.653C64.4824 108.861 63.7793 116.706 69.2292 128.691C69.4929 129.276 69.8664 129.905 70.262 130.642C71.8222 133.394 74.1737 137.555 74.1737 144.035C74.1737 144.62 74.1737 145.184 74.1737 145.747C51.5829 145.444 49.1656 135.474 49.1656 135.474C49.1656 135.474 46.7263 145.53 23.8938 145.747C23.8938 145.184 23.8938 144.62 23.8938 144.035C23.8938 137.555 26.2451 133.394 27.8054 130.642C28.2229 129.905 28.5746 129.276 28.8383 128.691C34.2882 116.706 33.585 108.882 30.3546 98.588C30.2228 98.2846 29.8711 97.5477 29.8711 97.5477L29.7392 97.4393C29.5854 97.2876 29.4535 97.1576 29.2997 97.0059L29.1678 96.8542C29.014 96.6808 28.8823 96.5291 28.7284 96.3341L28.6625 96.2474C27.8494 95.1854 27.278 93.9934 26.9703 92.7148C26.7725 91.9345 26.6627 91.176 26.6627 90.4175C26.6627 88.727 27.1242 87.0799 27.9812 85.6062V84.7176C27.9812 83.4606 27.9592 82.2252 27.9812 81.0333C27.9812 78.5843 26.9265 76.2654 25.0366 74.6399C24.2894 74.0331 23.74 73.2095 23.4543 72.2993C23.3664 71.9958 23.3224 71.7358 23.3004 71.4758C23.3004 71.3891 23.3004 71.3023 23.3004 71.2373C23.3004 71.1073 23.2784 71.0423 23.2784 70.9556C23.2784 70.8689 23.2784 70.7822 23.2784 70.6738C23.2784 70.4788 23.3005 70.3488 23.3224 70.2404C23.3444 70.067 23.3883 69.9153 23.4323 69.7419C23.4762 69.5902 23.5202 69.4602 23.5861 69.3085C23.6301 69.1785 23.696 69.0484 23.74 68.9401C23.8279 68.7667 23.9158 68.6149 24.0257 68.4416C24.0696 68.3549 24.1356 68.2899 24.1795 68.2249C24.3114 68.0298 24.4651 67.8565 24.6409 67.6831L24.7728 67.5531C24.9486 67.3797 25.1464 67.228 25.3441 67.0763L25.498 66.9679C25.6518 66.8378 25.7618 66.7945 25.8497 66.7295C26.1134 66.5778 31.0358 64.0854 39.5183 62.8501C36.8813 64.5622 34.7496 67.1196 33.4531 70.2621C32.4202 72.7544 31.827 75.4634 31.7171 78.1942L31.4972 83.3089C31.4972 83.4389 31.5632 83.5256 31.6731 83.569C31.783 83.5906 31.8928 83.569 31.9368 83.4389L32.9037 81.5101C33.6948 79.9496 35.0134 78.801 36.5737 78.2592C37.5626 77.9341 38.6174 77.9775 39.5623 78.3893L41.2983 79.1478C43.7156 80.188 45.7593 81.9869 47.1658 84.3492L49.0337 87.4484L50.8796 84.3492C52.286 82.0086 54.3518 80.188 56.7472 79.1478L58.4832 78.3893C59.4501 77.9775 60.4829 77.9341 61.4718 78.2592C63.0321 78.7793 64.3507 79.9496 65.1418 81.5101L66.1086 83.4389C66.1745 83.5473 66.2844 83.6123 66.3943 83.569C66.5042 83.5256 66.5701 83.4173 66.5481 83.3089L66.3284 78.1942C66.1966 75.4634 65.6253 72.7761 64.5924 70.2621C63.2739 67.1196 61.1422 64.5622 58.5272 62.8501C67.0097 64.0854 71.9321 66.5995 72.1958 66.7295C72.3057 66.7945 72.3936 66.8595 72.5035 66.9245L72.5914 66.9895C72.921 67.2063 73.1188 67.3796 73.3166 67.5747C73.5803 67.8347 73.7561 68.0515 73.888 68.2465L73.9758 68.3766C74.1297 68.5933 74.2396 68.7884 74.3275 69.0268C74.3715 69.0918 74.3934 69.1784 74.4374 69.2651C74.5033 69.4602 74.5693 69.6553 74.6132 69.8503L74.5912 69.7853Z" fill="#E9E3E8"/>
<path d="M67.9983 97.8075C68.0862 97.6341 68.1521 97.4824 68.1521 97.4824L68.2619 97.374C68.4158 97.2223 68.5695 97.0923 68.7453 96.8756L68.8333 96.7672C68.9872 96.5938 69.119 96.4422 69.2509 96.2688L69.3167 96.1821C70.0199 95.2718 70.5254 94.2532 70.855 93.1479C69.2069 94.7517 66.9653 95.7703 64.4601 95.7703H33.4748C30.9696 95.7703 28.7281 94.7733 27.08 93.1696C27.4096 94.2532 27.9149 95.2935 28.6181 96.2037L28.6841 96.2904C28.8379 96.4638 28.9698 96.6372 29.1237 96.8106L29.2555 96.9623C29.4093 97.114 29.5412 97.2657 29.695 97.3957L29.8269 97.5041C29.8269 97.5041 29.8928 97.6341 29.9807 97.8291C31.541 99.1078 33.5627 99.8664 35.7383 99.8664H62.2187C64.4162 99.8664 66.416 99.0861 67.9763 97.8291L67.9983 97.8075Z" fill="#D9CED6"/>
<path d="M47.1216 84.3056C45.7151 81.965 43.6713 80.1445 41.254 79.1042L39.518 78.3457C38.5731 77.9339 37.5183 77.8905 36.5294 78.2156C34.9691 78.7358 33.6506 79.9061 32.8595 81.4665L31.8926 83.3954L35.5844 81.7916C36.9469 81.1847 38.5291 81.2931 39.8037 82.03L48.9674 87.4047L47.0996 84.3056H47.1216Z" fill="#D9CED6"/>
<path d="M65.1198 81.4665C64.3287 79.9061 63.0101 78.7574 61.4498 78.2156C60.4609 77.8905 59.4061 77.9339 58.4612 78.3457L56.7252 79.1042C54.3079 80.1445 52.2642 81.9433 50.8577 84.3056L48.9897 87.4047L58.1535 82.03C59.4281 81.2715 61.0104 81.1847 62.3729 81.7916L66.0647 83.3954L65.0978 81.4665H65.1198Z" fill="#D9CED6"/>
<path d="M65.119 81.4665C64.3279 79.9061 63.0092 78.7574 61.449 78.2156C60.4601 77.8905 59.4273 77.9339 58.4603 78.3456L56.7243 79.1042C54.329 80.1445 52.2634 81.9433 50.8569 84.3056L49.0109 87.4047L50.9008 83.612C51.9996 81.4014 53.6697 79.5376 55.6914 78.3023L57.0759 77.4354C58.3724 76.6335 59.4273 75.4632 60.1745 74.0762C60.7678 72.9492 61.0095 71.6488 60.8996 70.3485C60.57 67.0759 58.9659 64.2802 56.6145 62.5464C57.2737 62.6331 57.889 62.6981 58.5043 62.8065C61.1414 64.5186 63.273 67.076 64.5696 70.2185C65.6024 72.7108 66.1957 75.4199 66.3056 78.1506L66.5253 83.2653C66.5253 83.3954 66.4595 83.482 66.3716 83.5254C66.2617 83.5471 66.1518 83.5254 66.0859 83.3954L65.119 81.4665Z" fill="#F3F0F3"/>
<path d="M40.9245 77.4354L42.309 78.3023C44.3307 79.5593 45.9789 81.4014 47.0996 83.612L48.9895 87.4047L47.1216 84.3056C45.7152 81.9649 43.6714 80.1445 41.2541 79.1042L39.518 78.3456C38.5731 77.9339 37.5183 77.8905 36.5294 78.2156C34.9692 78.7357 33.6507 79.9061 32.8596 81.4665L31.8926 83.3954C31.8487 83.5037 31.7168 83.5687 31.6289 83.5254C31.5191 83.482 31.4531 83.3737 31.4531 83.2653L31.6728 78.1506C31.8046 75.4199 32.3761 72.7325 33.4089 70.2185C34.7275 67.076 36.859 64.5186 39.4741 62.8065C40.0894 62.7198 40.7268 62.6331 41.364 62.5464C39.0346 64.3019 37.3865 67.0977 37.0788 70.3269C36.947 71.6272 37.2107 72.9492 37.804 74.0762C38.5292 75.4849 39.606 76.6335 40.9025 77.4354H40.9245Z" fill="#F3F0F3"/>
<path d="M42.4625 100.972C42.4186 100.04 42.3526 99.4115 42.2867 99.1515C42.2867 99.1081 42.2867 99.0648 42.2647 99.0214C41.5175 95.0987 37.584 93.2999 36.7928 85.6495C34.0459 75.3117 37.6279 65.7759 40.6605 61.7231C39.2541 61.8965 37.9356 62.1132 36.683 62.3516C29.6728 63.6736 25.7171 65.7542 25.4754 65.8842C22.6845 67.3363 21.6078 70.7822 23.0582 73.5346C24.091 75.5718 27.0357 76.5688 27.0137 80.9899C27.0137 82.0519 27.0137 83.1572 27.0137 84.2841C27.0137 84.9126 26.8819 85.4978 26.6402 86.0613C26.0468 87.3833 25.7172 88.8354 25.7172 90.3741C25.7172 93.1482 26.794 95.6622 28.574 97.5477C28.9476 97.9378 29.2552 98.3929 29.453 98.8914C30.7275 102.988 31.8923 107.409 31.8923 112.22C31.8923 117.031 30.6396 122.319 27.9367 128.214C26.9697 130.425 24.1569 133.914 23.19 139.939C22.4648 143.19 21.8715 148.673 21.388 155.305C21.366 155.63 21.4759 155.955 21.6957 156.193C21.9155 156.432 22.245 156.562 22.5746 156.562H41.7153C42.023 156.562 42.3307 156.432 42.5724 156.215C42.7921 155.998 42.9239 155.695 42.9239 155.37C42.858 124.161 42.7262 106.52 42.4186 100.929L42.4625 100.972Z" fill="#4C2D47"/>
<path d="M35.65 129.558C35.65 129.254 35.4083 128.994 35.0787 128.994H27.5851C26.9698 130.143 26.0687 131.595 25.1897 133.48H35.65V129.558Z" fill="#65465E"/>
<path d="M74.7451 139.961C73.8001 133.936 70.9652 130.447 69.9983 128.236C67.3173 122.341 66.0427 117.227 66.0427 112.242C66.0427 107.257 67.2074 102.988 68.482 98.9134C68.7017 98.4149 69.0094 97.9598 69.3611 97.5697C71.1191 95.6842 72.2178 93.1702 72.2178 90.3961C72.2178 88.8574 71.8882 87.4053 71.2949 86.0833C71.0312 85.5198 70.8992 84.913 70.9212 84.3062C70.9212 83.1792 70.9212 82.0739 70.9212 81.012C70.8773 76.5908 73.8441 75.5938 74.8769 73.5566C76.3493 70.8042 75.2504 67.3583 72.4595 65.9063C72.2178 65.7762 68.2842 63.6957 61.2521 62.3736C60.0215 62.1352 58.703 61.9185 57.2965 61.7451C60.3292 65.8195 63.9331 75.3988 61.1422 85.7799C60.3292 93.3436 56.4174 95.1424 55.6922 99.0435C55.6922 99.0868 55.6702 99.1302 55.6702 99.1735C55.6043 99.4336 55.5385 100.062 55.4945 100.994C55.1869 106.585 55.0769 124.205 54.989 155.435C54.989 155.739 55.1209 156.042 55.3407 156.28C55.5605 156.497 55.8681 156.627 56.1978 156.627H75.3383C75.6679 156.627 75.9976 156.497 76.2174 156.259C76.4371 156.02 76.569 155.695 76.5251 155.37C76.0416 148.738 75.4702 143.234 74.7231 140.004L74.7451 139.961Z" fill="#4C2D47"/>
<path d="M62.3499 129.558V133.48H72.7662C71.9092 131.595 70.9861 130.143 70.3708 128.994H62.9212C62.6136 128.994 62.3499 129.233 62.3499 129.558Z" fill="#65465E"/>
<path d="M42.3081 99.1734C42.3081 99.1734 42.3081 99.0867 42.2861 99.0433C42.0883 97.938 41.6048 97.0061 41.0335 96.0525H32.551C30.0897 96.0525 27.8482 95.0772 26.222 93.4951C26.7055 95.0122 27.5186 96.3993 28.5954 97.5479C28.7053 97.678 28.8151 97.8297 28.925 97.9597C30.5072 99.3034 32.5729 100.105 34.8144 100.105H42.4179C42.374 99.6501 42.352 99.325 42.3081 99.1517V99.1734Z" fill="#43253F"/>
<path d="M69.0087 98.0253C69.1186 97.8519 69.2505 97.7002 69.3824 97.5485C70.4372 96.3998 71.2503 95.0345 71.7338 93.5391C70.1076 95.0995 67.888 96.0531 65.4487 96.0531H56.9442C56.3729 97.0067 55.9114 97.9386 55.6916 99.0439C55.6916 99.0872 55.6916 99.1306 55.6696 99.1739C55.6257 99.3473 55.5817 99.6724 55.5598 100.128H63.2073C65.4268 100.128 67.4485 99.3473 69.0307 98.0469L69.0087 98.0253Z" fill="#43253F"/>
<path d="M70.8763 27.524C69.2501 27.2423 67.4481 29.7562 66.8327 33.1155C66.2174 36.4964 67.0305 39.4655 68.6347 39.7472C70.2609 40.029 72.063 37.515 72.6783 34.1558C73.2936 30.7749 72.4805 27.8057 70.8763 27.524Z" fill="#F7A5AB"/>
<path d="M27.1011 27.524C28.7272 27.2423 30.5293 29.7562 31.1446 33.1155C31.7599 36.4964 30.9468 39.4655 29.3426 39.7472C27.7164 40.029 25.9145 37.515 25.2992 34.1558C24.6839 30.7749 25.4969 27.8057 27.1011 27.524Z" fill="#F7A5AB"/>
<path d="M71.4481 38.6419C71.3602 38.1217 71.0306 37.71 70.6131 37.71C70.1955 37.71 69.8659 38.1217 69.778 38.6419C69.5363 40.1589 69.2725 40.3107 69.2725 41.0475C69.2725 42.0661 69.8659 42.9113 70.6131 42.9113C71.3602 42.9113 71.9535 42.0661 71.9535 41.0475C71.9535 40.3107 71.6899 40.1373 71.4481 38.6419Z" fill="#D9CED6"/>
<path d="M28.2881 38.6414C28.2002 38.1212 27.8706 37.7095 27.453 37.7095C27.0355 37.7095 26.7058 38.1212 26.6179 38.6414C26.3762 40.1584 26.1125 40.3102 26.1125 41.0471C26.1125 42.0657 26.7059 42.9109 27.453 42.9109C28.2002 42.9109 28.7935 42.0657 28.7935 41.0471C28.7935 40.3102 28.5298 40.1368 28.2881 38.6414Z" fill="#D9CED6"/>
<path d="M70.0643 30.1678C70.0643 15.5822 66.2625 3.74902 48.9898 3.74902C31.7171 3.74902 27.9154 15.5822 27.9154 30.1678C27.9154 44.7533 37.3428 56.5864 48.9898 56.5864C60.6368 56.5864 70.0643 44.7533 70.0643 30.1678Z" fill="#FDC5C5"/>
<path d="M56.1532 43.4315C56.1532 43.4315 54.1535 45.6204 49.0112 45.6204C43.8909 45.6204 41.9571 43.5399 41.8692 43.4315C41.4956 42.9981 40.8584 42.9547 40.4189 43.3015C39.9794 43.6699 39.9133 44.2984 40.2869 44.7318C40.3968 44.8618 42.8141 47.6576 49.0112 47.6576C55.2083 47.6576 57.6475 44.8618 57.7354 44.7318C58.087 44.2984 58.0431 43.6699 57.6036 43.3231C57.164 42.9547 56.5268 43.0197 56.1532 43.4315Z" fill="#D63E39"/>
<path d="M61.1193 35.6288C62.0422 35.6288 62.8113 34.892 62.8113 33.96V32.9197C62.8113 32.0095 62.0642 31.251 61.1193 31.251C60.1743 31.251 59.4271 31.9878 59.4271 32.9197V33.96C59.4271 34.8703 60.1743 35.6288 61.1193 35.6288Z" fill="#532442"/>
<path d="M35.1667 32.9202V33.9605C35.1667 34.8708 35.9138 35.6293 36.8588 35.6293C37.8037 35.6293 38.5509 34.8924 38.5509 33.9605V32.9202C38.5509 32.01 37.8037 31.2515 36.8588 31.2515C35.9138 31.2515 35.1667 31.9883 35.1667 32.9202Z" fill="#532442"/>
<path d="M65.5147 28.7157C62.8557 25.7899 57.8892 26.6135 57.6695 26.6351C57.2959 26.7001 57.0541 27.0468 57.1201 27.3936C57.186 27.762 57.5376 28.0004 57.8892 27.9354C57.9331 27.9354 62.3502 27.2203 64.5038 29.6042C64.6357 29.7559 64.8114 29.821 65.0092 29.821C65.163 29.821 65.3389 29.7559 65.4487 29.6476C65.7344 29.4092 65.7345 28.9757 65.4927 28.7157H65.5147Z" fill="#44243B"/>
<path d="M40.0889 27.9357C40.4625 28.0007 40.7921 27.7623 40.858 27.3939C40.924 27.0255 40.6822 26.7004 40.3086 26.6354C40.0889 26.5921 35.1444 25.7902 32.4634 28.716C32.2217 28.976 32.2437 29.4095 32.5074 29.6479C32.6392 29.7562 32.7931 29.8213 32.9469 29.8213C33.1227 29.8213 33.3205 29.7562 33.4523 29.6045C35.6279 27.2422 40.023 27.9357 40.0889 27.9357Z" fill="#44243B"/>
<path d="M59.3613 37.3196C58.2406 37.0162 57.0977 37.623 56.7681 38.7283C56.4385 39.8336 57.0758 40.9822 58.1746 41.3073C58.8558 41.5024 59.7129 42.0225 59.8447 42.4126C60.1084 43.1495 60.7457 43.6263 61.4489 43.7563C61.8005 43.8213 62.1742 43.7996 62.5258 43.6696C63.6246 43.2795 64.1959 42.0875 63.8003 41.0256C62.8553 38.4032 59.691 37.428 59.3393 37.3413L59.3613 37.3196Z" fill="#FAAEB4"/>
<path d="M38.6165 37.3196C39.7372 37.0162 40.88 37.623 41.2096 38.7283C41.5392 39.8336 40.9019 40.9822 39.8031 41.3073C39.1219 41.5024 38.2648 42.0225 38.133 42.4126C37.8693 43.1495 37.232 43.6263 36.5288 43.7563C36.1772 43.8213 35.8036 43.7996 35.452 43.6696C34.3533 43.2795 33.7819 42.0875 34.1774 41.0256C35.1224 38.4032 38.2868 37.428 38.6384 37.3413L38.6165 37.3196Z" fill="#FAAEB4"/>
<path d="M50.0573 36.2837C50.5712 37.3332 51.2907 39.5614 50.0573 40.0781C48.8238 40.5948 47.9344 40.2934 47.6439 40.0781" stroke="#FAAEB4" stroke-width="1.14685"/>
<path d="M34.5291 14.4772C40.8581 12.4183 48.2638 12.1583 48.989 7.73709C49.6922 12.1366 57.12 12.4183 63.4489 14.4772C69.5581 16.4494 74.964 19.8303 73.7114 26.5705C73.9971 25.5302 74.129 24.5766 74.0411 23.7314C72.1512 4.09612 56.6805 0 53.0106 0C50.6592 0 49.4505 1.10526 48.989 1.8638C48.5275 1.10526 47.3189 0 44.9675 0C41.2976 0 25.827 4.09612 23.9371 23.7314C23.8492 24.5766 23.981 25.5302 24.2666 26.5705C23.014 19.852 28.42 16.4711 34.5291 14.4772Z" fill="#5A3A4E"/>
<path d="M27.9144 30.1677C27.9144 28.8673 27.9363 27.5886 28.0023 26.3316C28.9472 10.9875 48.9668 15.5821 48.9668 7.7583C48.2636 12.1578 40.836 12.4396 34.507 14.4985C28.3979 16.4707 22.9918 19.8515 24.2444 26.5917C24.8377 28.7373 26.2002 31.208 28.0901 33.8737C27.9583 32.6817 27.8924 31.4463 27.8924 30.211L27.9144 30.1677Z" fill="#735465"/>
<path d="M63.4493 14.4769C57.1203 12.418 49.7146 12.158 48.9894 7.73682C48.9894 15.5822 69.009 10.9877 69.9539 26.3318C70.0198 27.5888 70.0419 28.8675 70.0419 30.1678C70.0419 31.4682 69.9759 32.6384 69.8441 33.8304C71.7559 31.1647 73.0964 28.6941 73.6898 26.5702C74.9424 19.8517 69.5365 16.4708 63.4273 14.4769H63.4493Z" fill="#735465"/>
<path d="M37.3427 87.8168C37.1889 87.3617 37.079 86.8633 36.9691 86.3431C33.7388 75.2685 37.9361 64.9741 41.0785 61.1814C41.2104 60.9864 41.2543 60.7696 41.1884 60.5529C41.1225 60.3362 40.9906 60.1411 40.7929 60.0544L40.683 59.9894C39.8479 59.5559 38.837 59.7943 38.2656 60.5312C37.8701 61.0513 37.3427 61.6798 36.6835 62.3517C36.5516 62.4817 36.4197 62.6334 36.2659 62.7635C35.8704 63.1536 35.5407 63.6087 35.277 64.0855C35.1671 64.2806 35.0573 64.4972 34.9254 64.714C34.42 65.6025 33.8486 66.5778 33.2553 67.488C32.2884 68.9834 31.2335 70.3705 30.2227 71.2374C29.915 71.4975 29.7391 71.8659 29.7391 72.256C29.7391 72.6461 29.871 73.0362 30.1567 73.3179C31.9147 75.0951 34.2881 77.5224 34.2881 77.5224L30.1347 81.9003C29.7391 82.3121 29.6292 82.9189 29.849 83.4173C30.706 85.4545 33.0795 90.5476 36.3978 92.8666C40.6171 95.814 41.54 97.0277 42.3092 99.1516C41.1664 94.2319 40.1116 96.1824 37.3427 87.7952V87.8168Z" fill="#65465E"/>
<path d="M67.8448 81.9003L63.6914 77.5224C63.6914 77.5224 66.0428 75.0951 67.8228 73.3179C68.1085 73.0362 68.2403 72.6461 68.2403 72.256C68.2403 71.8659 68.0425 71.4975 67.7568 71.2374C66.7679 70.3705 65.7132 68.9834 64.7243 67.488C64.109 66.5778 63.5596 65.6025 63.0541 64.714C62.9223 64.4972 62.8123 64.2806 62.7025 64.0855C62.4388 63.6087 62.1091 63.1536 61.7135 62.7635C61.5597 62.6118 61.428 62.4817 61.2961 62.3517C60.6369 61.6582 60.1094 61.0513 59.7138 60.5312C59.1425 59.7943 58.1317 59.5559 57.2966 59.9894L57.1866 60.0544C56.9888 60.1628 56.835 60.3362 56.7911 60.5529C56.7471 60.7696 56.7912 61.008 56.901 61.1814C56.901 61.1814 56.901 61.1814 56.901 61.203V61.1814C60.0655 64.9741 64.2408 75.2685 61.0104 86.3431C61.0104 86.4081 60.9665 86.4515 60.9665 86.5165C60.8785 86.9717 60.7686 87.405 60.6368 87.8168C57.8679 96.2041 56.813 94.2536 55.6703 99.1732C56.4175 97.0493 57.3624 95.8356 61.5817 92.8882C64.9 90.5692 67.2954 85.4762 68.1305 83.439C68.3502 82.9189 68.2403 82.312 67.8448 81.9219V81.9003Z" fill="#65465E"/>
<path d="M66.3054 78.1295C66.1736 75.3988 65.6023 72.7114 64.5694 70.1974C63.2509 67.0548 61.1192 64.4975 58.5042 62.7854C58.0427 62.5037 57.6691 62.287 57.4054 62.1353C57.2076 62.0269 56.9659 62.0702 56.834 62.2436H56.812C56.7021 62.417 56.7241 62.612 56.856 62.7204C59.0755 64.4759 60.5917 67.1849 60.8994 70.3058C61.0313 71.6061 60.7676 72.9281 60.1743 74.0551C59.4271 75.4638 58.3503 76.6124 57.0757 77.4143L55.6912 78.2812C53.6695 79.5382 52.0213 81.3804 50.9006 83.591L49.0107 87.3837L50.8567 84.2845C52.2632 81.9438 54.3288 80.1234 56.7241 79.0831L58.4602 78.3245C59.4271 77.9127 60.4599 77.8694 61.4488 78.1945C63.009 78.7146 64.3277 79.885 65.1188 81.4454L66.0857 83.3742C66.1516 83.4826 66.2396 83.5476 66.3714 83.5043C66.4813 83.4609 66.5471 83.3526 66.5251 83.2442L66.3054 78.1295Z" fill="#F3F0F3"/>
<path d="M31.673 78.1295C31.8048 75.3988 32.3763 72.7114 33.4091 70.1974C34.7276 67.0548 36.8592 64.4975 39.4742 62.7854C39.9357 62.5037 40.3093 62.287 40.573 62.1353C40.7708 62.0269 41.0125 62.0702 41.1444 62.2436H41.1664C41.2763 62.417 41.2542 62.612 41.1224 62.7204C38.9029 64.4759 37.3866 67.1849 37.079 70.3058C36.9471 71.6061 37.2109 72.9281 37.8042 74.0551C38.5514 75.4638 39.6281 76.6124 40.9027 77.4143L42.2872 78.2812C44.3089 79.5382 45.957 81.3804 47.0778 83.591L48.9676 87.3837L47.1218 84.2845C45.7154 81.9438 43.6496 80.1234 41.2542 79.0831L39.5182 78.3245C38.5513 77.9127 37.5185 77.8694 36.5296 78.1945C34.9693 78.7146 33.6508 79.885 32.8597 81.4454L31.8928 83.3742C31.8269 83.4826 31.717 83.5476 31.6071 83.5043C31.4972 83.4609 31.4313 83.3526 31.4313 83.2442L31.651 78.1295H31.673Z" fill="#F3F0F3"/>
</g>
<defs>
<clipPath id="clip0_185_14325">
<rect width="97" height="133" fill="white"/>
</clipPath>
</defs>
</svg>
