<svg width="97" height="133" viewBox="0 0 97 133" fill="none" xmlns="http://www.w3.org/2000/svg">
<g clip-path="url(#clip0_185_14280)">
<path d="M58.9408 59.0825H36.8105V68.451H58.9408V59.0825Z" fill="#32303A"/>
<path d="M58.2766 52.5361H37.3942V77.3161H58.2766V52.5361Z" fill="#F0B297"/>
<path d="M58.2766 52.5361V60.1569C53.0837 64.3538 46.0692 67.1752 37.3942 67.7776V52.5361H58.2766Z" fill="#D1785E"/>
<path d="M58.8503 49.1938C59.7761 49.4549 60.7924 49.2541 61.6578 48.8324C62.5232 48.4106 63.2477 47.778 63.932 47.1153C65.7332 45.3782 67.4137 43.1992 67.2829 40.7491C67.2426 39.9257 66.9609 39.0823 66.3168 38.54C65.5521 37.8974 64.3848 37.8171 63.4389 38.1785C62.493 38.54 61.7484 39.2831 61.205 40.0964L58.8503 49.1938Z" fill="#F0B297"/>
<path d="M36.2763 49.1938C35.3505 49.4549 34.3342 49.2541 33.4688 48.8324C32.6034 48.4106 31.8789 47.778 31.1946 47.1153C29.3934 45.3782 27.7129 43.1992 27.8437 40.7491C27.884 39.9257 28.1657 39.0823 28.8097 38.54C29.5745 37.8974 30.7418 37.8171 31.6877 38.1785C32.6336 38.54 33.3782 39.2831 33.9216 40.0964L36.2763 49.1938Z" fill="#F0B297"/>
<path d="M62.5336 50.3777C63.2481 42.7168 65.2508 38.2488 66.4887 33.8209C67.3743 30.5075 68.27 24.8346 64.4055 19.8445C60.5812 14.6536 51.0005 11.7017 42.2148 14.1817C33.3788 16.6717 28.4677 21.8225 29.5445 27.6962C30.088 31.2104 30.5912 36.07 31.1849 39.7046C31.6781 42.7168 30.7522 45.739 31.8693 48.6809C33.9525 53.7312 41.9934 62.597 48.3236 62.597C53.4963 62.597 62.0405 53.7312 62.5336 50.3878V50.3777Z" fill="#F0B297"/>
<g style="mix-blend-mode:soft-light">
<path d="M49.4304 43.0581C49.3801 43.2087 49.3097 43.3493 49.2392 43.4799C49.1688 43.6104 49.0883 43.761 48.9474 43.8313C48.8166 43.9016 48.6254 43.8514 48.4745 43.6305C48.394 43.52 48.3437 43.3794 48.3235 43.2087C48.3034 43.038 48.3235 42.8573 48.3839 42.6766C48.4443 42.4958 48.555 42.3452 48.6657 42.2247C48.7864 42.1142 48.9172 42.0339 49.048 41.9937C49.2996 41.9235 49.4807 42.0138 49.5411 42.1444C49.6015 42.2849 49.5713 42.4456 49.5411 42.5962C49.5109 42.7468 49.4807 42.8975 49.4204 43.0481L49.4304 43.0581Z" fill="#F2F2F2"/>
</g>
<path d="M47.8203 43.5806C47.8001 43.4802 47.77 43.3798 47.7599 43.2995C47.7498 43.2192 47.7297 43.1388 47.7196 43.0685C47.7196 42.9882 47.6995 42.9079 47.7096 42.8075C47.7096 42.7071 47.7196 42.5966 47.7398 42.4861C47.77 42.2652 47.8001 42.0343 47.7901 41.8435C47.78 41.6527 47.7297 41.4921 47.619 41.3916C47.5083 41.2912 47.3976 41.3013 47.2869 41.3816C47.1662 41.4619 47.0354 41.6226 46.9046 41.8535C46.7737 42.0845 46.6329 42.4058 46.6027 42.7974C46.5826 42.9882 46.6027 43.1991 46.6429 43.3899C46.6832 43.5806 46.7536 43.7614 46.8341 43.9321C46.9146 44.1028 47.0153 44.2635 47.1159 44.404C47.2165 44.5446 47.3272 44.6751 47.4278 44.7856C47.6391 45.0065 47.8303 45.1772 47.9913 45.3077C48.3234 45.5588 48.5146 45.6492 48.6253 45.4784C48.7259 45.3178 48.7159 45.117 48.5347 44.8258C48.4442 44.6751 48.3234 44.5145 48.1825 44.3036C48.1121 44.2032 48.0417 44.0928 47.9813 43.9723C47.9209 43.8518 47.8706 43.7212 47.8303 43.5907L47.8203 43.5806Z" fill="#D1785E"/>
<path d="M53.2246 35.719C54.08 35.5182 54.9655 35.4881 55.841 35.5985C56.7164 35.709 57.5717 35.9801 58.3566 36.3918C59.1415 36.8035 58.7893 37.5967 58.0145 37.406C57.2397 37.2152 56.4648 37.0646 55.69 36.9641C54.9152 36.8637 54.1303 36.8035 53.3353 36.7934C52.5404 36.7734 52.3794 35.9198 53.2347 35.719H53.2246Z" fill="#1A1A1A"/>
<path d="M42.6471 35.6485C41.7917 35.4677 40.8961 35.4477 40.0307 35.5782C39.1653 35.7087 38.31 35.9899 37.5352 36.4217C36.7603 36.8534 37.1226 37.6367 37.8974 37.4358C38.6723 37.225 39.437 37.0643 40.2119 36.9438C40.9867 36.8233 41.7716 36.753 42.5665 36.7229C43.3615 36.6827 43.5024 35.8292 42.6471 35.6485Z" fill="#1A1A1A"/>
<path d="M41.832 42.1755V40.1372C41.8118 39.1531 41.0068 38.3599 40.0207 38.3599C39.0345 38.3599 38.2396 39.1732 38.2396 40.1472V42.1856C38.2597 43.1696 41.832 43.1496 41.8219 42.1655L41.832 42.1755Z" fill="#1A1A1A"/>
<path d="M54.1102 42.1755V40.1372C54.1304 39.1531 54.9354 38.3599 55.9215 38.3599C56.9077 38.3599 57.7026 39.1732 57.7026 40.1472V42.1856C57.6825 43.1696 54.1102 43.1496 54.1203 42.1655L54.1102 42.1755Z" fill="#1A1A1A"/>
<path d="M44.137 49.9461C47.186 51.2214 50.8186 50.6691 53.3947 48.6307C53.7972 48.3194 53.2337 47.7571 52.8412 48.0785C50.4765 49.9461 47.1256 50.3478 44.3483 49.193C44.147 49.1127 43.9156 49.2834 43.8653 49.4642C43.8049 49.6951 43.9458 49.8658 44.137 49.9461Z" fill="#A33939"/>
<path d="M35.7437 61.9541L36.418 64.4743C37.5854 67.8077 40.5643 73.2497 47.6593 73.2497C55.66 73.2497 58.7093 66.3217 59.6553 63.3196L60.0176 61.9541C74.751 67.4764 70.2323 113.512 70.2323 113.512L70.3229 151.746H47.8404H24.1503L24.7642 113.512C24.7642 113.512 21.0003 67.4764 35.7337 61.9541H35.7437Z" fill="white"/>
<path d="M43.5231 72.0053L45.2639 75.329H50.5469L52.2374 72.0053L47.8802 68.4507L43.5231 72.0053Z" fill="#96281B"/>
<path d="M47.8807 68.4513L53.456 74.3053L62.9864 62.9687L57.0387 60.0166L54.8046 62.0851L47.8907 68.4613L47.8807 68.4513Z" fill="#E6E7E8"/>
<path d="M38.7226 60.0166L47.8807 68.4513L42.3053 74.3053L32.785 62.9587L38.7226 60.0166Z" fill="#E6E7E8"/>
<path d="M45.2639 76.1216L43.1105 145.311L47.8802 150.572L52.66 145.311L50.5468 76.1216H45.2639Z" fill="#96281B"/>
<path d="M10.1919 75.2779C11.6411 66.8338 21.0105 66.8338 35.7438 61.3115C35.7438 61.3115 47.8808 110.329 47.8808 110.339L60.0177 61.3115C74.7511 66.8338 84.1205 66.8338 85.5697 75.2779C87.9045 88.9129 80.105 94.877 80.0446 94.7966C80.0446 94.7966 79.4106 155.341 80.3667 169.93H50.1451L47.8808 159.387L45.6164 169.93H15.3949C16.3509 155.331 15.7169 94.7966 15.7169 94.7966C15.6565 94.877 7.85709 88.9129 10.1919 75.2779Z" fill="#32303A"/>
<path d="M66.5692 62.9983L66.2774 71.6332L61.9499 75.1775L65.3213 79.766L47.9915 110.339L58.9509 59.0825L66.5692 62.9983Z" fill="#4F4C4D"/>
<path d="M29.1923 62.9983L29.4841 71.6332L33.8115 75.1775L30.4502 79.766L47.77 110.339L36.8105 59.0825L29.1923 62.9983Z" fill="#4F4C4D"/>
<path d="M27.2297 64.1333C15.757 67.7077 7.51478 68.7319 6.287 75.9209C3.94213 89.5559 1.28529 105.018 -0.224274 121.595C-0.737527 143.202 1.22491 170.141 1.22491 170.141H13.0901C13.1606 170.031 13.382 152.881 13.8248 133.724C15.9985 119.768 17.0251 113.593 17.0854 113.523L29.8262 73.1196C29.635 72.7079 28.2562 66.6234 27.2197 64.1433L27.2297 64.1333Z" fill="#32303A"/>
<path d="M69.1757 64.4644C80.6484 68.0388 88.8906 69.0629 90.1184 76.2519C92.4532 89.8869 95.1201 105.349 96.6196 121.926C97.1329 143.533 95.1704 170.472 95.1704 170.472H83.3052C83.2348 170.362 83.0134 153.212 82.5706 134.055C80.3968 120.099 79.3703 113.924 79.3099 113.854L66.5692 73.4506C66.7604 73.039 68.1391 66.9544 69.1757 64.4744V64.4644Z" fill="#32303A"/>
<path d="M27.3204 27.3747C26.8876 25.0553 26.6964 22.7159 27.0788 20.3965C27.6726 16.792 29.947 13.2477 33.4694 12.073C31.5472 10.8079 31.366 7.90615 32.5636 5.94825C33.7511 4.00039 35.9249 2.83569 38.0786 2.00233C45.3547 -0.798977 53.9894 -0.678491 60.6416 3.35779C67.2635 7.374 70.967 16.8824 69.4474 22.977C67.9177 29.0715 67.2535 32.2544 63.0267 32.0134C59.2829 31.8026 55.982 29.6137 53.134 27.2141C50.2859 24.8244 46.0189 20.517 42.6475 18.9105C39.9907 17.6454 36.6998 17.2137 34.0329 18.268C30.9232 24.9851 31.7183 32.6861 31.3962 40.6282C30.4402 37.7365 29.0312 34.2123 28.2261 31.2001C27.884 29.935 27.572 28.6498 27.3304 27.3546L27.3204 27.3747Z" fill="#2C1E1C"/>
<path d="M64.7877 38.3691L64.0129 20.2159C64.0129 20.2159 66.7097 17.9367 68.3399 18.8403C70.4631 20.005 66.0657 38.4494 64.7877 38.3691Z" fill="#2C1E1C"/>
</g>
<defs>
<clipPath id="clip0_185_14280">
<rect width="97" height="133" fill="white"/>
</clipPath>
</defs>
</svg>
