<svg width="1920" height="931" viewBox="0 0 1920 931" fill="none" xmlns="http://www.w3.org/2000/svg">
<g clip-path="url(#clip0_297_92)">
<rect width="1920" height="931" fill="white"/>
<rect x="1920" y="74.084" width="650.087" height="128.494" transform="rotate(90 1920 74.084)" fill="#CC8F63"/>
<rect x="128" y="107.084" width="650.087" height="128.494" transform="rotate(90 128 107.084)" fill="#CC8F63"/>
<rect width="1920" height="209.458" fill="#CC8F63"/>
<rect y="850.075" width="1920" height="181.925" fill="#E53450"/>
<g clip-path="url(#clip1_297_92)">
<path d="M1739.18 172H206.32C193.995 172 184.003 182.178 184.003 194.734V836.266C184.003 848.822 193.995 859 206.32 859H1739.18C1751.51 859 1761.5 848.822 1761.5 836.266V194.734C1761.5 182.178 1751.51 172 1739.18 172Z" fill="#CB8F64"/>
<path d="M1920 836.266C1920 848.825 1907.84 859 1892.84 859H27.0447C12.0377 859 -0.119629 848.825 -0.119629 836.266V745.261H1920V836.266Z" fill="#AB5A4C"/>
<path d="M1919.98 836.266C1919.98 848.826 1922.76 869.557 1907.75 869.557L12.7562 864.278C-2.24977 864.278 0.000103861 848.826 0.000103861 836.266V767.171H1919.98V836.266Z" fill="#E5344F"/>
<path d="M1920.18 723.436H-0.119629V745.261H1920.18V723.436Z" fill="#924642"/>
<path d="M1920 719.575H-0.119629V723.436H1920V719.575Z" fill="#AB5A4C"/>
<g style="mix-blend-mode:multiply">
<path d="M1696.43 779.113H814.348C809.905 779.113 806.303 782.724 806.303 787.177C806.303 791.631 809.905 795.242 814.348 795.242H1696.43C1700.87 795.242 1704.47 791.631 1704.47 787.177C1704.47 782.724 1700.87 779.113 1696.43 779.113Z" fill="#D9D0D8"/>
</g>
<g style="mix-blend-mode:soft-light" opacity="0.9">
<path d="M1648.28 217.708H1003.44C1001.96 217.708 1000.75 218.915 1000.75 220.402V604.858C1000.75 606.346 1001.96 607.552 1003.44 607.552H1648.28C1649.77 607.552 1650.97 606.346 1650.97 604.858V220.402C1650.97 218.915 1649.77 217.708 1648.28 217.708Z" fill="white"/>
<path d="M1658.04 206.916H993.701C989.986 206.916 986.974 209.936 986.974 213.659V611.601H1664.76V213.659C1664.76 209.936 1661.75 206.916 1658.04 206.916ZM1650.97 604.858C1650.97 606.351 1649.77 607.552 1648.28 607.552H1003.44C1001.95 607.552 1000.75 606.351 1000.75 604.858V220.402C1000.75 218.909 1001.95 217.708 1003.44 217.708H1648.28C1649.77 217.708 1650.97 218.909 1650.97 220.402V604.858Z" fill="#C4C4C4"/>
<path d="M1664.27 623.337H987.487C985.639 623.337 984.133 621.827 984.133 619.974V617.194H1667.64V619.974C1667.64 621.844 1666.13 623.337 1664.28 623.337H1664.27Z" fill="#C4C4C4"/>
<path d="M1668.27 611.601H983.483C981.791 611.601 980.419 612.976 980.419 614.672V614.69C980.419 616.386 981.791 617.761 983.483 617.761H1668.27C1669.96 617.761 1671.34 616.386 1671.34 614.69V614.672C1671.34 612.976 1669.96 611.601 1668.27 611.601Z" fill="#EBEBEB"/>
<path d="M1130.21 217.708H1003.44C1001.95 217.708 1000.75 218.91 1000.75 220.402V604.858C1000.75 606.351 1001.95 607.552 1003.44 607.552H1130.21C1131.7 607.552 1132.9 606.351 1132.9 604.858V220.402C1132.9 218.91 1131.7 217.708 1130.21 217.708ZM1088.91 227.265C1088.91 225.773 1090.11 224.572 1091.6 224.572H1120.8C1122.29 224.572 1123.49 225.773 1123.49 227.265V276.2C1123.49 277.692 1122.29 278.893 1120.8 278.893H1091.6C1090.11 278.893 1088.91 277.692 1088.91 276.2V227.265ZM1091.6 283.612H1120.8C1122.29 283.612 1123.49 284.813 1123.49 286.306V335.411C1123.49 336.904 1122.29 338.105 1120.8 338.105H1091.6C1090.11 338.105 1088.91 336.904 1088.91 335.411V286.306C1088.91 284.813 1090.11 283.612 1091.6 283.612ZM1049.46 227.265C1049.46 225.773 1050.66 224.572 1052.15 224.572H1081.52C1083.01 224.572 1084.21 225.773 1084.21 227.265V276.2C1084.21 277.692 1083.01 278.893 1081.52 278.893H1052.15C1050.66 278.893 1049.46 277.692 1049.46 276.2V227.265ZM1052.15 283.612H1081.52C1083.01 283.612 1084.21 284.813 1084.21 286.306V335.411C1084.21 336.904 1083.01 338.105 1081.52 338.105H1052.15C1050.66 338.105 1049.46 336.904 1049.46 335.411V286.306C1049.46 284.813 1050.66 283.612 1052.15 283.612ZM1010.17 227.265C1010.17 225.773 1011.36 224.572 1012.85 224.572H1042.05C1043.54 224.572 1044.74 225.773 1044.74 227.265V276.2C1044.74 277.692 1043.54 278.893 1042.05 278.893H1012.85C1011.36 278.893 1010.17 277.692 1010.17 276.2V227.265ZM1012.85 283.612H1042.05C1043.54 283.612 1044.74 284.813 1044.74 286.306V335.411C1044.74 336.904 1043.54 338.105 1042.05 338.105H1012.85C1011.36 338.105 1010.17 336.904 1010.17 335.411V286.306C1010.17 284.813 1011.36 283.612 1012.85 283.612ZM1044.74 598.012C1044.74 599.505 1043.54 600.706 1042.05 600.706H1012.85C1011.36 600.706 1010.17 599.505 1010.17 598.012V526.721C1010.17 525.229 1011.36 524.027 1012.85 524.027H1042.05C1043.54 524.027 1044.74 525.229 1044.74 526.721V598.012ZM1044.74 516.598C1044.74 518.091 1043.54 519.292 1042.05 519.292H1012.85C1011.36 519.292 1010.17 518.091 1010.17 516.598V443.163C1010.17 441.67 1011.36 440.469 1012.85 440.469H1042.05C1043.54 440.469 1044.74 441.67 1044.74 443.163V516.598ZM1042.05 435.75H1012.85C1011.36 435.75 1010.17 434.549 1010.17 433.057V361.766C1010.17 360.273 1011.36 359.072 1012.85 359.072H1042.05C1043.54 359.072 1044.74 360.273 1044.74 361.766V433.057C1044.74 434.549 1043.54 435.75 1042.05 435.75ZM1084.19 598.012C1084.19 599.505 1082.99 600.706 1081.5 600.706H1052.13C1050.64 600.706 1049.45 599.505 1049.45 598.012V526.721C1049.45 525.229 1050.64 524.027 1052.13 524.027H1081.5C1082.99 524.027 1084.19 525.229 1084.19 526.721V598.012ZM1084.19 516.598C1084.19 518.091 1082.99 519.292 1081.5 519.292H1052.13C1050.64 519.292 1049.45 518.091 1049.45 516.598V443.163C1049.45 441.67 1050.64 440.469 1052.13 440.469H1081.5C1082.99 440.469 1084.19 441.67 1084.19 443.163V516.598ZM1081.5 435.75H1052.13C1050.64 435.75 1049.45 434.549 1049.45 433.057V361.766C1049.45 360.273 1050.64 359.072 1052.13 359.072H1081.5C1082.99 359.072 1084.19 360.273 1084.19 361.766V433.057C1084.19 434.549 1082.99 435.75 1081.5 435.75ZM1123.49 598.012C1123.49 599.505 1122.29 600.706 1120.8 600.706H1091.6C1090.11 600.706 1088.91 599.505 1088.91 598.012V526.721C1088.91 525.229 1090.11 524.027 1091.6 524.027H1120.8C1122.29 524.027 1123.49 525.229 1123.49 526.721V598.012ZM1123.49 516.598C1123.49 518.091 1122.29 519.292 1120.8 519.292H1091.6C1090.11 519.292 1088.91 518.091 1088.91 516.598V443.163C1088.91 441.67 1090.11 440.469 1091.6 440.469H1120.8C1122.29 440.469 1123.49 441.67 1123.49 443.163V516.598ZM1120.8 435.75H1091.6C1090.11 435.75 1088.91 434.549 1088.91 433.057V361.766C1088.91 360.273 1090.11 359.072 1091.6 359.072H1120.8C1122.29 359.072 1123.49 360.273 1123.49 361.766V433.057C1123.49 434.549 1122.29 435.75 1120.8 435.75Z" fill="#C4C4C4"/>
<path d="M1648.28 217.708H1521.51C1520.02 217.708 1518.82 218.91 1518.82 220.402V604.858C1518.82 606.351 1520.02 607.552 1521.51 607.552H1648.28C1649.77 607.552 1650.97 606.351 1650.97 604.858V220.402C1650.97 218.91 1649.77 217.708 1648.28 217.708ZM1606.98 227.265C1606.98 225.773 1608.18 224.572 1609.67 224.572H1638.87C1640.36 224.572 1641.55 225.773 1641.55 227.265V276.2C1641.55 277.692 1640.36 278.893 1638.87 278.893H1609.67C1608.18 278.893 1606.98 277.692 1606.98 276.2V227.265ZM1609.67 283.612H1638.87C1640.36 283.612 1641.55 284.813 1641.55 286.306V335.411C1641.55 336.904 1640.36 338.105 1638.87 338.105H1609.67C1608.18 338.105 1606.98 336.904 1606.98 335.411V286.306C1606.98 284.813 1608.18 283.612 1609.67 283.612ZM1567.53 227.265C1567.53 225.773 1568.73 224.572 1570.22 224.572H1599.59C1601.08 224.572 1602.27 225.773 1602.27 227.265V276.2C1602.27 277.692 1601.08 278.893 1599.59 278.893H1570.22C1568.73 278.893 1567.53 277.692 1567.53 276.2V227.265ZM1570.22 283.612H1599.59C1601.08 283.612 1602.27 284.813 1602.27 286.306V335.411C1602.27 336.904 1601.08 338.105 1599.59 338.105H1570.22C1568.73 338.105 1567.53 336.904 1567.53 335.411V286.306C1567.53 284.813 1568.73 283.612 1570.22 283.612ZM1528.23 227.265C1528.23 225.773 1529.43 224.572 1530.92 224.572H1560.12C1561.61 224.572 1562.81 225.773 1562.81 227.265V276.2C1562.81 277.692 1561.61 278.893 1560.12 278.893H1530.92C1529.43 278.893 1528.23 277.692 1528.23 276.2V227.265ZM1530.92 283.612H1560.12C1561.61 283.612 1562.81 284.813 1562.81 286.306V335.411C1562.81 336.904 1561.61 338.105 1560.12 338.105H1530.92C1529.43 338.105 1528.23 336.904 1528.23 335.411V286.306C1528.23 284.813 1529.43 283.612 1530.92 283.612ZM1562.81 598.012C1562.81 599.505 1561.61 600.706 1560.12 600.706H1530.92C1529.43 600.706 1528.23 599.505 1528.23 598.012V526.721C1528.23 525.229 1529.43 524.027 1530.92 524.027H1560.12C1561.61 524.027 1562.81 525.229 1562.81 526.721V598.012ZM1562.81 516.598C1562.81 518.091 1561.61 519.292 1560.12 519.292H1530.92C1529.43 519.292 1528.23 518.091 1528.23 516.598V443.163C1528.23 441.67 1529.43 440.469 1530.92 440.469H1560.12C1561.61 440.469 1562.81 441.67 1562.81 443.163V516.598ZM1560.12 435.75H1530.92C1529.43 435.75 1528.23 434.549 1528.23 433.057V361.766C1528.23 360.273 1529.43 359.072 1530.92 359.072H1560.12C1561.61 359.072 1562.81 360.273 1562.81 361.766V433.057C1562.81 434.549 1561.61 435.75 1560.12 435.75ZM1602.26 598.012C1602.26 599.505 1601.06 600.706 1599.57 600.706H1570.2C1568.71 600.706 1567.51 599.505 1567.51 598.012V526.721C1567.51 525.229 1568.71 524.027 1570.2 524.027H1599.57C1601.06 524.027 1602.26 525.229 1602.26 526.721V598.012ZM1602.26 516.598C1602.26 518.091 1601.06 519.292 1599.57 519.292H1570.2C1568.71 519.292 1567.51 518.091 1567.51 516.598V443.163C1567.51 441.67 1568.71 440.469 1570.2 440.469H1599.57C1601.06 440.469 1602.26 441.67 1602.26 443.163V516.598ZM1599.57 435.75H1570.2C1568.71 435.75 1567.51 434.549 1567.51 433.057V361.766C1567.51 360.273 1568.71 359.072 1570.2 359.072H1599.57C1601.06 359.072 1602.26 360.273 1602.26 361.766V433.057C1602.26 434.549 1601.06 435.75 1599.57 435.75ZM1641.55 598.012C1641.55 599.505 1640.36 600.706 1638.87 600.706H1609.67C1608.18 600.706 1606.98 599.505 1606.98 598.012V526.721C1606.98 525.229 1608.18 524.027 1609.67 524.027H1638.87C1640.36 524.027 1641.55 525.229 1641.55 526.721V598.012ZM1641.55 516.598C1641.55 518.091 1640.36 519.292 1638.87 519.292H1609.67C1608.18 519.292 1606.98 518.091 1606.98 516.598V443.163C1606.98 441.67 1608.18 440.469 1609.67 440.469H1638.87C1640.36 440.469 1641.55 441.67 1641.55 443.163V516.598ZM1638.87 435.75H1609.67C1608.18 435.75 1606.98 434.549 1606.98 433.057V361.766C1606.98 360.273 1608.18 359.072 1609.67 359.072H1638.87C1640.36 359.072 1641.55 360.273 1641.55 361.766V433.057C1641.55 434.549 1640.36 435.75 1638.87 435.75Z" fill="#C4C4C4"/>
<path d="M1649.63 213.659H1002.1C999.126 213.659 996.73 216.078 996.73 219.047V610.022C996.73 610.898 997.432 611.601 998.305 611.601H1653.45C1654.32 611.601 1655.02 610.898 1655.02 610.022V219.047C1655.02 216.061 1652.61 213.659 1649.65 213.659H1649.63ZM1521.52 217.708H1648.3C1649.79 217.708 1650.99 218.909 1650.99 220.402V342.515C1650.99 344.007 1649.79 345.208 1648.3 345.208H1521.52C1520.04 345.208 1518.84 344.007 1518.84 342.515V220.402C1518.84 218.909 1520.04 217.708 1521.52 217.708ZM1003.46 217.708H1130.23C1131.72 217.708 1132.92 218.909 1132.92 220.402V342.515C1132.92 344.007 1131.72 345.208 1130.23 345.208H1003.46C1001.97 345.208 1000.77 344.007 1000.77 342.515V220.402C1000.77 218.909 1001.97 217.708 1003.46 217.708ZM1130.23 607.552H1003.46C1001.97 607.552 1000.77 606.351 1000.77 604.858V354.645C1000.77 353.152 1001.97 351.951 1003.46 351.951H1130.23C1131.72 351.951 1132.92 353.152 1132.92 354.645V604.858C1132.92 606.351 1131.72 607.552 1130.23 607.552ZM1511.27 604.858C1511.27 606.351 1510.07 607.552 1508.58 607.552H1143.17C1141.68 607.552 1140.48 606.351 1140.48 604.858V220.402C1140.48 218.909 1141.68 217.708 1143.17 217.708H1508.58C1510.07 217.708 1511.27 218.909 1511.27 220.402V604.858ZM1648.3 607.552H1521.52C1520.04 607.552 1518.84 606.351 1518.84 604.858V354.645C1518.84 353.152 1520.04 351.951 1521.52 351.951H1648.3C1649.79 351.951 1650.99 353.152 1650.99 354.645V604.858C1650.99 606.351 1649.79 607.552 1648.3 607.552Z" fill="#A8A8A8"/>
</g>
<path d="M1419.52 275.788C1420.32 275.788 1421.04 275.222 1421.21 274.415L1422.87 266.317C1423.73 262.199 1421.67 258.03 1417.91 256.194L1327.26 211.961C1327.01 211.841 1326.72 211.772 1326.43 211.789L1225.72 216.439C1221.52 216.628 1218 219.648 1217.16 223.765L1215.5 231.864C1215.31 232.808 1215.91 233.717 1216.83 233.906C1217.78 234.094 1218.68 233.494 1218.87 232.567L1220.53 224.469C1221.06 221.895 1223.25 220.025 1225.87 219.905L1326.13 215.289L1416.38 259.316C1418.75 260.466 1420.01 263.057 1419.48 265.631L1417.82 273.729C1417.63 274.673 1418.23 275.582 1419.16 275.771C1419.28 275.788 1419.4 275.805 1419.5 275.805L1419.52 275.788Z" fill="#483453"/>
<path d="M1467.83 303.326C1468.67 303.326 1469.42 302.708 1469.54 301.833L1469.72 300.615C1470.3 296.446 1468 292.414 1464.12 290.818L1420.17 272.734C1419.89 272.631 1419.62 272.579 1419.33 272.614L1372.11 277.812C1367.93 278.276 1364.61 281.501 1364.03 285.671L1363.86 286.889C1363.72 287.833 1364.39 288.708 1365.33 288.845C1366.27 288.982 1367.14 288.313 1367.28 287.369L1367.45 286.151C1367.81 283.543 1369.88 281.536 1372.5 281.244L1419.29 276.097L1462.84 294.009C1465.27 295.005 1466.69 297.527 1466.33 300.118L1466.16 301.336C1466.02 302.28 1466.69 303.155 1467.63 303.292C1467.71 303.292 1467.8 303.292 1467.87 303.292L1467.83 303.326Z" fill="#483453"/>
<path d="M1133.72 309.28C1133.31 309.349 1132.88 309.228 1132.58 308.954C1132.27 308.679 1132.1 308.268 1132.13 307.856C1134.58 272.837 1193.25 236.205 1217.18 232.052C1241.1 227.883 1308.66 242.519 1322.75 274.673C1322.92 275.05 1322.9 275.496 1322.69 275.856C1322.49 276.217 1322.15 276.491 1321.74 276.56L1133.72 309.297V309.28Z" fill="#DE2C48"/>
<path d="M1407.42 329.492C1406.99 329.44 1406.63 329.183 1406.42 328.806C1406.22 328.428 1406.2 327.982 1406.37 327.587C1414.78 308.731 1453.76 299.02 1467.85 301.01C1481.94 303 1516.73 323.126 1519.61 343.578C1519.66 344.007 1519.52 344.436 1519.23 344.728C1518.92 345.037 1518.49 345.174 1518.08 345.123L1407.43 329.492H1407.42Z" fill="#DE2C48"/>
<path d="M1332.26 310.653C1331.82 310.67 1331.41 310.481 1331.13 310.121C1330.86 309.777 1330.77 309.314 1330.91 308.885C1334.69 296.463 1357.27 286.34 1366.13 285.98C1375 285.619 1398.29 293.906 1403.07 305.986C1403.22 306.397 1403.19 306.861 1402.95 307.221C1402.71 307.598 1402.3 307.821 1401.87 307.839L1332.28 310.635L1332.26 310.653Z" fill="#DE2C48"/>
<path d="M1328.22 199.841V214.621C1328.22 214.963 1327.45 215.238 1326.49 215.238C1325.53 215.238 1324.76 214.963 1324.76 214.621V199.841H1328.22Z" fill="#483453"/>
<path d="M1325.14 703.001V648.096C1325.14 645.128 1323.45 642.726 1321.34 642.726H1457.32C1459.41 642.726 1461.12 645.128 1461.12 648.096V703.001C1461.12 716.247 1468.72 727.005 1478.07 727.005H1342.09C1332.74 727.005 1325.14 716.23 1325.14 703.001Z" fill="#D52440"/>
<path d="M1459.74 595.953C1460.99 589.571 1464.94 585.35 1469.32 585.092L1606.86 585.075C1602.41 585.23 1598.36 589.485 1597.09 595.953L1575.73 705.18L1606.84 717.671L1469.3 717.688V717.602L1438.36 705.18L1459.72 595.953H1459.74Z" fill="#EE435E"/>
<path d="M1621.08 590.12L1609.93 585.642C1604.4 583.428 1598.66 588.044 1597.12 595.953L1575.76 705.18L1606.93 717.688L1628.29 608.461C1629.83 600.552 1626.61 592.333 1621.08 590.12Z" fill="#E1304C"/>
<path d="M1316.94 694.868C1316.94 686.649 1321.65 679.992 1327.45 679.992H1472.13C1477.93 679.992 1482.64 686.649 1482.64 694.868V712.129C1482.64 720.347 1477.93 727.005 1472.13 727.005H1327.45C1321.65 727.005 1316.94 720.347 1316.94 712.129V694.868Z" fill="#D52440"/>
<path d="M1487.6 703.001V648.096C1487.6 645.128 1485.91 642.726 1483.8 642.726H1631.63C1633.72 642.726 1635.43 645.128 1635.43 648.096V703.001C1635.43 731.14 1619.29 754.028 1599.43 754.028H1451.61C1471.46 754.028 1487.6 731.14 1487.6 703.001Z" fill="#D52440"/>
<path d="M1306.09 703.001C1306.09 731.14 1322.23 754.028 1342.09 754.028H1451.61C1471.46 754.028 1487.6 731.14 1487.6 703.001V648.096C1487.6 645.128 1485.91 642.726 1483.8 642.726H1472.33C1470.25 642.726 1468.53 645.128 1468.53 648.096V703.001C1468.53 716.247 1460.93 727.005 1451.59 727.005H1342.07C1332.72 727.005 1325.12 716.23 1325.12 703.001V648.096C1325.12 645.128 1323.43 642.726 1321.32 642.726H1309.86C1307.77 642.726 1306.06 645.128 1306.06 648.096V703.001H1306.09Z" fill="#E1304C"/>
<path d="M1481.9 754.028H1499.05L1492.56 787.16H1481.9V754.028Z" fill="#4B2F4C"/>
<path d="M1481.9 754.028H1464.75L1471.24 787.16H1481.9V754.028Z" fill="#5A405E"/>
<path d="M1589.59 754.028L1601.37 787.16H1591.15L1572.43 754.028H1589.59Z" fill="#4B2F4C"/>
<path d="M1572.43 754.028L1591.15 787.16H1579.77L1555.53 754.028H1572.43Z" fill="#5A405E"/>
<path d="M1460.92 754.028H1478.07L1471.58 787.16H1460.92V754.028Z" fill="#4B2F4C"/>
<path d="M1460.92 754.028H1443.75L1450.24 787.16H1460.92V754.028Z" fill="#5A405E"/>
<path d="M1352.37 754.028L1340.58 787.16H1350.81L1369.54 754.028H1352.37Z" fill="#5A405E"/>
<path d="M1369.54 754.028L1350.81 787.16H1362.2L1386.43 754.028H1369.54Z" fill="#4B2F4C"/>
<g style="mix-blend-mode:multiply">
<path d="M1325.43 716.504V708.371C1325.43 708.08 1325.45 707.805 1325.47 707.513C1326.95 718.597 1333.85 727.005 1342.1 727.005H1451.62C1460.25 727.005 1467.37 717.825 1468.41 705.986C1468.5 706.758 1468.57 707.548 1468.57 708.371V716.504C1468.57 729.767 1460.99 740.508 1451.62 740.508H1342.38C1333.01 740.508 1325.43 729.75 1325.43 716.504Z" fill="#E4DCE1"/>
</g>
<path d="M1327.45 679.992H1450.39C1456.19 679.992 1460.9 686.649 1460.9 694.868V712.129C1460.9 720.347 1456.19 727.005 1450.39 727.005H1327.45C1321.65 727.005 1316.94 720.347 1316.94 712.129V694.868C1316.94 686.649 1321.65 679.992 1327.45 679.992Z" fill="#E93853"/>
<path d="M1204.6 703.001V648.096C1204.6 645.128 1206.29 642.726 1208.4 642.726H1072.41C1070.33 642.726 1068.61 645.128 1068.61 648.096V703.001C1068.61 716.247 1061.01 727.005 1051.67 727.005H1187.65C1197 727.005 1204.6 716.23 1204.6 703.001Z" fill="#D52440"/>
<path d="M1070 595.953C1068.75 589.571 1064.8 585.35 1060.42 585.092L922.876 585.075C927.326 585.23 931.383 589.485 932.649 595.953L954.009 705.18L922.894 717.671L1060.43 717.688V717.602L1091.38 705.18L1070.02 595.953H1070Z" fill="#EE435E"/>
<path d="M908.653 590.12L919.813 585.642C925.341 583.428 931.074 588.044 932.615 595.953L953.975 705.18L922.808 717.688L901.448 608.461C899.907 600.552 903.125 592.333 908.653 590.12Z" fill="#E1304C"/>
<path d="M1212.79 694.868C1212.79 686.649 1208.09 679.992 1202.29 679.992H1057.61C1051.81 679.992 1047.1 686.649 1047.1 694.868V712.129C1047.1 720.347 1051.81 727.005 1057.61 727.005H1202.29C1208.09 727.005 1212.79 720.347 1212.79 712.129V694.868Z" fill="#D52440"/>
<path d="M1042.14 703.001V648.096C1042.14 645.128 1043.83 642.726 1045.94 642.726H898.11C896.022 642.726 894.311 645.128 894.311 648.096V703.001C894.311 731.14 910.45 754.028 930.304 754.028H1078.13C1058.28 754.028 1042.14 731.14 1042.14 703.001Z" fill="#D52440"/>
<path d="M1223.65 703.001C1223.65 731.14 1207.51 754.028 1187.65 754.028H1078.13C1058.28 754.028 1042.14 731.14 1042.14 703.001V648.096C1042.14 645.128 1043.83 642.726 1045.94 642.726H1057.4C1059.49 642.726 1061.2 645.128 1061.2 648.096V703.001C1061.2 716.247 1068.8 727.005 1078.15 727.005H1187.67C1197.01 727.005 1204.61 716.23 1204.61 703.001V648.096C1204.61 645.128 1206.31 642.726 1208.41 642.726H1219.88C1221.97 642.726 1223.68 645.128 1223.68 648.096V703.001H1223.65Z" fill="#E1304C"/>
<path d="M1047.84 754.028H1030.67L1037.16 787.16H1047.84V754.028Z" fill="#4B2F4C"/>
<path d="M1047.84 754.028H1064.99L1058.5 787.16H1047.84V754.028Z" fill="#5A405E"/>
<path d="M940.146 754.028L928.37 787.16H938.588L957.312 754.028H940.146Z" fill="#4B2F4C"/>
<path d="M957.313 754.028L938.588 787.16H949.97L974.206 754.028H957.313Z" fill="#5A405E"/>
<path d="M1068.82 754.028H1051.67L1058.16 787.16H1068.82V754.028Z" fill="#4B2F4C"/>
<path d="M1068.82 754.028H1085.99L1079.48 787.16H1068.82V754.028Z" fill="#5A405E"/>
<path d="M1177.37 754.028L1189.14 787.16H1178.92L1160.2 754.028H1177.37Z" fill="#5A405E"/>
<path d="M1160.2 754.028L1178.92 787.16H1167.54L1143.31 754.028H1160.2Z" fill="#4B2F4C"/>
<g style="mix-blend-mode:multiply">
<path d="M1204.31 716.504V708.371C1204.31 708.08 1204.29 707.805 1204.27 707.513C1202.78 718.597 1195.88 727.005 1187.64 727.005H1078.11C1069.49 727.005 1062.37 717.825 1061.32 705.986C1061.24 706.758 1061.17 707.548 1061.17 708.371V716.504C1061.17 729.767 1068.75 740.508 1078.11 740.508H1187.36C1196.72 740.508 1204.31 729.75 1204.31 716.504Z" fill="#E4DCE1"/>
</g>
<path d="M1202.29 679.992H1079.35C1073.54 679.992 1068.84 686.649 1068.84 694.868V712.129C1068.84 720.347 1073.54 727.005 1079.35 727.005H1202.29C1208.09 727.005 1212.8 720.347 1212.8 712.129V694.868C1212.8 686.649 1208.09 679.992 1202.29 679.992Z" fill="#E93853"/>
<path d="M1365.93 698.231H1163.81L1158.06 716.658H1371.68L1365.93 698.231Z" fill="#4B2F4C"/>
<path d="M1146.13 698.231H1143.67L1128.81 785.067C1128.72 785.582 1128.86 786.131 1129.2 786.525C1129.55 786.937 1130.04 787.16 1130.57 787.16H1133.74C1135.11 787.16 1136.31 786.268 1136.72 784.964L1158.03 716.659L1163.78 698.214H1146.11L1146.13 698.231Z" fill="#563A57"/>
<path d="M1392.99 784.964C1393.4 786.268 1394.6 787.16 1395.96 787.16H1399.15C1399.68 787.16 1400.18 786.92 1400.52 786.525C1400.86 786.113 1401 785.582 1400.91 785.067L1386.06 698.231H1365.93L1371.68 716.676L1392.99 784.981V784.964Z" fill="#563A57"/>
<path d="M1431.8 687.954H1097.92C1095.09 687.954 1092.8 690.253 1092.8 693.084C1092.8 695.915 1095.09 698.214 1097.92 698.214H1431.8C1434.63 698.214 1436.92 695.915 1436.92 693.084C1436.92 690.253 1434.63 687.954 1431.8 687.954Z" fill="#5A405E"/>
<g style="mix-blend-mode:multiply">
<path d="M1163.81 698.231H1146.13H1143.67L1141.56 710.568H1388.18L1386.07 698.231H1383.61H1365.93H1163.81Z" fill="#DED4DB"/>
</g>
<path d="M189.376 187.305H159.749C158.945 189.638 158.5 192.126 158.5 194.734V195.952H189.376V187.305Z" fill="#DCAC78"/>
<path d="M177.053 703.104V564.674C177.053 562.409 175.222 560.556 172.945 560.556H158.5V707.204H172.945C175.205 707.204 177.053 705.368 177.053 703.086V703.104Z" fill="#D1986A"/>
<path d="M1791.51 195.952H1760.63V199.641H1775.08C1777.34 199.641 1779.18 201.477 1779.18 203.759V515.517C1779.18 517.782 1777.35 519.635 1775.08 519.635H1760.63V532.881H1791.51V195.952Z" fill="#DCAC78"/>
<path d="M1791.51 556.833H1760.63V560.556H1775.08C1777.34 560.556 1779.18 562.392 1779.18 564.674V703.104C1779.18 705.368 1777.35 707.222 1775.08 707.222H1760.63V719.575H1791.51V556.85V556.833Z" fill="#DCAC78"/>
<g style="mix-blend-mode:multiply">
<path fill-rule="evenodd" clip-rule="evenodd" d="M1731.98 187.305H1761.5H1763.67H1790.29C1791.08 189.638 1791.51 192.126 1791.51 194.734V195.952H1763.67H1761.5H1730.64V194.734C1730.64 192.126 1731.12 189.638 1731.98 187.305Z" fill="#C08F67"/>
</g>
<g style="mix-blend-mode:multiply">
<path d="M1791.51 548.186H1760.63V556.833H1791.51V548.186Z" fill="#C08F67"/>
</g>
<path d="M1779.18 515.534V203.759C1779.18 201.494 1777.35 199.641 1775.08 199.641H1760.63V519.635H1775.08C1777.34 519.635 1779.18 517.799 1779.18 515.517V515.534Z" fill="#D1986A"/>
<path d="M1792.77 548.186C1795.03 548.186 1796.88 546.35 1796.88 544.068V536.999C1796.88 534.734 1795.05 532.881 1792.77 532.881H1760.63V548.186H1792.77Z" fill="#E8BF84"/>
<path d="M1759.36 187.305C1757.1 187.305 1755.26 185.469 1755.26 183.187V176.118C1755.26 173.853 1757.09 172 1759.36 172H1768.85C1778.76 172 1787.19 178.4 1790.26 187.305H1759.35H1759.36Z" fill="#E8BF84"/>
<path d="M1730.64 532.881H1761.5V519.635H1747.05C1744.8 519.635 1742.95 517.799 1742.95 515.517V203.759C1742.95 201.494 1744.78 199.641 1747.05 199.641H1761.5V195.952H1730.64V532.881Z" fill="#DCAC78"/>
<path d="M1730.64 719.558H1761.5V707.204H1747.05C1744.8 707.204 1742.95 705.369 1742.95 703.087V564.657C1742.95 562.392 1744.78 560.539 1747.05 560.539H1761.5V556.816H1730.64V719.541V719.558Z" fill="#DCAC78"/>
<path d="M1761.5 548.186H1730.64V556.833H1761.5V548.186Z" fill="#DCAC78"/>
<g style="mix-blend-mode:multiply">
<path d="M1761.5 548.186H1730.64V556.833H1761.5V548.186Z" fill="#DED4DB"/>
</g>
<path d="M1742.96 203.759V515.517C1742.96 517.782 1744.8 519.635 1747.07 519.635H1761.52V199.641H1747.07C1744.81 199.641 1742.96 201.477 1742.96 203.759Z" fill="#D1986A"/>
<path fill-rule="evenodd" clip-rule="evenodd" d="M1779.18 703.078V564.666C1779.18 562.384 1777.32 560.548 1775.05 560.548H1760.51V560.573H1747.07C1744.81 560.573 1742.96 562.409 1742.96 564.691V703.103C1742.96 705.368 1744.8 707.221 1747.07 707.221H1761.52V707.196H1775.05C1777.34 707.196 1779.18 705.343 1779.18 703.078Z" fill="#D1986A"/>
<path d="M1729.36 532.881C1727.1 532.881 1725.25 534.717 1725.25 536.999V544.068C1725.25 546.333 1727.08 548.186 1729.36 548.186H1761.5V532.881H1729.36Z" fill="#E8BF84"/>
<path fill-rule="evenodd" clip-rule="evenodd" d="M1724.75 723.659C1724.75 721.377 1726.6 719.541 1728.86 719.541H1761V745.261H1724.75V723.659ZM1797.25 723.693C1797.25 721.411 1795.4 719.575 1793.14 719.575H1761V745.295H1797.25V723.693Z" fill="#813A3A"/>
<path fill-rule="evenodd" clip-rule="evenodd" d="M117.75 723.659C117.75 721.377 119.598 719.541 121.857 719.541H154V745.261H117.75V723.659ZM190.251 723.693C190.251 721.411 188.402 719.575 186.143 719.575H154V745.295H190.251V723.693Z" fill="#813A3A"/>
<path d="M1766.98 176.118V183.187C1766.98 185.452 1765.15 187.305 1762.87 187.305H1731.96C1735.02 178.4 1743.46 172 1753.39 172H1762.87C1765.13 172 1766.98 173.836 1766.98 176.118Z" fill="#E8BF84"/>
<path d="M184.002 196.054H153.126V199.743H167.571C169.831 199.743 171.679 201.579 171.679 203.861V515.619C171.679 517.883 169.848 519.736 167.571 519.736H153.126V532.982H184.002V196.054Z" fill="#DCAC78"/>
<path d="M184.002 556.935H153.126V560.658H167.571C169.831 560.658 171.679 562.494 171.679 564.776V703.205C171.679 705.47 169.848 707.323 167.571 707.323H153.126V719.677H184.002V556.952V556.935Z" fill="#DCAC78"/>
<g style="mix-blend-mode:multiply">
<path fill-rule="evenodd" clip-rule="evenodd" d="M124.473 187.406H153.996H156.162H182.789C183.571 189.74 184.003 192.228 184.003 194.836V196.054H156.162H153.996H123.137V194.836C123.137 192.228 123.613 189.74 124.473 187.406Z" fill="#C08F67"/>
</g>
<path d="M171.679 515.636V203.861C171.679 201.596 169.848 199.743 167.571 199.743H153.126V519.736H167.571C169.831 519.736 171.679 517.901 171.679 515.619V515.636Z" fill="#D1986A"/>
<path d="M185.269 548.287C187.528 548.287 189.377 546.451 189.377 544.169V537.1C189.377 534.835 187.545 532.982 185.269 532.982H153.126V548.287H185.269Z" fill="#E8BF84"/>
<path d="M151.86 187.406C149.6 187.406 147.752 185.57 147.752 183.288V176.219C147.752 173.955 149.583 172.102 151.86 172.102H161.341C171.251 172.102 179.689 178.501 182.753 187.406H151.842H151.86Z" fill="#E8BF84"/>
<path d="M123.137 532.982H153.996V519.736H139.55C137.291 519.736 135.443 517.901 135.443 515.619V203.861C135.443 201.596 137.274 199.743 139.55 199.743H153.996V196.054H123.137V532.982Z" fill="#DCAC78"/>
<path d="M123.137 719.66H153.996V707.306H139.55C137.291 707.306 135.443 705.47 135.443 703.188V564.759C135.443 562.494 137.274 560.641 139.55 560.641H153.996V556.917H123.137V719.642V719.66Z" fill="#DCAC78"/>
<path d="M184.002 548.287H123.137V556.935H184.002V548.287Z" fill="#DCAC78"/>
<path d="M135.459 203.861V515.619C135.459 517.883 137.291 519.736 139.567 519.736H154.013V199.743H139.567C137.308 199.743 135.459 201.579 135.459 203.861Z" fill="#D1986A"/>
<path fill-rule="evenodd" clip-rule="evenodd" d="M171.677 703.18V564.767C171.677 562.485 169.818 560.649 167.545 560.649H153.011V560.675H139.567C137.308 560.675 135.459 562.511 135.459 564.793V703.205C135.459 705.47 137.291 707.323 139.567 707.323H154.013V707.298H167.545C169.835 707.298 171.677 705.444 171.677 703.18Z" fill="#D1986A"/>
<path d="M121.853 532.982C119.594 532.982 117.745 534.818 117.745 537.1V544.169C117.745 546.434 119.576 548.287 121.853 548.287H153.996V532.982H121.853Z" fill="#E8BF84"/>
<path d="M159.475 176.219V183.288C159.475 185.553 157.643 187.406 155.367 187.406H124.456C127.52 178.501 135.958 172.102 145.885 172.102H155.367C157.626 172.102 159.475 173.937 159.475 176.219Z" fill="#E8BF84"/>
</g>
</g>
<defs>
<clipPath id="clip0_297_92">
<rect width="1920" height="931" fill="white"/>
</clipPath>
<clipPath id="clip1_297_92">
<rect width="1920" height="687" fill="white" transform="translate(0 172)"/>
</clipPath>
</defs>
</svg>
