<svg width="50" height="52" viewBox="0 0 50 52" fill="none" xmlns="http://www.w3.org/2000/svg">
<g clip-path="url(#clip0_232_7974)">
<mask id="mask0_232_7974" style="mask-type:luminance" maskUnits="userSpaceOnUse" x="0" y="0" width="50" height="50">
<path d="M24.8333 49.9707C38.3643 49.9707 49.3333 38.8963 49.3333 25.2354C49.3333 11.5744 38.3643 0.5 24.8333 0.5C11.3023 0.5 0.333313 11.5744 0.333313 25.2354C0.333313 38.8963 11.3023 49.9707 24.8333 49.9707Z" fill="white"/>
</mask>
<g mask="url(#mask0_232_7974)">
<path d="M19.0798 19.1727C19.1336 21.0185 17.6925 22.5603 15.8643 22.6092C14.036 22.6635 12.5089 21.2085 12.4605 19.3627C12.4067 17.5169 13.8478 15.9751 15.6761 15.9263C17.5043 15.872 19.0314 17.3269 19.0798 19.1727Z" fill="#E8B499"/>
<path d="M13.8909 18.7971C13.8909 18.7971 15.2083 18.1511 16.4612 20.4583" stroke="#C47268" stroke-width="0.298992" stroke-linecap="round" stroke-linejoin="round"/>
<path d="M31.1784 19.2656C31.1784 21.1114 32.6625 22.6097 34.4908 22.6097C36.319 22.6097 37.8031 21.1114 37.8031 19.2656C37.8031 17.4197 36.319 15.9214 34.4908 15.9214C32.6625 15.9214 31.1784 17.4197 31.1784 19.2656Z" fill="#E8B499"/>
<path d="M36.3568 18.7447C36.3568 18.7447 35.0232 18.1367 33.8295 20.482" stroke="#C47268" stroke-width="0.298992" stroke-linecap="round" stroke-linejoin="round"/>
<path d="M29.3772 26.9755C29.3772 26.9755 27.5113 28.3055 25.8068 28.6367C24.1022 28.9624 22.4514 27.969 22.4299 27.9581C22.4084 27.9472 20.4403 26.8018 20.4403 26.8018L19.6284 37.8115L19.8488 37.996C22.7364 40.401 26.893 40.4282 29.8128 38.0666L30.2376 37.7192L29.3772 26.9809V26.9755Z" fill="#E8B499"/>
<path d="M19.6283 25.6387C19.6283 25.6387 21.4834 31.7733 25.7583 31.7027C29.2696 31.6484 29.8342 25.6387 29.8342 25.6387H19.6283Z" fill="#1E0B02"/>
<path d="M34.3403 11.4526C34.3618 15.2311 33.5767 20.4916 33.0551 22.8097C32.5443 25.079 30.5655 26.6696 28.4953 27.9563L28.1189 28.1897C25.925 29.5524 24.1129 29.5958 21.8706 28.3092C19.6121 27.0117 17.5097 25.2907 17.015 22.8586C16.1116 18.4395 15.4233 15.9585 15.1813 13.6133C14.778 9.75335 14.9394 1.45264 24.7366 1.45264C34.4962 1.45264 34.3403 11.4526 34.3403 11.4526Z" fill="#E8B499"/>
<path d="M21.6124 16.4431C21.6124 16.8828 21.2576 17.2411 20.822 17.2411C20.3865 17.2411 20.0316 16.8828 20.0316 16.4431C20.0316 16.0033 20.3865 15.645 20.822 15.645C21.2576 15.645 21.6124 16.0033 21.6124 16.4431Z" fill="#1E0B02"/>
<path d="M29.3558 16.4431C29.3558 16.8828 29.0009 17.2411 28.5654 17.2411C28.1298 17.2411 27.7749 16.8828 27.7749 16.4431C27.7749 16.0033 28.1298 15.645 28.5654 15.645C29.0009 15.645 29.3558 16.0033 29.3558 16.4431Z" fill="#1E0B02"/>
<path d="M23.9785 18.5273V19.8086H25.0056" stroke="#C47268" stroke-width="0.298992" stroke-linecap="round" stroke-linejoin="round"/>
<path d="M17.8807 13.0769L23.0374 12.61C23.0374 12.61 22.575 11.2582 20.4886 11.4808C18.3539 11.7034 17.8753 13.0823 17.8753 13.0823L17.8807 13.0769Z" fill="black"/>
<path d="M31.1785 13.0769L26.0217 12.61C26.0217 12.61 26.4842 11.2582 28.5705 11.4808C30.7053 11.7034 31.1838 13.0823 31.1838 13.0823L31.1785 13.0769Z" fill="black"/>
<path d="M50.4827 61.0182H-0.815735C0.119897 57.0986 1.08242 53.6133 2.03418 50.8988C3.443 46.8923 5.47021 44.5471 7.14789 43.2116C8.8202 41.8706 10.143 41.5341 10.143 41.5341L13.7027 40.0303L36.2224 40.052L39.524 41.5341C39.524 41.5341 44.8152 42.8804 47.6328 50.8988C48.5846 53.6133 49.5471 57.0986 50.4827 61.0182Z" fill="white"/>
<path d="M25.236 35.2422L36.227 40.0521C36.227 40.0521 24.9349 50.3561 13.7073 40.0304L25.236 35.2422Z" fill="#E8B499"/>
<path d="M13.7027 40.0303C13.7027 40.0303 17.6173 44.7045 24.9357 44.7045C32.254 44.7045 36.2224 40.052 36.2224 40.052" stroke="white" stroke-width="0.840643" stroke-miterlimit="10"/>
<path d="M33.3079 18.3803C33.3079 18.3803 33.1358 18.288 32.5282 19.2652C31.9206 20.2424 31.4313 22.8591 31.4313 22.8591C31.4313 22.8591 30.8559 21.6376 29.3449 20.8504C27.963 20.1338 25.0593 20.5301 24.5646 20.6061C23.7956 20.4704 21.9835 20.2478 20.8167 20.8504C19.3057 21.6376 18.7303 22.8591 18.7303 22.8591C18.7303 22.8591 18.241 20.2424 17.6334 19.2652C17.0257 18.288 16.8537 18.3803 16.8537 18.3803C16.8537 18.3803 16.5364 23.4725 17.8915 26.4964C19.0798 29.1511 23.6397 30.2531 24.7259 30.3074C24.7259 30.3074 30.9097 29.5203 32.2647 26.4964C33.6198 23.4725 33.3025 18.3803 33.3025 18.3803H33.3079Z" fill="#A74B22"/>
<path d="M22.2147 21.6265H27.3016C27.3016 21.6265 27.065 23.2008 24.6829 23.2008C22.3008 23.2008 22.2147 21.6265 22.2147 21.6265Z" fill="white"/>
</g>
</g>
<defs>
<clipPath id="clip0_232_7974">
<rect width="49" height="51.49" fill="white" transform="translate(0.333313 0.5)"/>
</clipPath>
</defs>
</svg>
