<svg width="50" height="52" viewBox="0 0 50 52" fill="none" xmlns="http://www.w3.org/2000/svg">
<g clip-path="url(#clip0_235_8250)">
<mask id="mask0_235_8250" style="mask-type:alpha" maskUnits="userSpaceOnUse" x="0" y="1" width="50" height="50">
<circle cx="25.1667" cy="26.2451" r="24.5" fill="#D9D9D9"/>
</mask>
<g mask="url(#mask0_235_8250)">
<g clip-path="url(#clip1_235_8250)">
<path d="M15.5454 24.3027C15.5454 24.3027 14.0561 28.0598 14.8918 29.3348C15.7275 30.6063 17.3382 28.0777 17.3382 28.0777C17.3382 28.0777 16.0489 32.6777 17.8454 33.1384C19.6382 33.5991 21.5561 29.6456 21.5561 29.6456C21.5561 29.6456 18.1204 22.6491 15.5454 24.3027Z" fill="#3F2037"/>
<path d="M34.8954 24.3027C34.8954 24.3027 36.3846 28.0598 35.5489 29.3348C34.7132 30.6063 33.1025 28.0777 33.1025 28.0777C33.1025 28.0777 34.3918 32.6777 32.5954 33.1384C30.8025 33.5991 28.8846 29.6456 28.8846 29.6456C28.8846 29.6456 32.3204 22.6491 34.8954 24.3027Z" fill="#3F2037"/>
<path d="M49.6668 50.9111H0.666748C0.666748 50.9111 0.709605 50.3575 0.852462 49.5539C0.902462 49.2825 0.959605 48.9789 1.03461 48.6611C1.17032 48.0647 1.35246 47.4075 1.59889 46.7647C1.71318 46.4611 1.84175 46.1611 1.98818 45.8718C2.37032 45.1075 2.85603 44.4254 3.47389 43.9754C3.67389 43.8289 3.88818 43.7075 4.12032 43.6147C4.42746 43.4897 4.83818 43.3075 5.32746 43.0825C6.34889 42.6075 7.71318 41.9325 9.19175 41.1861C9.74889 40.9039 10.3203 40.6111 10.8989 40.3182C10.9168 40.3111 10.931 40.3004 10.9489 40.2932C12.1953 39.6539 13.456 39.0004 14.6168 38.3968C14.9953 38.1968 15.3668 38.0075 15.7203 37.8218C15.9275 37.7147 16.131 37.6075 16.3275 37.5039C16.356 37.4861 16.3882 37.4718 16.4168 37.4575C18.0025 36.6254 19.1703 36.0075 19.4453 35.8611C19.4525 35.8575 19.4632 35.8539 19.4668 35.8504C19.4918 35.8361 19.5025 35.8325 19.5025 35.8325L19.8775 35.9182C20.3453 36.0218 20.8168 36.1147 21.2882 36.1861C21.756 36.2611 22.2239 36.3218 22.6918 36.3682C25.2775 36.6218 27.8953 36.4432 30.4346 35.8361C30.4382 35.8361 30.4418 35.8361 30.4453 35.8361C30.4453 35.8361 31.6096 36.4361 33.3203 37.3075C33.4525 37.3754 33.5846 37.4432 33.7239 37.5147C34.2703 37.7932 34.8632 38.0932 35.4846 38.4075C36.0453 38.6932 36.631 38.9861 37.2275 39.2861C37.6846 39.5147 38.1489 39.7504 38.6132 39.9825C38.8275 40.0897 39.0418 40.1968 39.256 40.3039C39.8668 40.6075 40.4703 40.9075 41.056 41.1968C42.5739 41.9432 43.9668 42.6182 45.006 43.0932C45.5025 43.3218 45.9168 43.5039 46.2239 43.6254C46.4525 43.7182 46.6703 43.8397 46.8703 43.9861C47.4882 44.4361 47.9739 45.1182 48.356 45.8825C48.4989 46.1718 48.631 46.4718 48.7453 46.7754C48.9882 47.4182 49.1739 48.0754 49.3096 48.6718C49.381 48.9897 49.4418 49.2932 49.4918 49.5647C49.6346 50.3682 49.6775 50.9218 49.6775 50.9218L49.6668 50.9111Z" fill="#0075CF"/>
<path d="M35.4776 38.3953H14.6097C15.2133 38.081 15.7883 37.781 16.3169 37.5024H33.7169C34.2633 37.781 34.8562 38.081 35.4776 38.3953Z" fill="#0056A8"/>
<path d="M41.0491 41.1853H9.18835C9.7455 40.9032 10.3169 40.6103 10.8955 40.3175C10.9134 40.3103 10.9276 40.2996 10.9455 40.2925H39.2491C39.8598 40.5961 40.4634 40.8961 41.0491 41.1853Z" fill="#0056A8"/>
<path d="M46.8632 43.9744H3.47034C3.67034 43.828 3.88462 43.7065 4.11677 43.6137C4.42391 43.4887 4.83462 43.3065 5.32391 43.0815H44.9989C45.4953 43.3101 45.9096 43.4923 46.2168 43.6137C46.4454 43.7065 46.6632 43.828 46.8632 43.9744Z" fill="#0056A8"/>
<path d="M48.7347 46.7669H1.599C1.71328 46.4633 1.84186 46.1633 1.98829 45.874H48.349C48.4919 46.1633 48.624 46.4633 48.7383 46.7669H48.7347Z" fill="#0056A8"/>
<path d="M49.4811 49.553H0.852539C0.902539 49.2816 0.959682 48.978 1.03468 48.6602H49.299C49.3704 48.978 49.4311 49.2816 49.4811 49.553Z" fill="#0056A8"/>
<path d="M33.3131 37.2968C32.7524 39.2754 30.3238 42.3861 25.1667 42.3861C20.0096 42.3861 16.8738 39.5039 15.7131 37.8218C15.9203 37.7147 16.1238 37.6075 16.3203 37.5039C16.3488 37.4861 16.381 37.4718 16.4096 37.4575C17.9953 36.6254 19.1631 36.0075 19.4381 35.8611C19.4453 35.8575 19.456 35.8539 19.4596 35.8504C19.4846 35.8361 19.4953 35.8325 19.4953 35.8325L19.8703 35.9182C20.3381 36.0218 20.8096 36.1147 21.281 36.1861C21.7488 36.2611 22.2167 36.3218 22.6846 36.3682C25.2703 36.6218 27.8881 36.4432 30.4274 35.8361C30.431 35.8361 30.4346 35.8361 30.4381 35.8361C30.4381 35.8361 31.6024 36.4361 33.3131 37.3075V37.2968Z" fill="#0056A8"/>
<path d="M30.6914 37.0721C30.6914 37.0721 29.7307 40.0935 25.3164 40.0935C20.1664 40.0935 18.9521 37.3471 18.9521 37.3471C19.3986 36.1614 19.7057 35.0614 19.9129 34.0793C20.295 32.2793 20.3486 30.8686 20.3236 30.0007L29.3736 29.6436C29.4557 30.4114 29.595 31.3114 29.7486 32.2186C30.1593 34.6293 30.6914 37.0721 30.6914 37.0721Z" fill="#FFB8A1"/>
<path d="M29.7485 32.2186C28.345 33.1936 25.2807 34.6436 19.9164 34.0793C20.2985 32.2793 20.3521 30.8686 20.3271 30.0007L29.3771 29.6436C29.4592 30.4114 29.5985 31.3114 29.7521 32.2186H29.7485Z" fill="#3F2037"/>
<path d="M16.8738 18.201C16.8738 18.201 14.0738 14.3903 11.8953 16.6439C9.71669 18.901 13.9167 26.7546 17.7274 25.0439L16.8703 18.1975L16.8738 18.201Z" fill="#FFB8A1"/>
<path d="M15.5381 22.7085C15.4417 22.7085 15.3595 22.6371 15.3453 22.5407C14.9774 19.8907 12.8738 18.2657 12.8524 18.2514C12.7667 18.1871 12.7524 18.0657 12.8167 17.98C12.881 17.8942 13.0024 17.88 13.0881 17.9442C13.181 18.0121 15.3417 19.6835 15.731 22.4871C15.7453 22.5942 15.6703 22.6907 15.5667 22.705C15.556 22.705 15.5488 22.705 15.5381 22.705V22.7085Z" fill="#FF8A8A"/>
<path d="M14.9524 20.805C14.8917 20.805 14.831 20.7764 14.7917 20.7193C14.5095 20.305 13.6703 20.2621 13.3703 20.28C13.2631 20.2871 13.1703 20.205 13.1667 20.0978C13.1595 19.9907 13.2417 19.8978 13.3488 19.8943C13.4024 19.8943 14.6524 19.8228 15.1131 20.5014C15.1738 20.5907 15.1488 20.7085 15.0595 20.7693C15.0274 20.7907 14.9881 20.8014 14.9524 20.8014V20.805Z" fill="#FF8A8A"/>
<path d="M34.1917 18.201C34.1917 18.201 36.9917 14.3903 39.1703 16.6439C41.3489 18.901 37.1489 26.7546 33.3381 25.0439L34.1953 18.1975L34.1917 18.201Z" fill="#FFB8A1"/>
<path d="M35.5274 22.7083C35.5274 22.7083 35.5096 22.7083 35.4989 22.7083C35.3917 22.694 35.3203 22.5976 35.3346 22.4904C35.7239 19.6869 37.8846 18.0154 37.9774 17.9476C38.0632 17.8833 38.1846 17.9011 38.2489 17.9833C38.3132 18.069 38.2953 18.1904 38.2132 18.2547C38.1917 18.2726 36.0846 19.9011 35.7203 22.544C35.706 22.6404 35.6239 22.7119 35.5274 22.7119V22.7083Z" fill="#FF8A8A"/>
<path d="M36.1132 20.8054C36.0775 20.8054 36.0382 20.7947 36.0061 20.7733C35.9168 20.7126 35.8953 20.5947 35.9525 20.5054C36.4132 19.8233 37.6632 19.8947 37.7168 19.8983C37.8239 19.9054 37.9025 19.9983 37.8989 20.1019C37.8918 20.209 37.7989 20.2911 37.6953 20.284C37.3953 20.2661 36.5561 20.309 36.2739 20.7233C36.2382 20.7769 36.1739 20.809 36.1132 20.809V20.8054Z" fill="#FF8A8A"/>
<path d="M27.7633 7.09578C19.9312 5.18507 14.5133 10.9636 15.2383 19.8958C15.699 25.5672 18.5919 32.6886 25.3133 32.8458C32.3205 33.01 35.9776 26.285 35.9776 18.4315C35.9776 12.4208 33.9597 9.08149 28.849 7.40649C28.4955 7.29221 28.1312 7.18507 27.7633 7.09578Z" fill="#FFB8A1"/>
<path d="M14.1558 11.7287C14.1558 11.7287 12.6058 15.3108 13.1666 15.9537C13.6416 16.5037 14.3737 16.1251 14.3737 16.1251C14.3737 16.1251 14.0737 20.0394 15.7344 20.193C17.3951 20.3465 17.188 13.0072 17.188 13.0072C17.188 13.0072 19.9344 13.0822 19.4201 10.8072C19.4201 10.8072 26.5344 12.1608 32.0273 10.7144C32.0273 10.7144 31.7987 12.9108 33.6523 13.2001C33.6523 13.2001 32.5773 19.8608 34.5416 20.3501C36.5059 20.8394 36.4059 16.2608 36.4059 16.2608C36.4059 16.2608 37.2701 16.2715 37.6094 15.9358C38.4166 15.143 37.0987 10.8394 34.9416 8.01796C32.5773 4.92867 20.7701 -0.939185 14.1594 11.7287H14.1558Z" fill="#3F2037"/>
<path d="M37.488 10.895C37.488 10.895 36.9666 10.7807 36.0237 10.6272C35.9309 10.6129 35.8345 10.595 35.7345 10.5807C34.7737 10.4307 33.4523 10.2522 31.8523 10.1129C31.7595 10.1057 31.6666 10.095 31.5702 10.0879C30.4273 9.99503 29.1523 9.92003 27.7702 9.88788C27.6773 9.88788 27.5845 9.88431 27.4916 9.88074C26.3023 9.85931 25.038 9.87003 23.7166 9.9236C23.6237 9.92717 23.5309 9.93074 23.438 9.93431C22.2095 9.99146 20.9309 10.0915 19.6202 10.2415C19.5273 10.2522 19.4309 10.2629 19.338 10.2736C18.0595 10.4272 16.7487 10.6272 15.4237 10.8879C15.3273 10.9057 15.2309 10.9272 15.1345 10.945C14.6345 11.045 14.1309 11.1557 13.6273 11.2772C13.6273 11.2772 14.2166 7.0736 17.6059 4.20217C17.7916 4.04503 17.9809 3.89503 18.1845 3.7486C19.1059 3.0736 20.2059 2.4986 21.5237 2.11289C21.6345 2.08075 21.7452 2.0486 21.8595 2.02003C22.5809 1.83075 23.3666 1.69503 24.2202 1.63075C24.313 1.6236 24.4059 1.61646 24.5023 1.61289C24.8059 1.59503 25.1202 1.58789 25.4416 1.58789C25.8809 1.58789 26.3023 1.60218 26.7095 1.63432C26.8059 1.64146 26.8987 1.6486 26.9916 1.65932C27.8523 1.73789 28.6452 1.88432 29.3737 2.08432C29.488 2.11289 29.5987 2.1486 29.7095 2.18075C31.0452 2.58432 32.1523 3.16646 33.0773 3.84503C33.2773 3.99146 33.4666 4.14146 33.6487 4.29503C36.8987 7.04503 37.4845 10.8986 37.4845 10.8986L37.488 10.895Z" fill="#FF4F4E"/>
<path d="M18.1882 3.74854C17.0739 5.64853 15.8454 8.22353 15.4275 10.8914C15.3489 11.3842 15.2989 11.8807 15.2846 12.3771L15.0096 12.37C15.0239 11.895 15.0704 11.42 15.1418 10.9485C15.5096 8.47353 16.5704 6.07711 17.6132 4.20211C17.7989 4.04496 17.9882 3.89496 18.1918 3.74854H18.1882Z" fill="#C42C31"/>
<path d="M21.8595 2.02002C21.156 3.74145 20.0345 6.88073 19.6203 10.2414C19.5345 10.945 19.4774 11.6629 19.4631 12.3736L19.1881 12.3664C19.2024 11.6664 19.256 10.9629 19.3381 10.2736C19.7345 6.98073 20.806 3.89859 21.5203 2.11288C21.631 2.08073 21.7417 2.04859 21.856 2.02002H21.8595Z" fill="#C42C31"/>
<path d="M24.506 1.60986C24.2846 3.17772 23.8774 6.40629 23.7203 9.92415C23.6846 10.7313 23.6596 11.5527 23.656 12.3741H23.381C23.3881 11.5563 23.4096 10.7384 23.4453 9.93486C23.6024 6.442 24.0024 3.22772 24.2274 1.63129C24.3203 1.62415 24.4131 1.61701 24.5096 1.61343L24.506 1.60986Z" fill="#C42C31"/>
<path d="M27.8383 12.3698H27.5633C27.5561 11.5377 27.5347 10.6984 27.4954 9.87695C27.3347 6.39123 26.9347 3.19481 26.7133 1.62695C26.8097 1.6341 26.9025 1.64124 26.9954 1.65195C27.2168 3.24838 27.6133 6.42695 27.7704 9.88409C27.8097 10.7019 27.8311 11.5377 27.8383 12.3698Z" fill="#C42C31"/>
<path d="M32.0203 12.3708L31.7453 12.378C31.731 11.6101 31.6667 10.8458 31.5703 10.0887C31.1489 6.82083 30.0703 3.78511 29.3774 2.08154C29.4917 2.11011 29.6024 2.14583 29.7132 2.17797C30.4167 3.93869 31.4453 6.92083 31.8524 10.1137C31.9489 10.8601 32.0096 11.6173 32.0239 12.3744L32.0203 12.3708Z" fill="#C42C31"/>
<path d="M36.2062 12.3709L35.9312 12.378C35.9133 11.778 35.8419 11.1744 35.7347 10.578C35.2812 8.06371 34.1347 5.653 33.0812 3.84229C33.2812 3.98871 33.4705 4.13871 33.6526 4.29228C34.6312 6.07086 35.6205 8.30657 36.024 10.6244C36.124 11.203 36.1883 11.7851 36.2097 12.3673L36.2062 12.3709Z" fill="#C42C31"/>
<path d="M13.0416 11.281C13.0416 11.281 12.3881 12.6738 13.1631 14.7167C13.1631 14.7167 20.9774 10.0417 37.8631 14.4131C37.8631 14.4131 38.9202 13.2167 37.8631 11.056C37.8631 11.056 24.8309 5.33812 13.0416 11.281Z" fill="#C42C31"/>
<path d="M25.8739 24.9208C25.5418 24.9208 25.1775 24.8351 24.7739 24.6601C24.6596 24.6101 24.5954 24.4922 24.6096 24.3708L25.1704 20.0708C25.1918 19.9208 25.3275 19.8137 25.4811 19.8315C25.6311 19.853 25.7382 19.9887 25.7204 20.1422L25.1882 24.2315C25.7382 24.4315 26.1632 24.4137 26.5132 24.178C26.6382 24.0922 26.8096 24.1244 26.8954 24.253C26.9811 24.378 26.9454 24.5494 26.8204 24.6351C26.5382 24.8244 26.2239 24.9208 25.8775 24.9208H25.8739Z" fill="#FF8A8A"/>
<path d="M25.3594 27.7559C23.7772 27.7559 22.5772 27.1023 22.5594 27.0916C22.4272 27.0166 22.3772 26.8487 22.4522 26.7166C22.5272 26.5844 22.6951 26.5344 22.8272 26.6094C22.9594 26.6844 26.0165 28.3309 28.663 25.8844C28.7737 25.7809 28.9487 25.788 29.0522 25.8987C29.1558 26.0095 29.1487 26.1844 29.038 26.288C27.813 27.4237 26.488 27.7559 25.3594 27.7559Z" fill="#FF8A8A"/>
<path d="M25.8096 29.3352C25.1846 29.3352 24.6846 29.1816 24.6489 29.1709C24.5025 29.1245 24.4239 28.9709 24.4667 28.8245C24.5132 28.6781 24.6667 28.5995 24.8132 28.6423C24.8132 28.6423 26.0489 29.0173 26.9096 28.5281C27.0417 28.4531 27.2096 28.4995 27.2846 28.6316C27.3596 28.7638 27.3132 28.9316 27.181 29.0066C26.7417 29.2566 26.2453 29.3316 25.806 29.3316L25.8096 29.3352Z" fill="#FF8A8A"/>
<path d="M19.981 17.0703C20.5739 16.7525 21.4417 16.356 22.2882 16.2346C22.7417 16.1668 23.0274 15.7132 22.8703 15.281L22.8382 15.1953C22.7274 14.8846 22.4167 14.6882 22.0882 14.7239C21.3346 14.8025 20.0024 15.0668 19.131 15.9346C18.9417 16.1239 18.8774 16.4025 18.956 16.656C19.0917 17.0846 19.581 17.2882 19.9774 17.0739L19.981 17.0703Z" fill="#3F2037"/>
<path d="M31.4025 17.0703C30.8097 16.7525 29.9418 16.356 29.0954 16.2346C28.6418 16.1668 28.3561 15.7132 28.5132 15.281L28.5454 15.1953C28.6561 14.8846 28.9668 14.6882 29.2954 14.7239C30.0489 14.8025 31.3811 15.0668 32.2525 15.9346C32.4418 16.1239 32.5061 16.4025 32.4275 16.656C32.2918 17.0846 31.8025 17.2882 31.4061 17.0739L31.4025 17.0703Z" fill="#3F2037"/>
<g opacity="0.5">
<path d="M22.0023 22.0312C22.0023 22.7097 20.7523 23.2562 19.2095 23.2562C17.6666 23.2562 16.4166 22.7062 16.4166 22.0312C16.4166 21.3562 17.6666 20.8062 19.2095 20.8062C20.7523 20.8062 22.0023 21.3562 22.0023 22.0312Z" fill="#FF8A8A"/>
</g>
<g opacity="0.5">
<path d="M35.138 22.0312C35.138 22.7097 33.888 23.2562 32.3451 23.2562C30.8022 23.2562 29.5522 22.7062 29.5522 22.0312C29.5522 21.3562 30.8022 20.8062 32.3451 20.8062C33.888 20.8062 35.138 21.3562 35.138 22.0312Z" fill="#FF8A8A"/>
</g>
<path d="M22.1952 19.1779C22.2095 19.9243 21.931 20.5386 21.5809 20.5422C21.2274 20.5493 20.9309 19.9457 20.9167 19.1993C20.9024 18.4529 21.1809 17.8386 21.5309 17.835C21.8845 17.8279 22.1809 18.4315 22.1952 19.1779Z" fill="#3F2037"/>
<path d="M28.8809 19.1779C28.8666 19.9243 29.1452 20.5386 29.4952 20.5422C29.8488 20.5493 30.1452 19.9457 30.1595 19.1993C30.1738 18.4529 29.8952 17.8386 29.5452 17.835C29.1916 17.8279 28.8952 18.4315 28.8809 19.1779Z" fill="#3F2037"/>
</g>
</g>
</g>
<defs>
<clipPath id="clip0_235_8250">
<rect width="49" height="51.49" fill="white" transform="translate(0.666748 0.5)"/>
</clipPath>
<clipPath id="clip1_235_8250">
<rect width="49" height="49.325" fill="white" transform="translate(0.666748 1.58398)"/>
</clipPath>
</defs>
</svg>
