<svg width="50" height="52" viewBox="0 0 50 52" fill="none" xmlns="http://www.w3.org/2000/svg">
<g clip-path="url(#clip0_237_8577)">
<mask id="mask0_237_8577" style="mask-type:alpha" maskUnits="userSpaceOnUse" x="0" y="1" width="50" height="50">
<circle cx="25.1669" cy="26.2451" r="24.5" fill="#D9D9D9"/>
</mask>
<g mask="url(#mask0_237_8577)">
<g clip-path="url(#clip1_237_8577)">
<path d="M14.727 45.0091C14.727 45.0091 6.68639 46.6259 6.34759 39.8567C6.19999 36.9249 5.80417 37.3845 3.24474 34.9156C0.685302 32.4468 0.681948 31.4337 1.22872 29.146C1.77885 26.8583 4.0867 26.0733 2.94619 23.9567C1.4434 21.1725 1.90632 16.4125 5.17018 14.5575C8.3267 12.7629 8.67892 12.7864 8.67892 10.9482C8.67892 8.5464 11.1746 4.67538 16.3203 5.07791C20.7448 5.42342 20.0572 3.26987 23.1969 2.31051C29.0403 0.522591 31.8715 5.58443 33.8841 5.76557C35.8968 5.95007 39.3821 5.98361 41.1498 8.6571C43.3437 11.9746 41.4048 14.6817 44.1521 14.9567C46.896 15.2318 49.6433 17.6101 49.5494 20.0823C49.4588 22.5545 47.9929 24.6578 48.9992 25.7547C50.0056 26.8516 50.3947 33.3558 46.3325 34.6003C40.7809 36.301 46.3325 44.5194 36.1249 44.3651C26.9505 44.2275 14.7303 44.999 14.7303 44.999L14.727 45.0091Z" fill="#3F2037"/>
<path d="M47.7448 51.3288H1.72192C1.72192 51.3288 2.18484 45.586 4.96231 44.4757C5.53592 44.2442 6.49193 43.7981 7.64586 43.2312C7.80687 43.154 7.97124 43.0735 8.1356 42.9897C8.1356 42.9897 8.1356 42.9897 8.13896 42.9897C8.43415 42.8421 8.7394 42.6911 9.05136 42.5335C11.2888 41.4097 13.922 40.0445 15.9716 38.9711C16.2097 38.8469 16.4412 38.7262 16.6626 38.6088C18.2861 37.7534 19.4032 37.1597 19.4032 37.1597L19.7554 37.2368C23.0259 37.9681 26.424 37.9413 29.6811 37.1597C29.6811 37.1597 30.8384 37.7568 32.519 38.6121C32.5391 38.6222 32.5626 38.6323 32.5827 38.6457C33.5958 39.1623 34.7967 39.7728 36.0479 40.4001C39.4056 42.0907 43.1089 43.9189 44.4977 44.4757C47.2752 45.586 47.7381 51.3288 47.7381 51.3288H47.7448Z" fill="#0075CF"/>
<path d="M25.1862 48.2628C24.0457 48.2628 23.0528 48.0984 22.2578 47.8905C20.2787 47.3772 19.0979 46.5252 19.0476 46.4883C18.9369 46.4078 18.9101 46.2501 18.9939 46.1361C19.0744 46.0254 19.2321 45.9986 19.3461 46.0824C19.3629 46.0958 20.5168 46.9244 22.4054 47.4074C24.1463 47.8569 26.8903 48.0951 30.0736 46.6963C30.2011 46.6393 30.3487 46.6963 30.4057 46.8238C30.4627 46.9512 30.4057 47.0988 30.2782 47.1558C28.3998 47.981 26.6689 48.2595 25.1862 48.2595V48.2628Z" fill="#0056A8"/>
<path d="M32.5258 38.6121C31.9824 40.9737 30.2314 45.3814 24.7334 45.3814C18.8766 45.3814 17.1457 40.6785 16.666 38.6088C18.2896 37.7534 19.4066 37.1597 19.4066 37.1597L19.7588 37.2368C23.0294 37.9681 26.4274 37.9413 29.6846 37.1597C29.6846 37.1597 30.8419 37.7568 32.5224 38.6121H32.5258Z" fill="#FFB8A1"/>
<path d="M10.9735 51.3285H1.72192C1.72192 51.3285 2.18484 45.5857 4.96231 44.4754C5.53592 44.244 6.49193 43.7978 7.64586 43.2309C7.80687 43.1538 7.97124 43.0733 8.1356 42.9894C8.1356 42.9894 8.1356 42.9894 8.13896 42.9894C8.43415 42.8418 8.7394 42.6909 9.05136 42.5332C9.74238 44.462 10.8896 48.115 10.9701 51.3285H10.9735Z" fill="#FFB8A1"/>
<path d="M38.4933 51.3285H47.7448C47.7448 51.3285 47.2819 45.5857 44.5044 44.4754C43.9308 44.244 42.9748 43.7978 41.8209 43.2309C41.6599 43.1538 41.4955 43.0733 41.3311 42.9894C41.3311 42.9894 41.3311 42.9894 41.3278 42.9894C41.0326 42.8418 40.7273 42.6909 40.4154 42.5332C39.7244 44.462 38.5771 48.115 38.4966 51.3285H38.4933Z" fill="#FFB8A1"/>
<path d="M29.9192 38.3332C29.9192 38.3332 29.0169 41.171 24.8708 41.171C20.0337 41.171 18.8932 38.5915 18.8932 38.5915C19.3125 37.4778 19.601 36.4446 19.7955 35.5222C20.1545 33.8315 20.2048 32.5065 20.1813 31.6914L28.6781 31.356C28.7552 32.0772 28.8861 32.9225 29.0303 33.7745C29.4161 36.0387 29.9159 38.3332 29.9159 38.3332H29.9192Z" fill="#FFB8A1"/>
<path d="M29.037 33.7745C27.7187 34.6903 24.8406 36.0522 19.8022 35.5222C20.1612 33.8315 20.2115 32.5065 20.188 31.6914L28.6848 31.356C28.7619 32.0772 28.8928 32.9225 29.037 33.7745Z" fill="#3F2037"/>
<path d="M33.579 21.0917C33.579 21.0917 35.5715 18.3814 37.1179 19.9848C38.6677 21.5882 35.6789 27.1733 32.9685 25.959L33.5757 21.0917H33.579Z" fill="#FFB8A1"/>
<path d="M32.7572 25.9052C31.4858 26.5224 30.6103 27.8239 30.6103 29.33C30.6103 31.4299 32.3177 33.1373 34.4143 33.1373C36.5108 33.1373 38.2182 31.4299 38.2182 29.33C38.2182 27.4448 36.8429 25.8783 35.0415 25.5798C34.8705 25.5496 34.696 25.5328 34.5183 25.5295C34.5317 25.3819 34.5619 25.2376 34.6088 25.1001C34.904 25.1135 35.1891 25.1571 35.4642 25.2276C37.2957 25.6972 38.6509 27.3576 38.6509 29.3334C38.6509 31.6714 36.749 33.57 34.4143 33.57C32.0796 33.57 30.1776 31.6681 30.1776 29.3334C30.1776 27.5623 31.2712 26.0393 32.8209 25.4087L32.7572 25.9085V25.9052Z" fill="#FFF7F1"/>
<path d="M34.3807 24.2952C34.3807 24.2952 34.3673 24.2952 34.3606 24.2952C34.2868 24.2851 34.2331 24.2147 34.2432 24.1409C34.5216 22.145 36.0579 20.9609 36.1216 20.9106C36.182 20.8636 36.2692 20.877 36.3128 20.9374C36.3598 20.9978 36.3464 21.085 36.286 21.1286C36.2692 21.1387 34.7732 22.2993 34.5115 24.1778C34.5014 24.2482 34.4444 24.2952 34.374 24.2952H34.3807Z" fill="#FF8A8A"/>
<path d="M34.7967 22.9434C34.7698 22.9434 34.743 22.9367 34.7195 22.9199C34.6558 22.8763 34.639 22.7924 34.6826 22.7287C35.0114 22.2423 35.9003 22.2926 35.9372 22.296C36.0143 22.2993 36.0714 22.3664 36.0646 22.4402C36.0613 22.5174 35.9942 22.5744 35.9204 22.5677C35.7057 22.5543 35.1086 22.5844 34.9107 22.8796C34.8839 22.9199 34.8403 22.94 34.7967 22.94V22.9434Z" fill="#FF8A8A"/>
<path d="M16.3137 21.0917C16.3137 21.0917 14.3211 18.3814 12.7747 19.9848C11.225 21.5882 14.2138 27.1733 16.9242 25.959L16.317 21.0917H16.3137Z" fill="#FFB8A1"/>
<path d="M16.8504 25.4024C18.4001 26.033 19.4937 27.5559 19.4937 29.327C19.4937 31.6651 17.5917 33.5637 15.257 33.5637C12.9223 33.5637 11.0204 31.6617 11.0204 29.327C11.0204 27.3546 12.3756 25.6908 14.2071 25.2212C14.4822 25.1508 14.7673 25.1072 15.0625 25.0938C15.1094 25.2313 15.1396 25.3755 15.153 25.5231C14.9753 25.5298 14.8008 25.5432 14.6298 25.5734C12.8284 25.872 11.4531 27.4419 11.4531 29.3237C11.4531 31.4236 13.1605 33.131 15.257 33.131C17.3536 33.131 19.061 31.4236 19.061 29.3237C19.061 27.8209 18.1821 26.516 16.9141 25.8988L16.8504 25.399V25.4024Z" fill="#FFF7F1"/>
<path d="M16.8504 25.4024C18.4001 26.033 19.4937 27.5559 19.4937 29.327C19.4937 31.6651 17.5917 33.5637 15.257 33.5637C12.9223 33.5637 11.0204 31.6617 11.0204 29.327C11.0204 27.3546 12.3756 25.6908 14.2071 25.2212C14.4822 25.1508 14.7673 25.1072 15.0625 25.0938C15.1094 25.2313 15.1396 25.3755 15.153 25.5231C14.9753 25.5298 14.8008 25.5432 14.6298 25.5734C12.8284 25.872 11.4531 27.4419 11.4531 29.3237C11.4531 31.4236 13.1605 33.131 15.257 33.131C17.3536 33.131 19.061 31.4236 19.061 29.3237C19.061 27.8209 18.1821 26.516 16.9141 25.8988L16.8504 25.399V25.4024Z" fill="#FFF7F1"/>
<path d="M15.512 24.2952C15.512 24.2952 15.5254 24.2952 15.5322 24.2952C15.606 24.2851 15.6596 24.2147 15.6496 24.1409C15.3711 22.145 13.8348 20.9609 13.7711 20.9106C13.7107 20.8636 13.6235 20.877 13.5799 20.9374C13.5329 20.9978 13.5463 21.085 13.6067 21.1286C13.6235 21.1387 15.1196 22.2993 15.3812 24.1778C15.3913 24.2482 15.4483 24.2952 15.5187 24.2952H15.512Z" fill="#FF8A8A"/>
<path d="M15.096 22.9434C15.1229 22.9434 15.1497 22.9367 15.1732 22.9199C15.2369 22.8763 15.2537 22.7924 15.2101 22.7287C14.8813 22.2423 13.9924 22.2926 13.9555 22.296C13.8784 22.2993 13.8213 22.3664 13.8281 22.4402C13.8314 22.5174 13.8985 22.5744 13.9723 22.5677C14.187 22.5543 14.7841 22.5844 14.982 22.8796C15.0088 22.9199 15.0524 22.94 15.096 22.94V22.9434Z" fill="#FF8A8A"/>
<path d="M34.5887 21.5344C34.4444 27.0491 31.4523 34.5161 24.8709 34.3584C19.0476 34.2209 16.156 28.6961 15.4516 23.6544C15.3912 23.2284 15.3476 22.8057 15.3208 22.3931C14.7606 14.2653 17.9909 10.1058 24.9346 9.87774C25.3237 9.86432 25.7262 9.86432 26.1388 9.87774C26.4978 9.8878 28.2354 10.1729 28.5675 10.2836C33.3643 11.8569 34.743 15.7346 34.592 21.5344H34.5887Z" fill="#FFB8A1"/>
<g opacity="0.5">
<path d="M21.5869 24.8386C21.5869 25.4759 20.4129 25.9891 18.9637 25.9891C17.5146 25.9891 16.3406 25.4725 16.3406 24.8386C16.3406 24.2046 17.5146 23.688 18.9637 23.688C20.4129 23.688 21.5869 24.2046 21.5869 24.8386Z" fill="#FF8A8A"/>
</g>
<g opacity="0.5">
<path d="M33.9244 24.8386C33.9244 25.4759 32.7504 25.9891 31.3013 25.9891C29.8522 25.9891 28.6781 25.4725 28.6781 24.8386C28.6781 24.2046 29.8522 23.688 31.3013 23.688C32.7504 23.688 33.9244 24.2046 33.9244 24.8386Z" fill="#FF8A8A"/>
</g>
<path d="M21.0937 14.8459C19.3863 14.9767 19.8995 16.9524 18.2223 17.9185C16.3774 18.9785 16.6055 19.6159 17.0516 21.1019C17.7158 23.3125 15.5354 23.8357 15.5354 23.8357C15.5086 23.7787 15.4817 23.7183 15.4549 23.658C15.3945 23.2319 15.3509 22.8093 15.3241 22.3967C14.7639 14.2689 17.3602 9.53244 24.9379 9.8813C25.8771 13.4404 23.3814 14.6748 21.1004 14.8459H21.0937Z" fill="#3F2037"/>
<path d="M28.6278 14.2619C30.8954 14.225 30.1037 16.5731 31.4421 17.6532C33.0992 18.9883 33.6426 18.4214 32.9147 20.6085C32.1633 22.8727 34.3236 23.8321 34.3236 23.8321C34.3504 23.7751 34.3773 23.7147 34.4041 23.6543C34.4645 23.2283 34.5081 22.8056 34.5349 22.393C35.0951 14.2652 32.3478 9.55225 24.9245 9.87763C23.9852 13.4367 26.3367 14.2954 28.6244 14.2619H28.6278Z" fill="#3F2037"/>
<path d="M22.6703 17.6564C21.7814 17.6765 19.8392 17.9147 18.967 19.5315C18.967 19.5315 20.973 18.5789 22.6502 18.6795C22.9722 18.6996 23.2305 18.4212 23.1903 18.1026C23.1567 17.8443 22.932 17.6497 22.6703 17.6564Z" fill="#3F2037"/>
<path d="M27.5981 17.6564C28.487 17.6765 30.4292 17.9147 31.3014 19.5315C31.3014 19.5315 29.2954 18.5789 27.6182 18.6795C27.2962 18.6996 27.0379 18.4212 27.0781 18.1026C27.1117 17.8443 27.3364 17.6497 27.5981 17.6564Z" fill="#3F2037"/>
<path d="M25.3942 26.9082C25.0822 26.9082 24.74 26.8277 24.3643 26.6634C24.2604 26.6198 24.2 26.5124 24.2134 26.4017L24.74 22.363C24.7568 22.2255 24.8843 22.1282 25.0218 22.1449C25.1594 22.1617 25.2566 22.2892 25.2399 22.4267L24.74 26.2743C25.26 26.4655 25.6625 26.4487 25.9946 26.2273C26.1087 26.1501 26.2663 26.1803 26.3435 26.2944C26.4206 26.4084 26.3904 26.5661 26.2764 26.6432C26.0114 26.821 25.7195 26.9116 25.3942 26.9116V26.9082Z" fill="#FF8A8A"/>
<path d="M24.8976 29.5781C24.6763 29.5781 24.4683 29.5647 24.2771 29.5412C23.1265 29.4104 22.3248 28.9643 22.2913 28.9475C22.1705 28.8804 22.1269 28.7261 22.194 28.6054C22.2611 28.4846 22.4154 28.441 22.5361 28.5081C22.6569 28.5752 25.535 30.1283 28.0273 27.8238C28.128 27.7298 28.289 27.7366 28.3829 27.8372C28.4768 27.9378 28.4701 28.0988 28.3695 28.1928C27.1854 29.2897 25.9107 29.5748 24.901 29.5748L24.8976 29.5781Z" fill="#FF8A8A"/>
<path d="M25.3371 31.0544C24.7501 31.0544 24.2838 30.9102 24.2503 30.9001C24.1161 30.8599 24.0423 30.719 24.0859 30.5848C24.1262 30.4506 24.267 30.3768 24.4012 30.4204C24.4146 30.4238 25.5652 30.7726 26.377 30.3131C26.4977 30.246 26.652 30.2862 26.7191 30.407C26.7862 30.5278 26.746 30.6821 26.6252 30.7492C26.2126 30.984 25.7463 31.0511 25.3405 31.0511L25.3371 31.0544Z" fill="#FF8A8A"/>
<path d="M21.9425 21.5211C21.9559 22.2222 21.6942 22.7991 21.3655 22.8025C21.0334 22.8092 20.755 22.2423 20.7416 21.5412C20.7282 20.8401 20.9898 20.2632 21.3185 20.2598C21.6506 20.2531 21.9291 20.82 21.9425 21.5211Z" fill="#3F2037"/>
<path d="M28.2219 21.5211C28.2085 22.2222 28.4702 22.7991 28.7989 22.8025C29.131 22.8092 29.4094 22.2423 29.4228 21.5412C29.4362 20.8401 29.1746 20.2632 28.8459 20.2598C28.5138 20.2531 28.2353 20.82 28.2219 21.5211Z" fill="#3F2037"/>
</g>
</g>
</g>
<defs>
<clipPath id="clip0_237_8577">
<rect width="49" height="51.49" fill="white" transform="translate(0.66687 0.499512)"/>
</clipPath>
<clipPath id="clip1_237_8577">
<rect width="48.7299" height="49.3974" fill="white" transform="translate(0.937012 1.93115)"/>
</clipPath>
</defs>
</svg>
