<svg width="50" height="52" viewBox="0 0 50 52" fill="none" xmlns="http://www.w3.org/2000/svg">
<g clip-path="url(#clip0_237_8413)">
<mask id="mask0_237_8413" style="mask-type:alpha" maskUnits="userSpaceOnUse" x="0" y="1" width="50" height="50">
<circle cx="24.8335" cy="26.2466" r="24.5" fill="#D9D9D9"/>
</mask>
<g mask="url(#mask0_237_8413)">
<g clip-path="url(#clip1_237_8413)">
<path d="M17.0559 4.88441C17.0559 4.88441 11.6925 9.53081 11.4689 17.1943C11.2488 24.8543 15.4125 28.1483 11.547 31.4388C7.68149 34.7328 -0.915588 38.2966 4.29874 47.167H25.5394V6.47107L17.0559 4.88086V4.88441Z" fill="#3F2037"/>
<path d="M33.817 4.88441C33.817 4.88441 39.1804 9.53081 39.404 17.1943C39.6241 24.8543 35.4604 28.1483 39.3259 31.4388C43.1914 34.7293 51.7885 38.2966 46.5742 47.167H25.3335V6.47107L33.817 4.88086V4.88441Z" fill="#3F2037"/>
<path d="M49.6836 50.9934H0.983398C0.983398 50.9934 1.47324 44.9165 4.41229 43.7416C5.01927 43.4967 6.0309 43.0246 7.25195 42.4247C7.42233 42.3431 7.59626 42.2579 7.77019 42.1692C7.77019 42.1692 7.77019 42.1692 7.77374 42.1692C10.3188 40.9091 13.5915 39.2124 16.062 37.9168C18.1669 36.8129 19.6932 36 19.6932 36L20.0659 36.0816C23.5268 36.8554 27.1225 36.8271 30.5691 36C30.5691 36 31.8257 36.646 33.6395 37.5725C34.7115 38.1191 35.9822 38.7651 37.3062 39.4289C40.8594 41.2179 44.7781 43.1524 46.2476 43.7416C49.1867 44.9165 49.6765 50.9934 49.6765 50.9934H49.6836Z" fill="#FF4F4E"/>
<path d="M12.0368 50.9932H10.7376C9.72955 48.7747 8.04705 44.9483 7.25549 42.4245C7.42587 42.3429 7.5998 42.2577 7.77373 42.1689C8.35941 43.6633 10.2726 48.3949 12.0368 50.9932Z" fill="#C42C31"/>
<path d="M37.7463 50.9935H39.0455C40.0536 48.775 41.9029 44.6256 42.6944 42.1018C42.5241 42.0202 42.3998 41.9598 42.2224 41.8711C41.6367 43.3655 39.5105 48.3952 37.7463 50.9935Z" fill="#C42C31"/>
<path d="M22.7778 50.9933H12.1397C10.3507 48.3275 8.68949 44.4621 7.7737 42.1655C7.31226 41.0012 7.03894 40.2416 7.03894 40.2416C9.78276 38.0693 16.062 37.9131 16.062 37.9131C18.2982 40.9089 21.1805 47.2769 22.7742 50.9897L22.7778 50.9933Z" fill="#FF4F4E"/>
<path d="M27.1047 50.9932H37.7428C39.5318 48.3275 41.193 44.462 42.1088 42.1654C42.5702 41.0012 42.8436 40.2415 42.8436 40.2415C40.0997 38.0692 33.6502 37.5723 33.6502 37.5723C31.4139 40.5681 28.702 47.2804 27.1083 50.9932H27.1047Z" fill="#FF4F4E"/>
<path d="M33.6466 37.5725C33.5153 38.719 33.242 40.7103 32.7273 42.8294C31.9251 46.1269 30.5407 49.744 28.2087 50.9934H24.368C21.1592 49.6623 18.9656 45.8359 17.6203 42.5809C16.7897 40.5683 16.2856 38.7722 16.0656 37.9168C18.1705 36.8129 19.6968 36 19.6968 36L20.0695 36.0816C23.5303 36.8554 27.126 36.8271 30.5727 36C30.5727 36 31.8292 36.646 33.6431 37.5725H33.6466Z" fill="#FFB8A1"/>
<path d="M32.7272 42.8295C31.925 46.1271 30.5407 49.7441 28.2086 50.9936H24.368C21.1592 49.6625 18.9655 45.836 17.6202 42.5811C19.3027 43.2768 21.8123 43.9086 25.3619 43.9086C28.4784 43.9086 30.917 43.4188 32.7272 42.8295Z" fill="#FFF7F1"/>
<path d="M30.8247 37.2386C30.8247 37.2386 29.8698 40.2415 25.4826 40.2415C20.3641 40.2415 19.1572 37.5119 19.1572 37.5119C19.6009 36.3334 19.9062 35.2402 20.1121 34.264C20.4919 32.4751 20.5451 31.073 20.5203 30.2104L29.5113 29.8555C29.593 30.6186 29.7314 31.5131 29.884 32.4147C30.2922 34.8107 30.8211 37.2386 30.8211 37.2386H30.8247Z" fill="#FFB8A1"/>
<path d="M25.5394 41.6294C22.8559 41.6294 21.0988 40.2522 20.0979 39.0986C19.0188 37.8527 18.5786 36.6245 18.5573 36.5713C18.5254 36.479 18.5715 36.376 18.6638 36.3441C18.7561 36.3121 18.859 36.3583 18.891 36.4506C18.8945 36.4612 19.3347 37.6752 20.3712 38.8714C21.7555 40.4616 23.4912 41.2709 25.5358 41.2709C27.5804 41.2709 29.2096 40.4687 30.3987 38.882C31.2932 37.6894 31.5843 36.479 31.5878 36.4683C31.6091 36.3725 31.705 36.3157 31.8008 36.337C31.8966 36.3583 31.957 36.4541 31.9321 36.55C31.9215 36.6032 31.6233 37.8349 30.6898 39.0844C29.8237 40.2451 28.2264 41.6259 25.5358 41.6259L25.5394 41.6294Z" fill="#FFF7F1"/>
<path d="M29.8876 32.4181C28.4926 33.3872 25.4471 34.8283 20.1156 34.2675C20.4954 32.4785 20.5486 31.0764 20.5238 30.2138L29.5149 29.8589C29.5965 30.622 29.735 31.5165 29.8876 32.4181Z" fill="#3F2037"/>
<path d="M17.0914 18.4865C17.0914 18.4865 14.3085 14.6991 12.1433 16.9389C9.97805 19.1822 14.1523 26.9877 17.9433 25.2875L17.0914 18.4829V18.4865Z" fill="#FFB8A1"/>
<path d="M15.9342 22.9623C15.8383 22.9623 15.7567 22.8914 15.7425 22.7955C15.3769 20.1653 13.2862 18.5467 13.2649 18.5325C13.1797 18.4686 13.1655 18.3479 13.2294 18.2627C13.2933 18.1775 13.414 18.1633 13.4992 18.2272C13.5915 18.2946 15.739 19.9559 16.1259 22.7423C16.1401 22.8488 16.0655 22.9446 15.9626 22.9588C15.9519 22.9588 15.9448 22.9588 15.9342 22.9588V22.9623Z" fill="#FF8A8A"/>
<path d="M15.3521 21.0704C15.2918 21.0704 15.2314 21.042 15.1924 20.9852C14.912 20.5734 14.0778 20.5308 13.7797 20.5486C13.6732 20.5557 13.5809 20.474 13.5773 20.3676C13.5702 20.2611 13.6519 20.1688 13.7584 20.1652C13.8116 20.1652 15.054 20.0942 15.5119 20.7687C15.5722 20.8574 15.5473 20.9745 15.4586 21.0349C15.4267 21.0562 15.3876 21.0668 15.3521 21.0668V21.0704Z" fill="#FF8A8A"/>
<path d="M16.2218 25.4615C16.1685 25.4544 16.1153 25.4367 16.0585 25.4225C15.8029 25.5254 15.5083 25.5112 15.2989 25.3657C14.6564 24.9149 15.2172 23.8252 15.2243 23.811C15.2776 23.7116 15.2385 23.5874 15.1392 23.5341C15.0398 23.4809 14.9155 23.5199 14.8623 23.6193C14.8303 23.6761 14.1275 25.0391 15.0646 25.6994C15.2527 25.8342 15.487 25.8981 15.7284 25.8981C15.9698 25.8981 16.2005 25.8342 16.4064 25.7065C16.488 25.6532 16.559 25.5929 16.6229 25.5254C16.488 25.5041 16.3602 25.4828 16.2253 25.4615H16.2218Z" fill="#FFF7F1"/>
<path d="M34.0441 18.4865C34.0441 18.4865 36.827 14.6991 38.9923 16.9389C41.1575 19.1822 36.9832 26.9877 33.1958 25.2875L34.0477 18.4829L34.0441 18.4865Z" fill="#FFB8A1"/>
<path d="M35.1658 22.9626C35.1658 22.9626 35.148 22.9626 35.1374 22.9626C35.0309 22.9484 34.9599 22.8526 34.9741 22.7461C35.361 19.9597 37.5085 18.2985 37.6008 18.231C37.686 18.1671 37.8067 18.1849 37.8705 18.2665C37.9344 18.3517 37.9167 18.4724 37.8351 18.5363C37.8138 18.5505 35.7195 20.1726 35.3574 22.7993C35.3432 22.8952 35.2616 22.9662 35.1658 22.9662V22.9626Z" fill="#FF8A8A"/>
<path d="M35.748 21.0704C35.7125 21.0704 35.6735 21.0597 35.6415 21.0384C35.5528 20.9781 35.5315 20.8609 35.5918 20.7722C36.0497 20.0942 37.2921 20.1652 37.3453 20.1688C37.4518 20.1759 37.5299 20.2682 37.5263 20.3711C37.5192 20.4776 37.427 20.5592 37.324 20.5521C37.0259 20.5344 36.1917 20.577 35.9113 20.9887C35.8758 21.042 35.8119 21.0739 35.7516 21.0739L35.748 21.0704Z" fill="#FF8A8A"/>
<path d="M34.9138 25.4615C34.967 25.4544 35.0203 25.4367 35.0771 25.4225C35.3326 25.5254 35.6273 25.5112 35.8367 25.3657C36.4792 24.9149 35.9183 23.8252 35.9112 23.811C35.858 23.7116 35.897 23.5874 35.9964 23.5341C36.0958 23.4809 36.22 23.5199 36.2733 23.6193C36.3052 23.6761 37.008 25.0391 36.071 25.6994C35.8828 25.8342 35.6486 25.8981 35.4072 25.8981C35.1658 25.8981 34.9351 25.8342 34.7292 25.7065C34.6476 25.6532 34.5766 25.5929 34.5127 25.5254C34.6476 25.5041 34.7754 25.4828 34.9102 25.4615H34.9138Z" fill="#FFF7F1"/>
<path d="M26.8208 7.12757C18.5964 6.8862 14.7451 11.2877 15.3734 20.371C15.7638 26.0149 18.7987 32.8762 25.479 33.0324C32.4433 33.1957 35.6131 25.2979 35.7622 19.4588C35.9219 13.3216 34.463 9.21828 29.3871 7.55352C29.0357 7.43994 27.197 7.13822 26.8172 7.12757H26.8208Z" fill="#FFB8A1"/>
<path d="M19.5726 22.1353C19.5726 22.2666 19.4661 22.3731 19.3347 22.3731C19.2034 22.3731 19.0969 22.2666 19.0969 22.1353C19.0969 22.0039 19.2034 21.8975 19.3347 21.8975C19.4661 21.8975 19.5726 22.0039 19.5726 22.1353Z" fill="#FF8A8A"/>
<path d="M20.744 22.7139C20.744 22.8452 20.6375 22.9517 20.5061 22.9517C20.3748 22.9517 20.2683 22.8452 20.2683 22.7139C20.2683 22.5826 20.3748 22.4761 20.5061 22.4761C20.6375 22.4761 20.744 22.5826 20.744 22.7139Z" fill="#FF8A8A"/>
<path d="M19.5726 23.5479C19.5726 23.6792 19.4661 23.7857 19.3347 23.7857C19.2034 23.7857 19.0969 23.6792 19.0969 23.5479C19.0969 23.4165 19.2034 23.3101 19.3347 23.3101C19.4661 23.3101 19.5726 23.4165 19.5726 23.5479Z" fill="#FF8A8A"/>
<path d="M21.4112 23.7857C21.4112 23.917 21.3047 24.0235 21.1734 24.0235C21.042 24.0235 20.9355 23.917 20.9355 23.7857C20.9355 23.6543 21.042 23.5479 21.1734 23.5479C21.3047 23.5479 21.4112 23.6543 21.4112 23.7857Z" fill="#FF8A8A"/>
<path d="M22.6395 23.5479C22.6395 23.6792 22.533 23.7857 22.4016 23.7857C22.2703 23.7857 22.1638 23.6792 22.1638 23.5479C22.1638 23.4165 22.2703 23.3101 22.4016 23.3101C22.533 23.3101 22.6395 23.4165 22.6395 23.5479Z" fill="#FF8A8A"/>
<path d="M22.0821 22.3765C22.0821 22.5078 21.9756 22.6143 21.8443 22.6143C21.7129 22.6143 21.6064 22.5078 21.6064 22.3765C21.6064 22.2452 21.7129 22.1387 21.8443 22.1387C21.9756 22.1387 22.0821 22.2452 22.0821 22.3765Z" fill="#FF8A8A"/>
<path d="M31.7653 22.1353C31.7653 22.2666 31.8717 22.3731 32.0031 22.3731C32.1344 22.3731 32.2409 22.2666 32.2409 22.1353C32.2409 22.0039 32.1344 21.8975 32.0031 21.8975C31.8717 21.8975 31.7653 22.0039 31.7653 22.1353Z" fill="#FF8A8A"/>
<path d="M30.5975 22.7139C30.5975 22.8452 30.704 22.9517 30.8354 22.9517C30.9667 22.9517 31.0732 22.8452 31.0732 22.7139C31.0732 22.5826 30.9667 22.4761 30.8354 22.4761C30.704 22.4761 30.5975 22.5826 30.5975 22.7139Z" fill="#FF8A8A"/>
<path d="M31.7653 23.5479C31.7653 23.6792 31.8717 23.7857 32.0031 23.7857C32.1344 23.7857 32.2409 23.6792 32.2409 23.5479C32.2409 23.4165 32.1344 23.3101 32.0031 23.3101C31.8717 23.3101 31.7653 23.4165 31.7653 23.5479Z" fill="#FF8A8A"/>
<path d="M29.9266 23.7857C29.9266 23.917 30.0331 24.0235 30.1645 24.0235C30.2958 24.0235 30.4023 23.917 30.4023 23.7857C30.4023 23.6543 30.2958 23.5479 30.1645 23.5479C30.0331 23.5479 29.9266 23.6543 29.9266 23.7857Z" fill="#FF8A8A"/>
<path d="M28.702 23.5479C28.702 23.6792 28.8085 23.7857 28.9399 23.7857C29.0712 23.7857 29.1777 23.6792 29.1777 23.5479C29.1777 23.4165 29.0712 23.3101 28.9399 23.3101C28.8085 23.3101 28.702 23.4165 28.702 23.5479Z" fill="#FF8A8A"/>
<path d="M29.2593 22.3765C29.2593 22.5078 29.3658 22.6143 29.4971 22.6143C29.6284 22.6143 29.7349 22.5078 29.7349 22.3765C29.7349 22.2452 29.6284 22.1387 29.4971 22.1387C29.3658 22.1387 29.2593 22.2452 29.2593 22.3765Z" fill="#FF8A8A"/>
<path d="M15.7 21.9898C15.7 21.9898 17.347 18.5148 16.7968 15.9555L14.9971 15.4302C14.9971 15.4302 14.7238 19.8246 15.7 21.9898Z" fill="#3F2037"/>
<path d="M35.4178 21.9898C35.4178 21.9898 33.7708 18.5148 34.321 15.9555L36.1206 15.4302C36.1206 15.4302 36.3939 19.8246 35.4178 21.9898Z" fill="#3F2037"/>
<path d="M17.0559 4.88433C15.0611 6.85435 13.5064 10.0809 13.4034 12.0509C13.2969 14.0458 13.8081 16.03 15.306 16.7896C19.9844 19.1678 29.6605 10.2229 29.6605 10.2229C29.6605 10.2229 33.0752 17.1623 35.7622 16.8358C38.4528 16.5092 39.5958 8.68238 33.1923 4.30575C26.7995 -0.0637791 20.1121 1.86719 17.0559 4.88433Z" fill="#3F2037"/>
<path d="M18.7384 17.8438C18.7384 17.8438 19.1821 16.7434 20.6942 15.8028C22.6003 14.6137 23.974 16.6583 23.974 16.6583C23.974 16.6583 22.4797 16.1365 21.3296 16.5021C20.2044 16.8606 18.7384 17.8438 18.7384 17.8438Z" fill="#3F2037"/>
<path d="M32.7876 17.8438C32.7876 17.8438 32.3439 16.7434 30.8318 15.8028C28.9257 14.6137 27.552 16.6583 27.552 16.6583C27.552 16.6583 29.0464 16.1365 30.1964 16.5021C31.3217 16.8606 32.7876 17.8438 32.7876 17.8438Z" fill="#3F2037"/>
<path d="M26.0363 25.1523C25.7062 25.1523 25.3442 25.0671 24.9466 24.8931C24.8366 24.847 24.7727 24.7334 24.7869 24.6163L25.3442 20.3426C25.3619 20.197 25.4968 20.0941 25.6423 20.1119C25.7879 20.1296 25.8908 20.2645 25.873 20.41L25.3442 24.4814C25.8943 24.6837 26.3203 24.666 26.6717 24.4317C26.7924 24.35 26.9592 24.382 27.0409 24.5027C27.1225 24.6234 27.0905 24.7902 26.9699 24.8718C26.6894 25.06 26.3806 25.1558 26.0363 25.1558V25.1523Z" fill="#FF8A8A"/>
<path d="M25.5075 27.978C25.2732 27.978 25.0531 27.9638 24.8508 27.939C23.6333 27.8005 22.7849 27.3284 22.7459 27.3107C22.6181 27.2397 22.572 27.0764 22.643 26.9486C22.7139 26.8208 22.8772 26.7747 23.005 26.8457C23.1328 26.9167 26.1783 28.5601 28.8157 26.1216C28.9222 26.0222 29.0925 26.0293 29.1919 26.1358C29.2913 26.2423 29.2842 26.4126 29.1777 26.512C27.9247 27.6727 26.5759 27.9745 25.5075 27.9745V27.978Z" fill="#FF8A8A"/>
<path d="M25.9724 29.5398C25.3548 29.5398 24.8578 29.3872 24.8223 29.3766C24.6803 29.334 24.6023 29.1849 24.6484 29.0429C24.691 28.9009 24.8401 28.8228 24.9821 28.869C24.9998 28.8761 26.2173 29.2381 27.0728 28.7554C27.2005 28.6844 27.3638 28.727 27.4348 28.8548C27.5058 28.9826 27.4632 29.1458 27.3354 29.2168C26.8988 29.4653 26.4054 29.5363 25.9759 29.5363L25.9724 29.5398Z" fill="#FF8A8A"/>
<path d="M22.3803 19.4519C22.3945 20.1938 22.1176 20.8043 21.7698 20.8078C21.4183 20.8149 21.1237 20.215 21.1095 19.4732C21.0953 18.7313 21.3722 18.1208 21.7201 18.1172C22.0715 18.1102 22.3661 18.71 22.3803 19.4519Z" fill="#3F2037"/>
<path d="M29.0251 19.4519C29.0109 20.1938 29.2877 20.8043 29.6356 20.8078C29.987 20.8149 30.2816 20.215 30.2958 19.4732C30.31 18.7313 30.0331 18.1208 29.6853 18.1172C29.3339 18.1102 29.0393 18.71 29.0251 19.4519Z" fill="#3F2037"/>
</g>
</g>
</g>
<defs>
<clipPath id="clip0_237_8413">
<rect width="49" height="51.49" fill="white" transform="translate(0.333496 0.500977)"/>
</clipPath>
<clipPath id="clip1_237_8413">
<rect width="48.7002" height="49.2468" fill="white" transform="translate(0.983398 1.74658)"/>
</clipPath>
</defs>
</svg>
