<svg width="50" height="52" viewBox="0 0 50 52" fill="none" xmlns="http://www.w3.org/2000/svg">
<g clip-path="url(#clip0_232_8199)">
<mask id="mask0_232_8199" style="mask-type:alpha" maskUnits="userSpaceOnUse" x="0" y="1" width="50" height="50">
<circle cx="24.8334" cy="26.2451" r="24.5" fill="#D9D9D9"/>
</mask>
<g mask="url(#mask0_232_8199)">
<g clip-path="url(#clip1_232_8199)">
<path d="M16.5129 21.8094C16.5129 21.8094 14.1925 21.2928 13.85 23.2706C13.5076 25.2456 14.8804 25.6766 14.8804 25.6766C14.8804 25.6766 12.8197 23.3562 11.3585 24.9888C9.89721 26.6213 12.3032 27.9941 12.3032 27.9941C12.3032 27.9941 9.64034 26.5328 9.12376 28.3365C8.60718 30.1403 10.7563 31.2562 10.7563 31.2562C10.7563 31.2562 8.43594 31.085 8.52442 32.1153C8.61004 33.1456 10.8447 32.2865 10.8447 32.2865C10.8447 32.2865 7.57973 32.8887 8.09631 35.4659C8.61289 38.0431 11.1872 36.5818 11.1872 36.5818C11.1872 36.5818 9.21224 37.6122 9.72597 40.8772C10.2425 44.1422 24.9294 37.5265 24.9294 37.5265L25.1863 28.679L16.51 21.8065L16.5129 21.8094Z" fill="#352C38"/>
<path d="M33.4659 21.8094C33.4659 21.8094 35.7862 21.2928 36.1287 23.2706C36.4712 25.2456 35.0984 25.6766 35.0984 25.6766C35.0984 25.6766 37.159 23.3562 38.6203 24.9888C40.0816 26.6213 37.6756 27.9941 37.6756 27.9941C37.6756 27.9941 40.3384 26.5328 40.855 28.3365C41.3716 30.1403 39.2225 31.2562 39.2225 31.2562C39.2225 31.2562 41.5428 31.085 41.4543 32.1153C41.3687 33.1456 39.134 32.2865 39.134 32.2865C39.134 32.2865 42.399 32.8887 41.8825 35.4659C41.3659 38.0431 38.7915 36.5818 38.7915 36.5818C38.7915 36.5818 40.7665 37.6122 40.2528 40.8772C39.7362 44.1422 25.0493 37.5265 25.0493 37.5265L24.7925 28.679L33.4688 21.8065L33.4659 21.8094Z" fill="#352C38"/>
<path d="M16.5129 21.8094C16.5129 21.8094 14.1925 21.2928 13.85 23.2706C13.5076 25.2456 14.8804 25.6766 14.8804 25.6766C14.8804 25.6766 12.8197 23.3562 11.3585 24.9888C9.89721 26.6213 12.3032 27.9941 12.3032 27.9941C12.3032 27.9941 9.64034 26.5328 9.12376 28.3365C8.60718 30.1403 10.7563 31.2562 10.7563 31.2562C10.7563 31.2562 8.43594 31.085 8.52442 32.1153C8.61004 33.1456 10.8447 32.2865 10.8447 32.2865C10.8447 32.2865 7.57973 32.8887 8.09631 35.4659C8.61289 38.0431 11.1872 36.5818 11.1872 36.5818C11.1872 36.5818 9.21224 37.6122 9.72597 40.8772C10.2425 44.1422 24.9294 37.5265 24.9294 37.5265L25.1863 28.679L16.51 21.8065L16.5129 21.8094Z" fill="#2A242D"/>
<path d="M33.4659 21.8094C33.4659 21.8094 35.7862 21.2928 36.1287 23.2706C36.4712 25.2456 35.0984 25.6766 35.0984 25.6766C35.0984 25.6766 37.159 23.3562 38.6203 24.9888C40.0816 26.6213 37.6756 27.9941 37.6756 27.9941C37.6756 27.9941 40.3384 26.5328 40.855 28.3365C41.3716 30.1403 39.2225 31.2562 39.2225 31.2562C39.2225 31.2562 41.5428 31.085 41.4543 32.1153C41.3687 33.1456 39.134 32.2865 39.134 32.2865C39.134 32.2865 42.399 32.8887 41.8825 35.4659C41.3659 38.0431 38.7915 36.5818 38.7915 36.5818C38.7915 36.5818 40.7665 37.6122 40.2528 40.8772C39.7362 44.1422 25.0493 37.5265 25.0493 37.5265L24.7925 28.679L33.4688 21.8065L33.4659 21.8094Z" fill="#2A242D"/>
<path d="M30.3437 35.8105C27.9235 34.489 28.5828 28.1074 28.5828 28.1074L24.9581 28.3415V28.1074L24.57 28.2244L24.1818 28.1074V28.3415L20.5572 28.1074C20.5572 28.1074 21.2165 34.489 18.7963 35.8105C16.376 37.1319 2.0716 37.7912 3.60993 52.5351H45.5272C47.0684 37.7912 32.7639 37.129 30.3408 35.8105H30.3437Z" fill="#965450"/>
<path d="M20.0492 34.1637C22.946 33.7327 25.84 33.2875 28.7312 32.828C28.323 30.6275 28.5856 28.1074 28.5856 28.1074L24.961 28.3415V28.1074L24.5728 28.2244L24.1847 28.1074V28.3415L20.5601 28.1074C20.5601 28.1074 20.9425 31.8148 20.052 34.1637H20.0492Z" fill="#76413B"/>
<path d="M30.4723 35.5678C29.5105 35.0512 29.0225 33.7755 28.7827 32.397C27.4442 32.6966 25.9915 32.8622 24.476 32.8622C22.9605 32.8622 21.5677 32.7052 20.2492 32.417C20.0094 33.7869 19.5185 35.0541 18.5624 35.5678C16.0652 36.9063 1.31264 37.577 2.90234 52.535H46.1324C47.7221 37.577 32.9696 36.9092 30.4723 35.5678Z" fill="#FC6A5A"/>
<g opacity="0.9">
<mask id="mask1_232_8199" style="mask-type:luminance" maskUnits="userSpaceOnUse" x="2" y="32" width="45" height="21">
<path d="M30.4723 35.5678C29.5105 35.0512 29.0225 33.7755 28.7827 32.397C27.4442 32.6966 25.9915 32.8622 24.476 32.8622C22.9605 32.8622 21.5677 32.7052 20.2492 32.417C20.0094 33.7869 19.5185 35.0541 18.5624 35.5678C16.0652 36.9063 1.31264 37.577 2.90234 52.535H46.1324C47.7221 37.577 32.9696 36.9092 30.4723 35.5678Z" fill="white"/>
</mask>
<g mask="url(#mask1_232_8199)">
<path d="M0.333618 34.4072H47.802" stroke="#FDEDEE" stroke-width="0.873335" stroke-miterlimit="10"/>
<path d="M0.333618 36.7222H47.802" stroke="#FDEDEE" stroke-width="0.873335" stroke-miterlimit="10"/>
<path d="M0.333618 39.0371H47.802" stroke="#FDEDEE" stroke-width="0.873335" stroke-miterlimit="10"/>
<path d="M0.333618 41.3516H47.802" stroke="#FDEDEE" stroke-width="0.873335" stroke-miterlimit="10"/>
<path d="M0.333618 43.666H47.802" stroke="#FDEDEE" stroke-width="0.873335" stroke-miterlimit="10"/>
<path d="M0.333618 45.98H47.802" stroke="#FDEDEE" stroke-width="0.873335" stroke-miterlimit="10"/>
<path d="M0.333618 48.2949H47.802" stroke="#FDEDEE" stroke-width="0.873335" stroke-miterlimit="10"/>
<path d="M0.333618 50.6069H47.802" stroke="#FDEDEE" stroke-width="0.873335" stroke-miterlimit="10"/>
</g>
</g>
<path opacity="0.3" d="M4.30664 52.5354H46.1326C46.6548 47.6293 45.4162 44.2587 43.4298 41.8984C30.3069 45.1121 17.3867 49.1334 4.30664 52.5354Z" fill="#2A242D"/>
<path d="M17.4805 18.7643C16.767 16.5524 15.0774 17.0633 14.9204 17.1175C14.7549 17.1375 13.0082 17.3972 13.3108 19.7004C13.6133 22.0208 14.9604 23.2765 16.2219 22.9084C17.5205 22.7029 18.1997 20.9905 17.4805 18.7643Z" fill="#76413B"/>
<path d="M31.7249 18.7643C32.4385 16.5524 34.128 17.0633 34.285 17.1175C34.4506 17.1375 36.1972 17.3972 35.8947 19.7004C35.5922 22.0208 34.2451 23.2765 32.9836 22.9084C31.685 22.7029 31.0057 20.9905 31.7249 18.7643Z" fill="#76413B"/>
<path d="M15.7509 15.4106C16.6357 5.70972 24.0105 6.25484 24.7069 6.32619C25.4033 6.25198 32.7781 5.70972 33.66 15.4106C34.5505 25.1685 30.2038 31.5416 24.7069 31.1934C19.21 31.5444 14.8633 25.1714 15.7538 15.4106H15.7509Z" fill="#965450"/>
<path d="M25.9772 19.979C26.0999 20.2016 26.1941 20.4328 26.2768 20.664C26.3596 20.8951 26.4309 21.132 26.4966 21.3661C26.5308 21.4831 26.5537 21.603 26.5822 21.7228C26.6107 21.8427 26.6336 21.9626 26.6564 22.0824C26.7049 22.3222 26.7392 22.5648 26.7649 22.8074L26.7763 22.9215L26.7135 22.9786C26.5166 23.1584 26.3111 23.3353 26.1056 23.5094C25.8944 23.6778 25.686 23.8491 25.4606 24.0032C25.6061 23.772 25.7688 23.558 25.9315 23.3411C26.097 23.127 26.2654 22.9187 26.4395 22.716L26.391 22.8873C26.3168 22.6532 26.2511 22.4163 26.1998 22.1795C26.1712 22.0596 26.1427 21.9426 26.1227 21.8199C26.1027 21.7 26.0742 21.5801 26.0571 21.4602C26.02 21.2177 25.9914 20.9751 25.9743 20.7296C25.96 20.4842 25.9515 20.2359 25.9743 19.9819L25.9772 19.979Z" fill="#76413B"/>
<path d="M28.4658 25.7461C26.7105 27.4528 23.7366 27.3586 21.4819 25.8374L28.4658 25.7461Z" fill="white"/>
<path d="M31.6594 16.6875C31.6594 16.6875 31.5823 16.6447 31.4482 16.5705C31.3825 16.5334 31.3026 16.4906 31.2141 16.442C31.1256 16.3935 31.0258 16.3421 30.9144 16.2851C30.8003 16.2365 30.689 16.1709 30.5605 16.1224C30.4978 16.0938 30.435 16.0682 30.3722 16.0396C30.3065 16.0168 30.2409 15.9911 30.1724 15.9683C30.0411 15.9112 29.8984 15.8884 29.7614 15.8398C29.6187 15.8256 29.4817 15.7713 29.339 15.777L29.1278 15.7599C29.0593 15.7685 28.988 15.7713 28.9195 15.7742C28.7796 15.7685 28.6483 15.8199 28.5142 15.837C28.3801 15.8598 28.2573 15.9226 28.1318 15.9569L28.0376 15.9854L27.952 16.0282C27.8949 16.0567 27.8378 16.0824 27.7836 16.1081C27.6751 16.1623 27.5667 16.1994 27.4839 16.2565C27.3983 16.3108 27.3184 16.3507 27.2527 16.3878C27.1186 16.4592 27.033 16.4963 27.033 16.4963C27.033 16.4963 27.0672 16.4164 27.1414 16.2794C27.1785 16.2109 27.2242 16.1281 27.2841 16.0368C27.3383 15.9397 27.4211 15.8484 27.5181 15.7514C27.618 15.6572 27.7065 15.5316 27.8464 15.4488C27.9834 15.3661 28.1175 15.2519 28.2859 15.1891C28.3686 15.1549 28.4571 15.1235 28.5456 15.0949C28.6341 15.0578 28.7254 15.0407 28.8224 15.0293C28.9166 15.015 29.0137 15.0007 29.1136 14.9922C29.2106 14.9922 29.3076 15.0007 29.4075 15.0065C29.6044 15.0093 29.7871 15.075 29.9726 15.1206C30.0611 15.152 30.1439 15.1891 30.2295 15.2262C30.3151 15.2605 30.395 15.3004 30.4664 15.3489C30.5406 15.3946 30.6148 15.4374 30.6833 15.4831C30.7489 15.5345 30.8117 15.583 30.8716 15.6343C30.9972 15.7285 31.0914 15.8427 31.1856 15.9369C31.3625 16.1395 31.4853 16.325 31.5566 16.4649C31.6308 16.6019 31.6594 16.6875 31.6594 16.6875Z" fill="#352C38"/>
<path d="M22.475 16.6875C22.475 16.6875 22.398 16.6447 22.2638 16.5705C22.1982 16.5334 22.1183 16.4906 22.0298 16.442C21.9413 16.3935 21.8414 16.3421 21.7301 16.2851C21.616 16.2365 21.5047 16.1709 21.3762 16.1224C21.3134 16.0938 21.2506 16.0682 21.1879 16.0396C21.1222 16.0168 21.0566 15.9911 20.9881 15.9683C20.8568 15.9112 20.7141 15.8884 20.5771 15.8398C20.4344 15.8256 20.2974 15.7713 20.1547 15.777L19.9435 15.7599C19.875 15.7685 19.8036 15.7713 19.7352 15.7742C19.5953 15.7685 19.464 15.8199 19.3299 15.837C19.1957 15.8598 19.073 15.9226 18.9474 15.9569L18.8533 15.9854L18.7676 16.0282C18.7106 16.0567 18.6535 16.0824 18.5992 16.1081C18.4908 16.1623 18.3823 16.1994 18.2996 16.2565C18.214 16.3108 18.134 16.3507 18.0684 16.3878C17.9343 16.4592 17.8486 16.4963 17.8486 16.4963C17.8486 16.4963 17.8829 16.4164 17.9571 16.2794C17.9942 16.2109 18.0399 16.1281 18.0998 16.0368C18.154 15.9397 18.2368 15.8484 18.3338 15.7514C18.4337 15.6572 18.5222 15.5316 18.662 15.4488C18.799 15.3661 18.9332 15.2519 19.1016 15.1891C19.1843 15.1549 19.2728 15.1235 19.3613 15.0949C19.4497 15.0578 19.5411 15.0407 19.6381 15.0293C19.7323 15.015 19.8293 15.0007 19.9292 14.9922C20.0263 14.9922 20.1233 15.0007 20.2232 15.0065C20.4201 15.0093 20.6028 15.075 20.7883 15.1206C20.8768 15.152 20.9595 15.1891 21.0452 15.2262C21.1308 15.2605 21.2107 15.3004 21.282 15.3489C21.3562 15.3946 21.4305 15.4374 21.4989 15.4831C21.5646 15.5345 21.6274 15.583 21.6873 15.6343C21.8129 15.7285 21.9071 15.8427 22.0013 15.9369C22.1782 16.1395 22.3009 16.325 22.3723 16.4649C22.4465 16.6019 22.475 16.6875 22.475 16.6875Z" fill="#352C38"/>
<path d="M22.1812 20.2035C22.1812 20.2035 22.1612 20.1236 22.1156 19.9923C22.0699 19.8611 22.0014 19.6755 21.893 19.4729C21.7817 19.2703 21.6275 19.0534 21.4135 18.8935C21.3079 18.8136 21.1852 18.748 21.0539 18.708C20.9882 18.6852 20.9226 18.6652 20.8512 18.6595C20.7799 18.6509 20.7114 18.6367 20.6372 18.6424C20.5687 18.6424 20.4831 18.6367 20.4288 18.6452C20.3546 18.6595 20.2604 18.6624 20.2034 18.6852C20.0864 18.7223 19.9551 18.768 19.8552 18.8507C19.7496 18.9249 19.6668 19.0248 19.5926 19.1247C19.527 19.2303 19.4699 19.3388 19.4271 19.4444C19.3443 19.6584 19.3015 19.8525 19.2787 19.9866C19.253 20.1236 19.2473 20.2035 19.2473 20.2035C19.2473 20.2035 19.2244 20.1265 19.2102 19.9838C19.1959 19.8411 19.1873 19.6356 19.2387 19.3873C19.2644 19.2646 19.3043 19.1304 19.3728 18.9963C19.4442 18.865 19.5327 18.7252 19.6668 18.6196C19.7924 18.5054 19.9494 18.4198 20.132 18.3655C20.2233 18.3342 20.2918 18.3342 20.3718 18.317C20.4745 18.2999 20.5516 18.3085 20.64 18.3028C20.7257 18.297 20.8141 18.317 20.9026 18.3313C20.9911 18.3399 21.0738 18.3684 21.1566 18.3998C21.2422 18.4226 21.3193 18.4683 21.3906 18.514C21.4677 18.5539 21.5305 18.611 21.5961 18.6652C21.8473 18.8878 21.9843 19.1647 22.0642 19.3987C22.1441 19.6356 22.1669 19.8411 22.1755 19.9838C22.1841 20.1265 22.1755 20.2064 22.1755 20.2064L22.1812 20.2035Z" fill="#352C38"/>
<path d="M30.4378 20.0698C30.4378 20.0698 30.4178 19.9898 30.3722 19.8586C30.3265 19.7273 30.258 19.5418 30.1495 19.3391C30.0382 19.1365 29.8841 18.9196 29.6701 18.7598C29.5645 18.6798 29.4417 18.6142 29.3105 18.5742C29.2448 18.5514 29.1792 18.5314 29.1078 18.5257C29.0365 18.5172 28.968 18.5029 28.8938 18.5086C28.8253 18.5086 28.7397 18.5029 28.6854 18.5115C28.6112 18.5257 28.517 18.5286 28.46 18.5514C28.3429 18.5885 28.2117 18.6342 28.1118 18.7169C28.0062 18.7911 27.9234 18.891 27.8492 18.9909C27.7836 19.0965 27.7265 19.205 27.6837 19.3106C27.6009 19.5246 27.5581 19.7187 27.5352 19.8528C27.5096 19.9898 27.5039 20.0698 27.5039 20.0698C27.5039 20.0698 27.481 19.9927 27.4668 19.85C27.4525 19.7073 27.4439 19.5018 27.4953 19.2535C27.521 19.1308 27.5609 18.9966 27.6294 18.8625C27.7008 18.7312 27.7893 18.5914 27.9234 18.4858C28.049 18.3716 28.206 18.286 28.3886 18.2318C28.4799 18.2004 28.5484 18.2004 28.6283 18.1832C28.7311 18.1661 28.8082 18.1747 28.8966 18.169C28.9822 18.1633 29.0707 18.1832 29.1592 18.1975C29.2477 18.2061 29.3304 18.2346 29.4132 18.266C29.4988 18.2888 29.5759 18.3345 29.6472 18.3802C29.7243 18.4201 29.7871 18.4772 29.8527 18.5314C30.1039 18.754 30.2409 19.0309 30.3208 19.2649C30.4007 19.5018 30.4235 19.7073 30.4321 19.85C30.4407 19.9927 30.4321 20.0726 30.4321 20.0726L30.4378 20.0698Z" fill="#352C38"/>
<path d="M24.9924 6.32605C24.9924 6.32605 25.4491 12.2739 16.4303 14.7626C16.4303 14.7626 16.6872 17.7679 15.9137 20.6048C15.9137 20.6048 12.994 16.3951 14.3668 11.4148C15.7425 6.43165 22.7035 2.44171 24.9924 6.32605Z" fill="#352C38"/>
<path d="M24.2817 6.32598C24.2817 6.32598 24.1104 12.2738 33.1292 14.7625C33.1292 14.7625 32.7011 18.5413 33.4717 21.3753C33.4717 21.3753 36.5626 16.3922 35.1898 11.4119C33.8141 6.42872 26.5677 2.43878 24.2788 6.32313L24.2817 6.32598Z" fill="#352C38"/>
<path d="M17.7916 14.3332C16.4759 13.417 15.3057 12.2354 14.5209 10.9312C14.4638 11.091 14.4124 11.2508 14.3696 11.4135C12.994 16.3966 15.9165 20.6035 15.9165 20.6035C16.69 17.7694 16.4331 14.7613 16.4331 14.7613C16.9154 14.6271 17.3664 14.4816 17.7945 14.3303L17.7916 14.3332Z" fill="#2A242D"/>
</g>
</g>
</g>
<defs>
<clipPath id="clip0_232_8199">
<rect width="49" height="51.49" fill="white" transform="translate(0.333374 0.5)"/>
</clipPath>
<clipPath id="clip1_232_8199">
<rect width="47.4684" height="47.7708" fill="white" transform="translate(0.333374 4.76416)"/>
</clipPath>
</defs>
</svg>
