<svg width="30" height="23" viewBox="0 0 30 23" fill="none" xmlns="http://www.w3.org/2000/svg">
<path d="M21.2267 12.9707C23.0534 14.2107 24.3334 15.8907 24.3334 18.1307V22.1307H29.6667V18.1307C29.6667 15.224 24.9067 13.504 21.2267 12.9707Z" fill="#CC8F63"/>
<path d="M19 11.464C21.9467 11.464 24.3334 9.07736 24.3334 6.1307C24.3334 3.18403 21.9467 0.797363 19 0.797363C18.3734 0.797363 17.7867 0.930696 17.2267 1.11736C18.3334 2.4907 19 4.23736 19 6.1307C19 8.02403 18.3334 9.7707 17.2267 11.144C17.7867 11.3307 18.3734 11.464 19 11.464Z" fill="#CC8F63"/>
<path d="M11 11.464C13.9467 11.464 16.3334 9.07736 16.3334 6.1307C16.3334 3.18403 13.9467 0.797363 11 0.797363C8.05335 0.797363 5.66669 3.18403 5.66669 6.1307C5.66669 9.07736 8.05335 11.464 11 11.464ZM11 3.46403C12.4667 3.46403 13.6667 4.66403 13.6667 6.1307C13.6667 7.59736 12.4667 8.79736 11 8.79736C9.53335 8.79736 8.33335 7.59736 8.33335 6.1307C8.33335 4.66403 9.53335 3.46403 11 3.46403Z" fill="#CC8F63"/>
<path d="M11 12.7974C7.44001 12.7974 0.333344 14.584 0.333344 18.1307V22.1307H21.6667V18.1307C21.6667 14.584 14.56 12.7974 11 12.7974ZM19 19.464H3.00001V18.144C3.26668 17.184 7.40001 15.464 11 15.464C14.6 15.464 18.7333 17.184 19 18.1307V19.464Z" fill="#CC8F63"/>
</svg>
