<svg width="443" height="702" viewBox="0 0 443 702" fill="none" xmlns="http://www.w3.org/2000/svg">
<g clip-path="url(#clip0_144_11979)">
<rect x="0.484619" y="0.159729" width="442.36" height="701.302" rx="13" fill="#D9D9D9"/>
<g clip-path="url(#clip1_144_11979)">
<path d="M1503.26 -0.12384H-115.126C-128.139 -0.12384 -138.689 10.43 -138.689 23.4489V688.645C-138.689 701.664 -128.139 712.218 -115.126 712.218H1503.26C1516.27 712.218 1526.82 701.664 1526.82 688.645V23.4489C1526.82 10.43 1516.27 -0.12384 1503.26 -0.12384Z" fill="#CB8F64"/>
<path d="M1526.82 688.645C1526.82 701.668 1516.27 712.218 1503.26 712.218H-115.144C-128.161 712.218 -138.706 701.668 -138.706 688.645V594.283H1526.8V688.645H1526.82Z" fill="#AB5A4C"/>
<path d="M1526.82 688.645C1526.82 701.668 1516.27 712.218 1503.26 712.218H-115.144C-128.161 712.218 -138.706 701.668 -138.706 688.645V617.001H1526.8V688.645H1526.82Z" fill="#E5344F"/>
<path d="M1526.82 571.653H-138.689V594.283H1526.82V571.653Z" fill="#924642"/>
<path d="M1526.82 567.65H-138.688V571.653H1526.82V567.65Z" fill="#AB5A4C"/>
</g>
</g>
<defs>
<clipPath id="clip0_144_11979">
<rect x="0.484619" y="0.159729" width="442.36" height="701.302" rx="13" fill="white"/>
</clipPath>
<clipPath id="clip1_144_11979">
<rect width="585" height="712" fill="white" transform="translate(-70.8354 0.159729)"/>
</clipPath>
</defs>
</svg>
