<svg width="49" height="52" viewBox="0 0 49 52" fill="none" xmlns="http://www.w3.org/2000/svg">
<g clip-path="url(#clip0_200_9422)">
<path d="M37.2375 81.3818L54.4439 77.8414L50.4948 58.5923C49.5182 53.835 44.8793 50.7654 40.1245 51.7438C35.3758 52.7221 32.3118 57.3693 33.2884 62.1327L37.2375 81.3818Z" fill="white"/>
<path d="M13.2681 81.48L-3.93829 77.9396L0.0108153 58.6904C0.987411 53.9331 5.62624 50.8635 10.381 51.8419C15.1297 52.8203 18.1938 57.4675 17.2172 62.2308L13.2681 81.48Z" fill="white"/>
<path d="M24.2914 44.6392L4.88161 52.5088C3.5571 53.0469 2.85517 54.5022 3.25191 55.878L13.6221 90.6769H36.5477L46.3686 55.4378C46.7593 54.0253 45.9963 52.5577 44.6169 52.0686L24.2914 44.6453V44.6392Z" fill="white"/>
<path d="M10.8633 50.0813L24.2915 44.6392L38.678 49.8917C38.678 49.8917 37.8295 56.4161 24.7309 56.4161C11.6324 56.4161 10.8694 50.0813 10.8694 50.0813H10.8633Z" fill="#CA927B"/>
<path d="M29.1925 6.37195C29.1925 6.37195 33.8923 4.3174 37.8414 8.03515C41.7905 11.759 39.0011 14.2416 42.4864 16.0821C45.9716 17.9227 43.4263 23.0223 47.4914 25.3459C51.5565 27.6695 48.877 33.3929 44.6959 34.2062C44.6959 34.2062 42.6878 39.5076 38.2809 39.0001C38.2809 39.0001 34.2036 43.5372 26.2627 40.6572L23.339 39.4587L29.1925 6.37806V6.37195Z" fill="#333333"/>
<path d="M13.7258 7.93659C13.7258 7.93659 8.43993 8.62144 7.4206 13.3176C6.39518 18.0198 6.76751 16.9069 3.86824 19.2978C0.968967 21.6886 4.6373 24.3974 2.3301 26.7883C1.15208 28.0112 0.602743 29.0079 0.486772 30.1636C0.291453 32.1937 1.68921 33.9976 3.6485 34.5601C4.98522 34.9392 6.07168 36.205 6.87127 37.9293C8.44603 41.3475 14.0859 39.8616 14.0859 39.8616C14.0859 39.8616 19.4144 42.9679 22.6738 40.6626C25.9332 38.3574 21.0197 6.56689 21.0197 6.56689L13.7258 7.93659Z" fill="#333333"/>
<path d="M30.2671 6.62915C30.2671 6.62915 28.2528 1.70068 21.0077 1.70068C13.7626 1.70068 11.5164 9.2646 11.5164 9.2646L22.0576 15.3793L30.2671 6.62915Z" fill="#333333"/>
<path d="M15.2516 24.1539C15.9719 25.7681 15.9108 28.3669 14.3849 28.9417C12.859 29.5165 11.034 27.4375 10.3137 25.8293C9.59348 24.215 10.0329 22.8147 11.5589 22.2399C13.0848 21.6652 14.5314 22.5396 15.2516 24.1539Z" fill="#CA927B"/>
<path d="M11.516 24.1782C11.516 24.1782 13.3837 23.6829 14.0857 26.2205" stroke="#995342" stroke-width="0.398644" stroke-linecap="round" stroke-linejoin="round"/>
<path d="M17.1559 32.5433C16.5944 33.6806 15.4286 34.4633 14.0796 34.4633C12.1875 34.4633 10.6494 32.9224 10.6494 31.0268C10.6494 29.1312 12.1875 27.5903 14.0796 27.5903" stroke="#ECB82D" stroke-width="0.622881" stroke-miterlimit="10"/>
<path d="M34.6434 24.1539C33.9231 25.7681 33.9842 28.3669 35.5101 28.9417C37.036 29.5165 38.861 27.4375 39.5813 25.8293C40.3015 24.215 39.862 22.8147 38.3361 22.2399C36.8102 21.6652 35.3636 22.5396 34.6434 24.1539Z" fill="#CA927B"/>
<path d="M38.3847 24.1782C38.3847 24.1782 36.517 23.6829 35.8151 26.2205" stroke="#995342" stroke-width="0.398644" stroke-linecap="round" stroke-linejoin="round"/>
<path d="M32.8792 32.5433C33.4408 33.6806 34.6066 34.4633 35.9555 34.4633C37.8476 34.4633 39.3858 32.9224 39.3858 31.0268C39.3858 29.1312 37.8476 27.5903 35.9555 27.5903" stroke="#ECB82D" stroke-width="0.622881" stroke-miterlimit="10"/>
<path d="M24.926 30.3174C32.0355 30.3174 37.7988 24.7763 37.7988 17.9411C37.7988 11.106 32.0355 5.56494 24.926 5.56494C17.8166 5.56494 12.0533 11.106 12.0533 17.9411C12.0533 24.7763 17.8166 30.3174 24.926 30.3174Z" fill="#333333"/>
<path d="M21.221 33.0086L19.6035 48.4483H29.1925L27.5384 32.8496L21.221 33.0086Z" fill="#CA927B"/>
<path d="M21.0073 35.7353L28.4539 41.5199L27.6421 33.748L21.0073 35.7353Z" fill="#995342"/>
<path d="M24.9264 7.0083C18.9753 7.0083 13.72 11.6188 13.72 17.3055L14.0618 24.1295C14.0618 24.1295 14.1839 33.803 23.3516 36.7503C24.3649 37.0744 25.4757 37.0744 26.4951 36.7503C35.6629 33.8091 35.7849 24.1295 35.7849 24.1295L36.1267 17.3055C36.1267 11.6188 30.8714 7.0083 24.9203 7.0083H24.9264Z" fill="#CA927B"/>
<path d="M22.6679 29.6016C22.6679 29.6016 22.7778 31.0263 24.7127 31.0263C26.6475 31.0263 26.7574 29.6016 26.7574 29.6016H22.6679Z" fill="#DE5A62"/>
<path d="M24.2854 25.6523V27.2361L25.4512 27.2483" stroke="#995342" stroke-width="0.398644" stroke-linecap="round" stroke-linejoin="round"/>
<path d="M22.442 23.3345C22.442 23.3345 21.6669 21.3716 19.7808 21.2799C17.8948 21.1882 16.7656 22.6924 16.7656 22.6924C16.7656 22.6924 17.2417 24.3617 19.5306 24.4718C21.8194 24.5819 22.4359 23.3406 22.4359 23.3406L22.442 23.3345Z" fill="white"/>
<mask id="mask0_200_9422" style="mask-type:luminance" maskUnits="userSpaceOnUse" x="16" y="21" width="7" height="4">
<path d="M22.442 23.3345C22.442 23.3345 21.6669 21.3716 19.7808 21.2799C17.8948 21.1882 16.7656 22.6924 16.7656 22.6924C16.7656 22.6924 17.2417 24.3617 19.5306 24.4718C21.8194 24.5819 22.4359 23.3406 22.4359 23.3406L22.442 23.3345Z" fill="white"/>
</mask>
<g mask="url(#mask0_200_9422)">
<path d="M17.7117 22.7972C17.6628 23.8367 18.4624 24.7233 19.5 24.7722C20.5377 24.8211 21.4227 24.0201 21.4716 22.9806C21.5204 21.9411 20.7208 21.0545 19.6832 21.0055C18.6455 20.9566 17.7605 21.7577 17.7117 22.7972Z" fill="#333333"/>
</g>
<path d="M22.442 23.3355C22.442 23.3355 21.734 21.2993 19.7808 21.2809C17.8276 21.2626 16.7656 22.6934 16.7656 22.6934" stroke="#333333" stroke-width="0.315593" stroke-linecap="round" stroke-linejoin="round"/>
<path d="M27.3188 23.3345C27.3188 23.3345 28.094 21.3716 29.9801 21.2799C31.8661 21.1882 32.9953 22.6924 32.9953 22.6924C32.9953 22.6924 32.5192 24.3617 30.2303 24.4718C27.9414 24.5819 27.325 23.3406 27.325 23.3406L27.3188 23.3345Z" fill="white"/>
<mask id="mask1_200_9422" style="mask-type:luminance" maskUnits="userSpaceOnUse" x="27" y="21" width="6" height="4">
<path d="M27.3188 23.3345C27.3188 23.3345 28.094 21.3716 29.9801 21.2799C31.8661 21.1882 32.9953 22.6924 32.9953 22.6924C32.9953 22.6924 32.5192 24.3617 30.2303 24.4718C27.9414 24.5819 27.325 23.3406 27.325 23.3406L27.3188 23.3345Z" fill="white"/>
</mask>
<g mask="url(#mask1_200_9422)">
<path d="M32.0493 22.7972C32.0981 23.8367 31.2985 24.7233 30.2609 24.7722C29.2233 24.8211 28.3382 24.0201 28.2894 22.9806C28.2406 21.9411 29.0402 21.0545 30.0778 21.0055C31.1154 20.9566 32.0005 21.7577 32.0493 22.7972Z" fill="#333333"/>
</g>
<path d="M27.3188 23.3355C27.3188 23.3355 28.0269 21.2993 29.9801 21.2809C31.9333 21.2626 32.9953 22.6934 32.9953 22.6934" stroke="#333333" stroke-width="0.315593" stroke-linecap="round" stroke-linejoin="round"/>
<path d="M18.9567 16.6448C18.9567 16.6448 17.0523 16.8894 16.1306 17.4642C15.563 17.8188 15.5752 18.4731 16.2649 18.7055C16.8936 18.9134 18.2486 18.7789 19.0604 18.6871C21.0319 18.4609 22.3442 17.7271 22.2161 17.1157C22.0513 16.3269 20.0004 16.4553 18.9628 16.6448H18.9567Z" fill="#333333"/>
<path d="M30.511 16.6448C30.511 16.6448 32.4154 16.8894 33.337 17.4642C33.9047 17.8188 33.8925 18.4731 33.2027 18.7055C32.5741 18.9134 31.219 18.7789 30.4072 18.6871C28.4357 18.4609 27.1234 17.7271 27.2516 17.1157C27.4164 16.3269 29.4673 16.4553 30.5049 16.6448H30.511Z" fill="#333333"/>
<path d="M26.7636 29.6019C26.7636 29.6019 24.8958 28.5685 22.6741 29.6019C22.6741 29.6019 24.9202 30.5619 26.7636 29.6019Z" fill="#DE5A62"/>
<path d="M22.1978 29.4253C22.1978 29.4253 24.4562 30.74 27.1662 29.4253" stroke="#995342" stroke-width="0.398644" stroke-linecap="round" stroke-linejoin="round"/>
<path d="M30.2671 6.62859C30.2671 6.62859 29.7849 12.0218 24.1695 12.8778C18.4442 13.7522 19.6832 17.3722 12.7311 16.5039C12.7311 16.5039 10.2164 12.5599 13.9457 8.49358C16.4116 5.8031 21.2275 3.55288 24.6822 3.93199C25.8419 4.0604 28.6008 6.26782 30.2671 6.62859Z" fill="#333333"/>
<path d="M29.6015 7.30176C29.6015 7.30176 27.1173 10.8972 37.7988 17.9414C37.7988 17.9414 39.5384 15.4588 38.3848 13.1964C37.2312 10.9278 29.6015 7.30176 29.6015 7.30176Z" fill="#333333"/>
</g>
<defs>
<clipPath id="clip0_200_9422">
<rect width="49" height="51.4915" rx="24.5" fill="white"/>
</clipPath>
</defs>
</svg>
