<svg width="68" height="67" viewBox="0 0 68 67" fill="none" xmlns="http://www.w3.org/2000/svg">
<path d="M34.22 0.204102C15.85 0.204102 0.886719 15.1674 0.886719 33.5374C0.886719 51.9074 15.85 66.8708 34.22 66.8708C52.59 66.8708 67.5534 51.9074 67.5534 33.5374C67.5534 15.1674 52.59 0.204102 34.22 0.204102ZM34.22 6.87077C48.9871 6.87077 60.8867 18.7704 60.8867 33.5374C60.8867 48.3045 48.9871 60.2041 34.22 60.2041C19.453 60.2041 7.55338 48.3045 7.55338 33.5374C7.55338 18.7704 19.453 6.87077 34.22 6.87077ZM23.2435 17.8473L18.5299 22.5609L29.5065 33.5374L18.5299 44.514L23.2435 49.2275L34.22 38.251L45.1966 49.2275L49.9101 44.514L38.9336 33.5374L49.9101 22.5609L45.1966 17.8473L34.22 28.8239L23.2435 17.8473Z" fill="#E33437"/>
</svg>
