<svg width="50" height="52" viewBox="0 0 50 52" fill="none" xmlns="http://www.w3.org/2000/svg">
<g clip-path="url(#clip0_232_7937)">
<mask id="mask0_232_7937" style="mask-type:luminance" maskUnits="userSpaceOnUse" x="-1" y="0" width="53" height="52">
<path d="M51.2506 26.6831C51.0913 33.8975 48.55 39.9752 43.6455 44.9296C40.374 48.2325 36.4493 50.38 31.8713 51.3719C27.2907 52.3612 22.7393 52.1682 18.2144 50.7928C13.6896 49.4148 9.79141 47.0797 6.51993 43.7741C1.72157 38.9324 -0.755945 33.2354 -0.920581 26.6858C-1.08256 20.1336 1.50648 14.1605 6.84654 8.76909C12.0804 3.48495 18.241 0.731627 25.3283 0.511789C32.4183 0.289271 38.5231 2.76914 43.6481 7.94068C48.882 13.2248 51.4206 19.4714 51.2533 26.6831H51.2506Z" fill="white"/>
</mask>
<g mask="url(#mask0_232_7937)">
<path d="M29.7147 41.1125C28.1374 39.7532 29.6032 31.9624 29.6032 31.9624H20.6623C20.6623 31.9624 22.1281 39.7532 20.5508 41.1125C18.9735 42.4717 7.0267 42.3484 8.15526 55.4555H42.1155C43.2414 42.3484 31.2973 42.4717 29.72 41.1125H29.7147Z" fill="#8E3E30"/>
<path d="M29.2606 40.335C28.4799 37.9355 29.6032 31.9624 29.6032 31.9624H20.6624C20.6624 31.9624 21.2651 35.1742 21.2811 37.8337C23.5329 39.6219 26.3609 40.3323 29.2606 40.335Z" fill="#723021"/>
<path d="M32.1231 41.4824C32.1231 41.4824 30.8592 45.7746 25.1341 45.8095C19.409 45.7746 18.145 41.4824 18.145 41.4824C5.18649 44.5735 7.96407 55.4555 7.96407 55.4555L25.0677 55.5788H25.1341H25.2004L42.3041 55.4555C42.3041 55.4555 45.0816 44.5735 32.1231 41.4824Z" fill="#4D6CDB"/>
<path d="M20.9836 13.2286C20.9836 13.2286 16.8943 13.8989 16.9314 12.1804C16.9686 10.4619 20.819 11.3546 20.819 11.3546C20.819 11.3546 14.1087 10.7809 15.4577 7.42706C16.804 4.07321 19.6373 4.18313 22.4733 7.66299C25.3067 11.1428 17.5395 3.68983 20.3915 2.36813C23.2434 1.04642 23.9497 7.90159 23.9497 7.90159C23.9497 7.90159 22.2237 1.48074 26.3874 1.8936C30.5511 2.30379 29.959 7.21259 28.14 9.03295C26.321 10.8506 29.1225 4.72199 30.8087 4.974C32.4976 5.22601 28.7428 9.57182 28.7428 9.57182C28.7428 9.57182 30.8512 6.55308 32.8985 8.97933C34.9459 11.4056 31.5177 13.982 27.824 12.8828C24.1303 11.7863 20.9863 13.2313 20.9863 13.2313L20.9836 13.2286Z" fill="#161114"/>
<path d="M24.5976 14.4459C26.0847 14.4459 27.2902 13.5649 27.2902 12.4781C27.2902 11.3913 26.0847 10.5103 24.5976 10.5103C23.1105 10.5103 21.905 11.3913 21.905 12.4781C21.905 13.5649 23.1105 14.4459 24.5976 14.4459Z" fill="#4D6CDB"/>
<path d="M14.8337 28.3109C15.2905 29.9999 16.5757 31.4958 17.5874 31.217C18.5991 30.9382 18.9523 28.9891 18.4956 27.3002C18.0389 25.6112 16.9448 24.8256 15.9331 25.1045C14.9214 25.3833 14.377 26.6246 14.8337 28.3109Z" fill="#723021"/>
<path d="M35.432 28.3109C34.9752 29.9999 33.69 31.4958 32.6783 31.217C31.6666 30.9382 31.3134 28.9891 31.7701 27.3002C32.2269 25.6112 33.3209 24.8256 34.3326 25.1045C35.3443 25.3833 35.8887 26.6246 35.432 28.3109Z" fill="#723021"/>
<path d="M16.7457 25.2843C16.7457 31.4638 20.5297 37.7721 25.1979 37.7721C29.8661 37.7721 33.6501 31.4638 33.6501 25.2843C33.6501 19.1047 29.8661 15.3916 25.1979 15.3916C20.5297 15.3916 16.7457 19.1047 16.7457 25.2843Z" fill="#8E3E30"/>
<path d="M31.5416 14.1591C31.5416 14.1591 24.526 9.50764 18.785 13.8025C12.6615 17.521 16.5172 25.1777 16.5172 25.1777L16.9421 27.1804C17.6405 25.7997 17.9405 24.1644 18.0494 22.6898C19.409 21.6764 19.6347 19.1081 19.6533 17.7247C22.0857 16.7489 26.6742 15.4808 30.6202 17.6416C30.6308 19.1081 30.8698 22.0679 32.564 22.8963C32.6012 24.1268 32.8402 25.5424 33.5253 26.8935L33.6394 25.1777C33.6394 25.1777 37.8881 17.84 31.539 14.1591H31.5416Z" fill="#2C2429"/>
<path d="M15.0274 27.592C14.9955 27.3722 14.9876 27.1497 15.0115 26.9245C15.0221 26.8119 15.0407 26.6966 15.0778 26.5813C15.1203 26.466 15.1655 26.34 15.3062 26.2274C15.3779 26.1738 15.4815 26.1416 15.5771 26.1497C15.6753 26.1523 15.7497 26.1872 15.816 26.2194C15.8506 26.2408 15.8718 26.2462 15.917 26.2837C15.9409 26.3025 15.9568 26.3105 15.986 26.34C16.0497 26.399 16.0896 26.4526 16.1267 26.5035C16.2701 26.7153 16.3631 26.9271 16.4374 27.1443C16.5091 27.3614 16.5649 27.5786 16.6153 27.7931C16.6578 28.0102 16.695 28.2301 16.7242 28.4472C16.7534 28.6644 16.7693 28.8842 16.7853 29.1041C16.7986 29.3239 16.8012 29.5411 16.8039 29.7636V29.8842L16.7242 29.9271C16.703 29.9378 16.6738 29.9593 16.6499 29.978C16.6233 29.9968 16.5994 30.0183 16.5755 30.037C16.5277 30.0799 16.4879 30.1255 16.4587 30.1711C16.4029 30.2649 16.3896 30.3373 16.464 30.4365C16.5357 30.5303 16.6605 30.6081 16.7879 30.6751C16.9181 30.7394 17.0535 30.7957 17.1942 30.8494C17.0455 30.8386 16.8968 30.8279 16.7481 30.7904C16.5994 30.7528 16.448 30.7099 16.31 30.5893C16.2436 30.5303 16.1798 30.4445 16.1559 30.3373C16.1347 30.2301 16.1586 30.1228 16.1958 30.037C16.233 29.9512 16.2834 29.8762 16.3365 29.8091C16.3631 29.777 16.3923 29.7448 16.4215 29.7126C16.4534 29.6805 16.4799 29.6563 16.5197 29.6242L16.4427 29.7904L16.3339 29.1577L16.2197 28.5277C16.1825 28.3185 16.1427 28.1094 16.0949 27.9057C16.055 27.6992 16.0072 27.4955 15.9488 27.2998C15.8904 27.1041 15.832 26.911 15.7444 26.7556C15.7205 26.718 15.6992 26.6859 15.6886 26.6644C15.6833 26.651 15.6541 26.6269 15.6381 26.6108C15.6434 26.6108 15.6169 26.592 15.6063 26.5813C15.5452 26.5411 15.5399 26.5357 15.5107 26.5411C15.4708 26.5518 15.4071 26.6215 15.3593 26.7019C15.3115 26.785 15.269 26.8789 15.2319 26.9754C15.1575 27.1711 15.0938 27.3802 15.0354 27.592H15.0274Z" fill="#5E1D12"/>
<path d="M35.2352 27.5933C35.1768 27.3815 35.1104 27.1724 35.0387 26.9767C34.9989 26.8802 34.9564 26.7864 34.9113 26.7032C34.8661 26.6228 34.7997 26.5531 34.7599 26.5424C34.728 26.537 34.7254 26.5424 34.6643 26.5826C34.6537 26.5933 34.6271 26.6121 34.6324 26.6121C34.6165 26.6309 34.5873 26.655 34.582 26.6657C34.5714 26.6872 34.5475 26.7193 34.5262 26.7569C34.4386 26.9124 34.3775 27.1054 34.3218 27.3011C34.2633 27.4968 34.2155 27.7006 34.1757 27.907C34.1279 28.1107 34.0881 28.3199 34.0509 28.529L33.9367 29.159L33.8278 29.7917L33.7508 29.6255C33.7907 29.6576 33.8172 29.6845 33.8491 29.7139C33.8783 29.7434 33.9075 29.7756 33.9341 29.8105C33.9872 29.8775 34.0376 29.9525 34.0748 30.0383C34.112 30.1241 34.1332 30.2314 34.1146 30.3386C34.0934 30.4458 34.0297 30.5316 33.9606 30.5906C33.8225 30.7086 33.6712 30.7541 33.5225 30.7917C33.3738 30.8265 33.2251 30.8399 33.0764 30.8507C33.2171 30.7997 33.3525 30.7407 33.4826 30.6764C33.6074 30.6094 33.7349 30.5343 33.8066 30.4378C33.8783 30.3386 33.865 30.2662 33.8119 30.1724C33.7827 30.1268 33.7429 30.0812 33.6951 30.0383C33.6712 30.0169 33.6473 29.9981 33.6207 29.9794C33.5968 29.9606 33.565 29.9418 33.5464 29.9284L33.4667 29.8855V29.7649C33.4694 29.5424 33.472 29.3252 33.4853 29.1054C33.5012 28.8855 33.5172 28.6684 33.5464 28.4485C33.5782 28.2314 33.6128 28.0115 33.6552 27.7944C33.7057 27.5772 33.7615 27.3601 33.8332 27.1456C33.9049 26.9284 34.0004 26.7167 34.1438 26.5049C34.181 26.4539 34.2208 26.4003 34.2846 26.3413C34.3138 26.3118 34.3297 26.3065 34.3536 26.285C34.3988 26.2502 34.42 26.2421 34.4545 26.2207C34.5236 26.1885 34.5979 26.1537 34.6935 26.151C34.7891 26.1456 34.8927 26.1778 34.9617 26.2287C35.1024 26.3386 35.1476 26.4673 35.1901 26.5826C35.2273 26.6979 35.2458 26.8132 35.2565 26.9258C35.2804 27.151 35.2724 27.3735 35.2405 27.5933H35.2352Z" fill="#5E1D12"/>
<path d="M25.6414 25.2837C25.6334 25.6885 25.6361 26.0826 25.66 26.4713C25.6706 26.6644 25.6839 26.8574 25.7104 27.0478C25.7317 27.2381 25.7582 27.4258 25.8007 27.6081C25.8777 27.9754 25.9866 28.3292 26.1486 28.6563C26.1884 28.7367 26.2309 28.8172 26.2787 28.8949C26.3212 28.9753 26.3743 29.0477 26.4274 29.1228C26.4805 29.1952 26.5363 29.2676 26.6 29.3346C26.6558 29.407 26.7248 29.4686 26.7859 29.5383L26.9903 29.7609L26.7593 29.8761C26.4805 30.0129 26.1937 30.1416 25.9069 30.2676C25.6175 30.3909 25.328 30.5115 25.0306 30.6161C25.2749 30.415 25.5299 30.23 25.7848 30.0477C26.0424 29.8681 26.2999 29.6885 26.5628 29.5223L26.5336 29.8601C26.4513 29.7957 26.361 29.7367 26.2813 29.6644C26.2017 29.5946 26.1273 29.5142 26.0556 29.4365C25.9866 29.356 25.9149 29.2729 25.8538 29.1845C25.7901 29.096 25.737 29.0048 25.6839 28.911C25.4794 28.533 25.3546 28.1174 25.2988 27.7019C25.2457 27.2864 25.2484 26.8681 25.3068 26.4633C25.3387 26.2596 25.3758 26.0585 25.4316 25.8628C25.4847 25.6671 25.5538 25.474 25.6414 25.2917V25.2837Z" fill="#5E1D12"/>
<path d="M22.5849 32.3035C22.5849 32.3035 25.6732 34.7217 28.1002 32.0327L22.5849 32.3035Z" fill="white"/>
<path d="M26.7272 24.3467C26.7272 24.3467 26.7458 24.2421 26.8148 24.0759C26.8838 23.9097 27.0007 23.6791 27.1919 23.4325C27.3831 23.1885 27.6566 22.9258 28.0204 22.7274C28.2036 22.6309 28.4054 22.5424 28.6258 22.4969C28.8462 22.4459 29.0799 22.4245 29.3109 22.4432C29.5419 22.4593 29.7703 22.5156 29.9774 22.596C30.1845 22.6765 30.3757 22.7837 30.5404 22.9044C30.7077 23.0223 30.8484 23.1564 30.9732 23.2851C31.0927 23.4218 31.1989 23.5505 31.2812 23.6818C31.3689 23.8078 31.4326 23.9338 31.4884 24.0464C31.5468 24.1537 31.5866 24.2556 31.6158 24.3413C31.6769 24.5102 31.7008 24.6094 31.7008 24.6094C31.7008 24.6094 31.6079 24.5585 31.4645 24.4647C31.3211 24.3708 31.1193 24.2368 30.8829 24.092C30.7687 24.0143 30.6386 23.9446 30.5112 23.8695C30.3784 23.7998 30.243 23.7247 30.1022 23.6657C29.9615 23.6014 29.8181 23.5531 29.672 23.5102C29.526 23.4754 29.3826 23.4405 29.2366 23.4352C29.0905 23.4164 28.9445 23.4298 28.7984 23.4432C28.6524 23.4593 28.5063 23.4968 28.3603 23.5371C28.0708 23.6228 27.7947 23.7489 27.553 23.8749C27.3114 23.9982 27.1069 24.1215 26.9582 24.2073C26.8095 24.2984 26.7219 24.3494 26.7219 24.3494L26.7272 24.3467Z" fill="#161114"/>
<path d="M19.1302 24.7274C19.1302 24.7274 19.1195 24.6202 19.1461 24.4406C19.17 24.2582 19.2311 24.0009 19.3771 23.7113C19.5232 23.4245 19.7648 23.1028 20.1366 22.8615C20.3224 22.7435 20.5322 22.647 20.7606 22.588C20.9863 22.5344 21.2253 22.5076 21.4563 22.5237C21.6873 22.5371 21.9077 22.5853 22.1175 22.6497C22.322 22.7167 22.5132 22.8079 22.6884 22.9044C23.0336 23.1028 23.3098 23.336 23.5222 23.5585C23.6311 23.6658 23.7161 23.781 23.7931 23.8749C23.8727 23.9687 23.9285 24.0625 23.979 24.1376C24.0746 24.2877 24.1224 24.3816 24.1224 24.3816C24.1224 24.3816 24.0188 24.3521 23.8568 24.2904C23.7001 24.2288 23.4744 24.1376 23.2036 24.0304C22.9407 23.9231 22.6433 23.8078 22.3353 23.7033C22.2556 23.6818 22.1786 23.6577 22.1016 23.6309C22.0219 23.6121 21.9449 23.5934 21.8652 23.5719C21.7086 23.5451 21.5519 23.5103 21.4005 23.5076C21.2465 23.4888 21.1031 23.5076 20.9597 23.521C20.819 23.5424 20.6809 23.58 20.5455 23.6282C20.28 23.7301 20.033 23.891 19.8232 24.0599C19.6134 24.2261 19.4435 24.3977 19.324 24.521C19.2045 24.6497 19.1355 24.7247 19.1355 24.7247L19.1302 24.7274Z" fill="#161114"/>
<path d="M21.9344 26.5428C21.9344 27.2131 21.7512 27.76 21.5228 27.76C21.2944 27.76 21.1112 27.2157 21.1112 26.5428C21.1112 25.8699 21.2944 25.3257 21.5228 25.3257C21.7512 25.3257 21.9344 25.8699 21.9344 26.5428Z" fill="#161114"/>
<path d="M29.1118 26.3783C29.1118 27.0485 28.9286 27.5954 28.7002 27.5954C28.4719 27.5954 28.2886 27.0512 28.2886 26.3783C28.2886 25.7054 28.4719 25.1611 28.7002 25.1611C28.9286 25.1611 29.1118 25.7054 29.1118 26.3783Z" fill="#161114"/>
</g>
</g>
<defs>
<clipPath id="clip0_232_7937">
<rect width="49" height="51.49" fill="white" transform="translate(0.666626 0.5)"/>
</clipPath>
</defs>
</svg>
