<svg width="68" height="67" viewBox="0 0 68 67" fill="none" xmlns="http://www.w3.org/2000/svg">
<path d="M34.2203 0.204102C15.8503 0.204102 0.886963 15.1674 0.886963 33.5374C0.886963 51.9074 15.8503 66.8708 34.2203 66.8708C52.5903 66.8708 67.5536 51.9074 67.5536 33.5374C67.5536 15.1674 52.5903 0.204102 34.2203 0.204102ZM34.2203 6.87077C48.9874 6.87077 60.8869 18.7704 60.8869 33.5374C60.8869 48.3045 48.9874 60.2041 34.2203 60.2041C19.4532 60.2041 7.55363 48.3045 7.55363 33.5374C7.55363 18.7704 19.4532 6.87077 34.2203 6.87077ZM48.5302 21.1807L27.5536 42.1572L19.9104 34.514L15.1969 39.2275L27.5536 51.5843L53.2437 25.8942L48.5302 21.1807Z" fill="#46C263"/>
</svg>
