<svg width="100" height="101" viewBox="0 0 100 101" fill="none" xmlns="http://www.w3.org/2000/svg">
<circle cx="50" cy="50.7778" r="48" fill="#D9D9D9" stroke="#E29909" stroke-width="4"/>
<mask id="mask0_108_11525" style="mask-type:alpha" maskUnits="userSpaceOnUse" x="8" y="9" width="84" height="84">
<circle cx="49.9998" cy="50.7781" r="39.7781" fill="#D9D9D9" stroke="#E29909" stroke-width="4"/>
</mask>
<g mask="url(#mask0_108_11525)">
<path d="M68.4508 77.4196C70.0412 77.2855 71.5742 78.2053 72.1299 79.7765L80.1586 101.869C84.1251 112.752 86.6352 124.134 87.6316 135.688L89.6627 159.102C89.8352 161.076 88.379 162.82 86.3862 162.992C84.4125 163.164 82.6688 161.708 82.4963 159.716L80.4652 136.301C79.5071 125.379 77.1311 114.611 73.3945 104.321L65.3658 82.229C64.6952 80.3704 65.6532 78.3011 67.5119 77.6304C67.8185 77.5155 68.1252 77.458 68.4317 77.4196H68.4508Z" fill="#FDC5C5"/>
<path d="M81.4423 101.409C85.4279 112.408 87.9764 123.904 88.992 135.573L90.4291 152.051C90.4675 152.454 90.1608 152.818 89.7584 152.856L81.3848 153.584C80.9824 153.623 80.6183 153.316 80.58 152.913L79.1429 136.435C78.204 125.629 75.8662 114.975 72.1489 104.801L64.1393 82.7082C63.6986 81.4628 63.737 80.1215 64.2926 78.9335C64.8483 77.7455 65.8448 76.8259 67.0903 76.3852C67.4927 76.2319 67.9333 76.1361 68.3549 76.0978C70.5776 75.9061 72.6663 77.2473 73.4328 79.3359L81.4615 101.428L81.4423 101.409Z" fill="#4C2D47"/>
<path d="M32.5993 77.4196C31.0089 77.2855 29.4759 78.2053 28.9202 79.7765L20.8915 101.869C16.925 112.752 14.4149 124.134 13.4185 135.688L11.3874 159.102C11.2149 161.076 12.6712 162.82 14.664 162.992C16.6376 163.164 18.3814 161.708 18.5538 159.716L20.585 136.301C21.543 125.379 23.9191 114.611 27.6556 104.321L35.6843 82.229C36.355 80.3704 35.3969 78.3011 33.5382 77.6304C33.2316 77.5155 32.9251 77.458 32.6185 77.4196H32.5993Z" fill="#FDC5C5"/>
<path d="M19.6277 101.409C15.623 112.407 13.0936 123.904 12.0781 135.573L10.6409 152.051C10.6026 152.453 10.9091 152.817 11.3115 152.856L19.6853 153.584C20.0877 153.622 20.4517 153.316 20.49 152.913L21.9272 136.435C22.8661 125.628 25.2229 114.975 28.9211 104.8L36.9498 82.7079C37.4097 81.4625 37.3523 80.1212 36.7966 78.9332C36.2409 77.7453 35.2445 76.8256 33.999 76.3849C33.5966 76.2316 33.1559 76.1358 32.7343 76.0975C30.5116 75.9059 28.4229 77.2279 27.6565 79.3356L19.6277 101.428V101.409Z" fill="#4C2D47"/>
<path d="M44.6524 105.835C44.6524 105.835 44.6524 105.912 44.6716 105.95C44.729 106.18 44.7866 106.736 44.8249 107.56C45.0931 112.561 45.2081 128.483 45.2656 156.726H55.7661C55.8236 128.483 55.9386 112.561 56.2069 107.56C56.2452 106.736 56.3026 106.18 56.3601 105.95C56.3601 105.912 56.3601 105.874 56.3793 105.835C56.4942 105.203 56.7243 104.494 57.05 103.938C58.5829 101.026 63.2392 98.5349 60.3841 83.3404C59.0811 76.3467 58.1614 73.5684 57.4141 72.4379C57.3374 72.3229 57.2607 72.2271 57.184 72.1313C57.1074 72.0355 57.0308 71.978 56.9541 71.9205C56.6858 71.7289 56.4368 71.6905 56.2069 71.6714H44.9015C44.7674 71.6714 44.6332 71.7289 44.499 71.7672C44.4416 71.7864 44.3841 71.8056 44.3267 71.8439C44.2308 71.9014 44.135 71.9588 44.0392 72.0163C44.0009 72.0546 43.9625 72.0738 43.9242 72.1121C43.8859 72.1313 43.8668 72.1696 43.8284 72.1888C43.771 72.2462 43.7326 72.3229 43.6751 72.3804C43.6559 72.4187 43.6368 72.4378 43.6177 72.457C43.6177 72.457 43.6177 72.4762 43.5985 72.4953C43.5793 72.5337 43.5602 72.5911 43.5219 72.6294C43.062 73.4342 42.7363 74.7755 42.1806 76.8065C36.3363 97.826 42.3339 100.815 44.0009 103.977C44.3459 104.532 44.5566 105.241 44.6716 105.873L44.6524 105.835Z" fill="#4F4068"/>
<path d="M61.2458 73.3958C60.6709 72.7827 60.211 72.2462 59.8661 71.7863C59.2146 70.9241 58.1799 70.4067 57.1068 70.4067H43.9236C42.8314 70.4067 41.8158 70.9241 41.1643 71.7863C40.8194 72.2462 40.3596 72.8018 39.7847 73.3958C39.7464 73.4341 39.7273 73.4725 39.689 73.5108C40.8195 73.2809 42.0458 73.0893 43.3488 72.9168C43.4254 72.7252 43.502 72.5527 43.5595 72.4569C43.5787 72.4186 43.5979 72.3994 43.6171 72.3611C43.6746 72.2845 43.732 72.2078 43.8086 72.1312C44.0961 71.8438 44.4601 71.6521 44.8625 71.6138H56.1679C56.4362 71.6521 56.6853 71.6905 56.9152 71.8629C57.0877 71.9779 57.241 72.1503 57.4135 72.3994C57.5093 72.5335 57.5858 72.706 57.6816 72.8976C58.9846 73.0701 60.211 73.2617 61.3416 73.4916C61.3033 73.4533 61.265 73.415 61.2458 73.3766V73.3958Z" fill="#65465E"/>
<path d="M60.882 80.4852C60.997 81.6348 60.767 82.7845 60.2497 83.7809C59.5982 85.0263 58.6592 86.0419 57.5478 86.7508L56.3406 87.5173C54.5777 88.6286 53.1406 90.2572 52.1634 92.2116L50.5155 95.5648L48.8677 92.2116C47.9096 90.2572 46.4533 88.6094 44.6904 87.5173L43.4832 86.7508C42.3527 86.0419 41.4329 85.0072 40.7814 83.7809C40.264 82.7845 40.0342 81.6348 40.1491 80.4852C40.4366 77.5919 41.8544 75.1202 43.8856 73.5873C45.8975 73.3574 48.1203 73.2041 50.5155 73.2041C52.9107 73.2041 55.1335 73.3382 57.1455 73.5873C59.1958 75.1393 60.6138 77.6111 60.882 80.4661V80.4852Z" fill="#C7B8C3"/>
<path d="M51.5689 71.7291H50.5534V71.7483H49.4995C46.8935 71.6333 44.3833 72.3997 42.2563 73.7985C42.7929 73.7218 43.3485 73.6452 43.9042 73.5686C45.9162 73.3386 48.139 73.1853 50.5342 73.1853C52.9294 73.1853 55.1522 73.3195 57.1641 73.5686C57.739 73.6452 58.2755 73.7027 58.812 73.7985C56.6851 72.3806 54.1749 71.6333 51.5689 71.71V71.7291Z" fill="#F3F0F3"/>
<path d="M55.4592 73.8365C55.4592 76.5574 53.2556 78.7801 50.5155 78.7801C47.7754 78.7801 45.5718 76.5765 45.5718 73.8365C45.5718 71.0965 47.7754 68.8931 50.5155 68.8931C53.2556 68.8931 55.4592 71.0965 55.4592 73.8365Z" fill="#FDC5C5"/>
<path d="M50.5155 83.8579C47.3922 83.8579 44.8628 81.3287 44.8628 78.2054V62.1295C44.8628 59.0063 47.3922 56.4771 50.5155 56.4771C53.6388 56.4771 56.1682 59.0063 56.1682 62.1295V78.2054C56.1682 81.3287 53.6388 83.8579 50.5155 83.8579Z" fill="#FDC5C5"/>
<path d="M50.5155 56.4771C47.3922 56.4771 44.8628 59.0063 44.8628 62.1295V70.407C46.664 71.0202 48.561 71.3651 50.5155 71.3651C52.47 71.3651 54.367 71.0202 56.1682 70.407V62.1295C56.1682 59.0063 53.6388 56.4771 50.5155 56.4771Z" fill="#F2A5AB"/>
<path d="M72.341 80.9836C72.341 82.9763 70.7314 84.5858 68.7386 84.5858C66.7458 84.5858 65.1362 82.9763 65.1362 80.9836C65.1362 78.9909 66.7458 77.3813 68.7386 77.3813C70.7314 77.3813 72.341 78.9909 72.341 80.9836Z" fill="#FDC5C5"/>
<path d="M35.8761 80.9836C35.8761 82.9763 34.2665 84.5858 32.2737 84.5858C30.2809 84.5858 28.6714 82.9763 28.6714 80.9836C28.6714 78.9909 30.2809 77.3813 32.2737 77.3813C34.2665 77.3813 35.8761 78.9909 35.8761 80.9836Z" fill="#FDC5C5"/>
<path d="M68.24 89.8936C68.2208 87.5176 69.2555 85.2566 71.0759 83.7238C71.4208 83.4364 71.7082 83.0723 71.9382 82.6508C72.8579 80.888 72.1874 78.742 70.4436 77.8223C70.1371 77.669 62.7981 73.856 50.5347 73.856C38.2712 73.856 30.9323 77.669 30.6257 77.8223C28.882 78.742 28.2114 80.9071 29.1312 82.6508C29.3611 83.0723 29.6484 83.4364 29.9934 83.7238C31.8137 85.2566 32.8485 87.5176 32.8294 89.8936C32.8294 91.618 32.8485 93.4192 32.8485 95.2969C32.8485 98.88 33.5767 102.271 34.8605 105.241C37.5814 114.094 38.482 121.164 33.5 132.296C32.3694 134.826 29.227 138.562 29.227 145.594C29.227 164.621 30.4533 166.901 50.5347 166.901C70.6161 166.901 71.8424 164.621 71.8424 145.594C71.8424 138.562 68.7191 134.826 67.5694 132.296C62.5874 121.164 63.4688 114.094 66.2089 105.241C67.4927 102.271 68.2208 98.88 68.2208 95.2969C68.2208 93.4383 68.2592 91.618 68.24 89.8936Z" fill="#FDC5C5"/>
<path d="M69.3702 98.1904C69.3702 102.578 65.8253 106.123 61.4373 106.123H39.6121C35.2241 106.123 31.6792 102.578 31.6792 98.1904C31.6792 93.8026 35.2241 90.2578 39.6121 90.2578H61.4373C65.8253 90.2578 69.3702 93.8026 69.3702 98.1904Z" fill="#FDC5C5"/>
<path d="M43.5984 74.2007C43.2343 74.239 42.8894 74.2965 42.5253 74.3348C40.9541 75.8677 39.881 78.0329 39.6511 80.4663C39.5361 81.616 39.7661 82.7847 40.2834 83.7811C40.9158 85.0266 41.8547 86.0421 42.9852 86.7511L44.0774 87.4408C40.4367 82.9764 42.1038 77.3047 43.5984 74.2007Z" fill="#F2A5AB"/>
<path d="M60.7672 83.7811C61.2846 82.7847 61.4953 81.6351 61.3995 80.4854C61.1695 78.0137 60.0965 75.8677 58.5252 74.3348C58.1612 74.2965 57.8163 74.239 57.4522 74.2007C58.966 77.3047 60.633 82.9764 56.9731 87.4408L58.0654 86.7511C59.1959 86.0421 60.1157 85.0074 60.7672 83.7811Z" fill="#F2A5AB"/>
<path d="M72.8391 79.9874C72.8583 80.0833 72.8774 80.1982 72.8966 80.294C72.9157 80.4473 72.935 80.6006 72.9541 80.7539C72.9541 80.8497 72.9541 80.9263 72.9541 80.9838C72.9541 81.0221 72.9541 81.1371 72.9541 81.1562C72.9541 81.2904 72.9541 81.3861 72.9158 81.5011C72.9158 81.6736 72.8583 81.8652 72.82 82.0568L72.7816 82.1909C72.6858 82.4783 72.6092 82.6891 72.4943 82.8999C72.4943 82.919 72.4367 82.9957 72.4175 83.034C72.3217 83.2065 72.1876 83.4172 72.0343 83.628C71.8427 83.8579 71.651 84.0495 71.4403 84.222C69.7732 85.6399 68.8343 87.7092 68.8535 89.8936C68.8535 90.9474 68.8535 92.0204 68.8535 93.1318V93.9365C69.6008 95.2395 70.0031 96.7148 70.0031 98.2094C70.0031 98.88 69.9265 99.5506 69.754 100.24C69.4666 101.39 68.9877 102.425 68.2787 103.364L68.2211 103.44C68.1062 103.594 67.972 103.747 67.8571 103.881L67.7804 103.977C67.6272 104.149 67.493 104.283 67.3588 104.418L67.263 104.513C67.263 104.513 66.9565 105.165 66.8032 105.51C64.0248 114.534 63.4116 121.471 68.1637 132.067C68.3936 132.584 68.7193 133.14 69.0642 133.791C70.4247 136.224 72.4751 139.903 72.4751 145.632C72.4751 146.15 72.4751 146.648 72.4751 147.146C52.7769 146.878 50.6691 138.064 50.6691 138.064C50.6691 138.064 48.5422 146.954 28.6333 147.146C28.6333 146.648 28.6333 146.15 28.6333 145.632C28.6333 139.903 30.6835 136.224 32.044 133.791C32.408 133.14 32.7147 132.584 32.9446 132.067C37.6967 121.471 37.0835 114.554 34.2668 105.452C34.1518 105.184 33.8452 104.532 33.8452 104.532L33.7302 104.437C33.5961 104.303 33.4811 104.188 33.3469 104.053L33.232 103.919C33.0979 103.766 32.983 103.632 32.8488 103.459L32.7913 103.383C32.0823 102.444 31.5841 101.39 31.3158 100.26C31.1434 99.5698 31.0476 98.8992 31.0476 98.2285C31.0476 96.734 31.45 95.2778 32.1973 93.9748V93.1892C32.1973 92.0779 32.1781 90.9857 32.1973 89.9319C32.1973 87.7667 31.2776 85.7165 29.6297 84.2795C28.9782 83.743 28.4991 83.0148 28.25 82.2101C28.1734 81.9418 28.135 81.7119 28.1159 81.482C28.1159 81.4053 28.1159 81.3287 28.1159 81.2712C28.1159 81.1562 28.0967 81.0987 28.0967 81.0221C28.0967 80.9454 28.0967 80.8688 28.0967 80.773C28.0967 80.6005 28.1159 80.4856 28.135 80.3898C28.1542 80.2365 28.1925 80.1024 28.2308 79.9491C28.2691 79.815 28.3075 79.7 28.365 79.5659C28.4033 79.4509 28.4608 79.336 28.4991 79.2401C28.5758 79.0869 28.6524 78.9527 28.7482 78.7994C28.7865 78.7228 28.844 78.6653 28.8824 78.6079C28.9973 78.4354 29.1314 78.2821 29.2847 78.1288L29.3997 78.0139C29.5529 77.8606 29.7254 77.7265 29.8979 77.5923L30.032 77.4965C30.1662 77.3815 30.262 77.3432 30.3387 77.2858C30.5686 77.1516 34.8608 74.9481 42.2571 73.856C39.9578 75.3697 38.0991 77.6307 36.9685 80.409C36.0679 82.6125 35.5506 85.0075 35.4548 87.4218L35.2631 91.9438C35.2631 92.0588 35.3206 92.1354 35.4164 92.1737C35.5122 92.1929 35.608 92.1737 35.6464 92.0588L36.4895 90.3534C37.1793 88.9738 38.3291 87.9583 39.6896 87.4793C40.5518 87.1919 41.4716 87.2302 42.2955 87.5943L43.8092 88.2649C45.917 89.1846 47.699 90.775 48.9254 92.8635L50.5542 95.6035L52.1637 92.8635C53.39 90.7942 55.1913 89.1846 57.2799 88.2649L58.7936 87.5943C59.6368 87.2302 60.5373 87.1919 61.3996 87.4793C62.7601 87.9391 63.9099 88.9738 64.5997 90.3534L65.4427 92.0588C65.5002 92.1546 65.596 92.212 65.6918 92.1737C65.7876 92.1354 65.8451 92.0396 65.8259 91.9438L65.6344 87.4218C65.5194 85.0075 65.0212 82.6316 64.1206 80.409C62.9709 77.6307 61.1122 75.3697 58.832 73.856C66.2284 74.9481 70.5205 77.1708 70.7505 77.2858C70.8463 77.3432 70.923 77.4007 71.0188 77.4582L71.0954 77.5157C71.3828 77.7073 71.5553 77.8606 71.7277 78.033C71.9577 78.2629 72.111 78.4545 72.226 78.627L72.3026 78.7419C72.4367 78.9336 72.5326 79.106 72.6092 79.3168C72.6475 79.3743 72.6667 79.4509 72.705 79.5275C72.7625 79.7 72.82 79.8725 72.8583 80.0449L72.8391 79.9874Z" fill="#E9E3E8"/>
<path d="M48.8869 92.8254C47.6606 90.756 45.8784 89.1465 43.7707 88.2268L42.2569 87.5561C41.433 87.1921 40.5133 87.1538 39.651 87.4412C38.2905 87.901 37.1408 88.9357 36.451 90.3153L35.6079 92.0206L38.827 90.6027C40.0151 90.0662 41.3947 90.162 42.506 90.8135L50.4964 95.5654L48.8677 92.8254H48.8869Z" fill="#D9CED6"/>
<path d="M64.5808 90.3153C63.891 88.9357 62.7412 87.9202 61.3807 87.4412C60.5184 87.1538 59.5987 87.1921 58.7748 87.5561L57.261 88.2268C55.1533 89.1465 53.3713 90.7368 52.1449 92.8254L50.5161 95.5654L58.5065 90.8135C59.6179 90.1429 60.9976 90.0662 62.1856 90.6027L65.4047 92.0206L64.5616 90.3153H64.5808Z" fill="#D9CED6"/>
<path d="M64.5797 90.3153C63.8899 88.9357 62.7401 87.9202 61.3796 87.4412C60.5173 87.1538 59.6168 87.1921 58.7737 87.5562L57.2599 88.2268C55.1713 89.1465 53.3702 90.7369 52.1438 92.8254L50.5342 95.5654L52.1821 92.2122C53.1401 90.2578 54.5964 88.61 56.3593 87.5179L57.5665 86.7514C58.697 86.0425 59.6168 85.0078 60.2683 83.7815C60.7857 82.7851 60.9964 81.6355 60.9006 80.4858C60.6131 77.5925 59.2144 75.1208 57.1641 73.5879C57.739 73.6645 58.2755 73.7221 58.812 73.8179C61.1114 75.3316 62.9701 77.5925 64.1006 80.3708C65.0012 82.5743 65.5186 84.9695 65.6144 87.3837L65.8059 91.9057C65.8059 92.0207 65.7486 92.0973 65.6719 92.1356C65.5761 92.1548 65.4803 92.1356 65.4228 92.0207L64.5797 90.3153Z" fill="#F3F0F3"/>
<path d="M43.4833 86.7514L44.6905 87.5179C46.4533 88.6292 47.8904 90.2578 48.8677 92.2122L50.5156 95.5654L48.8869 92.8254C47.6605 90.756 45.8784 89.1465 43.7706 88.2268L42.2569 87.5562C41.4329 87.1921 40.5132 87.1538 39.6509 87.4412C38.2905 87.9011 37.1408 88.9357 36.451 90.3153L35.6079 92.0207C35.5695 92.1165 35.4546 92.1739 35.3779 92.1356C35.2821 92.0973 35.2246 92.0015 35.2246 91.9057L35.4162 87.3837C35.5311 84.9695 36.0294 82.5935 36.93 80.3708C38.0797 77.5925 39.9383 75.3316 42.2185 73.8179C42.7551 73.7412 43.3108 73.6645 43.8665 73.5879C41.8354 75.1399 40.3982 77.6117 40.13 80.4667C40.015 81.6163 40.245 82.7851 40.7623 83.7815C41.3947 85.0269 42.3336 86.0425 43.4641 86.7514H43.4833Z" fill="#F3F0F3"/>
<path d="M44.8247 107.56C44.7864 106.736 44.7289 106.18 44.6714 105.95C44.6714 105.912 44.6714 105.873 44.6522 105.835C44.0007 102.367 40.5708 100.777 39.881 94.0129C37.4858 84.8732 40.6092 76.4425 43.2535 72.8594C42.0271 73.0127 40.8774 73.2042 39.7852 73.415C33.6727 74.5838 30.2235 76.4233 30.0127 76.5382C27.5792 77.822 26.6403 80.8686 27.905 83.302C28.8056 85.1031 31.3732 85.9845 31.3541 89.8933C31.3541 90.8322 31.3541 91.8094 31.3541 92.8058C31.3541 93.3614 31.2391 93.8788 31.0284 94.377C30.511 95.5458 30.2236 96.8296 30.2236 98.19C30.2236 100.643 31.1625 102.865 32.7146 104.532C33.0403 104.877 33.3085 105.28 33.481 105.72C34.5924 109.342 35.608 113.25 35.608 117.504C35.608 121.758 34.5157 126.433 32.1588 131.645C31.3157 133.599 28.8631 136.684 28.02 142.011C27.3876 144.885 26.8703 149.733 26.4487 155.596C26.4295 155.883 26.5254 156.171 26.717 156.381C26.9086 156.592 27.196 156.707 27.4834 156.707H44.1732C44.4415 156.707 44.7098 156.592 44.9205 156.401C45.1121 156.209 45.2271 155.941 45.2271 155.653C45.1696 128.062 45.0546 112.465 44.7864 107.521L44.8247 107.56Z" fill="#4C2D47"/>
<path d="M72.9735 142.03C72.1495 136.704 69.6776 133.619 68.8345 131.664C66.4968 126.453 65.3854 121.931 65.3854 117.524C65.3854 113.117 66.401 109.342 67.5123 105.74C67.704 105.299 67.9723 104.897 68.2789 104.552C69.8118 102.885 70.7698 100.662 70.7698 98.2095C70.7698 96.8491 70.4824 95.5654 69.9651 94.3965C69.7351 93.8984 69.6201 93.3618 69.6393 92.8253C69.6393 91.829 69.6393 90.8518 69.6393 89.9129C69.6009 86.0041 72.1878 85.1227 73.0884 83.3216C74.3723 80.8882 73.4141 77.8416 70.9806 76.5578C70.7698 76.4428 67.3399 74.6034 61.2082 73.4346C60.1352 73.2238 58.9855 73.0322 57.7591 72.8789C60.4034 76.4811 63.5459 84.9502 61.1124 94.1283C60.4034 100.815 56.9926 102.406 56.3603 105.855C56.3603 105.893 56.3411 105.931 56.3411 105.97C56.2836 106.2 56.2262 106.755 56.1879 107.579C55.9196 112.523 55.8237 128.1 55.7471 155.711C55.7471 155.979 55.8621 156.248 56.0537 156.459C56.2453 156.65 56.5136 156.765 56.8011 156.765H73.4908C73.7782 156.765 74.0657 156.65 74.2573 156.439C74.4489 156.229 74.5639 155.941 74.5256 155.654C74.104 149.79 73.6058 144.924 72.9543 142.069L72.9735 142.03Z" fill="#4C2D47"/>
<path d="M69.6001 42.624C68.1822 42.3749 66.6109 44.5976 66.0744 47.5675C65.5378 50.5566 66.2468 53.1816 67.6456 53.4307C69.0636 53.6798 70.6349 51.4572 71.1714 48.4872C71.7079 45.4982 70.9989 42.8731 69.6001 42.624Z" fill="#F7A5AB"/>
<path d="M31.4307 42.624C32.8486 42.3749 34.4199 44.5976 34.9565 47.5675C35.493 50.5566 34.784 53.1816 33.3852 53.4307C31.9672 53.6798 30.396 51.4572 29.8595 48.4872C29.323 45.4982 30.0319 42.8731 31.4307 42.624Z" fill="#F7A5AB"/>
<path d="M70.0988 52.4538C70.0221 51.9939 69.7347 51.6299 69.3706 51.6299C69.0065 51.6299 68.7191 51.9939 68.6425 52.4538C68.4317 53.795 68.2017 53.9292 68.2017 54.5807C68.2017 55.4812 68.7191 56.2285 69.3706 56.2285C70.0221 56.2285 70.5394 55.4812 70.5394 54.5807C70.5394 53.9292 70.3095 53.7759 70.0988 52.4538Z" fill="#D9CED6"/>
<path d="M32.4653 52.4533C32.3887 51.9934 32.1013 51.6294 31.7372 51.6294C31.3731 51.6294 31.0857 51.9934 31.009 52.4533C30.7983 53.7946 30.5684 53.9287 30.5684 54.5802C30.5684 55.4807 31.0857 56.228 31.7372 56.228C32.3887 56.228 32.906 55.4807 32.906 54.5802C32.906 53.9287 32.6761 53.7754 32.4653 52.4533Z" fill="#D9CED6"/>
<path d="M68.8926 44.9616C68.8926 32.0663 65.5776 21.6045 50.5166 21.6045C35.4555 21.6045 32.1406 32.0663 32.1406 44.9616C32.1406 57.8568 40.3609 68.3186 50.5166 68.3186C60.6722 68.3186 68.8926 57.8568 68.8926 44.9616Z" fill="#FDC5C5"/>
<path d="M56.7628 56.688C56.7628 56.688 55.0191 58.6232 50.5353 58.6232C46.0706 58.6232 44.3844 56.7838 44.3078 56.688C43.982 56.3048 43.4264 56.2665 43.0432 56.573C42.6599 56.8988 42.6023 57.4544 42.9281 57.8376C43.0239 57.9526 45.1317 60.4243 50.5353 60.4243C55.9389 60.4243 58.0658 57.9526 58.1424 57.8376C58.449 57.4544 58.4107 56.8987 58.0274 56.5922C57.6442 56.2664 57.0886 56.3239 56.7628 56.688Z" fill="#D63E39"/>
<path d="M61.0927 49.7899C61.8975 49.7899 62.568 49.1385 62.568 48.3145V47.3948C62.568 46.59 61.9166 45.9194 61.0927 45.9194C60.2687 45.9194 59.6172 46.5709 59.6172 47.3948V48.3145C59.6172 49.1193 60.2687 49.7899 61.0927 49.7899Z" fill="#532442"/>
<path d="M38.4634 47.3948V48.3145C38.4634 49.1193 39.1148 49.7899 39.9387 49.7899C40.7627 49.7899 41.4142 49.1385 41.4142 48.3145V47.3948C41.4142 46.59 40.7627 45.9194 39.9387 45.9194C39.1148 45.9194 38.4634 46.5709 38.4634 47.3948Z" fill="#532442"/>
<path d="M64.9254 43.6781C62.6068 41.0914 58.2763 41.8195 58.0847 41.8387C57.7589 41.8961 57.5481 42.2027 57.6056 42.5092C57.6631 42.835 57.9697 43.0457 58.2762 42.9883C58.3146 42.9883 62.1661 42.356 64.0439 44.4637C64.1589 44.5978 64.3121 44.6553 64.4846 44.6553C64.6187 44.6553 64.772 44.5978 64.8678 44.502C65.1169 44.2912 65.117 43.908 64.9062 43.6781H64.9254Z" fill="#44243B"/>
<path d="M42.7554 42.9879C43.0812 43.0454 43.3685 42.8346 43.426 42.5089C43.4835 42.1832 43.2727 41.8958 42.947 41.8383C42.7554 41.8 38.444 41.091 36.1063 43.6777C35.8955 43.9077 35.9147 44.2909 36.1446 44.5016C36.2596 44.5975 36.3938 44.655 36.5279 44.655C36.6812 44.655 36.8536 44.5975 36.9686 44.4633C38.8656 42.3748 42.6979 42.9879 42.7554 42.9879Z" fill="#44243B"/>
<path d="M59.5597 51.2847C58.5824 51.0164 57.5859 51.5529 57.2985 52.5301C57.0111 53.5073 57.5668 54.5228 58.5249 54.8103C59.1189 54.9827 59.8662 55.4426 59.9812 55.7875C60.2111 56.439 60.7668 56.8605 61.3799 56.9754C61.6865 57.0329 62.0124 57.0137 62.3189 56.8988C63.277 56.5539 63.7751 55.5 63.4302 54.5612C62.6063 52.2427 59.8471 51.3805 59.5405 51.3039L59.5597 51.2847Z" fill="#FAAEB4"/>
<path d="M41.4713 51.2847C42.4485 51.0164 43.4449 51.5529 43.7323 52.5301C44.0197 53.5073 43.464 54.5228 42.5059 54.8103C41.9119 54.9827 41.1646 55.4426 41.0496 55.7875C40.8197 56.439 40.264 56.8605 39.6509 56.9754C39.3443 57.0329 39.0186 57.0137 38.712 56.8988C37.7539 56.5539 37.2557 55.5 37.6006 54.5612C38.4245 52.2427 41.1837 51.3805 41.4903 51.3039L41.4713 51.2847Z" fill="#FAAEB4"/>
<path d="M37.9072 31.089C43.4258 29.2687 49.8833 29.0388 50.5156 25.13C51.1288 29.0196 57.6055 29.2687 63.124 31.089C68.4509 32.8326 73.1647 35.8217 72.0724 41.7808C72.3216 40.861 72.4366 40.018 72.3599 39.2707C70.712 21.911 57.2222 18.2896 54.0222 18.2896C51.9719 18.2896 50.918 19.2667 50.5156 19.9374C50.1132 19.2667 49.0593 18.2896 47.009 18.2896C43.809 18.2896 30.3193 21.911 28.6714 39.2707C28.5948 40.018 28.7097 40.861 28.9588 41.7808C27.8666 35.8409 32.5803 32.8518 37.9072 31.089Z" fill="#5A3A4E"/>
<path d="M32.1396 44.9613C32.1396 43.8116 32.1587 42.6811 32.2162 41.5698C33.0401 28.0039 50.4963 32.066 50.4963 25.1489C49.8831 29.0386 43.4066 29.2877 37.888 31.108C32.5611 32.8516 27.8473 35.8407 28.9395 41.7997C29.4568 43.6966 30.6449 45.881 32.2928 48.2378C32.1778 47.1839 32.1204 46.0918 32.1204 44.9996L32.1396 44.9613Z" fill="#735465"/>
<path d="M63.1245 31.0889C57.6059 29.2686 51.1484 29.0387 50.5161 25.1299C50.5161 32.0661 67.9723 28.004 68.7963 41.5699C68.8538 42.6812 68.873 43.8117 68.873 44.9614C68.873 46.111 68.8155 47.1456 68.7005 48.1995C70.3675 45.8427 71.5364 43.6584 72.0538 41.7807C73.146 35.8408 68.4323 32.8517 63.1053 31.0889H63.1245Z" fill="#735465"/>
<path d="M40.3605 95.9292C40.2263 95.5268 40.1306 95.0861 40.0347 94.6263C37.218 84.8351 40.8778 75.7337 43.618 72.3805C43.7329 72.2081 43.7712 72.0165 43.7137 71.8249C43.6563 71.6333 43.5413 71.4608 43.3688 71.3841L43.2731 71.3267C42.5449 70.9434 41.6634 71.1542 41.1652 71.8057C40.8203 72.2655 40.3605 72.8212 39.7856 73.4152C39.6707 73.5302 39.5557 73.6643 39.4216 73.7793C39.0766 74.1241 38.7892 74.5266 38.5593 74.9481C38.4635 75.1205 38.3677 75.3121 38.2527 75.5037C37.812 76.2893 37.3138 77.1515 36.7964 77.9563C35.9533 79.2784 35.0335 80.5047 34.1521 81.2711C33.8838 81.5011 33.7305 81.8268 33.7305 82.1717C33.7305 82.5166 33.8455 82.8615 34.0946 83.1106C35.6275 84.6818 37.697 86.8278 37.697 86.8278L34.0754 90.6983C33.7305 91.0624 33.6347 91.5988 33.8263 92.0395C34.5736 93.8406 36.6431 98.3435 39.5365 100.394C43.2156 103 44.0203 104.073 44.691 105.95C43.6946 101.601 42.7748 103.325 40.3605 95.9101V95.9292Z" fill="#65465E"/>
<path d="M66.9569 90.6983L63.3353 86.8278C63.3353 86.8278 65.3857 84.6818 66.9377 83.1106C67.1868 82.8615 67.3018 82.5166 67.3018 82.1717C67.3018 81.8268 67.1293 81.5011 66.8802 81.2711C66.0179 80.5047 65.0983 79.2784 64.236 77.9563C63.6995 77.1515 63.2204 76.2893 62.7797 75.5037C62.6647 75.3121 62.5689 75.1205 62.4731 74.9481C62.2431 74.5266 61.9557 74.1241 61.6108 73.7793C61.4766 73.6451 61.3618 73.5302 61.2468 73.4152C60.6719 72.802 60.212 72.2655 59.8671 71.8057C59.3689 71.1542 58.4875 70.9434 57.7594 71.3267L57.6635 71.3841C57.491 71.48 57.3569 71.6333 57.3186 71.8249C57.2802 72.0165 57.3187 72.2273 57.4145 72.3805C57.4145 72.3805 57.4145 72.3805 57.4145 72.3997V72.3805C60.1737 75.7337 63.8144 84.8351 60.9977 94.6263C60.9977 94.6837 60.9593 94.7221 60.9593 94.7796C60.8827 95.182 60.7868 95.5651 60.6719 95.9292C58.2575 103.344 57.3377 101.62 56.3413 105.969C56.9928 104.092 57.8168 103.019 61.4958 100.413C64.3892 98.3626 66.4779 93.8598 67.206 92.0587C67.3977 91.5988 67.3018 91.0623 66.9569 90.7174V90.6983Z" fill="#65465E"/>
<path d="M65.6144 87.3643C65.4994 84.95 65.0012 82.5741 64.1006 80.3514C62.9509 77.5731 61.0923 75.3121 58.812 73.7984C58.4096 73.5493 58.0839 73.3578 57.8539 73.2236C57.6815 73.1278 57.4707 73.1661 57.3557 73.3194H57.3365C57.2407 73.4727 57.2599 73.6451 57.3749 73.7409C59.3102 75.293 60.6323 77.6881 60.9006 80.4472C61.0155 81.5969 60.7857 82.7657 60.2683 83.7621C59.6168 85.0075 58.6778 86.023 57.5665 86.732L56.3593 87.4984C54.5964 88.6097 53.1593 90.2384 52.1821 92.1928L50.5342 95.546L52.1438 92.8059C53.3702 90.7366 55.1713 89.1271 57.2599 88.2074L58.7737 87.5367C59.6168 87.1727 60.5173 87.1343 61.3796 87.4218C62.7401 87.8816 63.8899 88.9163 64.5797 90.2959L65.4228 92.0012C65.4803 92.097 65.5569 92.1545 65.6719 92.1162C65.7677 92.0779 65.8251 91.9821 65.8059 91.8863L65.6144 87.3643Z" fill="#F3F0F3"/>
<path d="M35.4168 87.3643C35.5318 84.95 36.0301 82.5741 36.9306 80.3514C38.0803 77.5731 39.9389 75.3121 42.2192 73.7984C42.6216 73.5493 42.9473 73.3578 43.1772 73.2236C43.3497 73.1278 43.5605 73.1661 43.6755 73.3194H43.6946C43.7905 73.4727 43.7713 73.6451 43.6563 73.7409C41.721 75.293 40.3989 77.6881 40.1306 80.4472C40.0156 81.5969 40.2456 82.7657 40.763 83.7621C41.4145 85.0075 42.3533 86.023 43.4647 86.732L44.6719 87.4984C46.4348 88.6097 47.8719 90.2384 48.8491 92.1928L50.497 95.546L48.8875 92.8059C47.6611 90.7366 45.8599 89.1271 43.7712 88.2074L42.2575 87.5367C41.4144 87.1727 40.5138 87.1343 39.6516 87.4218C38.2911 87.8816 37.1414 88.9163 36.4516 90.2959L35.6085 92.0012C35.551 92.097 35.4552 92.1545 35.3594 92.1162C35.2636 92.0779 35.2061 91.9821 35.2061 91.8863L35.3976 87.3643H35.4168Z" fill="#F3F0F3"/>
</g>
</svg>
