<svg width="110" height="454" viewBox="0 0 110 454" fill="none" xmlns="http://www.w3.org/2000/svg">
<path d="M79.3448 211.46C75.0414 211.282 71.4315 214.627 71.2536 218.915L62.8779 423.188C62.7 427.476 66.0432 431.105 70.3289 431.283C74.6323 431.461 78.2423 428.116 78.4201 423.829L86.7958 219.555C86.9737 215.268 83.6305 211.638 79.3448 211.46Z" fill="#FDC5C5"/>
<path d="M77.1752 444.323H64.4248C61.6863 444.323 59.4812 446.28 59.4812 448.629V448.896C59.4812 451.262 61.7041 453.201 64.4604 453.201H77.1574C79.8959 453.201 82.1188 451.262 82.1188 448.896V448.629C82.1188 446.263 79.9137 444.341 77.1752 444.323Z" fill="#55364F"/>
<path d="M79.1482 419.719L79.6817 432.991C79.7173 433.934 79.7351 434.859 79.7351 435.766V442.117C79.7351 443.327 78.597 444.306 77.1921 444.306C79.9307 444.306 82.1358 446.245 82.1358 448.611V442.349C82.1358 436.335 81.4956 430.375 80.1974 424.487L79.1482 419.719Z" fill="#55364F"/>
<path d="M64.4248 444.323C63.0199 444.323 61.8818 443.345 61.8818 442.135V435.784C61.8818 434.859 61.8818 433.934 61.9352 433.009L62.4687 419.737L61.4017 424.505C60.1213 430.393 59.4634 436.371 59.4634 442.366V448.629C59.4634 446.263 61.6685 444.341 64.407 444.323H64.4248Z" fill="#55364F"/>
<path d="M61.8818 435.766V442.117C61.8818 443.327 63.0198 444.306 64.4247 444.306H77.175C78.5799 444.306 79.718 443.327 79.718 442.117V435.766C79.718 434.841 79.718 433.916 79.6646 432.991L79.1312 419.719L79.0956 419.523C79.0956 413.101 75.3612 407.888 70.791 407.888C66.2208 407.888 62.4864 413.101 62.4864 419.523L62.4508 419.719L61.9174 432.991C61.8818 433.934 61.864 434.859 61.864 435.766H61.8818Z" fill="#FDC5C5"/>
<path d="M80.3943 426.337C81.0345 428.561 80.7856 430.945 79.6652 432.973C79.6652 427.885 76.3221 421.338 70.7916 421.338C65.2611 421.338 61.918 427.885 61.918 432.973C60.7977 430.927 60.5309 428.525 61.1889 426.284C61.4912 425.234 61.8646 424.255 62.2914 423.49C64.1052 420.217 67.9819 418.812 70.7916 418.812C73.6013 418.812 77.4779 420.181 79.274 423.49C79.7008 424.255 80.0742 425.27 80.3765 426.337H80.3943Z" fill="#55364F"/>
<path d="M31.1175 211.46C35.4209 211.282 39.0308 214.627 39.2087 218.915L47.5844 423.188C47.7622 427.476 44.4191 431.105 40.1334 431.283C35.8477 431.461 32.22 428.116 32.0422 423.829L23.6664 219.555C23.4886 215.268 26.8318 211.638 31.1175 211.46Z" fill="#FDC5C5"/>
<path d="M46.0372 444.323H33.2869C30.5484 444.323 28.3433 446.28 28.3433 448.629V448.896C28.3433 451.262 30.5661 453.201 33.3225 453.201H46.0195C48.758 453.201 50.9808 451.262 50.9808 448.896V448.629C50.9808 446.263 48.7758 444.341 46.0372 444.323Z" fill="#55364F"/>
<path d="M47.9937 419.719L48.5272 432.991C48.5628 433.934 48.5806 434.859 48.5806 435.766V442.117C48.5806 443.327 47.4424 444.306 46.0376 444.306C48.7762 444.306 50.9812 446.245 50.9812 448.611V442.349C50.9812 436.335 50.3411 430.375 49.0429 424.487L47.9937 419.719Z" fill="#55364F"/>
<path d="M33.2869 444.323C31.882 444.323 30.7439 443.345 30.7439 442.135V435.784C30.7439 434.859 30.7439 433.934 30.7973 433.009L31.3307 419.737L30.2638 424.505C28.9834 430.393 28.3254 436.371 28.3254 442.366V448.629C28.3254 446.263 30.5305 444.341 33.2691 444.323H33.2869Z" fill="#55364F"/>
<path d="M30.7438 435.766V442.117C30.7438 443.327 31.882 444.306 33.2868 444.306H46.0371C47.4419 444.306 48.5801 443.327 48.5801 442.117V435.766C48.5801 434.841 48.5801 433.916 48.5267 432.991L47.9932 419.719L47.9577 419.523C47.9577 413.101 44.2232 407.888 39.6531 407.888C35.0829 407.888 31.3485 413.101 31.3485 419.523L31.3129 419.719L30.7794 432.991C30.7439 433.934 30.7261 434.859 30.7261 435.766H30.7438Z" fill="#FDC5C5"/>
<path d="M30.0687 426.337C29.4285 428.561 29.6775 430.945 30.7978 432.973C30.7978 427.885 34.141 421.338 39.6715 421.338C45.2019 421.338 48.5451 427.885 48.5451 432.973C49.6654 430.927 49.9322 428.525 49.2742 426.284C48.9719 425.234 48.5985 424.255 48.1717 423.49C46.3578 420.217 42.4812 418.812 39.6715 418.812C36.8618 418.812 32.9851 420.181 31.189 423.49C30.7622 424.255 30.3888 425.27 30.0865 426.337H30.0687Z" fill="#55364F"/>
<path d="M83.9146 93.6321C86.422 93.6321 88.6981 95.3044 89.3739 97.8307L98.9411 133.608C103.654 151.256 106.036 169.456 106.036 187.71V224.75C106.019 227.881 103.476 230.407 100.346 230.407C97.2161 230.407 94.691 227.863 94.691 224.75V187.71C94.7265 170.435 92.4681 153.213 88.0046 136.543L78.4374 100.766C77.6372 97.7417 79.4155 94.6462 82.4386 93.8278C82.9365 93.7032 83.4167 93.6321 83.9146 93.6321Z" fill="#FDC5C5"/>
<path d="M109.824 237.719C109.824 238.822 108.917 239.73 107.814 239.712C107.37 239.712 106.978 239.57 106.641 239.338C106.552 239.267 106.427 239.249 106.321 239.285C106.214 239.32 106.125 239.409 106.107 239.516C105.823 240.495 104.951 241.206 103.884 241.206C103.262 241.206 102.693 240.957 102.266 240.566C102.177 240.477 102.053 240.459 101.928 240.477C101.804 240.512 101.715 240.601 101.679 240.726C101.359 241.865 100.328 242.665 99.1362 242.665C98.0337 242.665 96.9489 241.989 96.5755 240.797C96.5399 240.673 96.4332 240.584 96.3265 240.566C96.202 240.548 96.0775 240.566 95.9886 240.673C95.5618 241.153 94.9572 241.455 94.2815 241.455C92.9833 241.455 91.9342 240.424 91.9164 239.143C91.9164 239.143 91.863 236.812 91.8274 235.887C91.8274 235.691 91.6496 235.531 91.454 235.531C88.8222 235.531 88.0931 232.151 88.9644 228.183C89.9958 223.54 94.3526 215.463 100.239 215.712C105.147 215.926 109.61 220.587 109.788 227.241C109.824 228.433 109.806 226.262 109.788 237.684L109.824 237.719Z" fill="#FDC5C5"/>
<path d="M101.021 133.074C105.769 150.883 108.188 169.278 108.17 187.727V213.791C108.152 214.431 107.636 214.947 106.996 214.947H93.7478C93.1077 214.947 92.592 214.414 92.592 213.773V187.71C92.6275 170.613 90.4046 153.587 85.9945 137.095L76.4629 101.318C75.9294 99.3075 76.1961 97.2082 77.2276 95.3935C78.2767 93.5966 79.9483 92.3157 81.9578 91.782C82.6158 91.6041 83.3093 91.5151 83.985 91.5151C87.4882 91.5151 90.6002 93.8991 91.4894 97.2971L101.039 133.074H101.021Z" fill="#4C2D47"/>
<path d="M26.4764 93.6326C23.969 93.6326 21.6928 95.3049 21.017 97.8312L11.4498 133.608C6.73738 151.257 4.35449 169.457 4.35449 187.71V224.75C4.37228 227.882 6.91522 230.408 10.045 230.408C13.1748 230.408 15.6999 227.864 15.6999 224.75V187.71C15.6644 170.435 17.9228 153.214 22.3863 136.544L31.9535 100.767C32.7537 97.7422 30.9755 94.6466 27.9524 93.8283C27.4544 93.7037 26.9743 93.6326 26.4764 93.6326Z" fill="#FDC5C5"/>
<path d="M0.566162 237.737C0.566162 238.84 1.4731 239.748 2.57563 239.73C3.02021 239.73 3.41144 239.588 3.74931 239.356C3.83822 239.285 3.96269 239.267 4.06939 239.303C4.17609 239.339 4.26499 239.428 4.28277 239.534C4.5673 240.513 5.43866 241.224 6.50563 241.224C7.12803 241.224 7.69709 240.975 8.12388 240.584C8.21279 240.495 8.33728 240.477 8.46176 240.495C8.58624 240.531 8.67515 240.619 8.71072 240.744C9.03081 241.883 10.0622 242.683 11.2537 242.683C12.3562 242.683 13.441 242.007 13.8144 240.815C13.85 240.691 13.9567 240.602 14.0634 240.584C14.1878 240.566 14.3123 240.584 14.4012 240.691C14.828 241.171 15.4326 241.473 16.1084 241.473C17.4065 241.473 18.4557 240.442 18.4735 239.161C18.4735 239.161 18.5268 236.83 18.5624 235.905C18.5624 235.709 18.7403 235.549 18.9359 235.549C21.5677 235.549 22.2968 232.169 21.4255 228.202C20.3941 223.558 16.0373 215.481 10.1511 215.73C5.24305 215.944 0.779564 220.605 0.601735 227.259C0.56617 228.451 0.583953 226.28 0.601735 237.702L0.566162 237.737Z" fill="#FDC5C5"/>
<path d="M9.42211 133.075C4.6563 150.883 2.25562 169.279 2.25562 187.728V213.791C2.25562 214.432 2.78911 214.948 3.42929 214.948H16.6775C17.3177 214.948 17.8334 214.414 17.8334 213.773V187.71C17.8334 170.613 20.0385 153.587 24.4664 137.095L34.0158 101.318C34.5493 99.3077 34.2826 97.2084 33.2512 95.3937C32.202 93.5968 30.5304 92.3159 28.5209 91.7644C27.8629 91.5865 27.1694 91.4976 26.4937 91.4976C22.9904 91.4976 19.8784 93.8815 18.9893 97.2796L9.42211 133.057V133.075Z" fill="#4C2D47"/>
<path d="M46.0013 138.465C46.0013 138.465 46.0369 138.59 46.0547 138.643C46.1436 139.017 46.2325 139.871 46.3036 141.169C46.7304 149.051 46.8905 174.135 46.9972 218.648H63.553C63.6597 174.135 63.8198 149.051 64.2466 141.169C64.3177 139.871 64.4066 138.999 64.4955 138.643C64.4955 138.572 64.531 138.518 64.5488 138.465C64.7444 137.451 65.0823 136.366 65.6158 135.476C68.0343 130.904 75.3608 126.972 70.8618 103.026C68.8168 91.9956 67.3585 87.6191 66.1849 85.84C66.1849 85.84 66.1849 85.84 66.1849 85.8223C66.1849 85.8223 66.1849 85.8222 66.1849 85.8044C66.0604 85.6087 65.9359 85.4664 65.8114 85.3241C65.8114 85.3241 65.8114 85.3241 65.8114 85.3063C65.6869 85.164 65.5625 85.0573 65.4558 84.9683C65.029 84.6659 64.6555 84.6125 64.2821 84.5769H46.4637C46.2503 84.5947 46.0369 84.6659 45.8413 84.737C45.7524 84.7726 45.6457 84.8082 45.5567 84.8438C45.3967 84.9149 45.2544 85.0217 45.1122 85.1284C45.041 85.1818 44.9877 85.2352 44.9343 85.2885C44.881 85.3241 44.8454 85.3597 44.7921 85.4131C44.7032 85.502 44.632 85.6265 44.5609 85.7333C44.5253 85.7867 44.4898 85.8222 44.4542 85.8756C44.4542 85.8934 44.4364 85.9112 44.4186 85.929C44.3831 85.9824 44.3475 86.0713 44.3119 86.1603C43.5828 87.4234 43.0671 89.5227 42.2136 92.725C33.002 125.851 42.4448 130.548 45.0766 135.53C45.6101 136.419 45.9657 137.522 46.1436 138.518L46.0013 138.465Z" fill="#4F4068"/>
<path d="M72.1245 87.3523C71.2176 86.4093 70.5062 85.5376 69.955 84.8082C68.9236 83.4383 67.3053 82.6377 65.5981 82.6377H44.8456C43.1384 82.6377 41.5202 83.4561 40.4888 84.8082C39.9375 85.5376 39.2262 86.4093 38.337 87.3523C38.2837 87.4056 38.2304 87.459 38.177 87.5124C39.9553 87.1566 41.8758 86.8541 43.9386 86.5872C44.0631 86.267 44.1698 86.0358 44.2765 85.8578C44.3121 85.8045 44.3298 85.7511 44.3654 85.7155C44.4543 85.591 44.5432 85.4664 44.6499 85.3597C45.0945 84.8971 45.6813 84.6125 46.3215 84.5413H64.14C64.5668 84.5947 64.9402 84.6836 65.3136 84.9327C65.5804 85.1106 65.8294 85.3953 66.0783 85.7867C66.2206 86.0002 66.3628 86.267 66.5051 86.5695C68.5679 86.8185 70.4884 87.1388 72.2667 87.4946C72.2134 87.4412 72.16 87.3878 72.1067 87.3345L72.1245 87.3523Z" fill="#65465E"/>
<path d="M71.5552 98.507C71.7331 100.304 71.3774 102.119 70.5594 103.684C69.5458 105.641 68.0698 107.26 66.2915 108.363L64.3887 109.573C61.6146 111.316 59.3384 113.896 57.8269 116.974L55.2306 122.258L52.6343 116.974C51.1228 113.896 48.8465 111.316 46.0724 109.573L44.1696 108.363C42.4091 107.242 40.9331 105.623 39.9195 103.684C39.1015 102.119 38.7459 100.304 38.9237 98.507V98.4714C39.3683 93.9526 41.5911 90.0564 44.8098 87.6191C47.9751 87.2455 51.4784 87.032 55.2484 87.032C59.0184 87.032 62.5216 87.2633 65.6869 87.6191C68.9056 90.0564 71.1285 93.9526 71.573 98.4714V98.507H71.5552Z" fill="#C7B8C3"/>
<path d="M56.8666 84.7015L55.2484 84.7371H55.2128L53.5768 84.7015C49.469 84.577 45.5212 85.7689 42.178 87.9928C43.0138 87.8683 43.8851 87.7437 44.7743 87.637C47.9396 87.2634 51.4428 87.0499 55.2128 87.0499C58.9828 87.0499 62.486 87.2812 65.6513 87.637C66.5405 87.7437 67.4119 87.8683 68.2477 87.9928C64.8867 85.7689 60.9389 84.577 56.8488 84.7015H56.8666Z" fill="#F3F0F3"/>
<path d="M63.0197 88.0282C63.0197 92.3335 59.5343 95.8205 55.2308 95.8205C50.9273 95.8205 47.4419 92.3335 47.4419 88.0282C47.4419 83.7228 50.9273 80.2358 55.2308 80.2358C59.5343 80.2358 63.0197 83.7228 63.0197 88.0282Z" fill="#FDC5C5"/>
<path d="M55.2308 103.809C50.3227 103.809 46.3215 99.8234 46.3215 94.8954V69.5792C46.3215 64.6689 50.3049 60.666 55.2308 60.666C60.1566 60.666 64.14 64.6511 64.14 69.5792V94.8954C64.14 99.8056 60.1566 103.809 55.2308 103.809Z" fill="#FDC5C5"/>
<path d="M55.2308 60.6838C50.3227 60.6838 46.3215 64.669 46.3215 69.597V82.6198C49.149 83.5983 52.1365 84.1321 55.2308 84.1321C58.325 84.1321 61.2947 83.5983 64.14 82.6198V69.597C64.14 64.669 60.1566 60.6838 55.2308 60.6838Z" fill="#F2A5AB"/>
<path d="M86.8129 222.188C86.8129 226.494 83.3275 229.981 79.024 229.981C74.7206 229.981 71.2351 226.494 71.2351 222.188C71.2351 217.883 74.7206 214.396 79.024 214.396C83.3275 214.396 86.8129 217.883 86.8129 222.188Z" fill="#FDC5C5"/>
<path d="M31.4373 229.981C35.739 229.981 39.2262 226.492 39.2262 222.188C39.2262 217.885 35.739 214.396 31.4373 214.396C27.1357 214.396 23.6484 217.885 23.6484 222.188C23.6484 226.492 27.1357 229.981 31.4373 229.981Z" fill="#FDC5C5"/>
<path d="M83.9318 104.965C87.0549 104.965 89.5868 102.432 89.5868 99.3076C89.5868 96.1831 87.0549 93.6501 83.9318 93.6501C80.8087 93.6501 78.2769 96.1831 78.2769 99.3076C78.2769 102.432 80.8087 104.965 83.9318 104.965Z" fill="#FDC5C5"/>
<path d="M26.5102 104.965C29.6333 104.965 32.1651 102.432 32.1651 99.3076C32.1651 96.1831 29.6333 93.6501 26.5102 93.6501C23.387 93.6501 20.8552 96.1831 20.8552 99.3076C20.8552 102.432 23.387 104.965 26.5102 104.965Z" fill="#FDC5C5"/>
<path d="M83.1138 113.327C83.0783 109.591 84.7321 106.015 87.5774 103.595C88.1286 103.133 88.591 102.563 88.9288 101.905C90.3692 99.1476 89.3201 95.7317 86.5637 94.2907C86.0836 94.0416 74.5247 88.0461 55.2125 88.0461C35.9003 88.0461 24.3415 94.0416 23.8614 94.2907C21.105 95.7495 20.0558 99.1476 21.4962 101.905C21.8519 102.581 22.3142 103.15 22.8477 103.595C25.7108 106.015 27.3468 109.591 27.3112 113.327C27.2935 116.049 27.3468 118.895 27.3468 121.831C27.3468 127.488 28.5027 132.808 30.5299 137.504C34.8156 151.452 36.2382 162.607 28.3782 180.131C26.5999 184.116 21.6563 190.005 21.6563 201.089C21.6563 231.066 23.5946 234.66 55.1948 234.66C86.8127 234.66 88.7332 231.066 88.7332 201.089C88.7332 190.005 83.8074 184.116 82.0113 180.131C74.1513 162.607 75.5739 151.452 79.8596 137.504C81.8869 132.825 83.0427 127.488 83.0427 121.831C83.0427 118.895 83.0961 116.049 83.0783 113.327H83.1138Z" fill="#FDC5C5"/>
<path d="M72.4089 113.914H38.0524C31.1481 113.914 25.551 119.509 25.551 126.412C25.551 133.314 31.1481 138.91 38.0524 138.91H72.4089C79.3132 138.91 84.9102 133.314 84.9102 126.412C84.9102 119.509 79.3132 113.914 72.4089 113.914Z" fill="#FDC5C5"/>
<path d="M75.5212 133.252H34.9407C31.3842 133.252 28.1832 131.758 25.9248 129.392C27.2585 134.854 32.1666 138.928 38.0527 138.928H72.427C78.2953 138.928 83.2212 134.871 84.5549 129.392C82.2787 131.776 79.0778 133.252 75.539 133.252H75.5212Z" fill="#F2A5AB"/>
<path d="M20.9817 217.491C21.0528 237.061 22.3154 289.633 22.8667 311.444C22.8667 312.067 23.3824 312.547 24.0048 312.547H86.476C87.0984 312.547 87.5963 312.049 87.6141 311.444C88.1654 289.651 89.4279 237.061 89.4991 217.491L89.3924 217.527C89.4635 214.111 89.4991 210.286 89.4991 205.927C89.4991 196.819 87.6319 190.432 85.7469 185.539H24.7339C22.8489 190.432 20.9817 196.819 20.9817 205.927C20.9817 210.286 21.0173 214.111 21.0884 217.527L20.9817 217.491Z" fill="#43253F"/>
<path d="M44.3115 88.5976C43.7247 88.6688 43.1734 88.7399 42.6222 88.8111C40.1503 91.2306 38.461 94.6287 38.0875 98.4715V98.507C37.9097 100.304 38.2653 102.119 39.0833 103.684C40.0792 105.641 41.5552 107.26 43.3335 108.363L45.0584 109.448C39.3145 102.421 41.9464 93.4723 44.3115 88.5798V88.5976Z" fill="#F2A5AB"/>
<path d="M71.3598 103.702C72.1778 102.136 72.5157 100.322 72.3557 98.5249V98.4893C71.9822 94.6465 70.3106 91.2485 67.821 88.829C67.252 88.7578 66.7007 88.6689 66.1317 88.6155C68.4968 93.5079 71.1286 102.457 65.3848 109.484L67.1097 108.399C68.8702 107.278 70.3462 105.659 71.3776 103.72L71.3598 103.702Z" fill="#F2A5AB"/>
<path d="M90.3693 97.7244C90.4048 97.8845 90.4404 98.0446 90.476 98.2225C90.5115 98.4716 90.5471 98.7028 90.5649 98.9519C90.5649 99.112 90.6004 99.2188 90.6004 99.3255C90.6004 99.3789 90.6004 99.5568 90.5649 99.6102C90.5649 99.8059 90.5293 99.9838 90.5115 100.162C90.476 100.446 90.4226 100.749 90.3515 101.033L90.2981 101.229C90.1559 101.674 90.0136 102.012 89.8536 102.332C89.818 102.368 89.7646 102.492 89.7469 102.528C89.6046 102.795 89.3734 103.133 89.1423 103.471C88.84 103.827 88.5554 104.129 88.1998 104.414C85.5857 106.655 84.0741 109.911 84.1275 113.345C84.1275 114.999 84.1275 116.707 84.1275 118.433V119.696C85.3011 121.76 85.9236 124.072 85.9236 126.439C85.9236 127.488 85.7991 128.556 85.5323 129.641C85.0878 131.438 84.3231 133.092 83.2028 134.569C83.2028 134.569 83.1138 134.676 83.096 134.676C82.9182 134.925 82.7226 135.156 82.5092 135.387L82.3847 135.53C82.1358 135.814 81.9402 136.01 81.7268 136.206L81.5667 136.348C81.5667 136.348 81.0688 137.38 80.8376 137.914C76.4631 152.146 75.5028 163.052 82.9716 179.757C83.345 180.558 83.8429 181.448 84.3942 182.479C86.5459 186.322 89.7646 192.122 89.7646 201.124C89.7646 201.943 89.7646 202.743 89.7646 203.508C58.7513 203.081 55.4259 189.187 55.4259 189.187C55.4259 189.187 52.065 203.206 20.7315 203.508C20.7315 202.725 20.7315 201.943 20.7315 201.124C20.7315 192.104 23.9503 186.322 26.102 182.479C26.671 181.448 27.169 180.576 27.5246 179.757C34.9934 163.07 34.0331 152.146 29.623 137.825C29.4452 137.398 28.965 136.384 28.965 136.384L28.7872 136.224C28.5916 136.028 28.396 135.832 28.2004 135.619L28.0225 135.423C27.8269 135.174 27.6313 134.96 27.4357 134.694L27.3468 134.587C26.2265 133.11 25.444 131.456 25.0172 129.659C24.7505 128.591 24.6082 127.506 24.6082 126.456C24.6082 124.108 25.2306 121.795 26.4221 119.749V118.504C26.3865 116.743 26.3865 115.017 26.3865 113.362C26.4221 109.947 24.9461 106.709 22.3498 104.467C21.3184 103.631 20.5715 102.492 20.1803 101.194C20.0736 100.767 20.0025 100.411 19.9669 100.055C19.9669 99.9304 19.9313 99.8236 19.9313 99.7347C19.8958 99.5568 19.8958 99.4678 19.8958 99.3611C19.8958 99.2366 19.8958 99.112 19.9313 98.9875C19.9669 98.7206 19.9669 98.5427 20.0025 98.3826C20.038 98.1335 20.0914 97.9201 20.1447 97.671C20.1981 97.4753 20.2514 97.2796 20.3403 97.0661C20.4115 96.8882 20.4826 96.7103 20.5537 96.5502C20.6604 96.3189 20.8027 96.0876 20.9272 95.8385C20.9983 95.7318 21.0694 95.625 21.1406 95.5183C21.3184 95.2514 21.5318 95.0024 21.763 94.7711L21.9408 94.5932C22.1898 94.3441 22.4565 94.1484 22.741 93.9349L22.9544 93.7926C23.1856 93.6147 23.3101 93.5435 23.4523 93.4724C23.8258 93.2767 30.5655 89.7719 42.2133 88.064C38.6033 90.4479 35.6692 93.9883 33.8731 98.3826C32.4505 101.87 31.6502 105.623 31.4902 109.431L31.1879 116.565C31.1879 116.743 31.2768 116.885 31.4368 116.938C31.5791 116.974 31.7392 116.903 31.8103 116.76L33.144 114.092C34.211 111.921 36.0248 110.32 38.1766 109.573C39.5281 109.128 40.9862 109.199 42.2844 109.751L44.6673 110.801C47.9749 112.242 50.7846 114.768 52.7229 118.041L55.2837 122.365L57.8266 118.041C59.7649 114.768 62.5746 112.259 65.8822 110.801L68.2651 109.751C69.5811 109.182 71.0215 109.11 72.373 109.573C74.5247 110.302 76.3386 111.921 77.4056 114.092L78.7393 116.76C78.8282 116.921 78.9704 116.992 79.1127 116.938C79.255 116.885 79.3617 116.743 79.3439 116.565L79.0415 109.431C78.8637 105.623 78.0635 101.87 76.6587 98.3826C74.8626 93.9883 71.9284 90.4479 68.3185 88.064C79.984 89.7719 86.7237 93.2767 87.0972 93.4724C87.2572 93.5613 87.3817 93.6503 87.524 93.7392L87.6307 93.8282C88.0753 94.1306 88.3598 94.3797 88.6265 94.6288C88.9822 95.0024 89.2134 95.287 89.4268 95.5717L89.5335 95.7496C89.7291 96.052 89.8891 96.3367 90.0136 96.6391C90.0669 96.7459 90.1203 96.8526 90.1558 96.9593C90.2625 97.244 90.3337 97.4931 90.4048 97.7777L90.3693 97.7244Z" fill="#E9E3E8"/>
<path d="M81.3353 136.775C81.4598 136.526 81.5487 136.33 81.5487 136.33L81.7087 136.188C81.9221 135.992 82.1178 135.796 82.3667 135.512L82.4912 135.369C82.6868 135.138 82.8824 134.925 83.078 134.658L83.1847 134.551C84.1628 133.27 84.8563 131.847 85.3187 130.335C83.0602 132.576 79.9661 133.982 76.534 133.982H33.9796C30.5475 133.982 27.4532 132.576 25.1948 130.352C25.6572 131.883 26.3507 133.288 27.311 134.569L27.3999 134.676C27.5955 134.925 27.7911 135.156 27.9867 135.405L28.1646 135.601C28.3602 135.814 28.5558 136.01 28.7514 136.206L28.9292 136.366C28.9292 136.366 29.0181 136.561 29.1248 136.811C31.2765 138.59 34.0329 139.657 37.0382 139.657H73.3864C76.3917 139.657 79.148 138.59 81.2998 136.811L81.3353 136.775Z" fill="#D9CED6"/>
<path d="M52.6512 117.952C50.7128 114.679 47.9031 112.17 44.5955 110.712L42.2126 109.662C40.9145 109.093 39.4563 109.021 38.1048 109.484C35.9531 110.213 34.1392 111.832 33.0722 114.003L31.7385 116.671L36.8067 114.43C38.6916 113.594 40.8434 113.718 42.6039 114.786L55.1942 122.276L52.6334 117.952H52.6512Z" fill="#D9CED6"/>
<path d="M77.3699 114.003C76.3029 111.832 74.4891 110.231 72.3373 109.484C70.9858 109.039 69.5276 109.11 68.2295 109.662L65.8466 110.711C62.539 112.152 59.7293 114.679 57.791 117.952L55.2302 122.275L67.8205 114.785C69.581 113.736 71.7505 113.611 73.6177 114.43L78.6858 116.671L77.3521 114.003H77.3699Z" fill="#D9CED6"/>
<path d="M77.3521 114.003C76.2851 111.832 74.4713 110.231 72.3195 109.484C70.968 109.039 69.5276 109.11 68.2117 109.662L65.8288 110.712C62.539 112.153 59.7115 114.679 57.7732 117.952L55.2302 122.276L57.8265 116.992C59.3381 113.914 61.6143 111.334 64.3884 109.591L66.2912 108.381C68.0517 107.26 69.5276 105.641 70.559 103.702C71.3771 102.136 71.7149 100.322 71.5549 98.5249V98.4893C71.1103 93.9705 68.8875 90.0743 65.6688 87.637C66.5579 87.7437 67.4292 87.8682 68.265 87.9928C71.875 90.3767 74.8091 93.9171 76.6052 98.3114C78.0278 101.798 78.8281 105.552 78.9881 109.359L79.2904 116.494C79.2904 116.671 79.2015 116.814 79.0593 116.867C78.8992 116.903 78.757 116.832 78.6858 116.689L77.3521 114.021V114.003Z" fill="#F3F0F3"/>
<path d="M44.1335 108.381L46.0362 109.591C48.8104 111.334 51.0866 113.914 52.5981 116.992L55.1944 122.276L52.6337 117.952C50.6954 114.679 47.8857 112.17 44.5781 110.712L42.1951 109.662C40.897 109.093 39.4388 109.021 38.0873 109.484C35.9356 110.213 34.1217 111.832 33.0548 114.003L31.721 116.671C31.6499 116.832 31.4899 116.903 31.3476 116.849C31.1875 116.796 31.0986 116.654 31.0986 116.476L31.4009 109.342C31.5788 105.534 32.379 101.781 33.7839 98.2936C35.5799 93.8993 38.5141 90.3589 42.124 87.975C42.9598 87.8504 43.8312 87.7259 44.7203 87.6191C41.5016 90.0565 39.2788 93.9527 38.8342 98.4715V98.5071C38.6564 100.304 39.012 102.119 39.83 103.684C40.8259 105.641 42.3019 107.26 44.0802 108.363L44.1335 108.381Z" fill="#F3F0F3"/>
<path d="M46.2684 141.187C46.1973 139.888 46.1084 139.017 46.0195 138.661C46.0195 138.59 45.9839 138.536 45.9662 138.483C44.9525 133.021 39.5287 130.495 38.4618 119.838C34.6918 105.428 39.6177 92.1735 43.7788 86.4983C41.8405 86.7296 40.0266 87.0498 38.3195 87.37C28.6812 89.2203 23.2752 92.1202 22.9373 92.2981C19.0962 94.3262 17.6203 99.1119 19.6297 102.937C21.0523 105.783 25.1068 107.171 25.0535 113.327C25.0535 114.821 25.0535 116.351 25.0535 117.935C25.0535 118.806 24.8934 119.642 24.5378 120.425C23.7198 122.258 23.2574 124.286 23.2574 126.421C23.2574 130.281 24.7512 133.786 27.1697 136.401C27.6676 136.953 28.0944 137.593 28.3789 138.269C30.1216 143.962 31.7398 150.154 31.7398 156.843C31.7398 163.532 30.0149 170.898 26.3161 179.135C25.0001 182.213 21.1057 187.087 19.8076 195.484C18.8117 200.003 17.9937 207.653 17.3535 216.887C17.3179 217.349 17.478 217.794 17.7981 218.132C18.1004 218.47 18.5449 218.648 19.0073 218.648H45.2904C45.735 218.648 46.144 218.47 46.4463 218.168C46.7486 217.865 46.9264 217.438 46.9264 216.993C46.8197 173.513 46.6596 148.962 46.2506 141.169L46.2684 141.187Z" fill="#4C2D47"/>
<path d="M36.9143 180.985C36.9143 180.558 36.5764 180.202 36.1318 180.202H25.8355C24.9997 181.803 23.7371 183.831 22.5635 186.447H36.9143V180.985Z" fill="#65465E"/>
<path d="M90.5834 195.484C89.2853 187.087 85.3908 182.213 84.0749 179.135C80.3761 170.915 78.6511 163.799 78.6511 156.843C78.6511 149.887 80.2693 143.962 82.0121 138.269C82.3144 137.576 82.7234 136.935 83.2213 136.401C85.6398 133.768 87.1335 130.264 87.1335 126.421C87.1335 124.286 86.6712 122.258 85.8532 120.425C85.4975 119.642 85.3197 118.806 85.3375 117.935C85.3375 116.369 85.373 114.821 85.3375 113.327C85.2841 107.153 89.3386 105.783 90.7613 102.937C92.7707 99.0941 91.2769 94.3084 87.4536 92.2981C87.1157 92.1202 81.7098 89.2203 72.0715 87.37C70.3821 87.0498 68.5682 86.7474 66.6476 86.4983C70.8088 92.1913 75.7525 105.517 71.9114 119.98C70.8089 130.513 65.4207 133.039 64.407 138.465C64.407 138.518 64.3715 138.59 64.3537 138.643C64.2648 139.017 64.1758 139.871 64.1047 141.169C63.6779 148.944 63.5179 173.513 63.429 216.993C63.429 217.438 63.6068 217.847 63.9091 218.15C64.2114 218.452 64.6382 218.63 65.065 218.63H91.3481C91.8104 218.63 92.2372 218.434 92.5573 218.114C92.8596 217.776 93.0196 217.331 93.0019 216.869C92.3617 207.618 91.5437 199.968 90.5478 195.467L90.5834 195.484Z" fill="#4C2D47"/>
<path d="M73.5649 180.985V186.447H87.8624C86.6709 183.831 85.4261 181.803 84.5903 180.202H74.3474C73.9206 180.202 73.5649 180.54 73.5649 180.985Z" fill="#65465E"/>
<path d="M46.0365 138.643C46.0365 138.643 46.0009 138.518 45.9831 138.465C45.6986 136.935 45.0584 135.636 44.276 134.32H32.6282C29.2317 134.32 26.1908 132.95 23.9324 130.761C24.5903 132.879 25.7107 134.818 27.1866 136.401C27.3467 136.579 27.4889 136.775 27.6312 136.97C29.8185 138.838 32.6282 139.977 35.7224 139.977H46.1788C46.1254 139.354 46.0721 138.892 46.0187 138.643H46.0365Z" fill="#43253F"/>
<path d="M82.7051 137.077C82.8652 136.846 83.0252 136.614 83.2208 136.419C84.679 134.835 85.7994 132.932 86.4573 130.815C84.2167 132.985 81.1758 134.319 77.8148 134.319H66.1315C65.3491 135.636 64.7088 136.935 64.4243 138.465C64.4243 138.518 64.3888 138.589 64.371 138.643C64.3176 138.874 64.2643 139.336 64.2109 139.977H74.7028C77.7437 139.977 80.5356 138.874 82.6874 137.077H82.7051Z" fill="#43253F"/>
<path d="M85.2843 38.8547C83.0614 38.4633 80.5718 41.9503 79.7361 46.6648C78.8825 51.3794 80.0028 55.5068 82.2256 55.916C84.4485 56.3074 86.9381 52.8204 87.7739 48.1059C88.6097 43.3913 87.5072 39.2639 85.2843 38.8547Z" fill="#F7A5AB"/>
<path d="M25.1603 38.8547C27.3832 38.4633 29.8727 41.9503 30.7085 46.6648C31.5621 51.3794 30.4418 55.5068 28.219 55.916C25.9961 56.3074 23.5065 52.8204 22.6707 48.1059C21.8349 43.3913 22.9374 39.2639 25.1603 38.8547Z" fill="#F7A5AB"/>
<path d="M86.0667 54.3327C85.96 53.621 85.4976 53.0339 84.9286 53.0339C84.3595 53.0339 83.8972 53.621 83.7905 54.3327C83.4704 56.432 83.0969 56.6633 83.0969 57.6951C83.0969 59.1362 83.9149 60.2926 84.9286 60.2926C85.9422 60.2926 86.7602 59.1362 86.7602 57.6951C86.7602 56.6633 86.3868 56.432 86.0667 54.3327Z" fill="#D9CED6"/>
<path d="M26.7969 54.3327C26.6902 53.621 26.2278 53.0339 25.6588 53.0339C25.0897 53.0339 24.6274 53.621 24.5207 54.3327C24.2006 56.432 23.8271 56.6633 23.8271 57.6951C23.8271 59.1362 24.6452 60.2926 25.6588 60.2926C26.6724 60.2926 27.4904 59.1362 27.4904 57.6951C27.4904 56.6633 27.117 56.432 26.7969 54.3327Z" fill="#D9CED6"/>
<path d="M84.164 42.5552C84.164 22.2381 78.9537 5.76392 55.2313 5.76392C31.509 5.76392 26.2986 22.2381 26.2986 42.5552C26.2986 62.8722 39.2623 79.3642 55.2313 79.3642C71.2003 79.3642 84.164 62.89 84.164 42.5552Z" fill="#FDC5C5"/>
<path d="M65.0473 61.0219C64.9406 61.1464 62.291 64.0819 55.2312 64.0819C48.207 64.0819 45.5396 61.182 45.4151 61.0219C44.9172 60.4348 44.028 60.3459 43.4234 60.8618C42.8188 61.3599 42.7477 62.2495 43.2456 62.8543C43.3879 63.0145 46.731 66.9106 55.2312 66.9106C63.7314 66.9106 67.0746 63.0145 67.2169 62.8543C67.7148 62.2672 67.6259 61.3777 67.039 60.8796C66.4522 60.3814 65.563 60.4526 65.0473 61.0397V61.0219Z" fill="#D63E39"/>
<path d="M71.8762 50.1518C73.1566 50.1518 74.188 49.1199 74.188 47.839V46.3802C74.188 45.0993 73.1566 44.0674 71.8762 44.0674C70.5958 44.0674 69.5645 45.0993 69.5645 46.3802V47.839C69.5645 49.1199 70.5958 50.1518 71.8762 50.1518Z" fill="#532442"/>
<path d="M36.239 46.3802V47.8212C36.239 49.1022 37.2704 50.134 38.5508 50.134C39.8312 50.134 40.8625 49.1022 40.8625 47.8212V46.3802C40.8625 45.0993 39.8312 44.0674 38.5508 44.0674C37.2704 44.0674 36.239 45.0993 36.239 46.3802Z" fill="#532442"/>
<path d="M77.905 40.5093C74.2417 36.453 67.4309 37.5738 67.1285 37.6094C66.6306 37.6983 66.2927 38.1787 66.3816 38.6768C66.4706 39.175 66.9507 39.513 67.4486 39.424C67.502 39.424 73.5659 38.4278 76.5534 41.7368C76.7313 41.9325 76.9802 42.0393 77.2292 42.0393C77.4426 42.0393 77.6738 41.9681 77.8516 41.808C78.225 41.47 78.2606 40.8829 77.9228 40.5093H77.905Z" fill="#44243B"/>
<path d="M42.9966 39.4417C43.4945 39.5307 43.9747 39.1927 44.0636 38.6945C44.1525 38.1964 43.8146 37.716 43.3167 37.6271C43.0322 37.5737 36.2036 36.4529 32.5403 40.527C32.2024 40.9006 32.238 41.4877 32.6114 41.8257C32.7893 41.9858 33.0026 42.057 33.2338 42.057C33.4828 42.057 33.7317 41.9502 33.9096 41.7545C36.8971 38.4455 42.9433 39.4239 43.0144 39.4417H42.9966Z" fill="#44243B"/>
<path d="M69.4578 52.5003C67.9285 52.0733 66.3458 52.945 65.8835 54.4572C65.4389 55.9872 66.3103 57.5884 67.8218 58.051C68.7465 58.3356 69.938 59.0472 70.1336 59.581C70.4893 60.595 71.3606 61.2711 72.3387 61.4668C72.8188 61.5557 73.3345 61.5201 73.8324 61.3422C75.344 60.8085 76.1264 59.154 75.5929 57.6418C74.2947 53.9947 69.9558 52.6426 69.4578 52.5003Z" fill="#FAAEB4"/>
<path d="M40.9864 52.5C42.5157 52.073 44.0984 52.9448 44.5608 54.457C45.0053 55.987 44.134 57.5882 42.6224 58.0507C41.6977 58.3354 40.5062 59.047 40.3106 59.5807C39.955 60.5948 39.0836 61.2708 38.1056 61.4665C37.6254 61.5555 37.1097 61.5199 36.6118 61.342C35.1003 60.8083 34.3178 59.1537 34.8513 57.6415C36.1494 53.9944 40.4885 52.6423 40.9864 52.5Z" fill="#FAAEB4"/>
<path d="M35.3674 20.6903C44.0455 17.8438 54.235 17.4524 55.2131 11.3146C56.1912 17.4524 66.3807 17.8438 75.0588 20.6903C83.4523 23.4479 90.8855 28.1624 89.1606 37.5203C89.5696 36.0793 89.7296 34.745 89.6052 33.553C87.0266 6.20864 65.7584 0.497803 60.7258 0.497803C57.5071 0.497803 55.8178 2.0456 55.1954 3.11304C54.573 2.0456 52.8836 0.497803 49.6649 0.497803C44.6323 0.497803 23.3818 6.20864 20.7855 33.553C20.6788 34.745 20.8388 36.0793 21.23 37.5203C19.5051 28.1624 26.9384 23.4479 35.3319 20.6903H35.3674Z" fill="#5A3A4E"/>
<path d="M26.2807 42.555C26.2807 40.7403 26.3163 38.9435 26.423 37.2C27.7211 15.8333 55.2134 22.238 55.2312 11.3145C54.2531 17.4523 44.0635 17.8437 35.3855 20.6902C26.992 23.4477 19.5588 28.1623 21.2837 37.5202C22.1017 40.4913 23.9689 43.9427 26.583 47.661C26.4052 45.9886 26.2985 44.2807 26.2985 42.555H26.2807Z" fill="#735465"/>
<path d="M75.0593 20.6904C66.3813 17.8439 56.1917 17.4525 55.2136 11.3147C55.2136 22.2382 82.706 15.8336 84.0219 37.2002C84.1108 38.9437 84.1641 40.7406 84.1641 42.5552C84.1641 44.3699 84.0752 45.9889 83.8796 47.6612C86.4937 43.9607 88.3431 40.5093 89.1789 37.5383C90.9038 28.1803 83.4706 23.4658 75.0771 20.7082L75.0593 20.6904Z" fill="#735465"/>
<path d="M56.4175 48.501C57.1267 49.9695 58.1197 53.0872 56.4175 53.8102C54.7153 54.5331 53.488 54.1114 53.0872 53.8102" stroke="#FAAEB4"/>
<path d="M39.2078 122.827C38.9944 122.204 38.8344 121.51 38.7099 120.763C34.2642 105.321 40.0259 90.9993 44.3471 85.7154C44.5249 85.4485 44.5783 85.1283 44.5071 84.8259C44.436 84.5234 44.2226 84.2565 43.9559 84.1142L43.8136 84.0431C42.6755 83.4382 41.2707 83.7584 40.4882 84.7903C39.9369 85.5197 39.2256 86.3914 38.3365 87.3343C38.1587 87.53 37.963 87.7257 37.7674 87.9214C37.2339 88.4552 36.7716 89.0778 36.4159 89.7539C36.2737 90.0563 36.1136 90.341 35.9358 90.6434C35.2423 91.8888 34.4598 93.2409 33.624 94.504C32.2903 96.5855 30.8321 98.5247 29.4806 99.7345C29.0716 100.09 28.8227 100.606 28.8049 101.158C28.7871 101.709 28.9827 102.243 29.3739 102.634C31.7924 105.107 35.0289 108.488 35.0289 108.488L29.3206 114.59C28.7871 115.159 28.627 115.995 28.9293 116.725C30.103 119.553 33.3751 126.652 37.9275 129.89C43.7069 133.982 45.005 135.69 46.0364 138.643C44.4716 131.811 43.0134 134.515 39.2078 122.827Z" fill="#65465E"/>
<path d="M81.1045 114.608L75.3962 108.505C75.3962 108.505 78.6327 105.143 81.0512 102.652C81.4424 102.261 81.638 101.727 81.6202 101.176C81.6025 100.624 81.3535 100.108 80.9445 99.7524C79.5752 98.5604 78.1348 96.6212 76.8011 94.5219C75.9653 93.2409 75.1828 91.9066 74.4893 90.6613C74.3115 90.3588 74.1514 90.0742 74.0092 89.7895C73.6535 89.1135 73.1912 88.4908 72.6577 87.9571C72.4621 87.7614 72.2665 87.5657 72.0887 87.37C71.1817 86.4093 70.4704 85.5553 69.9191 84.8259C69.1545 83.7941 67.7496 83.4738 66.5937 84.0787L66.4515 84.1499C66.1669 84.2922 65.9713 84.559 65.9002 84.8615C65.8291 85.1639 65.9002 85.4842 66.0602 85.751C66.0602 85.751 66.0603 85.7866 66.078 85.7866V85.751C70.4171 91.0349 76.1787 105.374 71.7152 120.817C71.6974 120.906 71.6619 120.977 71.6441 121.066C71.5196 121.706 71.3773 122.311 71.1995 122.863C67.4118 134.551 65.9535 131.847 64.3708 138.678C65.4023 135.725 66.7004 134.017 72.4798 129.925C77.05 126.688 80.3221 119.589 81.478 116.76C81.7803 116.031 81.6203 115.213 81.0868 114.625L81.1045 114.608Z" fill="#65465E"/>
<path d="M78.9881 109.359C78.8103 105.552 78.0101 101.798 76.6052 98.3114C74.8091 93.9171 71.875 90.3768 68.265 87.9928C67.6426 87.6014 67.1092 87.299 66.7535 87.1033C66.4868 86.9609 66.1667 87.0143 65.9711 87.2634L65.9355 87.299C65.7932 87.4947 65.811 87.7615 66.0066 87.9038C69.0475 90.359 71.1281 94.1306 71.5549 98.4893V98.5249C71.7327 100.322 71.3771 102.136 70.559 103.702C69.5454 105.659 68.0695 107.278 66.2912 108.381L64.3884 109.591C61.6143 111.334 59.3381 113.914 57.8265 116.992L55.2302 122.276L57.7732 117.952C59.7115 114.679 62.5212 112.17 65.8288 110.712L68.2117 109.662C69.5276 109.093 70.968 109.021 72.3195 109.484C74.4713 110.213 76.2851 111.832 77.3521 114.003L78.6858 116.671C78.7747 116.832 78.917 116.903 79.0593 116.849C79.2015 116.796 79.3082 116.654 79.2904 116.476L78.9881 109.342V109.359Z" fill="#F3F0F3"/>
<path d="M31.4551 109.359C31.633 105.552 32.4332 101.798 33.838 98.3114C35.6341 93.9171 38.5683 90.3768 42.1782 87.9928C42.8006 87.6014 43.3341 87.299 43.6898 87.1033C43.9565 86.9609 44.2766 87.0143 44.4722 87.2634L44.5078 87.299C44.65 87.4947 44.6322 87.7615 44.4366 87.9038C41.3958 90.359 39.3152 94.1306 38.8884 98.4893V98.5249C38.7105 100.322 39.0662 102.136 39.8842 103.702C40.8978 105.659 42.3738 107.278 44.1521 108.381L46.0549 109.591C48.829 111.334 51.1052 113.914 52.6167 116.992L55.213 122.276L52.6701 117.952C50.7318 114.679 47.9221 112.17 44.6145 110.712L42.2316 109.662C40.9156 109.093 39.4752 109.021 38.1237 109.484C35.972 110.213 34.1581 111.832 33.0912 114.003L31.7575 116.671C31.6685 116.832 31.5263 116.903 31.384 116.849C31.2417 116.796 31.135 116.654 31.1528 116.476L31.4551 109.342V109.359Z" fill="#F3F0F3"/>
</svg>
