<svg width="100" height="101" viewBox="0 0 100 101" fill="none" xmlns="http://www.w3.org/2000/svg">
<circle cx="50" cy="50.7778" r="50" fill="#D9D9D9"/>
<mask id="mask0_108_11611" style="mask-type:alpha" maskUnits="userSpaceOnUse" x="8" y="9" width="84" height="84">
<circle cx="49.9998" cy="50.7781" r="39.7781" fill="#D9D9D9" stroke="#E29909" stroke-width="4"/>
</mask>
<g mask="url(#mask0_108_11611)">
<path d="M59.6625 71.0776H39.7576V79.523H59.6625V71.0776Z" fill="#32303A"/>
<path d="M59.065 65.1763H40.2825V87.5162H59.065V65.1763Z" fill="#F0B297"/>
<path d="M59.065 65.1763V72.0466C54.3943 75.8303 48.0851 78.3738 40.2825 78.9169V65.1763H59.065Z" fill="#D1785E"/>
<path d="M59.5806 62.1615C60.4133 62.3969 61.3276 62.2158 62.106 61.8356C62.8845 61.4555 63.5362 60.8852 64.1517 60.2878C65.772 58.7218 67.2837 56.7576 67.166 54.5489C67.1298 53.8067 66.8763 53.0463 66.297 52.5575C65.6091 51.9782 64.5591 51.9058 63.7082 52.2317C62.8573 52.5575 62.1875 53.2274 61.6987 53.9606L59.5806 62.1615Z" fill="#F0B297"/>
<path d="M39.2774 62.1615C38.4446 62.3969 37.5304 62.2158 36.752 61.8356C35.9735 61.4555 35.3218 60.8852 34.7062 60.2878C33.086 58.7218 31.5743 56.7576 31.692 54.5489C31.7282 53.8067 31.9817 53.0463 32.561 52.5575C33.2489 51.9782 34.2989 51.9058 35.1498 52.2317C36.0007 52.5575 36.6705 53.2274 37.1593 53.9606L39.2774 62.1615Z" fill="#F0B297"/>
<path d="M62.8935 63.2301C63.5361 56.3235 65.3375 52.2955 66.4508 48.3036C67.2474 45.3165 68.053 40.2022 64.5771 35.7035C61.1374 31.0237 52.5201 28.3625 44.6178 30.5983C36.6704 32.8431 32.2531 37.4867 33.2216 42.782C33.7104 45.9501 34.163 50.3312 34.6971 53.608C35.1406 56.3235 34.3078 59.0481 35.3126 61.7003C37.1863 66.2534 44.4187 74.2461 50.1123 74.2461C54.7649 74.2461 62.4499 66.2534 62.8935 63.2391V63.2301Z" fill="#F0B297"/>
<g style="mix-blend-mode:soft-light">
<path d="M51.1077 56.631C51.0625 56.7668 50.9991 56.8935 50.9357 57.0112C50.8724 57.1289 50.8 57.2646 50.6732 57.328C50.5556 57.3914 50.3836 57.3461 50.2478 57.147C50.1754 57.0474 50.1301 56.9207 50.112 56.7668C50.0939 56.6129 50.112 56.45 50.1663 56.287C50.2206 56.1241 50.3202 55.9883 50.4198 55.8797C50.5284 55.7801 50.6461 55.7077 50.7637 55.6715C50.99 55.6081 51.153 55.6896 51.2073 55.8073C51.2616 55.934 51.2344 56.0788 51.2073 56.2146C51.1801 56.3504 51.153 56.4862 51.0987 56.622L51.1077 56.631Z" fill="#F2F2F2"/>
</g>
<path d="M49.66 57.1014C49.6419 57.0109 49.6147 56.9204 49.6057 56.848C49.5966 56.7756 49.5785 56.7031 49.5695 56.6398C49.5695 56.5674 49.5514 56.495 49.5604 56.4044C49.5604 56.3139 49.5695 56.2143 49.5876 56.1148C49.6147 55.9156 49.6419 55.7074 49.6328 55.5355C49.6238 55.3635 49.5785 55.2186 49.479 55.1281C49.3794 55.0376 49.2798 55.0467 49.1802 55.1191C49.0716 55.1915 48.9539 55.3363 48.8363 55.5445C48.7186 55.7527 48.5919 56.0424 48.5647 56.3954C48.5466 56.5674 48.5647 56.7575 48.6009 56.9294C48.6371 57.1014 48.7005 57.2644 48.7729 57.4182C48.8453 57.5721 48.9358 57.7169 49.0264 57.8437C49.1169 57.9704 49.2164 58.0881 49.307 58.1876C49.4971 58.3868 49.669 58.5407 49.8139 58.6583C50.1126 58.8846 50.2846 58.9661 50.3841 58.8122C50.4747 58.6674 50.4656 58.4863 50.3027 58.2238C50.2212 58.0881 50.1126 57.9432 49.9859 57.7532C49.9225 57.6626 49.8591 57.5631 49.8048 57.4544C49.7505 57.3458 49.7052 57.2281 49.669 57.1105L49.66 57.1014Z" fill="#D1785E"/>
<path d="M54.5207 50.0139C55.2901 49.8329 56.0867 49.8057 56.8742 49.9053C57.6617 50.0048 58.4311 50.2492 59.1372 50.6204C59.8432 50.9915 59.5264 51.7066 58.8294 51.5346C58.1324 51.3626 57.4354 51.2268 56.7384 51.1363C56.0414 51.0458 55.3354 50.9915 54.6203 50.9824C53.9052 50.9643 53.7604 50.1949 54.5298 50.0139H54.5207Z" fill="#1A1A1A"/>
<path d="M45.0072 49.9507C44.2378 49.7877 43.4322 49.7696 42.6537 49.8873C41.8753 50.005 41.1059 50.2584 40.4089 50.6476C39.7119 51.0369 40.0378 51.7429 40.7348 51.5619C41.4318 51.3718 42.1197 51.227 42.8167 51.1183C43.5137 51.0097 44.2197 50.9464 44.9348 50.9192C45.6499 50.883 45.7766 50.1136 45.0072 49.9507Z" fill="#1A1A1A"/>
<path d="M44.274 55.8342V53.9967C44.2559 53.1096 43.5317 52.3945 42.6447 52.3945C41.7576 52.3945 41.0425 53.1277 41.0425 54.0058V55.8433C41.0606 56.7303 44.274 56.7122 44.2649 55.8252L44.274 55.8342Z" fill="#1A1A1A"/>
<path d="M55.3169 55.8342V53.9967C55.335 53.1096 56.0591 52.3945 56.9462 52.3945C57.8333 52.3945 58.5484 53.1277 58.5484 54.0058V55.8433C58.5303 56.7303 55.3169 56.7122 55.3259 55.8252L55.3169 55.8342Z" fill="#1A1A1A"/>
<path d="M46.347 62.8405C49.0897 63.9901 52.3574 63.4923 54.6746 61.6547C55.0367 61.3741 54.5298 60.8672 54.1768 61.1569C52.0496 62.8405 49.0354 63.2026 46.5371 62.1616C46.356 62.0892 46.1478 62.2431 46.1026 62.406C46.0483 62.6142 46.175 62.7681 46.347 62.8405Z" fill="#A33939"/>
<path d="M38.7983 73.6665L39.4048 75.9385C40.4548 78.9437 43.1341 83.8498 49.5156 83.8498C56.7118 83.8498 59.4545 77.604 60.3054 74.8976L60.6313 73.6665C73.8831 78.645 69.8189 120.148 69.8189 120.148L69.9003 154.617H49.6786H28.3706L28.9228 120.148C28.9228 120.148 25.5374 78.645 38.7892 73.6665H38.7983Z" fill="white"/>
<path d="M45.7949 82.7273L47.3609 85.7234H52.1131L53.6338 82.7273L49.7144 79.5229L45.7949 82.7273Z" fill="#96281B"/>
<path d="M49.7146 79.523L54.7293 84.8002L63.3014 74.5807L57.9518 71.9194L55.9422 73.7841L49.7236 79.532L49.7146 79.523Z" fill="#E6E7E8"/>
<path d="M41.4778 71.9194L49.7149 79.523L44.7002 84.8002L36.1372 74.5716L41.4778 71.9194Z" fill="#E6E7E8"/>
<path d="M47.3612 86.439L45.4241 148.815L49.7146 153.558L54.0142 148.815L52.1134 86.439H47.3612Z" fill="#96281B"/>
<path d="M15.8155 85.6785C17.119 78.0659 25.5462 78.0659 38.7981 73.0874C38.7981 73.0874 49.7146 117.278 49.7146 117.287L60.6311 73.0874C73.8829 78.0659 82.3102 78.0659 83.6136 85.6785C85.7136 97.9708 78.6985 103.348 78.6442 103.275C78.6442 103.275 78.0739 157.858 78.9338 171.01H51.7512L49.7146 161.506L47.6779 171.01H20.4953C21.3552 157.849 20.785 103.275 20.785 103.275C20.7307 103.348 13.7155 97.9708 15.8155 85.6785Z" fill="#32303A"/>
<path d="M66.5239 74.6078L66.2614 82.3924L62.3691 85.5877L65.4014 89.7244L49.8142 117.287L59.6716 71.0776L66.5239 74.6078Z" fill="#4F4C4D"/>
<path d="M32.905 74.6078L33.1675 82.3924L37.0598 85.5877L34.0365 89.7244L49.6147 117.287L39.7573 71.0776L32.905 74.6078Z" fill="#4F4C4D"/>
<path d="M31.14 75.6309C20.8209 78.8533 13.4075 79.7766 12.3031 86.2577C10.1941 98.5501 7.8044 112.49 6.44662 127.434C5.98498 146.914 7.75008 171.2 7.75008 171.2H18.4222C18.4855 171.1 18.6847 155.64 19.083 138.369C21.0382 125.787 21.9614 120.22 22.0157 120.157L33.4753 83.7322C33.3034 83.3611 32.0633 77.8757 31.1309 75.6399L31.14 75.6309Z" fill="#32303A"/>
<path d="M68.8686 75.9297C79.1877 79.1521 86.6011 80.0754 87.7054 86.5565C89.8054 98.8489 92.2042 112.789 93.5529 127.733C94.0145 147.213 92.2494 171.499 92.2494 171.499H81.5773C81.514 171.399 81.3148 155.939 80.9166 138.668C78.9614 126.086 78.0381 120.519 77.9838 120.456L66.5242 84.0311C66.6962 83.6599 67.9363 78.1745 68.8686 75.9387V75.9297Z" fill="#32303A"/>
<path d="M31.2214 42.4922C30.8322 40.4013 30.6602 38.2922 31.0041 36.2012C31.5382 32.9516 33.5839 29.7563 36.752 28.6973C35.0232 27.5567 34.8602 24.9408 35.9374 23.1757C37.0055 21.4196 38.9607 20.3696 40.8978 19.6183C47.4422 17.0928 55.2087 17.2015 61.1919 20.8403C67.148 24.461 70.4791 33.0331 69.1123 38.5275C67.7364 44.022 67.139 46.8914 63.3372 46.6742C59.97 46.4841 57.001 44.5108 54.4393 42.3474C51.8776 40.1931 48.0397 36.3099 45.0073 34.8616C42.6176 33.721 39.6577 33.3318 37.2589 34.2822C34.4619 40.3379 35.177 47.2807 34.8874 54.4406C34.0274 51.8337 32.7602 48.6565 32.0361 45.941C31.7283 44.8005 31.4477 43.6418 31.2304 42.4741L31.2214 42.4922Z" fill="#2C1E1C"/>
<path d="M64.9214 52.4042L64.2244 36.0385C64.2244 36.0385 66.6503 33.9838 68.1166 34.7984C70.0266 35.8485 66.0709 52.4766 64.9214 52.4042Z" fill="#2C1E1C"/>
</g>
</svg>
